0
SECTION
2
HEADER
9
$INSUNITS
70
4
9
$ACADVER
1
AC1014
9
$HANDSEED
5
FFFF
0
ENDSEC
0
SECTION
2
TABLES
0
TABLE
2
VPORT
5
8
100
AcDbSymbolTable
0
ENDTAB
0
TABLE
2
LTYPE
5
5
100
AcDbSymbolTable
0
LTYPE
5
14
100
AcDbSymbolTableRecord
100
AcDbLinetypeTableRecord
2
BYBLOCK
70
0
0
LTYPE
5
15
100
AcDbSymbolTableRecord
100
AcDbLinetypeTableRecord
2
BYLAYER
70
0
0
ENDTAB
0
TABLE
2
LAYER
5
2
100
AcDbSymbolTable
70
2
0
LAYER
5
50
100
AcDbSymbolTableRecord
100
AcDbLayerTableRecord
2
0
70
0
6
CONTINUOUS
0
ENDTAB
0
TABLE
2
STYLE
5
3
100
AcDbSymbolTable
70
1
0
STYLE
5
11
100
AcDbSymbolTableRecord
100
AcDbTextStyleTableRecord
2
STANDARD
70
0
0
ENDTAB
0
TABLE
2
VIEW
5
6
100
AcDbSymbolTable
70
0
0
ENDTAB
0
TABLE
2
UCS
5
7
100
AcDbSymbolTable
70
0
0
ENDTAB
0
TABLE
2
APPID
5
9
100
AcDbSymbolTable
70
2
0
APPID
5
12
100
AcDbSymbolTableRecord
100
AcDbRegAppTableRecord
2
ACAD
70
0
0
ENDTAB
0
TABLE
2
DIMSTYLE
5
A
100
AcDbSymbolTable
70
1
0
ENDTAB
0
TABLE
2
BLOCK_RECORD
5
1
100
AcDbSymbolTable
70
1
0
BLOCK_RECORD
5
1F
100
AcDbSymbolTableRecord
100
AcDbBlockTableRecord
2
*MODEL_SPACE
0
BLOCK_RECORD
5
1B
100
AcDbSymbolTableRecord
100
AcDbBlockTableRecord
2
*PAPER_SPACE
0
ENDTAB
0
ENDSEC
0
SECTION
2
BLOCKS
0
BLOCK
5
20
100
AcDbEntity
100
AcDbBlockBegin
2
*MODEL_SPACE
0
ENDBLK
5
21
100
AcDbEntity
100
AcDbBlockEnd
0
BLOCK
5
1C
100
AcDbEntity
100
AcDbBlockBegin
2
*PAPER_SPACE
0
ENDBLK
5
1D
100
AcDbEntity
100
AcDbBlockEnd
0
ENDSEC
0
SECTION
2
ENTITIES
0
CIRCLE
5
100
100
AcDbEntity
8
0
100
AcDbCircle
10
10
20
-33.384776310850235
30
0
40
0.99999999999999867
210
0
220
0
230
1
0
CIRCLE
5
101
100
AcDbEntity
8
0
100
AcDbCircle
10
-10
20
10
30
0
40
1.0000001639127842
210
0
220
0
230
1
0
CIRCLE
5
102
100
AcDbEntity
8
0
100
AcDbCircle
10
-10
20
-10
30
0
40
1.0000001639127842
210
0
220
0
230
1
0
CIRCLE
5
103
100
AcDbEntity
8
0
100
AcDbCircle
10
10
20
48.384776310850235
30
0
40
1.0000000000000009
210
0
220
0
230
1
0
CIRCLE
5
104
100
AcDbEntity
8
0
100
AcDbCircle
10
8.0000001192092913
20
8.0000001192092878
30
0
40
1.0000001639127842
210
0
220
0
230
1
0
CIRCLE
5
105
100
AcDbEntity
8
0
100
AcDbCircle
10
-8.0000001192092896
20
8.0000001192092896
30
0
40
1.0000001639127842
210
0
220
0
230
1
0
CIRCLE
5
106
100
AcDbEntity
8
0
100
AcDbCircle
10
8.0000001192092878
20
-8.0000001192092913
30
0
40
1.0000001639127842
210
0
220
0
230
1
0
CIRCLE
5
107
100
AcDbEntity
8
0
100
AcDbCircle
10
10
20
10
30
0
40
1.0000001639127842
210
0
220
0
230
1
0
CIRCLE
5
108
100
AcDbEntity
8
0
100
AcDbCircle
10
10
20
-10
30
0
40
1.0000001639127842
210
0
220
0
230
1
0
CIRCLE
5
109
100
AcDbEntity
8
0
100
AcDbCircle
10
-10
20
-33.384776310850242
30
0
40
1.0000000000000009
210
0
220
0
230
1
0
CIRCLE
5
110
100
AcDbEntity
8
0
100
AcDbCircle
10
-8.0000001192092913
20
-8.0000001192092878
30
0
40
1.0000001639127842
210
0
220
0
230
1
0
CIRCLE
5
111
100
AcDbEntity
8
0
100
AcDbCircle
10
-10
20
48.384776310850235
30
0
40
0.99999999999999978
210
0
220
0
230
1
0
ARC
5
112
100
AcDbEntity
8
0
100
AcDbCircle
10
-11.999999999999991
20
-7.196152393974165
30
0
40
3.0000000000000071
210
0
220
0
230
1
100
AcDbArc
50
120.0000019717059
51
180
0
LINE
5
113
100
AcDbEntity
8
0
100
AcDbLine
10
-14.999999999999998
20
-7.1961523939741561
30
0
11
-15
21
-12.715748741260722
31
0
0
ARC
5
114
100
AcDbEntity
8
0
100
AcDbCircle
10
-10.000000000000025
20
-12.715748741260725
30
0
40
4.9999999999999751
210
0
220
0
230
1
100
AcDbArc
50
180
51
221.40962210927094
0
ARC
5
115
100
AcDbEntity
8
0
100
AcDbCircle
10
-17.500000000000004
20
-19.330127018922191
30
0
40
5
210
0
220
-0
230
1
100
AcDbArc
50
0
51
41.409622109270813
0
LINE
5
116
100
AcDbEntity
8
0
100
AcDbLine
10
-12.500000000000004
20
-19.330127018922191
30
0
11
-12.5
21
-33.384776310850235
31
0
0
ARC
5
117
100
AcDbEntity
8
0
100
AcDbCircle
10
-10
20
-33.384776310850242
30
0
40
2.5
210
0
220
0
230
1
100
AcDbArc
50
-180
51
0
0
LINE
5
118
100
AcDbEntity
8
0
100
AcDbLine
10
-7.5
20
-33.384776310850242
30
0
11
-7.5000001713633484
21
-30.384776310850235
31
0
0
ARC
5
119
100
AcDbEntity
8
0
100
AcDbCircle
10
-2.5060557428050192
20
-30.630782498722056
30
0
40
4.9999999999999982
210
0
220
0
230
1
100
AcDbArc
50
123.14000899908923
51
177.17983813544095
0
LINE
5
120
100
AcDbEntity
8
0
100
AcDbLine
10
-5.2394897297696552
20
-26.444096620977394
30
0
11
-4.3734943791434091
21
-25.878699265389216
31
0
0
ARC
5
121
100
AcDbEntity
8
0
100
AcDbCircle
10
1.2490009027033011e-14
20
-32.577396669780711
30
0
40
8.0000000000000249
210
0
220
-0
230
1
100
AcDbArc
50
56.859991000910888
51
123.1400089990891
0
LINE
5
122
100
AcDbEntity
8
0
100
AcDbLine
10
4.3734943791434358
20
-25.878699265389219
30
0
11
5.2394897297696588
21
-26.444096620977369
31
0
0
ARC
5
123
100
AcDbEntity
8
0
100
AcDbCircle
10
2.5060557428050152
20
-30.630782498722034
30
0
40
5
210
0
220
-0
230
1
100
AcDbArc
50
2.8201618645589286
51
56.859991000910739
0
LINE
5
124
100
AcDbEntity
8
0
100
AcDbLine
10
7.5000001713633457
20
-30.384776310850235
30
0
11
7.5
21
-33.384776310850235
31
0
0
ARC
5
125
100
AcDbEntity
8
0
100
AcDbCircle
10
10
20
-33.384776310850235
30
0
40
2.5
210
0
220
0
230
1
100
AcDbArc
50
180
51
360
0
LINE
5
126
100
AcDbEntity
8
0
100
AcDbLine
10
12.5
20
-33.384776310850242
30
0
11
12.500000000000004
21
-19.330127018922198
31
0
0
ARC
5
127
100
AcDbEntity
8
0
100
AcDbCircle
10
17.500000000000004
20
-19.330127018922202
30
0
40
5.0000000000000018
210
0
220
0
230
1
100
AcDbArc
50
138.59037789072914
51
180
0
ARC
5
128
100
AcDbEntity
8
0
100
AcDbCircle
10
9.9999999999999982
20
-12.715748741260725
30
0
40
5.0000000000000009
210
0
220
0
230
1
100
AcDbArc
50
318.5903778907292
51
360
0
LINE
5
129
100
AcDbEntity
8
0
100
AcDbLine
10
15
20
-12.715748741260731
30
0
11
15
21
-7.1961523939741534
31
0
0
ARC
5
130
100
AcDbEntity
8
0
100
AcDbCircle
10
12.000000000000002
20
-7.1961523939741543
30
0
40
2.9999999999999982
210
0
220
-0
230
1
100
AcDbArc
50
0
51
59.999998028294073
0
ARC
5
131
100
AcDbEntity
8
0
100
AcDbCircle
10
15.00000017881395
20
-2.0000000745058055
30
0
40
3.0000000000000004
210
0
220
0
230
1
100
AcDbArc
50
180
51
239.99999802829404
0
LINE
5
132
100
AcDbEntity
8
0
100
AcDbLine
10
12.00000017881395
20
-2.0000000745058069
30
0
11
12.000000178813949
21
2.0000000745058037
31
0
0
ARC
5
133
100
AcDbEntity
8
0
100
AcDbCircle
10
15.00000017881395
20
2.0000000745058055
30
0
40
3.0000000000000018
210
0
220
0
230
1
100
AcDbArc
50
120.00000197170594
51
180
0
ARC
5
134
100
AcDbEntity
8
0
100
AcDbCircle
10
12.000000000000004
20
7.1961523939741499
30
0
40
2.9999999999999956
210
0
220
0
230
1
100
AcDbArc
50
-59.999998028294037
51
0
0
LINE
5
135
100
AcDbEntity
8
0
100
AcDbLine
10
15
20
7.1961523939741499
30
0
11
15
21
14.701529640783338
31
0
0
ARC
5
136
100
AcDbEntity
8
0
100
AcDbCircle
10
5.0000000000038298
20
14.701529640783468
30
0
40
9.9999999999961702
210
0
220
0
230
1
100
AcDbArc
50
0
51
3.4192032923121762
0
LINE
5
137
100
AcDbEntity
8
0
100
AcDbLine
10
14.982198946922793
20
15.297939050546036
30
0
11
12.99465968407684
21
48.563699133779053
31
0
0
ARC
5
138
100
AcDbEntity
8
0
100
AcDbCircle
10
10
20
48.384776310850235
30
0
40
3.0000000000000022
210
0
220
-0
230
1
100
AcDbArc
50
3.4192032923117499
51
215.6590898014237
0
ARC
5
139
100
AcDbEntity
8
0
100
AcDbCircle
10
3.5000001713633502
20
43.721086545468808
30
0
40
5
210
0
220
-0
230
1
100
AcDbArc
50
0
51
35.659089801424059
0
LINE
5
140
100
AcDbEntity
8
0
100
AcDbLine
10
8.5000001713633502
20
43.721086545468808
30
0
11
8.5000001713633484
21
35.765332985282001
31
0
0
SPLINE
5
141
100
AcDbEntity
8
0
100
AcDbSpline
70
4
71
5
72
21
73
15
74
0
42
0.000000001
43
0.0000000001
44
0.0000000001
40
-1
40
-1
40
-1
40
-1
40
-1
40
-1
40
-0.89999999999999991
40
-0.79999999999999993
40
-0.69999999999999996
40
-0.59999999999999998
40
-0.5
40
-0.40000000000000002
40
-0.30000000000000004
40
-0.20000000000000001
40
-0.10000000000000001
40
0
40
0
40
0
40
0
40
0
40
0
41
1
41
1
41
1
41
1
41
1
41
1
41
1
41
1
41
1
41
1
41
1
41
1
41
1
41
1
41
1
10
8.5000001713633484
20
35.765332985282001
30
0
10
8.5035706214714537
20
35.191032874795745
30
0
10
8.4227779801082843
20
34.164114128464782
30
0
10
8.0378050382804052
20
32.988750763460054
30
0
10
7.0241475314474302
20
32.086149352284458
30
0
10
5.0777952464888996
20
31.723586635120288
30
0
10
2.6582566348593191
20
31.734040960126549
30
0
10
-0.0010144159598378302
20
31.789233854303657
30
0
10
-2.6561288672203882
20
31.738842008180612
30
0
10
-5.0661657517518064
20
31.731972886135097
30
0
10
-7.0040773958077649
20
32.095750078724407
30
0
10
-8.017893371991299
20
32.996614716681265
30
0
10
-8.4098086204830409
20
34.16881034932306
30
0
10
-8.4986734495897558
20
35.192743859914778
30
0
10
-8.5000001713633502
20
35.765332985282001
30
0
0
LINE
5
142
100
AcDbEntity
8
0
100
AcDbLine
10
-8.5000001713633502
20
35.765332985282001
30
0
11
-8.5000001713633502
21
43.721086545468808
31
0
0
ARC
5
143
100
AcDbEntity
8
0
100
AcDbCircle
10
-3.5000001713633502
20
43.721086545468808
30
0
40
4.9999999999999982
210
0
220
0
230
1
100
AcDbArc
50
144.34091019857604
51
180
0
ARC
5
144
100
AcDbEntity
8
0
100
AcDbCircle
10
-10
20
48.384776310850235
30
0
40
3.0000000000000004
210
-0
220
0
230
1
100
AcDbArc
50
-35.659089801423811
51
176.58079670768825
0
LINE
5
145
100
AcDbEntity
8
0
100
AcDbLine
10
-12.994659684076836
20
48.563699133779053
30
0
11
-14.982198946922793
21
15.297939050546026
31
0
0
ARC
5
146
100
AcDbEntity
8
0
100
AcDbCircle
10
-4.9999999999991749
20
14.70152964078328
30
0
40
10.000000000000826
210
0
220
0
230
1
100
AcDbArc
50
176.58079670768845
51
180
0
LINE
5
147
100
AcDbEntity
8
0
100
AcDbLine
10
-15
20
14.701529640783345
30
0
11
-15
21
7.1961523939741596
31
0
0
ARC
5
148
100
AcDbEntity
8
0
100
AcDbCircle
10
-11.999999999999991
20
7.196152393974165
30
0
40
3.0000000000000093
210
0
220
0
230
1
100
AcDbArc
50
180
51
239.9999980282941
0
ARC
5
149
100
AcDbEntity
8
0
100
AcDbCircle
10
-15.000000178813933
20
2.0000000745058055
30
0
40
3.0000000000000004
210
0
220
0
230
1
100
AcDbArc
50
0
51
59.9999980282942
0
LINE
5
150
100
AcDbEntity
8
0
100
AcDbLine
10
-12.000000178813933
20
2.0000000745058051
30
0
11
-12.000000178813934
21
-2.0000000745058055
31
0
0
ARC
5
151
100
AcDbEntity
8
0
100
AcDbCircle
10
-15.000000178813934
20
-2.0000000745058055
30
0
40
3.0000000000000018
210
-0
220
0
230
1
100
AcDbArc
50
-59.999998028294186
51
0
0
LWPOLYLINE
5
152
100
AcDbEntity
8
0
100
AcDbPolyline
90
8
70
1
43
0.0
10
-2.5421719810578036
20
16.5
10
-2.5421719810578036
20
23.5
42
0.41421356237309509
10
-4.0421719810578036
20
25
10
-8.5
20
25
42
0.41421356237309509
10
-10
20
23.5
10
-10
20
16.5
42
0.41421356237309509
10
-8.5
20
15
10
-4.0421719810578036
20
15.000000000000002
42
0.41421356237309509
0
CIRCLE
5
153
100
AcDbEntity
8
0
100
AcDbCircle
10
0
20
0
30
0
40
7.5
210
0
220
0
230
1
0
LWPOLYLINE
5
154
100
AcDbEntity
8
0
100
AcDbPolyline
90
8
70
1
43
0.0
10
5.000000074505806
20
-19.500000312924385
10
5.000000074505806
20
-13.500000178813934
42
0.41421356237309509
10
3.500000074505806
20
-12.000000178813934
10
-3.500000074505806
20
-12.000000178813934
42
0.41421356237309509
10
-5.000000074505806
20
-13.500000178813934
10
-5.000000074505806
20
-19.500000312924385
42
0.41421356237309509
10
-3.500000074505806
20
-21.000000312924385
10
3.500000074505806
20
-21.000000312924385
42
0.41421356237309509
0
LWPOLYLINE
5
155
100
AcDbEntity
8
0
100
AcDbPolyline
90
8
70
1
43
0.0
10
10
20
16.5
10
10
20
23.5
42
0.41421356237309509
10
8.5
20
25
10
4.0421719810578125
20
25
42
0.41421356237309509
10
2.5421719810578125
20
23.5
10
2.5421719810578161
20
16.5
42
0.41421356237309509
10
4.0421719810578161
20
15
10
8.5
20
15
42
0.41421356237309509
0
ENDSEC
0
SECTION
2
OBJECTS
0
DICTIONARY
5
C
100
AcDbDictionary
3
ACAD_GROUP
350
D
3
ACAD_MLINESTYLE
350
17
0
DICTIONARY
5
D
100
AcDbDictionary
0
DICTIONARY
5
1A
330
C
100
AcDbDictionary
0
DICTIONARY
5
17
100
AcDbDictionary
0
ENDSEC
0
EOF
