0
SECTION
2
HEADER
9
$INSUNITS
70
4
9
$ACADVER
1
AC1014
9
$HANDSEED
5
FFFF
0
ENDSEC
0
SECTION
2
TABLES
0
TABLE
2
VPORT
5
8
100
AcDbSymbolTable
0
ENDTAB
0
TABLE
2
LTYPE
5
5
100
AcDbSymbolTable
0
LTYPE
5
14
100
AcDbSymbolTableRecord
100
AcDbLinetypeTableRecord
2
BYBLOCK
70
0
0
LTYPE
5
15
100
AcDbSymbolTableRecord
100
AcDbLinetypeTableRecord
2
BYLAYER
70
0
0
ENDTAB
0
TABLE
2
LAYER
5
2
100
AcDbSymbolTable
70
2
0
LAYER
5
50
100
AcDbSymbolTableRecord
100
AcDbLayerTableRecord
2
0
70
0
6
CONTINUOUS
0
ENDTAB
0
TABLE
2
STYLE
5
3
100
AcDbSymbolTable
70
1
0
STYLE
5
11
100
AcDbSymbolTableRecord
100
AcDbTextStyleTableRecord
2
STANDARD
70
0
0
ENDTAB
0
TABLE
2
VIEW
5
6
100
AcDbSymbolTable
70
0
0
ENDTAB
0
TABLE
2
UCS
5
7
100
AcDbSymbolTable
70
0
0
ENDTAB
0
TABLE
2
APPID
5
9
100
AcDbSymbolTable
70
2
0
APPID
5
12
100
AcDbSymbolTableRecord
100
AcDbRegAppTableRecord
2
ACAD
70
0
0
ENDTAB
0
TABLE
2
DIMSTYLE
5
A
100
AcDbSymbolTable
70
1
0
ENDTAB
0
TABLE
2
BLOCK_RECORD
5
1
100
AcDbSymbolTable
70
1
0
BLOCK_RECORD
5
1F
100
AcDbSymbolTableRecord
100
AcDbBlockTableRecord
2
*MODEL_SPACE
0
BLOCK_RECORD
5
1B
100
AcDbSymbolTableRecord
100
AcDbBlockTableRecord
2
*PAPER_SPACE
0
ENDTAB
0
ENDSEC
0
SECTION
2
BLOCKS
0
BLOCK
5
20
100
AcDbEntity
100
AcDbBlockBegin
2
*MODEL_SPACE
0
ENDBLK
5
21
100
AcDbEntity
100
AcDbBlockEnd
0
BLOCK
5
1C
100
AcDbEntity
100
AcDbBlockBegin
2
*PAPER_SPACE
0
ENDBLK
5
1D
100
AcDbEntity
100
AcDbBlockEnd
0
ENDSEC
0
SECTION
2
ENTITIES
0
LINE
5
100
100
AcDbEntity
8
0
100
AcDbLine
10
36.819050019857102
20
29.423156599785862
30
0
11
18.546843367908366
21
21.199261665114491
31
0
0
ARC
5
101
100
AcDbEntity
8
0
100
AcDbCircle
10
16.494729068684524
20
25.758738269169065
30
0
40
5
210
0
220
0
230
1
100
AcDbArc
50
180
51
294.23140096204952
0
LINE
5
102
100
AcDbEntity
8
0
100
AcDbLine
10
11.494729068684524
20
25.758738269169065
30
0
11
11.494729068684526
21
42.830487885473225
31
0
0
ARC
5
103
100
AcDbEntity
8
0
100
AcDbCircle
10
19.494729068684528
20
42.830487885473225
30
0
40
8
210
0
220
0
230
1
100
AcDbArc
50
149.67294171570637
51
180
0
ARC
5
104
100
AcDbEntity
8
0
100
AcDbCircle
10
10.000000000000002
20
48.384776310850235
30
0
40
2.9999999999999978
210
-0
220
0
230
1
100
AcDbArc
50
-30.327058284293514
51
71.00426760082631
0
LINE
5
105
100
AcDbEntity
8
0
100
AcDbLine
10
10.976493183537494
20
51.22140477832793
30
0
11
2.6039818227666589
21
54.103594098014469
31
0
0
ARC
5
106
100
AcDbEntity
8
0
100
AcDbCircle
10
1.1379786002407855e-14
20
46.539251518073989
30
0
40
7.9999999999999813
210
0
220
-0
230
1
100
AcDbArc
50
71.004267600826211
51
108.99573239917397
0
LINE
5
107
100
AcDbEntity
8
0
100
AcDbLine
10
-2.6039818227666593
20
54.103594098014455
30
0
11
-10.976493183537499
21
51.221404778327923
31
0
0
ARC
5
108
100
AcDbEntity
8
0
100
AcDbCircle
10
-10
20
48.384776310850235
30
0
40
2.9999999999999987
210
0
220
0
230
1
100
AcDbArc
50
108.99573239917385
51
210.32705828429374
0
ARC
5
109
100
AcDbEntity
8
0
100
AcDbCircle
10
-19.494729068684524
20
42.830487885473218
30
0
40
8
210
0
220
-0
230
1
100
AcDbArc
50
0
51
30.327058284293599
0
LINE
5
110
100
AcDbEntity
8
0
100
AcDbLine
10
-11.494729068684524
20
42.830487885473218
30
0
11
-11.494729068684521
21
25.758738269169072
31
0
0
ARC
5
111
100
AcDbEntity
8
0
100
AcDbCircle
10
-16.494729068684524
20
25.758738269169072
30
0
40
5.0000000000000018
210
0
220
0
230
1
100
AcDbArc
50
-114.23140096204949
51
0
0
LINE
5
112
100
AcDbEntity
8
0
100
AcDbLine
10
-18.54684336790837
20
21.199261665114495
30
0
11
-36.819050019857102
21
29.423156599785862
31
0
0
ARC
5
113
100
AcDbEntity
8
0
100
AcDbCircle
10
-33.535667141098948
20
36.718319166273183
30
0
40
8
210
0
220
0
230
1
100
AcDbArc
50
185.41507461689613
51
245.76859903795045
0
ARC
5
114
100
AcDbEntity
8
0
100
AcDbCircle
10
-43.988807427029883
20
35.72743160320271
30
0
40
2.4999999999999991
210
0
220
-0
230
1
100
AcDbArc
50
5.4150746168960815
51
104.40279795506942
0
ARC
5
115
100
AcDbEntity
8
0
100
AcDbCircle
10
-46.103073509742671
20
43.96028523554007
30
0
40
6.0000000000000053
210
0
220
0
230
1
100
AcDbArc
50
207.19721096209861
51
284.4027979550695
0
ARC
5
116
100
AcDbEntity
8
0
100
AcDbCircle
10
-53.663301803560813
20
40.075320866932323
30
0
40
2.5000000000000049
210
0
220
-0
230
1
100
AcDbArc
50
27.197210962098623
51
110.80000000000005
0
ARC
5
117
100
AcDbEntity
8
0
100
AcDbCircle
10
-50.999999999999986
20
33.06412938514169
30
0
40
9.9999988327455007
210
0
220
0
230
1
100
AcDbArc
50
110.80000000000001
51
120.05060139705728
0
ARC
5
118
100
AcDbEntity
8
0
100
AcDbCircle
10
-55.006116573525716
20
39.988796259674501
30
0
40
2
210
0
220
0
230
1
100
AcDbArc
50
120.05060139705706
51
191.54939258484916
0
ARC
5
119
100
AcDbEntity
8
0
100
AcDbCircle
10
-62.844136355600128
20
38.387095321356036
30
0
40
6.0000000000000018
210
0
220
0
230
1
100
AcDbArc
50
-59.949392584849171
51
11.549392584849182
0
ARC
5
120
100
AcDbEntity
8
0
100
AcDbCircle
10
-58.838018470218366
20
31.462427857251754
30
0
40
1.9999999999999993
210
0
220
0
230
1
100
AcDbArc
50
120.05060741515085
51
191.54939860294243
0
ARC
5
121
100
AcDbEntity
8
0
100
AcDbCircle
10
-50.999999999999986
20
33.06412938514169
30
0
40
9.9999988327455114
210
0
220
0
230
1
100
AcDbArc
50
191.54939860294257
51
200.79999999999995
0
ARC
5
122
100
AcDbEntity
8
0
100
AcDbCircle
10
-58.011191481790625
20
30.400827581580863
30
0
40
2.499999999999996
210
0
220
0
230
1
100
AcDbArc
50
200.7999999999999
51
284.40278903790141
0
ARC
5
123
100
AcDbEntity
8
0
100
AcDbCircle
10
-55.896926680389342
20
22.167973620192043
30
0
40
6.0000000000000053
210
0
220
-0
230
1
100
AcDbArc
50
27.197202044930389
51
104.40278903790133
0
ARC
5
124
100
AcDbEntity
8
0
100
AcDbCircle
10
-48.336697781938966
20
26.052936812171581
30
0
40
2.4999999999999929
210
0
220
0
230
1
100
AcDbArc
50
207.19720204493035
51
302.74306320832278
0
ARC
5
125
100
AcDbEntity
8
0
100
AcDbCircle
10
-42.657535031145493
20
17.221339535913991
30
0
40
8.0000000000000213
210
0
220
-0
230
1
100
AcDbArc
50
63.692554942250744
51
122.7430632083227
0
LINE
5
126
100
AcDbEntity
8
0
100
AcDbLine
10
-39.112033613377321
20
24.392770334339382
30
0
11
-17.454498775946906
21
13.685448095612136
31
0
0
ARC
5
127
100
AcDbEntity
8
0
100
AcDbCircle
10
-21.000000193715096
20
6.5140172971867756
30
0
40
7.9999999999999982
210
-0
220
0
230
1
100
AcDbArc
50
0
51
63.692554942250524
0
LINE
5
128
100
AcDbEntity
8
0
100
AcDbLine
10
-13.000000193715096
20
6.5140172971867747
30
0
11
-13.000000193715096
21
4.0522398337387155
31
0
0
SPLINE
5
129
100
AcDbEntity
8
0
100
AcDbSpline
70
0
71
3
72
12
73
8
74
0
42
0.000000001
43
0.0000000001
44
0.0000000001
40
0.20196870482682083
40
0.20196870482682083
40
0.20196870482682083
40
0.20196870482682083
40
0.23438668403215646
40
0.23438668403215646
40
0.34462534182686938
40
0.34462534182686938
40
0.45486399962158236
40
0.45486399962158236
40
0.45486399962158236
40
0.45486399962158236
10
-13.999197551464352
20
1.8168900206753433
30
0
10
-13.918983741196438
20
1.8886872859584456
30
0
10
-13.842542130483311
20
1.9648846521714549
30
0
10
-13.52441155607983
20
2.318316721187986
30
0
10
-13.33083357246757
20
2.6342913117378233
30
0
10
-13.067514425228318
20
3.3204231349343294
30
0
10
-13.000000193715096
20
3.684777641089672
30
0
10
-13.000000193715096
20
4.0522398337387155
30
0
0
SPLINE
5
130
100
AcDbEntity
8
0
100
AcDbSpline
70
0
71
3
72
14
73
10
74
0
42
0.000000001
43
0.0000000001
44
0.0000000001
40
0
40
0
40
0
40
0
40
0.078128894677385499
40
0.078128894677385499
40
0.15625778935477119
40
0.15625778935477119
40
0.22608360691604382
40
0.22608360691604382
40
0.29590942447731661
40
0.29590942447731661
40
0.29590942447731661
40
0.29590942447731661
10
-16.689381682395389
20
1.8372906829912539
30
0
10
-16.497987695377834
20
1.6606782718403825
30
0
10
-16.273927208020137
20
1.523137873235263
30
0
10
-15.785696618568082
20
1.3416845743418579
30
0
10
-15.526194267015116
20
1.2995064664906826
30
0
10
-15.033289986114141
20
1.3160661772632809
30
0
10
-14.803808304685624
20
1.3644291864117488
30
0
10
-14.371827444427955
20
1.5378877138211886
30
0
10
-14.172625471722784
20
1.6616592648154407
30
0
10
-13.999197551464352
20
1.8168900206753438
30
0
0
ARC
5
131
100
AcDbEntity
8
0
100
AcDbCircle
10
-18.384776310850231
20
-4.163336342344337e-16
30
0
40
2.5000000000000004
210
0
220
-0
230
1
100
AcDbArc
50
47.30014177356432
51
312.69985949436722
0
SPLINE
5
132
100
AcDbEntity
8
0
100
AcDbSpline
70
0
71
3
72
14
73
10
74
0
42
0.000000001
43
0.0000000001
44
0.0000000001
40
0
40
0
40
0
40
0
40
0.078128894677385416
40
0.078128894677385416
40
0.15625778935477119
40
0.15625778935477119
40
0.22608361904179997
40
0.22608361904179997
40
0.29590944872882885
40
0.29590944872882885
40
0.29590944872882885
40
0.29590944872882885
10
-13.999197331908615
20
-1.8168900841546531
30
0
10
-14.193247770528796
20
-1.643200621865442
30
0
10
-14.419368395454521
20
-1.5090740912064278
30
0
10
-14.910294714040969
20
-1.335046053594211
30
0
10
-15.170406884520487
20
-1.2968083495331904
30
0
10
-15.663003377629339
20
-1.3208414308234182
30
0
10
-15.891725243557319
20
-1.3726791603448139
30
0
10
-16.321025854596463
20
-1.5526691183503574
30
0
10
-16.51832785014177
20
-1.6794475262491451
30
0
10
-16.689381641736919
20
-1.8372906454728821
30
0
0
SPLINE
5
133
100
AcDbEntity
8
0
100
AcDbSpline
70
0
71
3
72
12
73
8
74
0
42
0.000000001
43
0.0000000001
44
0.0000000001
40
0
40
0
40
0
40
0
40
0.11719334201607837
40
0.11719334201607837
40
0.23438668403215657
40
0.23438668403215657
40
0.25297191616586773
40
0.25297191616586773
40
0.25297191616586773
40
0.25297191616586773
10
-13.000000193715096
20
-4.0522397006994568
30
0
10
-13.000000193715096
20
-3.661595227312529
30
0
10
-13.076301746008971
20
-3.2746855280088689
30
0
10
-13.372918384018655
20
-2.5518916511623422
30
0
10
-13.590397653006534
20
-2.2229177770352289
30
0
10
-13.908324056464814
20
-1.9007916220255723
30
0
10
-13.953145204481148
20
-1.8581101365648787
30
0
10
-13.999197331908615
20
-1.8168900841546538
30
0
0
LINE
5
134
100
AcDbEntity
8
0
100
AcDbLine
10
-13.000000193715096
20
-4.0522397006994568
30
0
11
-13.000000193715096
21
-7.2232366528054737
31
0
0
ARC
5
135
100
AcDbEntity
8
0
100
AcDbCircle
10
-21.000000193715099
20
-7.2232366528054737
30
0
40
8.0000000000000036
210
-0
220
0
230
1
100
AcDbArc
50
-53.150441372649347
51
0
0
LINE
5
136
100
AcDbEntity
8
0
100
AcDbLine
10
-16.202272386269868
20
-13.624940167157483
30
0
11
-49.952934965547833
21
-38.919221917832012
31
0
0
ARC
5
137
100
AcDbEntity
8
0
100
AcDbCircle
10
-54.75066277299306
20
-32.517518403480004
30
0
40
8.0000000000000053
210
0
220
0
230
1
100
AcDbArc
50
246.54310254605824
51
306.84955862735063
0
ARC
5
138
100
AcDbEntity
8
0
100
AcDbCircle
10
-58.930282997208622
20
-42.149796160133839
30
0
40
2.4999999999999916
210
0
220
-0
230
1
100
AcDbArc
50
66.543102546057895
51
165.40279795506933
0
ARC
5
139
100
AcDbEntity
8
0
100
AcDbCircle
10
-67.155915566704735
20
-40.007608299173675
30
0
40
6.0000000000000062
210
0
220
0
230
1
100
AcDbArc
50
268.19721096209844
51
345.40279795506927
0
ARC
5
140
100
AcDbEntity
8
0
100
AcDbCircle
10
-67.42332057648764
20
-48.503401055635166
30
0
40
2.5000000000000231
210
0
220
-0
230
1
100
AcDbArc
50
88.197210962098765
51
171.79999999999922
0
ARC
5
141
100
AcDbEntity
8
0
100
AcDbCircle
10
-59.99999999999762
20
-49.573117891942402
30
0
40
9.999998832747881
210
0
220
0
230
1
100
AcDbArc
50
171.80000000000081
51
181.05060139705577
0
ARC
5
142
100
AcDbEntity
8
0
100
AcDbCircle
10
-67.998653968515328
20
-49.719801278470925
30
0
40
2.0000000000000036
210
0
220
0
230
1
100
AcDbArc
50
181.05060139705714
51
252.54939258484879
0
ARC
5
143
100
AcDbEntity
8
0
100
AcDbCircle
10
-70.397722156949143
20
-57.351607868476002
30
0
40
6.0000000000000009
210
0
220
-0
230
1
100
AcDbArc
50
1.0506074151503557
51
72.549392584849002
0
ARC
5
144
100
AcDbEntity
8
0
100
AcDbCircle
10
-62.399067036782569
20
-57.204923620402106
30
0
40
2.0000000000000031
210
0
220
0
230
1
100
AcDbArc
50
181.05060741515069
51
252.54939860294252
0
ARC
5
145
100
AcDbEntity
8
0
100
AcDbCircle
10
-59.99999999999762
20
-49.573117891942402
30
0
40
9.9999988327460674
210
0
220
0
230
1
100
AcDbArc
50
252.5493986029291
51
261.79999999998608
0
ARC
5
146
100
AcDbEntity
8
0
100
AcDbCircle
10
-61.069716836307101
20
-56.996438468429922
30
0
40
2.4999999999999871
210
0
220
0
230
1
100
AcDbArc
50
261.79999999999961
51
345.40278903790153
0
ARC
5
147
100
AcDbEntity
8
0
100
AcDbCircle
10
-52.844084600208241
20
-59.138627609577711
30
0
40
6.0000000000000311
210
0
220
-0
230
1
100
AcDbArc
50
88.197202044930265
51
165.40278903790087
0
ARC
5
148
100
AcDbEntity
8
0
100
AcDbCircle
10
-52.576678268191579
20
-50.642834894733625
30
0
40
2.499999999999996
210
0
220
0
230
1
100
AcDbArc
50
-91.80279795506992
51
5.3668991594601128
0
ARC
5
149
100
AcDbEntity
8
0
100
AcDbCircle
10
-42.12270851900476
20
-49.660736893979092
30
0
40
7.9999999999999725
210
0
220
0
230
1
100
AcDbArc
50
125.06960723549858
51
185.36689915946044
0
LINE
5
150
100
AcDbEntity
8
0
100
AcDbLine
10
-46.719277963257333
20
-43.113099965730619
30
0
11
-19.367584971342382
21
-23.911675446786504
31
0
0
ARC
5
151
100
AcDbEntity
8
0
100
AcDbCircle
10
-16.494729068684507
20
-28.003948526941809
30
0
40
5
210
0
220
-0
230
1
100
AcDbArc
50
0
51
125.06960723549868
0
LINE
5
152
100
AcDbEntity
8
0
100
AcDbLine
10
-11.494729068684507
20
-28.003948526941809
30
0
11
-11.494729068684503
21
-28.713749194210418
31
0
0
ARC
5
153
100
AcDbEntity
8
0
100
AcDbCircle
10
-16.494729068684507
20
-28.713749194210418
30
0
40
5.0000000000000009
210
-0
220
0
230
1
100
AcDbArc
50
-35.723792838871702
51
0
0
ARC
5
154
100
AcDbEntity
8
0
100
AcDbCircle
10
-10
20
-33.384776310850235
30
0
40
3
210
0
220
0
230
1
100
AcDbArc
50
144.27620716112835
51
300.27264131890951
0
ARC
5
155
100
AcDbEntity
8
0
100
AcDbCircle
10
-4.4547317467952965
20
-42.884776310850235
30
0
40
7.9999999999999982
210
0
220
-0
230
1
100
AcDbArc
50
89.999999999999986
51
120.27264131890949
0
LINE
5
156
100
AcDbEntity
8
0
100
AcDbLine
10
-4.4547317467952947
20
-34.884776310850242
30
0
11
4.4547317467952796
21
-34.884776310850242
31
0
0
ARC
5
157
100
AcDbEntity
8
0
100
AcDbCircle
10
4.4547317467952796
20
-42.884776310850235
30
0
40
7.9999999999999991
210
0
220
-0
230
1
100
AcDbArc
50
59.727358681090401
51
90
0
ARC
5
158
100
AcDbEntity
8
0
100
AcDbCircle
10
10.000000000000002
20
-33.384776310850242
30
0
40
3.0000000000000049
210
0
220
0
230
1
100
AcDbArc
50
-120.27264131890963
51
35.723792838871795
0
ARC
5
159
100
AcDbEntity
8
0
100
AcDbCircle
10
16.494729068684503
20
-28.713749194210418
30
0
40
5
210
0
220
0
230
1
100
AcDbArc
50
180
51
215.72379283887173
0
LINE
5
160
100
AcDbEntity
8
0
100
AcDbLine
10
11.494729068684503
20
-28.713749194210418
30
0
11
11.494729068684503
21
-28.003948526941826
31
0
0
ARC
5
161
100
AcDbEntity
8
0
100
AcDbCircle
10
16.494729068684507
20
-28.003948526941826
30
0
40
5
210
0
220
-0
230
1
100
AcDbArc
50
54.930392764501264
51
180
0
LINE
5
162
100
AcDbEntity
8
0
100
AcDbLine
10
19.367584971342389
20
-23.911675446786521
30
0
11
46.719277963257326
21
-43.113099965730619
31
0
0
ARC
5
163
100
AcDbEntity
8
0
100
AcDbCircle
10
42.122708519004718
20
-49.660736893979106
30
0
40
8.0000000000000018
210
-0
220
0
230
1
100
AcDbArc
50
-5.3668991594603401
51
54.930392764501271
0
ARC
5
164
100
AcDbEntity
8
0
100
AcDbCircle
10
52.576678268191586
20
-50.642834894733625
30
0
40
2.5000000000000027
210
0
220
0
230
1
100
AcDbArc
50
174.6331008405399
51
271.80279795506971
0
ARC
5
165
100
AcDbEntity
8
0
100
AcDbCircle
10
52.844084600208262
20
-59.138627609577689
30
0
40
6.0000000000000036
210
0
220
-0
230
1
100
AcDbArc
50
14.597210962098966
51
91.802797955069948
0
ARC
5
166
100
AcDbEntity
8
0
100
AcDbCircle
10
61.069716836307109
20
-56.996438468429901
30
0
40
2.4999999999999996
210
0
220
0
230
1
100
AcDbArc
50
194.59721096209896
51
278.20000000000022
0
ARC
5
167
100
AcDbEntity
8
0
100
AcDbCircle
10
60
20
-49.573117891942253
30
0
40
9.9999988327454936
210
-0
220
0
230
1
100
AcDbArc
50
278.20000000000022
51
287.4506013970576
0
ARC
5
168
100
AcDbEntity
8
0
100
AcDbCircle
10
62.399067036782569
20
-57.204923620402113
30
0
40
2.0000000000000036
210
-0
220
0
230
1
100
AcDbArc
50
287.45060139705743
51
358.94939258484999
0
ARC
5
169
100
AcDbEntity
8
0
100
AcDbCircle
10
70.397722156949158
20
-57.351607868476009
30
0
40
6.0000000000000142
210
0
220
0
230
1
100
AcDbArc
50
107.45060741515113
51
178.94939258484931
0
ARC
5
170
100
AcDbEntity
8
0
100
AcDbCircle
10
67.998653968515328
20
-49.719801278470925
30
0
40
2.0000000000000022
210
-0
220
0
230
1
100
AcDbArc
50
287.45060741515118
51
358.94939860294357
0
ARC
5
171
100
AcDbEntity
8
0
100
AcDbCircle
10
60
20
-49.573117891942253
30
0
40
9.9999988327455114
210
-0
220
0
230
1
100
AcDbArc
50
-1.0506013970568289
51
8.2000000000002995
0
ARC
5
172
100
AcDbEntity
8
0
100
AcDbCircle
10
67.423320576487654
20
-48.503401055635145
30
0
40
2.5000000000000124
210
0
220
-0
230
1
100
AcDbArc
50
8.2000000000003439
51
91.802789037901576
0
ARC
5
173
100
AcDbEntity
8
0
100
AcDbCircle
10
67.155915566704721
20
-40.007608299173683
30
0
40
6.0000000000000036
210
0
220
0
230
1
100
AcDbArc
50
194.59720204493078
51
271.80278903790173
0
ARC
5
174
100
AcDbEntity
8
0
100
AcDbCircle
10
58.930282997208622
20
-42.149796160133839
30
0
40
2.4999999999999987
210
0
220
-0
230
1
100
AcDbArc
50
14.597202044930517
51
113.45689745394199
0
ARC
5
175
100
AcDbEntity
8
0
100
AcDbCircle
10
54.750662772993067
20
-32.517518403479983
30
0
40
8.0000000000000302
210
0
220
0
230
1
100
AcDbArc
50
233.15044137264945
51
293.45689745394174
0
LINE
5
176
100
AcDbEntity
8
0
100
AcDbLine
10
49.952934965547833
20
-38.919221917832019
30
0
11
16.202272386269865
21
-13.624940167157483
31
0
0
ARC
5
177
100
AcDbEntity
8
0
100
AcDbCircle
10
21.000000193715096
20
-7.2232366528054754
30
0
40
7.9999999999999982
210
0
220
0
230
1
100
AcDbArc
50
180
51
233.15044137264934
0
LINE
5
178
100
AcDbEntity
8
0
100
AcDbLine
10
13.000000193715096
20
-7.2232366528054746
30
0
11
13.000000193715096
21
-4.0522398337387155
31
0
0
SPLINE
5
179
100
AcDbEntity
8
0
100
AcDbSpline
70
0
71
3
72
12
73
8
74
0
42
0.000000001
43
0.0000000001
44
0.0000000001
40
0.20196870482681942
40
0.20196870482681942
40
0.20196870482681942
40
0.20196870482681942
40
0.23438668403215646
40
0.23438668403215646
40
0.34462534182686938
40
0.34462534182686938
40
0.45486399962158236
40
0.45486399962158236
40
0.45486399962158236
40
0.45486399962158236
10
13.999197551464366
20
-1.8168900206753333
30
0
10
13.918983741196447
20
-1.8886872859584387
30
0
10
13.842542130483313
20
-1.9648846521714516
30
0
10
13.52441155607983
20
-2.318316721187986
30
0
10
13.33083357246757
20
-2.6342913117378233
30
0
10
13.067514425228318
20
-3.3204231349343294
30
0
10
13.000000193715096
20
-3.684777641089672
30
0
10
13.000000193715096
20
-4.0522398337387155
30
0
0
SPLINE
5
180
100
AcDbEntity
8
0
100
AcDbSpline
70
0
71
3
72
14
73
10
74
0
42
0.000000001
43
0.0000000001
44
0.0000000001
40
0
40
0
40
0
40
0
40
0.078128894677385527
40
0.078128894677385527
40
0.15625778935477094
40
0.15625778935477094
40
0.22608360691604329
40
0.22608360691604329
40
0.29590942447731555
40
0.29590942447731555
40
0.29590942447731555
40
0.29590942447731555
10
16.689381682395393
20
-1.8372906829912525
30
0
10
16.497987695377841
20
-1.660678271840381
30
0
10
16.273927208020144
20
-1.5231378732352612
30
0
10
15.785696618568091
20
-1.341684574341856
30
0
10
15.526194267015125
20
-1.2995064664906799
30
0
10
15.033289986114152
20
-1.3160661772632773
30
0
10
14.803808304685635
20
-1.3644291864117442
30
0
10
14.371827444427968
20
-1.5378877138211813
30
0
10
14.172625471722798
20
-1.6616592648154316
30
0
10
13.999197551464366
20
-1.8168900206753327
30
0
0
ARC
5
181
100
AcDbEntity
8
0
100
AcDbCircle
10
18.384776310850235
20
-1.3877787807814457e-16
30
0
40
2.4999999999999978
210
0
220
0
230
1
100
AcDbArc
50
-132.69985822643571
51
132.69985949436719
0
SPLINE
5
182
100
AcDbEntity
8
0
100
AcDbSpline
70
0
71
3
72
14
73
10
74
0
42
0.000000001
43
0.0000000001
44
0.0000000001
40
0
40
0
40
0
40
0
40
0.07812889467738568
40
0.07812889467738568
40
0.15625778935477114
40
0.15625778935477114
40
0.22608361904179974
40
0.22608361904179974
40
0.29590944872882841
40
0.29590944872882841
40
0.29590944872882841
40
0.29590944872882841
10
13.999197331908624
20
1.8168900841546454
30
0
10
14.193247770528805
20
1.6432006218654347
30
0
10
14.419368395454534
20
1.5090740912064236
30
0
10
14.910294714040981
20
1.3350460535942088
30
0
10
15.170406884520498
20
1.2968083495331886
30
0
10
15.66300337762935
20
1.3208414308234184
30
0
10
15.891725243557328
20
1.3726791603448143
30
0
10
16.321025854596474
20
1.5526691183503585
30
0
10
16.51832785014178
20
1.6794475262491448
30
0
10
16.689381641736926
20
1.8372906454728817
30
0
0
SPLINE
5
183
100
AcDbEntity
8
0
100
AcDbSpline
70
0
71
3
72
12
73
8
74
0
42
0.000000001
43
0.0000000001
44
0.0000000001
40
0
40
0
40
0
40
0
40
0.1171933420160781
40
0.1171933420160781
40
0.23438668403215601
40
0.23438668403215601
40
0.25297191616586823
40
0.25297191616586823
40
0.25297191616586823
40
0.25297191616586823
10
13.000000193715097
20
4.0522397006994542
30
0
10
13.000000193715097
20
3.6615952273125267
30
0
10
13.076301746008973
20
3.2746855280088671
30
0
10
13.372918384018657
20
2.5518916511623422
30
0
10
13.590397653006534
20
2.2229177770352284
30
0
10
13.908324056464814
20
1.9007916220255703
30
0
10
13.953145204481155
20
1.8581101365648749
30
0
10
13.999197331908622
20
1.8168900841546494
30
0
0
LINE
5
184
100
AcDbEntity
8
0
100
AcDbLine
10
13.000000193715097
20
4.0522397006994542
30
0
11
13.000000193715096
21
6.5140172971867703
31
0
0
ARC
5
185
100
AcDbEntity
8
0
100
AcDbCircle
10
21.000000193715096
20
6.5140172971867747
30
0
40
8.0000000000000018
210
0
220
0
230
1
100
AcDbArc
50
116.30744505774945
51
180
0
LINE
5
186
100
AcDbEntity
8
0
100
AcDbLine
10
17.454498775946909
20
13.685448095612136
30
0
11
39.112033613377321
21
24.392770334339382
31
0
0
ARC
5
187
100
AcDbEntity
8
0
100
AcDbCircle
10
42.6575350311455
20
17.221339535914019
30
0
40
8
210
0
220
-0
230
1
100
AcDbArc
50
57.256936791677262
51
116.30744505774939
0
ARC
5
188
100
AcDbEntity
8
0
100
AcDbCircle
10
48.336697781938966
20
26.052936812171591
30
0
40
2.5000000000000071
210
0
220
0
230
1
100
AcDbArc
50
237.2569367916773
51
332.80279795506931
0
ARC
5
189
100
AcDbEntity
8
0
100
AcDbCircle
10
55.896926680389328
20
22.16797362019204
30
0
40
6.0000000000000062
210
0
220
-0
230
1
100
AcDbArc
50
75.597210962098558
51
152.80279795506956
0
ARC
5
190
100
AcDbEntity
8
0
100
AcDbCircle
10
58.011191481790625
20
30.40082758158086
30
0
40
2.499999999999996
210
0
220
0
230
1
100
AcDbArc
50
255.59721096209853
51
339.20000000000016
0
ARC
5
191
100
AcDbEntity
8
0
100
AcDbCircle
10
51.000000000001762
20
33.064129385141172
30
0
40
9.9999988327436604
210
0
220
0
230
1
100
AcDbArc
50
339.19999999999925
51
348.45060139705828
0
ARC
5
192
100
AcDbEntity
8
0
100
AcDbCircle
10
58.838018470218351
20
31.46242785725174
30
0
40
2.0000000000000204
210
0
220
0
230
1
100
AcDbArc
50
-11.549398602941828
51
59.949392584848901
0
ARC
5
193
100
AcDbEntity
8
0
100
AcDbCircle
10
62.844136355600128
20
38.387095321356043
30
0
40
6.0000000000000044
210
0
220
0
230
1
100
AcDbArc
50
168.45060741515084
51
239.94939258484928
0
ARC
5
194
100
AcDbEntity
8
0
100
AcDbCircle
10
55.006116573525723
20
39.988796259674508
30
0
40
1.9999999999999876
210
0
220
0
230
1
100
AcDbArc
50
-11.549392584849436
51
59.949398602942573
0
ARC
5
195
100
AcDbEntity
8
0
100
AcDbCircle
10
51.000000000001762
20
33.064129385141172
30
0
40
9.9999988327450637
210
0
220
-0
230
1
100
AcDbArc
50
59.949398602952925
51
69.200000000010533
0
ARC
5
196
100
AcDbEntity
8
0
100
AcDbCircle
10
53.663301803560813
20
40.075320866932316
30
0
40
2.5000000000000071
210
0
220
-0
230
1
100
AcDbArc
50
69.199999999999832
51
152.80278903790125
0
ARC
5
197
100
AcDbEntity
8
0
100
AcDbCircle
10
46.103073509742678
20
43.96028523554007
30
0
40
5.9999999999999982
210
0
220
0
230
1
100
AcDbArc
50
255.59720204493047
51
332.80278903790139
0
ARC
5
198
100
AcDbEntity
8
0
100
AcDbCircle
10
43.988807427029883
20
35.72743160320271
30
0
40
2.5000000000000062
210
0
220
-0
230
1
100
AcDbArc
50
75.597202044930583
51
174.58492538310395
0
ARC
5
199
100
AcDbEntity
8
0
100
AcDbCircle
10
33.535667141098941
20
36.718319166273183
30
0
40
8.0000000000000071
210
0
220
0
230
1
100
AcDbArc
50
294.23140096204963
51
354.58492538310389
0
CIRCLE
5
200
100
AcDbEntity
8
0
100
AcDbCircle
10
51.000000000001762
20
33.064129385141172
30
0
40
2.1500000000000004
210
0
220
0
230
1
0
LWPOLYLINE
5
201
100
AcDbEntity
8
0
100
AcDbPolyline
90
4
70
1
43
0.0
10
45.035938979215757
20
34.259945483194493
42
-0.99999999999999989
10
45.74615290403203
20
36.129596835986518
10
47.148391418626055
20
35.596936392374317
42
-0.99999999999999989
10
46.438177493809782
20
33.727285039582291
0
LWPOLYLINE
5
202
100
AcDbEntity
8
0
100
AcDbPolyline
90
4
70
1
43
0.0
10
52.195816098052788
20
39.028190405925912
42
-0.99999999999999989
10
54.065467450844828
20
38.317976481109639
10
53.53280700723262
20
36.915737966515614
42
-0.99999999999999989
10
51.663155654440587
20
37.625951891331894
0
LWPOLYLINE
5
203
100
AcDbEntity
8
0
100
AcDbPolyline
90
4
70
1
43
0.0
10
48.467192992767352
20
29.212520803767763
42
-0.99999999999999989
10
50.336844345559385
20
28.502306878951487
10
49.804183901947184
20
27.100068364357462
42
-0.99999999999999989
10
47.934532549155151
20
27.810282289173742
0
LWPOLYLINE
5
204
100
AcDbEntity
8
0
100
AcDbPolyline
90
4
70
1
43
0.0
10
56.964061020784214
20
31.868313287088888
42
-0.99999999999999989
10
56.253847095967942
20
29.998661934296859
10
54.851608581373917
20
30.531322377909063
42
-0.99999999999999989
10
55.561822506190197
20
32.400973730701089
0
CIRCLE
5
205
100
AcDbEntity
8
0
100
AcDbCircle
10
-59.99999999999762
20
-49.573117891942402
30
0
40
2.1499999999999999
210
0
220
-0
230
1
0
ARC
5
206
100
AcDbEntity
8
0
100
AcDbCircle
10
-54.061342614553269
20
-50.428891494175346
30
0
40
0.99999999999999756
210
0
220
0
230
1
100
AcDbArc
50
-98.199999999999847
51
81.799999999999642
0
LINE
5
207
100
AcDbEntity
8
0
100
AcDbLine
10
-54.203971548258778
20
-51.418667725083139
30
0
11
-55.688635894620468
21
-51.204724324524868
31
0
0
ARC
5
208
100
AcDbEntity
8
0
100
AcDbCircle
10
-55.546006960914951
20
-50.214948093617082
30
0
40
0.99999999999999756
210
0
220
-0
230
1
100
AcDbArc
50
81.800000000000097
51
261.79999999999967
0
LINE
5
209
100
AcDbEntity
8
0
100
AcDbLine
10
-55.403378027209442
20
-49.225171862709296
30
0
11
-53.918713680847752
21
-49.439115263267567
31
0
0
ARC
5
210
100
AcDbEntity
8
0
100
AcDbCircle
10
-60.8557736022331
20
-55.511775277388992
30
0
40
0.99999999999999756
210
0
220
0
230
1
100
AcDbArc
50
171.79999999999967
51
351.80000000000018
0
LINE
5
211
100
AcDbEntity
8
0
100
AcDbLine
10
-61.845549833140879
20
-55.369146343683475
30
0
11
-61.631606432582615
21
-53.884481997321785
31
0
0
ARC
5
212
100
AcDbEntity
8
0
100
AcDbCircle
10
-60.641830201674829
20
-54.027110931027302
30
0
40
0.99999999999999756
210
-0
220
0
230
1
100
AcDbArc
50
-8.1999999999998465
51
171.79999999999973
0
LINE
5
213
100
AcDbEntity
8
0
100
AcDbLine
10
-59.652053970767042
20
-54.169739864732811
30
0
11
-59.865997371325307
21
-55.654404211094501
31
0
0
ARC
5
214
100
AcDbEntity
8
0
100
AcDbCircle
10
-59.358169798325171
20
-45.119124852857205
30
0
40
0.99999999999999756
210
0
220
0
230
1
100
AcDbArc
50
171.80000000000015
51
351.79999999999967
0
LINE
5
215
100
AcDbEntity
8
0
100
AcDbLine
10
-60.347946029232958
20
-44.976495919151695
30
0
11
-60.134002628674693
21
-43.491831572790005
31
0
0
ARC
5
216
100
AcDbEntity
8
0
100
AcDbCircle
10
-59.1442263977669
20
-43.634460506495515
30
0
40
0.99999999999999756
210
-0
220
0
230
1
100
AcDbArc
50
-8.2000000000003546
51
171.80000000000015
0
LINE
5
217
100
AcDbEntity
8
0
100
AcDbLine
10
-58.154450166859121
20
-43.777089440201031
30
0
11
-58.368393567417385
21
-45.261753786562721
31
0
0
ARC
5
218
100
AcDbEntity
8
0
100
AcDbCircle
10
-65.938657385446731
20
-48.71734428970916
30
0
40
0.99999999999999756
210
0
220
-0
230
1
100
AcDbArc
50
81.800000000000139
51
261.80000000000007
0
LINE
5
219
100
AcDbEntity
8
0
100
AcDbLine
10
-65.796028451741222
20
-47.727568058801367
30
0
11
-64.311364105379539
21
-47.941511459359639
31
0
0
ARC
5
220
100
AcDbEntity
8
0
100
AcDbCircle
10
-64.453993039085049
20
-48.931287690267425
30
0
40
0.99999999999999756
210
0
220
0
230
1
100
AcDbArc
50
-98.199999999999889
51
81.800000000000097
0
LINE
5
221
100
AcDbEntity
8
0
100
AcDbLine
10
-64.596621972790558
20
-49.921063921175211
30
0
11
-66.081286319152241
21
-49.70712052061694
31
0
0
LWPOLYLINE
5
222
100
AcDbEntity
8
0
100
AcDbPolyline
90
8
70
1
43
0.0
10
4.983228045189021
20
11.134776310850238
10
4.983228045189021
20
15.134776310850238
42
0.41421356237309509
10
3.983228045189021
20
16.134776310850238
10
-3.9832280451890401
20
16.134776310850238
42
0.41421356237309509
10
-4.9832280451890396
20
15.134776310850238
10
-4.9832280451890432
20
11.134776310850238
42
0.41421356237309492
10
-3.9832280451890432
20
10.134776310850238
10
3.983228045189021
20
10.134776310850238
42
0.41421356237309509
0
LWPOLYLINE
5
223
100
AcDbEntity
8
0
100
AcDbPolyline
90
6
70
1
43
0.0
10
8.4947290686845278
20
28.319545672806751
10
8.4947290686845278
20
41.692552534636604
42
0.72137516275257618
10
6.6937575392795559
20
42.291254972482534
10
1.6958580992338472
20
35.604836302285193
42
0.33242966322207895
10
1.6958508204371314
20
34.407441164624245
10
6.6937502604828358
20
27.720852972991729
42
0.72137978385731427
0
LWPOLYLINE
5
224
100
AcDbEntity
8
0
100
AcDbPolyline
90
6
70
1
43
0.0
10
-1.0921316157611538
20
-28.097957331486406
10
-4.8493621069478623
20
-30.54703402740995
42
0.74607279619066069
10
-4.3032962990672914
20
-32.384776310850242
10
4.3032962990672647
20
-32.384776310850242
42
0.74607279619066091
10
4.8493621069478339
20
-30.54703402740995
10
1.0921316157611218
20
-28.097957331486406
42
0.29713949164750397
0
LWPOLYLINE
5
225
100
AcDbEntity
8
0
100
AcDbPolyline
90
6
70
1
43
0.0
10
-9.5000001713633448
20
-23.039199671279199
10
-9.5000001713633431
20
-29.345576955381546
42
0.59551379209138822
10
-7.9539343634827748
20
-30.183319238821831
10
-4.401711734538349
20
-27.867872880210939
42
0.54185422067428457
10
-4.4017117345383507
20
-24.516903746449806
10
-7.9539343634827775
20
-22.201457387838914
42
0.59551379209138788
0
LWPOLYLINE
5
226
100
AcDbEntity
8
0
100
AcDbPolyline
90
8
70
1
43
0.0
10
-6.9121901493596027
20
45.923964414480864
10
-0.80108518015708674
20
37.748041146100206
42
0.50101731836531371
10
0.80086515744957953
20
37.748031408069302
10
6.9121404225226479
20
45.92397522632389
42
0.49736652817976001
10
6.0269386258291746
20
48.988538896328549
10
1.0751157937707536
20
50.889381908308671
42
0.1853411581771828
10
-1.0751147918611437
20
50.889379298276793
10
-6.0269783279276812
20
48.988506868402453
42
0.49736197982930164
0
LWPOLYLINE
5
227
100
AcDbEntity
8
0
100
AcDbPolyline
90
6
70
1
43
0.0
10
4.4017117345383276
20
-27.867872880210935
10
7.9539343634827775
20
-30.183319238821838
42
0.59551379209138977
10
9.5000001713633502
20
-29.34557695538156
10
9.5000001713633466
20
-23.039199671279182
42
0.59551379209138822
10
7.9539343634827784
20
-22.201457387838897
10
4.4017117345383294
20
-24.516903746449799
42
0.54185422067428424
0
LWPOLYLINE
5
228
100
AcDbEntity
8
0
100
AcDbPolyline
90
8
70
1
43
0.0
10
4.9832280451890201
20
-15.134776310850238
10
4.9832280451890192
20
-11.134776310850238
42
0.41421356237309509
10
3.9832280451890192
20
-10.134776310850238
10
-3.9832280451890423
20
-10.134776310850238
42
0.41421356237309509
10
-4.9832280451890423
20
-11.134776310850238
10
-4.9832280451890396
20
-15.134776310850238
42
0.41421356237309492
10
-3.9832280451890405
20
-16.134776310850238
10
3.9832280451890196
20
-16.134776310850238
42
0.41421356237309515
0
LWPOLYLINE
5
229
100
AcDbEntity
8
0
100
AcDbPolyline
90
14
70
1
43
0.0
10
7.5801831580429191
20
21.091265198386196
10
7.654787814073285
20
22.301511482353973
42
0.17769415950745429
10
7.2605346412046661
20
23.621951686010753
10
0.8008318223554789
20
32.264256940071107
42
0.5010173183653126
10
-0.80111851525118682
20
32.264266678102011
10
-7.2605333711258613
20
23.622565777758279
42
0.17769468669320121
10
-7.6548023460032919
20
22.302126286767727
10
-7.5801729333204824
20
21.091278987389678
42
0.25541629354772843
10
-6.558501088347767
20
19.467810977273807
10
-4.8012492616762525
20
18.487272785195714
42
0.43155950029049017
10
-2.025904803332605
20
19.363658187193789
42
-0.62743230657504689
10
2.025904803332605
20
19.363658187193789
42
0.43155950029048989
10
4.8012492616762517
20
18.487272785195714
10
6.5585125574855851
20
19.467817376998362
42
0.25541360022378595
0
CIRCLE
5
230
100
AcDbEntity
8
0
100
AcDbCircle
10
0
20
0
30
0
40
8
210
0
220
-0
230
1
0
LWPOLYLINE
5
231
100
AcDbEntity
8
0
100
AcDbPolyline
90
6
70
1
43
0.0
10
-6.693757539279547
20
27.721382067354256
10
-1.6961114570354519
20
34.407461783886113
42
0.33242966322207801
10
-1.6961041782387298
20
35.604856921547061
10
-6.6937502604828243
20
42.291106150920569
42
0.72137978385731427
10
-8.4947290686845172
20
41.692413451105551
10
-8.4947290686845172
20
28.320084505200182
42
0.72137516275257574
0
LWPOLYLINE
5
232
100
AcDbEntity
8
0
100
AcDbPolyline
90
10
70
1
43
0.0
10
-6.1450726186050533
20
-20.993159221625604
10
-1.0921316157611496
20
-24.28681929517434
42
0.29713949164750425
10
1.0921316157611316
20
-24.286819295174332
10
6.1450726186050328
20
-20.993159221625596
42
0.66403805724816867
10
5.8164648923799227
20
-19.179347277391209
10
3.2392115396419587
20
-18.605162265257405
42
0.3687153245425811
10
2.0919831632214203
20
-19.213091736758813
42
-0.67958700580658271
10
-2.0919831632214225
20
-19.213091736758805
42
0.36871532454258177
10
-3.2392115396419614
20
-18.605162265257395
10
-5.8164648923799431
20
-19.179347277391205
42
0.66403805724816956
0
CIRCLE
5
233
100
AcDbEntity
8
0
100
AcDbCircle
10
-10
20
-33.384776310850235
30
0
40
0.99999999999999867
210
0
220
0
230
1
0
CIRCLE
5
234
100
AcDbEntity
8
0
100
AcDbCircle
10
10.000000000000002
20
48.384776310850235
30
0
40
0.99999999999999978
210
0
220
0
230
1
0
CIRCLE
5
235
100
AcDbEntity
8
0
100
AcDbCircle
10
10
20
10
30
0
40
1.0000001639127842
210
0
220
0
230
1
0
CIRCLE
5
236
100
AcDbEntity
8
0
100
AcDbCircle
10
8.0000001192092896
20
8.0000001192092896
30
0
40
1.0000001639127842
210
0
220
0
230
1
0
CIRCLE
5
237
100
AcDbEntity
8
0
100
AcDbCircle
10
-8.0000001192092913
20
8.0000001192092878
30
0
40
1.0000001639127842
210
0
220
0
230
1
0
CIRCLE
5
238
100
AcDbEntity
8
0
100
AcDbCircle
10
-8.0000001192092878
20
-8.0000001192092913
30
0
40
1.0000001639127842
210
0
220
-0
230
1
0
CIRCLE
5
239
100
AcDbEntity
8
0
100
AcDbCircle
10
8.0000001192092913
20
-8.0000001192092878
30
0
40
1.0000001639127842
210
0
220
0
230
1
0
CIRCLE
5
240
100
AcDbEntity
8
0
100
AcDbCircle
10
10
20
-10
30
0
40
1.0000001639127842
210
0
220
0
230
1
0
CIRCLE
5
241
100
AcDbEntity
8
0
100
AcDbCircle
10
-10
20
-10
30
0
40
1.0000001639127842
210
0
220
0
230
1
0
CIRCLE
5
242
100
AcDbEntity
8
0
100
AcDbCircle
10
-10
20
48.384776310850235
30
0
40
1.0000000000000009
210
0
220
0
230
1
0
CIRCLE
5
243
100
AcDbEntity
8
0
100
AcDbCircle
10
18.384776310850235
20
-1.3877787807814457e-16
30
0
40
1.0000000000000009
210
0
220
0
230
1
0
CIRCLE
5
244
100
AcDbEntity
8
0
100
AcDbCircle
10
10.000000000000002
20
-33.384776310850242
30
0
40
1.0000000000000009
210
0
220
0
230
1
0
CIRCLE
5
245
100
AcDbEntity
8
0
100
AcDbCircle
10
0
20
18.384776310850231
30
0
40
1.0000001639127842
210
0
220
0
230
1
0
CIRCLE
5
246
100
AcDbEntity
8
0
100
AcDbCircle
10
-18.384776310850231
20
-4.163336342344337e-16
30
0
40
1.0000001639127842
210
0
220
0
230
1
0
CIRCLE
5
247
100
AcDbEntity
8
0
100
AcDbCircle
10
0
20
-18.384776310850238
30
0
40
1.0000001639127842
210
0
220
0
230
1
0
CIRCLE
5
248
100
AcDbEntity
8
0
100
AcDbCircle
10
-10
20
10
30
0
40
1.0000001639127842
210
0
220
0
230
1
0
CIRCLE
5
249
100
AcDbEntity
8
0
100
AcDbCircle
10
60
20
-49.573117891942253
30
0
40
2.1499999999999999
210
0
220
-0
230
1
0
ARC
5
250
100
AcDbEntity
8
0
100
AcDbCircle
10
54.061342614553269
20
-50.428891494175346
30
0
40
0.99999999999999756
210
0
220
0
230
1
100
AcDbArc
50
98.200000000000372
51
278.19999999999982
0
LINE
5
251
100
AcDbEntity
8
0
100
AcDbLine
10
53.918713680847752
20
-49.439115263267567
30
0
11
55.403378027209442
21
-49.225171862709288
31
0
0
ARC
5
252
100
AcDbEntity
8
0
100
AcDbCircle
10
55.546006960914951
20
-50.214948093617082
30
0
40
0.99999999999999756
210
-0
220
0
230
1
100
AcDbArc
50
-81.799999999999699
51
98.199999999999847
0
LINE
5
253
100
AcDbEntity
8
0
100
AcDbLine
10
55.688635894620468
20
-51.204724324524868
30
0
11
54.203971548258778
21
-51.418667725083139
31
0
0
ARC
5
254
100
AcDbEntity
8
0
100
AcDbCircle
10
60.8557736022331
20
-55.511775277388992
30
0
40
0.99999999999999756
210
0
220
0
230
1
100
AcDbArc
50
-171.80000000000015
51
8.2000000000003439
0
LINE
5
255
100
AcDbEntity
8
0
100
AcDbLine
10
59.865997371325307
20
-55.654404211094501
30
0
11
59.652053970767028
21
-54.169739864732811
31
0
0
ARC
5
256
100
AcDbEntity
8
0
100
AcDbCircle
10
60.641830201674829
20
-54.027110931027302
30
0
40
0.99999999999999756
210
0
220
-0
230
1
100
AcDbArc
50
8.2000000000002995
51
188.19999999999976
0
LINE
5
257
100
AcDbEntity
8
0
100
AcDbLine
10
61.631606432582615
20
-53.884481997321785
30
0
11
61.845549833140879
21
-55.369146343683475
31
0
0
ARC
5
258
100
AcDbEntity
8
0
100
AcDbCircle
10
59.358169798325171
20
-45.119124852857205
30
0
40
0.99999999999999756
210
0
220
0
230
1
100
AcDbArc
50
-171.79999999999973
51
8.1999999999998536
0
LINE
5
259
100
AcDbEntity
8
0
100
AcDbLine
10
58.368393567417385
20
-45.261753786562721
30
0
11
58.154450166859107
21
-43.777089440201038
31
0
0
ARC
5
260
100
AcDbEntity
8
0
100
AcDbCircle
10
59.1442263977669
20
-43.634460506495515
30
0
40
0.99999999999999756
210
0
220
-0
230
1
100
AcDbArc
50
8.1999999999998536
51
188.20000000000061
0
LINE
5
261
100
AcDbEntity
8
0
100
AcDbLine
10
60.134002628674693
20
-43.491831572790005
30
0
11
60.347946029232958
21
-44.976495919151695
31
0
0
ARC
5
262
100
AcDbEntity
8
0
100
AcDbCircle
10
65.938657385446731
20
-48.71734428970916
30
0
40
0.99999999999999756
210
-0
220
0
230
1
100
AcDbArc
50
-81.800000000000054
51
98.199999999999847
0
LINE
5
263
100
AcDbEntity
8
0
100
AcDbLine
10
66.081286319152241
20
-49.70712052061694
30
0
11
64.596621972790558
21
-49.921063921175218
31
0
0
ARC
5
264
100
AcDbEntity
8
0
100
AcDbCircle
10
64.453993039085049
20
-48.931287690267425
30
0
40
0.99999999999999756
210
0
220
0
230
1
100
AcDbArc
50
98.199999999999918
51
278.19999999999982
0
LINE
5
265
100
AcDbEntity
8
0
100
AcDbLine
10
64.311364105379539
20
-47.941511459359639
30
0
11
65.796028451741222
21
-47.727568058801367
31
0
0
LWPOLYLINE
5
266
100
AcDbEntity
8
0
100
AcDbPolyline
90
4
70
1
43
0.0
10
-56.253847095967942
20
29.998661934296859
42
-0.99999999999999989
10
-56.964061020784214
20
31.868313287088888
10
-55.561822506190197
20
32.400973730701089
42
-0.99999999999999989
10
-54.851608581373917
20
30.531322377909063
0
LWPOLYLINE
5
267
100
AcDbEntity
8
0
100
AcDbPolyline
90
4
70
1
43
0.0
10
-50.336844345559385
20
28.502306878951487
42
-0.99999999999999989
10
-48.467192992767352
20
29.212520803767763
10
-47.934532549155151
20
27.810282289173742
42
-0.99999999999999989
10
-49.804183901947184
20
27.100068364357462
0
LWPOLYLINE
5
268
100
AcDbEntity
8
0
100
AcDbPolyline
90
4
70
1
43
0.0
10
-54.065467450844828
20
38.317976481109639
42
-0.99999999999999989
10
-52.195816098052788
20
39.028190405925912
10
-51.663155654440587
20
37.625951891331894
42
-0.99999999999999989
10
-53.53280700723262
20
36.915737966515614
0
LWPOLYLINE
5
269
100
AcDbEntity
8
0
100
AcDbPolyline
90
4
70
1
43
0.0
10
-45.74615290403203
20
36.129596835986518
42
-0.99999999999999989
10
-45.035938979215757
20
34.259945483194493
10
-46.438177493809782
20
33.727285039582291
42
-0.99999999999999989
10
-47.148391418626055
20
35.596936392374317
0
CIRCLE
5
270
100
AcDbEntity
8
0
100
AcDbCircle
10
-50.999999999999986
20
33.06412938514169
30
0
40
2.1500000000000004
210
0
220
-0
230
1
0
ENDSEC
0
SECTION
2
OBJECTS
0
DICTIONARY
5
C
100
AcDbDictionary
3
ACAD_GROUP
350
D
3
ACAD_MLINESTYLE
350
17
0
DICTIONARY
5
D
100
AcDbDictionary
0
DICTIONARY
5
1A
330
C
100
AcDbDictionary
0
DICTIONARY
5
17
100
AcDbDictionary
0
ENDSEC
0
EOF
