0
SECTION
2
HEADER
9
$INSUNITS
70
4
9
$ACADVER
1
AC1014
9
$HANDSEED
5
FFFF
0
ENDSEC
0
SECTION
2
TABLES
0
TABLE
2
VPORT
5
8
100
AcDbSymbolTable
0
ENDTAB
0
TABLE
2
LTYPE
5
5
100
AcDbSymbolTable
0
LTYPE
5
14
100
AcDbSymbolTableRecord
100
AcDbLinetypeTableRecord
2
BYBLOCK
70
0
0
LTYPE
5
15
100
AcDbSymbolTableRecord
100
AcDbLinetypeTableRecord
2
BYLAYER
70
0
0
ENDTAB
0
TABLE
2
LAYER
5
2
100
AcDbSymbolTable
70
2
0
LAYER
5
50
100
AcDbSymbolTableRecord
100
AcDbLayerTableRecord
2
0
70
0
6
CONTINUOUS
0
ENDTAB
0
TABLE
2
STYLE
5
3
100
AcDbSymbolTable
70
1
0
STYLE
5
11
100
AcDbSymbolTableRecord
100
AcDbTextStyleTableRecord
2
STANDARD
70
0
0
ENDTAB
0
TABLE
2
VIEW
5
6
100
AcDbSymbolTable
70
0
0
ENDTAB
0
TABLE
2
UCS
5
7
100
AcDbSymbolTable
70
0
0
ENDTAB
0
TABLE
2
APPID
5
9
100
AcDbSymbolTable
70
2
0
APPID
5
12
100
AcDbSymbolTableRecord
100
AcDbRegAppTableRecord
2
ACAD
70
0
0
ENDTAB
0
TABLE
2
DIMSTYLE
5
A
100
AcDbSymbolTable
70
1
0
ENDTAB
0
TABLE
2
BLOCK_RECORD
5
1
100
AcDbSymbolTable
70
1
0
BLOCK_RECORD
5
1F
100
AcDbSymbolTableRecord
100
AcDbBlockTableRecord
2
*MODEL_SPACE
0
BLOCK_RECORD
5
1B
100
AcDbSymbolTableRecord
100
AcDbBlockTableRecord
2
*PAPER_SPACE
0
ENDTAB
0
ENDSEC
0
SECTION
2
BLOCKS
0
BLOCK
5
20
100
AcDbEntity
100
AcDbBlockBegin
2
*MODEL_SPACE
0
ENDBLK
5
21
100
AcDbEntity
100
AcDbBlockEnd
0
BLOCK
5
1C
100
AcDbEntity
100
AcDbBlockBegin
2
*PAPER_SPACE
0
ENDBLK
5
1D
100
AcDbEntity
100
AcDbBlockEnd
0
ENDSEC
0
SECTION
2
ENTITIES
0
LINE
5
100
100
AcDbEntity
8
0
100
AcDbLine
10
-47.299928146165442
20
-41.460769786360942
30
0
11
-19.20988958621615
21
-23.353965572500677
31
0
0
ARC
5
101
100
AcDbEntity
8
0
100
AcDbCircle
10
-16.500924695294181
20
-27.556525413805982
30
0
40
5
210
-0
220
0
230
1
100
AcDbArc
50
0
51
122.8057782462765
0
LINE
5
102
100
AcDbEntity
8
0
100
AcDbLine
10
-11.500924695294181
20
-27.556525413805986
30
0
11
-11.500924695294181
21
-28.722375844769026
31
0
0
ARC
5
103
100
AcDbEntity
8
0
100
AcDbCircle
10
-16.500924695294181
20
-28.722375844769026
30
0
40
4.9999999999999991
210
-0
220
0
230
1
100
AcDbArc
50
-35.647725777572653
51
0
0
ARC
5
104
100
AcDbEntity
8
0
100
AcDbCircle
10
-10
20
-33.384776310850242
30
0
40
3.0000000000000027
210
0
220
0
230
1
100
AcDbArc
50
144.35227422242738
51
300.27264131890956
0
ARC
5
105
100
AcDbEntity
8
0
100
AcDbCircle
10
-4.4547317467952796
20
-42.884776310850235
30
0
40
7.9999999999999982
210
0
220
-0
230
1
100
AcDbArc
50
90
51
120.27264131890959
0
LINE
5
106
100
AcDbEntity
8
0
100
AcDbLine
10
-4.4547317467952787
20
-34.884776310850242
30
0
11
4.4547317467952974
21
-34.884776310850242
31
0
0
ARC
5
107
100
AcDbEntity
8
0
100
AcDbCircle
10
4.4547317467952965
20
-42.884776310850235
30
0
40
8.0000000000000036
210
0
220
-0
230
1
100
AcDbArc
50
59.727358681090507
51
90
0
ARC
5
108
100
AcDbEntity
8
0
100
AcDbCircle
10
10
20
-33.384776310850235
30
0
40
2.999999999999996
210
0
220
0
230
1
100
AcDbArc
50
-120.27264131890952
51
35.647725777572582
0
ARC
5
109
100
AcDbEntity
8
0
100
AcDbCircle
10
16.500924695294181
20
-28.722375844769026
30
0
40
5
210
0
220
0
230
1
100
AcDbArc
50
180
51
215.64772577757256
0
LINE
5
110
100
AcDbEntity
8
0
100
AcDbLine
10
11.500924695294179
20
-28.722375844769026
30
0
11
11.500924695294181
21
-27.556525413805993
31
0
0
ARC
5
111
100
AcDbEntity
8
0
100
AcDbCircle
10
16.500924695294184
20
-27.556525413805993
30
0
40
5
210
0
220
-0
230
1
100
AcDbArc
50
57.194221753723504
51
180
0
LINE
5
112
100
AcDbEntity
8
0
100
AcDbLine
10
19.209889586216157
20
-23.353965572500684
30
0
11
47.299928146165449
21
-41.460769786360956
31
0
0
ARC
5
113
100
AcDbEntity
8
0
100
AcDbCircle
10
44.04917027705909
20
-46.503841595927319
30
0
40
5.9999999999999973
210
-0
220
0
230
1
100
AcDbArc
50
-6.2682639714413391
51
57.194221753723532
0
ARC
5
114
100
AcDbEntity
8
0
100
AcDbCircle
10
52.001342953964283
20
-47.377311524821437
30
0
40
1.9999999999999931
210
0
220
0
230
1
100
AcDbArc
50
173.73173602855874
51
181.04939860294252
0
ARC
5
115
100
AcDbEntity
8
0
100
AcDbCircle
10
60.000000000000028
20
-47.23079605180839
30
0
40
9.999998832745506
210
0
220
0
230
1
100
AcDbArc
50
181.04939860294252
51
190.29999999999995
0
ARC
5
116
100
AcDbEntity
8
0
100
AcDbCircle
10
52.620863363942696
20
-48.571812456473296
30
0
40
2.5000000000000067
210
0
220
0
230
1
100
AcDbArc
50
190.30000000000038
51
273.90278903790136
0
ARC
5
117
100
AcDbEntity
8
0
100
AcDbCircle
10
53.199406137856457
20
-57.052100674379133
30
0
40
6.0000000000000036
210
0
220
-0
230
1
100
AcDbArc
50
16.697202044930503
51
93.902789037901485
0
ARC
5
118
100
AcDbEntity
8
0
100
AcDbCircle
10
61.341016613372652
20
-54.609933836309949
30
0
40
2.4999999999999938
210
0
220
0
230
1
100
AcDbArc
50
-163.30279795506982
51
3.9027970560825804
0
ARC
5
119
100
AcDbEntity
8
0
100
AcDbCircle
10
69.821304750314994
20
-54.03138987563365
30
0
40
6.0000000000000036
210
0
220
0
230
1
100
AcDbArc
50
106.69720294391783
51
183.90279705608231
0
ARC
5
120
100
AcDbEntity
8
0
100
AcDbCircle
10
67.379137784501566
20
-45.889779438435752
30
0
40
2.4999999999999951
210
-0
220
0
230
1
100
AcDbArc
50
-73.302797056081943
51
93.902797955069218
0
ARC
5
121
100
AcDbEntity
8
0
100
AcDbCircle
10
66.800593690767144
20
-37.409491310570914
30
0
40
6.0000000000000213
210
0
220
0
230
1
100
AcDbArc
50
196.69721096209872
51
273.90279795506945
0
ARC
5
122
100
AcDbEntity
8
0
100
AcDbCircle
10
58.658983595335094
20
-39.851659415751058
30
0
40
2.5000000000000009
210
0
220
-0
230
1
100
AcDbArc
50
16.697210962098904
51
100.29999999999994
0
ARC
5
123
100
AcDbEntity
8
0
100
AcDbCircle
10
60.000000000000028
20
-47.23079605180839
30
0
40
9.9999988327455132
210
0
220
0
230
1
100
AcDbArc
50
100.3
51
109.55060139705742
0
ARC
5
124
100
AcDbEntity
8
0
100
AcDbCircle
10
57.32288652554611
20
-39.692026605219183
30
0
40
2.000000000000004
210
0
220
0
230
1
100
AcDbArc
50
109.55060139705773
51
119.09405312923055
0
ARC
5
125
100
AcDbEntity
8
0
100
AcDbCircle
10
53.432929030967557
20
-32.70144503496536
30
0
40
6.0000000000000071
210
0
220
0
230
1
100
AcDbArc
50
235.27183760039645
51
299.09405312923042
0
LINE
5
126
100
AcDbEntity
8
0
100
AcDbLine
10
50.014827669108151
20
-37.632629789165406
30
0
11
16.442531711235901
21
-14.361648016152198
31
0
0
ARC
5
127
100
AcDbEntity
8
0
100
AcDbCircle
10
21.000000193715096
20
-7.7867350105521371
30
0
40
8.0000000000000036
210
0
220
0
230
1
100
AcDbArc
50
180
51
235.27183760039651
0
LINE
5
128
100
AcDbEntity
8
0
100
AcDbLine
10
13.000000193715092
20
-7.7867350105521362
30
0
11
13.000000193715096
21
-4.0522397006994568
31
0
0
SPLINE
5
129
100
AcDbEntity
8
0
100
AcDbSpline
70
0
71
3
72
12
73
8
74
0
42
0.000000001
43
0.0000000001
44
0.0000000001
40
0.20196873050957143
40
0.20196873050957143
40
0.20196873050957143
40
0.20196873050957143
40
0.23438668403215643
40
0.23438668403215643
40
0.34462533987067445
40
0.34462533987067445
40
0.45486399570919234
40
0.45486399570919234
40
0.45486399570919234
40
0.45486399570919234
10
13.999197331908615
20
-1.8168900841546543
30
0
10
13.918983592094836
20
-1.8886873005666815
30
0
10
13.842542046213254
20
-1.9648846106643165
30
0
10
13.524411538016878
20
-2.3183166153197896
30
0
10
13.330833560961882
20
-2.6342912020468705
30
0
10
13.067514422832225
20
-3.3204230147706988
30
0
10
13.000000193715096
20
-3.6847775145710635
30
0
10
13.000000193715096
20
-4.0522397006994568
30
0
0
SPLINE
5
130
100
AcDbEntity
8
0
100
AcDbSpline
70
0
71
3
72
14
73
10
74
0
42
0.000000001
43
0.0000000001
44
0.0000000001
40
0
40
0
40
0
40
0
40
0.078128894677385444
40
0.078128894677385444
40
0.15625778935477094
40
0.15625778935477094
40
0.22608361904179994
40
0.22608361904179994
40
0.29590944872882885
40
0.29590944872882885
40
0.29590944872882885
40
0.29590944872882885
10
16.689381641736919
20
-1.8372906454728821
30
0
10
16.497987658627721
20
-1.6606782300865426
30
0
10
16.273927174313737
20
-1.5231378265230586
30
0
10
15.785696588877167
20
-1.3416845168253158
30
0
10
15.526194238257586
20
-1.299506403231462
30
0
10
15.033289916593757
20
-1.3160661044534598
30
0
10
14.803808195098604
20
-1.3644291239532012
30
0
10
14.371827266423603
20
-1.5378876979197389
30
0
10
14.172625267037306
20
-1.6616592843037428
30
0
10
13.999197331908615
20
-1.8168900841546531
30
0
0
ARC
5
131
100
AcDbEntity
8
0
100
AcDbCircle
10
18.384776310850231
20
5.5511151231257827e-16
30
0
40
2.5
210
0
220
0
230
1
100
AcDbArc
50
-132.69985949436722
51
132.69985822643571
0
SPLINE
5
132
100
AcDbEntity
8
0
100
AcDbSpline
70
0
71
3
72
14
73
10
74
0
42
0.000000001
43
0.0000000001
44
0.0000000001
40
0
40
0
40
0
40
0
40
0.078128894677385444
40
0.078128894677385444
40
0.15625778935477097
40
0.15625778935477097
40
0.22608360691604376
40
0.22608360691604376
40
0.29590942447731639
40
0.29590942447731639
40
0.29590942447731639
40
0.29590942447731639
10
13.999197551464352
20
1.8168900206753438
30
0
10
14.193248007144287
20
1.6432005774457408
30
0
10
14.419368645243901
20
1.5090740689962634
30
0
10
14.910294980923354
20
1.3350460796027623
30
0
10
15.170407155158571
20
1.2968084010899226
30
0
10
15.66300360553573
20
1.3208415287932531
30
0
10
15.891725427614325
20
1.3726792647604322
30
0
10
16.321025957254594
20
1.5526692078422277
30
0
10
16.518327917011955
20
1.6794475949634546
30
0
10
16.689381682395389
20
1.8372906829912539
30
0
0
SPLINE
5
133
100
AcDbEntity
8
0
100
AcDbSpline
70
0
71
3
72
12
73
8
74
0
42
0.000000001
43
0.0000000001
44
0.0000000001
40
0
40
0
40
0
40
0
40
0.11719334201607835
40
0.11719334201607835
40
0.23438668403215662
40
0.23438668403215662
40
0.25297194570166176
40
0.25297194570166176
40
0.25297194570166176
40
0.25297194570166176
10
13.000000193715096
20
4.0522398337387155
30
0
10
13.000000193715096
20
3.6615953603517877
30
0
10
13.076301746008971
20
3.2746856610481272
30
0
10
13.372918384018655
20
2.5518917842016005
30
0
10
13.590397653006534
20
2.2229179100744871
30
0
10
13.908324125623061
20
1.9007916849930107
30
0
10
13.953145346940216
20
1.8581101339457085
30
0
10
13.999197551464349
20
1.8168900206753471
30
0
0
LINE
5
134
100
AcDbEntity
8
0
100
AcDbLine
10
13.000000193715096
20
4.0522398337387155
30
0
11
13.000000193715096
21
8.4912993480699654
31
0
0
ARC
5
135
100
AcDbEntity
8
0
100
AcDbCircle
10
21.000000193715096
20
8.4912993480699654
30
0
40
7.9999999999999982
210
0
220
0
230
1
100
AcDbArc
50
109.42978326835798
51
180
0
LINE
5
136
100
AcDbEntity
8
0
100
AcDbLine
10
18.338789079284474
20
16.035698290625358
30
0
11
47.836178495197217
21
26.440606774126962
31
0
0
ARC
5
137
100
AcDbEntity
8
0
100
AcDbCircle
10
49.832086831020177
20
20.782307567210417
30
0
40
5.9999999999999973
210
0
220
-0
230
1
100
AcDbArc
50
45.609034096093637
51
109.42978326835792
0
ARC
5
138
100
AcDbEntity
8
0
100
AcDbCircle
10
55.428492251304824
20
26.498971486998659
30
0
40
2.0000000000000053
210
0
220
0
230
1
100
AcDbArc
50
225.60903409609293
51
235.14939860294226
0
ARC
5
139
100
AcDbEntity
8
0
100
AcDbCircle
10
60.000000000000206
20
33.064129385142003
30
0
40
9.9999988327458933
210
0
220
0
230
1
100
AcDbArc
50
235.14939860294226
51
244.3999999999993
0
ARC
5
140
100
AcDbEntity
8
0
100
AcDbCircle
10
56.759357388339097
20
26.300386489771409
30
0
40
2.4999999999999907
210
0
220
0
230
1
100
AcDbArc
50
244.39999999999978
51
328.00278903790098
0
ARC
5
141
100
AcDbEntity
8
0
100
AcDbCircle
10
63.967985457636914
20
21.796423639288307
30
0
40
6.0000000000000187
210
0
220
-0
230
1
100
AcDbArc
50
70.797202044930103
51
148.00278903790078
0
ARC
5
142
100
AcDbEntity
8
0
100
AcDbCircle
10
66.763743948038325
20
29.823486269126747
30
0
40
2.5000000000000044
210
0
220
0
230
1
100
AcDbArc
50
-109.20279795507037
51
58.002797056082031
0
ARC
5
143
100
AcDbEntity
8
0
100
AcDbCircle
10
71.267705789719585
20
37.032114968725509
30
0
40
5.9999999999999929
210
0
220
0
230
1
100
AcDbArc
50
160.79720294391723
51
238.00279705608179
0
ARC
5
144
100
AcDbEntity
8
0
100
AcDbCircle
10
63.240643116014901
20
39.827873333179994
30
0
40
2.5000000000000111
210
0
220
0
230
1
100
AcDbArc
50
-19.202797056082765
51
148.00279795506913
0
ARC
5
145
100
AcDbEntity
8
0
100
AcDbCircle
10
56.032014345747683
20
44.331835061755797
30
0
40
5.9999999999999929
210
0
220
0
230
1
100
AcDbArc
50
250.79721096209823
51
328.00279795506907
0
ARC
5
146
100
AcDbEntity
8
0
100
AcDbCircle
10
53.236257104629743
20
36.304771996802558
30
0
40
2.5
210
0
220
-0
230
1
100
AcDbArc
50
70.797210962098148
51
154.39999999999952
0
ARC
5
147
100
AcDbEntity
8
0
100
AcDbCircle
10
60.000000000000206
20
33.064129385142003
30
0
40
9.9999988327455469
210
0
220
0
230
1
100
AcDbArc
50
154.40000000000177
51
163.65060139705906
0
ARC
5
148
100
AcDbEntity
8
0
100
AcDbCircle
10
52.323497493277571
20
35.31608200191981
30
0
40
1.9999999999999949
210
0
220
0
230
1
100
AcDbArc
50
163.65060139705702
51
173.30438898993253
0
ARC
5
149
100
AcDbEntity
8
0
100
AcDbCircle
10
44.37806082228316
20
36.248839262528271
30
0
40
6.0000000000000373
210
0
220
0
230
1
100
AcDbArc
50
289.42978326835822
51
353.30438898993316
0
LINE
5
150
100
AcDbEntity
8
0
100
AcDbLine
10
46.373969158106163
20
30.590540055611704
30
0
11
18.164181641813322
21
20.639820237412827
31
0
0
ARC
5
151
100
AcDbEntity
8
0
100
AcDbCircle
10
16.500924695294191
20
25.355069576509948
30
0
40
5
210
0
220
0
230
1
100
AcDbArc
50
180
51
289.42978326835794
0
LINE
5
152
100
AcDbEntity
8
0
100
AcDbLine
10
11.50092469529419
20
25.355069576509948
30
0
11
11.500924695294197
21
42.841092523480235
31
0
0
ARC
5
153
100
AcDbEntity
8
0
100
AcDbCircle
10
19.500924695294191
20
42.841092523480235
30
0
40
8
210
0
220
0
230
1
100
AcDbArc
50
149.73691434286556
51
180
0
ARC
5
154
100
AcDbEntity
8
0
100
AcDbCircle
10
10
20
48.384776310850235
30
0
40
3.0000000000000004
210
-0
220
0
230
1
100
AcDbArc
50
-30.263085657134415
51
71.00426760082614
0
LINE
5
155
100
AcDbEntity
8
0
100
AcDbLine
10
10.976493183537499
20
51.221404778327923
30
0
11
2.6039818227666558
21
54.103594098014455
31
0
0
ARC
5
156
100
AcDbEntity
8
0
100
AcDbCircle
10
-1.1102230246251565e-15
20
46.539251518073911
30
0
40
8.0000000000000515
210
0
220
-0
230
1
100
AcDbArc
50
71.00426760082631
51
108.99573239917369
0
LINE
5
157
100
AcDbEntity
8
0
100
AcDbLine
10
-2.6039818227666602
20
54.103594098014469
30
0
11
-10.976493183537496
21
51.221404778327937
31
0
0
ARC
5
158
100
AcDbEntity
8
0
100
AcDbCircle
10
-10
20
48.384776310850235
30
0
40
3.0000000000000155
210
0
220
0
230
1
100
AcDbArc
50
108.99573239917369
51
210.26308565713438
0
ARC
5
159
100
AcDbEntity
8
0
100
AcDbCircle
10
-19.500924695294195
20
42.841092523480242
30
0
40
8
210
-0
220
0
230
1
100
AcDbArc
50
0
51
30.263085657134397
0
LINE
5
160
100
AcDbEntity
8
0
100
AcDbLine
10
-11.500924695294195
20
42.841092523480242
30
0
11
-11.500924695294191
21
25.355069576509951
31
0
0
ARC
5
161
100
AcDbEntity
8
0
100
AcDbCircle
10
-16.500924695294195
20
25.355069576509951
30
0
40
5.0000000000000009
210
0
220
0
230
1
100
AcDbArc
50
-109.42978326835789
51
0
0
LINE
5
162
100
AcDbEntity
8
0
100
AcDbLine
10
-18.164181641813329
20
20.639820237412827
30
0
11
-46.373969158106156
21
30.590540055611708
31
0
0
ARC
5
163
100
AcDbEntity
8
0
100
AcDbCircle
10
-44.378060822283196
20
36.24883926252825
30
0
40
6.0000000000000036
210
0
220
0
230
1
100
AcDbArc
50
186.69561101006673
51
250.57021673164206
0
ARC
5
164
100
AcDbEntity
8
0
100
AcDbCircle
10
-52.323497493277856
20
35.316082001919732
30
0
40
2.0000000000002887
210
0
220
-0
230
1
100
AcDbArc
50
6.6956110100685358
51
16.34939860294282
0
ARC
5
165
100
AcDbEntity
8
0
100
AcDbCircle
10
-59.999999999999993
20
33.064129385141669
30
0
40
9.9999988327455096
210
0
220
-0
230
1
100
AcDbArc
50
16.34939860294309
51
25.600000000000509
0
ARC
5
166
100
AcDbEntity
8
0
100
AcDbCircle
10
-53.236257104629736
20
36.304771996802558
30
0
40
2.4999999999999982
210
0
220
-0
230
1
100
AcDbArc
50
25.600000000000691
51
109.20278903790201
0
ARC
5
167
100
AcDbEntity
8
0
100
AcDbCircle
10
-56.032014345747683
20
44.331835061755804
30
0
40
6.0000000000000044
210
0
220
0
230
1
100
AcDbArc
50
211.99720204493093
51
289.20278903790177
0
ARC
5
168
100
AcDbEntity
8
0
100
AcDbCircle
10
-63.240643116014908
20
39.827873333179994
30
0
40
2.499999999999996
210
0
220
-0
230
1
100
AcDbArc
50
31.997202044930905
51
199.2027970560828
0
ARC
5
169
100
AcDbEntity
8
0
100
AcDbCircle
10
-71.267705789719585
20
37.032114968725516
30
0
40
6.0000000000000044
210
-0
220
0
230
1
100
AcDbArc
50
-58.002797056081825
51
19.202797056082716
0
ARC
5
170
100
AcDbEntity
8
0
100
AcDbCircle
10
-66.763743948038311
20
29.823486269126747
30
0
40
2.4999999999999969
210
0
220
0
230
1
100
AcDbArc
50
121.99720294391834
51
289.20279795507003
0
ARC
5
171
100
AcDbEntity
8
0
100
AcDbCircle
10
-63.967985457636907
20
21.796423639288328
30
0
40
6.0000000000000036
210
0
220
-0
230
1
100
AcDbArc
50
31.997210962099075
51
109.20279795507003
0
ARC
5
172
100
AcDbEntity
8
0
100
AcDbCircle
10
-56.759357388339097
20
26.300386489771412
30
0
40
2.4999999999999978
210
0
220
0
230
1
100
AcDbArc
50
211.99721096209908
51
295.60000000000048
0
ARC
5
173
100
AcDbEntity
8
0
100
AcDbCircle
10
-59.999999999999993
20
33.064129385141669
30
0
40
9.9999988327455043
210
-0
220
0
230
1
100
AcDbArc
50
295.60000000000048
51
304.8506013970578
0
ARC
5
174
100
AcDbEntity
8
0
100
AcDbCircle
10
-55.428492251304135
20
26.498971486997846
30
0
40
1.9999999999989333
210
0
220
0
230
1
100
AcDbArc
50
304.85060139705479
51
314.3909659039092
0
ARC
5
175
100
AcDbEntity
8
0
100
AcDbCircle
10
-49.83208683102017
20
20.78230756721041
30
0
40
6.0000000000000107
210
0
220
-0
230
1
100
AcDbArc
50
70.57021673164212
51
134.39096590390639
0
LINE
5
176
100
AcDbEntity
8
0
100
AcDbLine
10
-47.83617849519721
20
26.440606774126966
30
0
11
-18.338789079284474
21
16.035698290625355
31
0
0
ARC
5
177
100
AcDbEntity
8
0
100
AcDbCircle
10
-21.000000193715096
20
8.4912993480699601
30
0
40
8
210
-0
220
0
230
1
100
AcDbArc
50
0
51
70.57021673164202
0
LINE
5
178
100
AcDbEntity
8
0
100
AcDbLine
10
-13.000000193715094
20
8.4912993480699548
30
0
11
-13.000000193715096
21
4.0522397006994542
31
0
0
SPLINE
5
179
100
AcDbEntity
8
0
100
AcDbSpline
70
0
71
3
72
12
73
8
74
0
42
0.000000001
43
0.0000000001
44
0.0000000001
40
0.20196873050957057
40
0.20196873050957057
40
0.20196873050957057
40
0.20196873050957057
40
0.23438668403215651
40
0.23438668403215651
40
0.34462533987067434
40
0.34462533987067434
40
0.45486399570919217
40
0.45486399570919217
40
0.45486399570919217
40
0.45486399570919217
10
-13.999197331908618
20
1.8168900841546471
30
0
10
-13.918983592094838
20
1.888687300566676
30
0
10
-13.842542046213255
20
1.9648846106643114
30
0
10
-13.524411538016876
20
2.3183166153197865
30
0
10
-13.330833560961882
20
2.6342912020468683
30
0
10
-13.067514422832225
20
3.3204230147706952
30
0
10
-13.000000193715096
20
3.6847775145710608
30
0
10
-13.000000193715096
20
4.0522397006994542
30
0
0
SPLINE
5
180
100
AcDbEntity
8
0
100
AcDbSpline
70
0
71
3
72
14
73
10
74
0
42
0.000000001
43
0.0000000001
44
0.0000000001
40
0
40
0
40
0
40
0
40
0.078128894677385527
40
0.078128894677385527
40
0.15625778935477103
40
0.15625778935477103
40
0.22608361904180022
40
0.22608361904180022
40
0.29590944872882929
40
0.29590944872882929
40
0.29590944872882929
40
0.29590944872882929
10
-16.689381641736922
20
1.8372906454728801
30
0
10
-16.497987658627725
20
1.6606782300865399
30
0
10
-16.273927174313741
20
1.5231378265230553
30
0
10
-15.785696588877174
20
1.3416845168253113
30
0
10
-15.526194238257592
20
1.2995064032314572
30
0
10
-15.033289916593759
20
1.3160661044534541
30
0
10
-14.803808195098608
20
1.3644291239531945
30
0
10
-14.371827266423605
20
1.5378876979197322
30
0
10
-14.172625267037306
20
1.6616592843037361
30
0
10
-13.999197331908615
20
1.8168900841546467
30
0
0
ARC
5
181
100
AcDbEntity
8
0
100
AcDbCircle
10
-18.384776310850238
20
0
30
0
40
2.4999999999999996
210
0
220
-0
230
1
100
AcDbArc
50
47.300140505632683
51
312.69985822643577
0
SPLINE
5
182
100
AcDbEntity
8
0
100
AcDbSpline
70
0
71
3
72
14
73
10
74
0
42
0.000000001
43
0.0000000001
44
0.0000000001
40
0
40
0
40
0
40
0
40
0.078128894677385416
40
0.078128894677385416
40
0.15625778935477086
40
0.15625778935477086
40
0.22608360691604323
40
0.22608360691604323
40
0.29590942447731544
40
0.29590942447731544
40
0.29590942447731544
40
0.29590942447731544
10
-13.999197551464366
20
-1.8168900206753327
30
0
10
-14.193248007144302
20
-1.643200577445731
30
0
10
-14.419368645243916
20
-1.5090740689962554
30
0
10
-14.910294980923371
20
-1.3350460796027572
30
0
10
-15.170407155158589
20
-1.296808401089919
30
0
10
-15.663003605535744
20
-1.3208415287932525
30
0
10
-15.891725427614336
20
-1.3726792647604313
30
0
10
-16.321025957254605
20
-1.5526692078422275
30
0
10
-16.518327917011963
20
-1.6794475949634542
30
0
10
-16.689381682395393
20
-1.8372906829912525
30
0
0
SPLINE
5
183
100
AcDbEntity
8
0
100
AcDbSpline
70
0
71
3
72
12
73
8
74
0
42
0.000000001
43
0.0000000001
44
0.0000000001
40
0
40
0
40
0
40
0
40
0.11719334201607835
40
0.11719334201607835
40
0.23438668403215662
40
0.23438668403215662
40
0.25297194570166404
40
0.25297194570166404
40
0.25297194570166404
40
0.25297194570166404
10
-13.000000193715096
20
-4.0522398337387155
30
0
10
-13.000000193715096
20
-3.6615953603517877
30
0
10
-13.076301746008971
20
-3.2746856610481272
30
0
10
-13.372918384018655
20
-2.5518917842016005
30
0
10
-13.590397653006534
20
-2.2229179100744871
30
0
10
-13.908324125623068
20
-1.9007916849930058
30
0
10
-13.95314534694023
20
-1.8581101339456962
30
0
10
-13.999197551464366
20
-1.8168900206753311
30
0
0
LINE
5
184
100
AcDbEntity
8
0
100
AcDbLine
10
-13.000000193715096
20
-4.0522398337387155
30
0
11
-13.000000193715096
21
-7.7867350105521353
31
0
0
ARC
5
185
100
AcDbEntity
8
0
100
AcDbCircle
10
-21.000000193715096
20
-7.7867350105521353
30
0
40
8.0000000000000018
210
-0
220
0
230
1
100
AcDbArc
50
-55.271837600396495
51
0
0
LINE
5
186
100
AcDbEntity
8
0
100
AcDbLine
10
-16.442531711235898
20
-14.361648016152193
30
0
11
-50.014827669108151
21
-37.632629789165406
31
0
0
ARC
5
187
100
AcDbEntity
8
0
100
AcDbCircle
10
-53.432929030967557
20
-32.701445034965367
30
0
40
5.9999999999999973
210
0
220
0
230
1
100
AcDbArc
50
240.90594687076955
51
304.72816239960355
0
ARC
5
188
100
AcDbEntity
8
0
100
AcDbCircle
10
-57.322886525546309
20
-39.69202660521966
30
0
40
2.0000000000005298
210
0
220
-0
230
1
100
AcDbArc
50
60.905946870771039
51
70.449398602941841
0
ARC
5
189
100
AcDbEntity
8
0
100
AcDbCircle
10
-60.000000000000028
20
-47.230796051808369
30
0
40
9.9999988327455043
210
0
220
-0
230
1
100
AcDbArc
50
70.449398602942608
51
79.699999999999989
0
ARC
5
190
100
AcDbEntity
8
0
100
AcDbCircle
10
-58.658983595335094
20
-39.851659415751044
30
0
40
2.4999999999999996
210
0
220
-0
230
1
100
AcDbArc
50
79.700000000000031
51
163.30278903790142
0
ARC
5
191
100
AcDbEntity
8
0
100
AcDbCircle
10
-66.800593690767144
20
-37.409491310570935
30
0
40
6.0000000000000044
210
0
220
0
230
1
100
AcDbArc
50
266.0972020449305
51
343.30278903790145
0
ARC
5
192
100
AcDbEntity
8
0
100
AcDbCircle
10
-67.37913778450158
20
-45.889779438435745
30
0
40
2.4999999999999916
210
0
220
-0
230
1
100
AcDbArc
50
86.097202044930441
51
253.30279705608234
0
ARC
5
193
100
AcDbEntity
8
0
100
AcDbCircle
10
-69.821304750314994
20
-54.03138987563365
30
0
40
6.0000000000000018
210
-0
220
0
230
1
100
AcDbArc
50
-3.9027970560821892
51
73.302797056082156
0
ARC
5
194
100
AcDbEntity
8
0
100
AcDbCircle
10
-61.341016613372652
20
-54.609933836309935
30
0
40
2.4999999999999973
210
0
220
0
230
1
100
AcDbArc
50
176.09720294391772
51
343.30279795506948
0
ARC
5
195
100
AcDbEntity
8
0
100
AcDbCircle
10
-53.199406137856442
20
-57.052100674379119
30
0
40
5.9999999999999982
210
0
220
-0
230
1
100
AcDbArc
50
86.097210962098643
51
163.30279795506971
0
ARC
5
196
100
AcDbEntity
8
0
100
AcDbCircle
10
-52.620863363942696
20
-48.57181245647331
30
0
40
2.5000000000000018
210
0
220
0
230
1
100
AcDbArc
50
266.09721096209859
51
349.70000000000005
0
ARC
5
197
100
AcDbEntity
8
0
100
AcDbCircle
10
-60.000000000000028
20
-47.230796051808369
30
0
40
9.9999988327455096
210
-0
220
0
230
1
100
AcDbArc
50
349.69999999999999
51
358.95060139705748
0
ARC
5
198
100
AcDbEntity
8
0
100
AcDbCircle
10
-52.00134295396748
20
-47.377311524821557
30
0
40
2.0000000000031943
210
0
220
0
230
1
100
AcDbArc
50
-1.049398602937341
51
6.2682639714346413
0
ARC
5
199
100
AcDbEntity
8
0
100
AcDbCircle
10
-44.04917027705909
20
-46.503841595927312
30
0
40
5.999999999999992
210
0
220
0
230
1
100
AcDbArc
50
122.80577824627638
51
186.2682639714414
0
LWPOLYLINE
5
200
100
AcDbEntity
8
0
100
AcDbPolyline
90
4
70
1
43
0.0
10
57.943301671368381
20
-41.506288039323465
42
-0.99999999999999989
10
59.911071747235468
20
-41.148683609090774
10
60.179275069909998
20
-42.624511165991088
42
-0.99999999999999989
10
58.211504994042905
20
-42.982115596223778
0
LWPOLYLINE
5
201
100
AcDbEntity
8
0
100
AcDbPolyline
90
4
70
1
43
0.0
10
64.606284885817317
20
-47.410071121718346
42
-0.99999999999999989
10
64.248680455584619
20
-45.442301045851252
10
65.724508012484932
20
-45.174097723176729
42
-0.99999999999999989
10
66.08211244271763
20
-47.141867799043816
0
LWPOLYLINE
5
202
100
AcDbEntity
8
0
100
AcDbPolyline
90
4
70
1
43
0.0
10
54.275491987515124
20
-49.287494380440016
42
-0.99999999999999989
10
53.917887557282427
20
-47.319724304572929
10
55.39371511418274
20
-47.051520981898406
42
-0.99999999999999989
10
55.751319544415438
20
-49.019291057765493
0
LWPOLYLINE
5
203
100
AcDbEntity
8
0
100
AcDbPolyline
90
4
70
1
43
0.0
10
62.056698328631668
20
-52.95530406429328
42
-0.99999999999999989
10
60.088928252764582
20
-53.312908494525971
10
59.820724930090059
20
-51.837080937625657
42
-0.99999999999999989
10
61.788495005957145
20
-51.479476507392967
0
CIRCLE
5
204
100
AcDbEntity
8
0
100
AcDbCircle
10
60.000000000000028
20
-47.23079605180839
30
0
40
2.1500000000000004
210
-0
220
0
230
1
0
LWPOLYLINE
5
205
100
AcDbEntity
8
0
100
AcDbPolyline
90
4
70
1
43
0.0
10
54.156919092767339
20
34.754811351548497
42
-0.99999999999999989
10
55.021090590371323
20
36.558476404358714
10
56.373839379978989
20
35.910347781155728
42
-0.99999999999999989
10
55.509667882374998
20
34.106682728345511
0
LWPOLYLINE
5
206
100
AcDbEntity
8
0
100
AcDbPolyline
90
4
70
1
43
0.0
10
62.846218396014052
20
36.690290005162673
42
-0.99999999999999989
10
61.042553343203835
20
37.554461502766657
10
61.690681966406814
20
38.907210292374316
42
-0.99999999999999989
10
63.494347019217031
20
38.043038794770339
0
LWPOLYLINE
5
207
100
AcDbEntity
8
0
100
AcDbPolyline
90
4
70
1
43
0.0
10
58.309318033593158
20
27.221048477909019
42
-0.99999999999999989
10
56.505652980782941
20
28.085219975512995
10
57.153781603985927
20
29.437968765120658
42
-0.99999999999999989
10
58.957446656796144
20
28.573797267516682
0
LWPOLYLINE
5
208
100
AcDbEntity
8
0
100
AcDbPolyline
90
4
70
1
43
0.0
10
65.843080907232647
20
31.373447418734838
42
-0.99999999999999989
10
64.978909409628656
20
29.56978236592462
10
63.626160620020997
20
30.217910989127606
42
-0.99999999999999989
10
64.490332117624988
20
32.02157604193782
0
CIRCLE
5
209
100
AcDbEntity
8
0
100
AcDbCircle
10
60.000000000000206
20
33.064129385142003
30
0
40
2.1499999999999999
210
-0
220
0
230
1
0
LWPOLYLINE
5
210
100
AcDbEntity
8
0
100
AcDbPolyline
90
4
70
1
43
0.0
10
-59.911071747235468
20
-41.148683609090774
42
-0.99999999999999989
10
-57.943301671368381
20
-41.506288039323465
10
-58.211504994042905
20
-42.982115596223778
42
-0.99999999999999989
10
-60.179275069909998
20
-42.624511165991088
0
LWPOLYLINE
5
211
100
AcDbEntity
8
0
100
AcDbPolyline
90
4
70
1
43
0.0
10
-64.248680455584619
20
-45.442301045851252
42
-0.99999999999999989
10
-64.606284885817317
20
-47.410071121718346
10
-66.08211244271763
20
-47.141867799043816
42
-0.99999999999999989
10
-65.724508012484932
20
-45.174097723176729
0
LWPOLYLINE
5
212
100
AcDbEntity
8
0
100
AcDbPolyline
90
4
70
1
43
0.0
10
-53.917887557282427
20
-47.319724304572929
42
-0.99999999999999989
10
-54.275491987515124
20
-49.287494380440016
10
-55.751319544415438
20
-49.019291057765493
42
-0.99999999999999989
10
-55.39371511418274
20
-47.051520981898406
0
LWPOLYLINE
5
213
100
AcDbEntity
8
0
100
AcDbPolyline
90
4
70
1
43
0.0
10
-60.088928252764582
20
-53.312908494525971
42
-0.99999999999999989
10
-62.056698328631668
20
-52.95530406429328
10
-61.788495005957145
20
-51.479476507392967
42
-0.99999999999999989
10
-59.820724930090059
20
-51.837080937625657
0
CIRCLE
5
214
100
AcDbEntity
8
0
100
AcDbCircle
10
-60.000000000000028
20
-47.230796051808369
30
0
40
2.1500000000000004
210
-0
220
0
230
1
0
CIRCLE
5
215
100
AcDbEntity
8
0
100
AcDbCircle
10
-59.999999999999993
20
33.064129385141669
30
0
40
2.1499999999999999
210
0
220
-0
230
1
0
ARC
5
216
100
AcDbEntity
8
0
100
AcDbCircle
10
-65.410995158430651
20
30.471614892329725
30
0
40
1.0000000000000042
210
0
220
0
230
1
100
AcDbArc
50
115.60000000000072
51
295.60000000000065
0
LINE
5
217
100
AcDbEntity
8
0
100
AcDbLine
10
-65.843080907232647
20
31.373447418734838
30
0
11
-64.490332117624973
21
32.021576041937827
31
0
0
ARC
5
218
100
AcDbEntity
8
0
100
AcDbCircle
10
-64.058246368822992
20
31.119743515532718
30
0
40
1.0000000000000042
210
-0
220
0
230
1
100
AcDbArc
50
-64.399999999999309
51
115.60000000000009
0
LINE
5
219
100
AcDbEntity
8
0
100
AcDbLine
10
-63.626160620020997
20
30.217910989127606
30
0
11
-64.978909409628656
21
29.56978236592461
31
0
0
LWPOLYLINE
5
220
100
AcDbEntity
8
0
100
AcDbPolyline
90
4
70
1
43
0.0
10
-56.505652980782955
20
28.085219975512988
42
-0.99999999999999989
10
-58.309318033593158
20
27.221048477909019
10
-58.957446656796122
20
28.573797267516689
42
-0.99999999999999989
10
-57.153781603985927
20
29.437968765120658
0
LWPOLYLINE
5
221
100
AcDbEntity
8
0
100
AcDbPolyline
90
4
70
1
43
0.0
10
-61.042553343203835
20
37.554461502766642
42
-0.99999999999999989
10
-62.846218396014052
20
36.690290005162673
10
-63.494347019217031
20
38.043038794770347
42
-0.99999999999999989
10
-61.690681966406814
20
38.907210292374316
0
ARC
5
222
100
AcDbEntity
8
0
100
AcDbCircle
10
-54.589004841569334
20
35.656643877953613
30
0
40
1.0000000000000042
210
-0
220
0
230
1
100
AcDbArc
50
-64.399999999999352
51
115.60000000000043
0
LINE
5
223
100
AcDbEntity
8
0
100
AcDbLine
10
-54.156919092767339
20
34.754811351548497
30
0
11
-55.509667882374998
21
34.106682728345511
31
0
0
ARC
5
224
100
AcDbEntity
8
0
100
AcDbCircle
10
-55.941753631176994
20
35.00851525475062
30
0
40
1.0000000000000042
210
0
220
0
230
1
100
AcDbArc
50
115.6000000000008
51
295.60000000000076
0
LINE
5
225
100
AcDbEntity
8
0
100
AcDbLine
10
-56.373839379978989
20
35.910347781155728
30
0
11
-55.021090590371323
21
36.558476404358721
31
0
0
CIRCLE
5
226
100
AcDbEntity
8
0
100
AcDbCircle
10
10
20
10
30
0
40
1.0000001639127842
210
0
220
0
230
1
0
CIRCLE
5
227
100
AcDbEntity
8
0
100
AcDbCircle
10
8.0000001192092913
20
8.0000001192092878
30
0
40
1.0000001639127842
210
0
220
0
230
1
0
CIRCLE
5
228
100
AcDbEntity
8
0
100
AcDbCircle
10
-8.0000001192092896
20
8.0000001192092896
30
0
40
1.0000001639127842
210
0
220
0
230
1
0
CIRCLE
5
229
100
AcDbEntity
8
0
100
AcDbCircle
10
0
20
-18.384776310850238
30
0
40
1.0000001639127842
210
0
220
0
230
1
0
CIRCLE
5
230
100
AcDbEntity
8
0
100
AcDbCircle
10
-18.384776310850238
20
0
30
0
40
1.0000000000000009
210
0
220
0
230
1
0
CIRCLE
5
231
100
AcDbEntity
8
0
100
AcDbCircle
10
8.0000001192092878
20
-8.0000001192092913
30
0
40
1.0000001639127842
210
0
220
-0
230
1
0
CIRCLE
5
232
100
AcDbEntity
8
0
100
AcDbCircle
10
10
20
-33.384776310850235
30
0
40
0.99999999999999867
210
0
220
0
230
1
0
CIRCLE
5
233
100
AcDbEntity
8
0
100
AcDbCircle
10
-8.0000001192092913
20
-8.0000001192092878
30
0
40
1.0000001639127842
210
0
220
-0
230
1
0
CIRCLE
5
234
100
AcDbEntity
8
0
100
AcDbCircle
10
-10
20
48.384776310850235
30
0
40
0.99999999999999978
210
0
220
0
230
1
0
CIRCLE
5
235
100
AcDbEntity
8
0
100
AcDbCircle
10
18.384776310850231
20
5.5511151231257827e-16
30
0
40
1.0000001639127842
210
0
220
0
230
1
0
CIRCLE
5
236
100
AcDbEntity
8
0
100
AcDbCircle
10
0
20
18.384776310850231
30
0
40
1.0000001639127842
210
0
220
0
230
1
0
CIRCLE
5
237
100
AcDbEntity
8
0
100
AcDbCircle
10
-10
20
-33.384776310850242
30
0
40
1.0000000000000009
210
0
220
0
230
1
0
CIRCLE
5
238
100
AcDbEntity
8
0
100
AcDbCircle
10
10
20
-10
30
0
40
1.0000001639127842
210
0
220
0
230
1
0
CIRCLE
5
239
100
AcDbEntity
8
0
100
AcDbCircle
10
-10
20
10
30
0
40
1.0000001639127842
210
0
220
0
230
1
0
CIRCLE
5
240
100
AcDbEntity
8
0
100
AcDbCircle
10
10
20
48.384776310850235
30
0
40
1.0000000000000009
210
0
220
0
230
1
0
CIRCLE
5
241
100
AcDbEntity
8
0
100
AcDbCircle
10
-10
20
-10
30
0
40
1.0000001639127842
210
0
220
0
230
1
0
LWPOLYLINE
5
242
100
AcDbEntity
8
0
100
AcDbPolyline
90
8
70
1
43
0.0
10
-4.983228045189021
20
15.134776310850238
10
-4.983228045189021
20
11.134776310850238
42
0.41421356237309492
10
-3.9832280451890218
20
10.134776310850238
10
3.9832280451890427
20
10.134776310850238
42
0.41421356237309509
10
4.9832280451890423
20
11.134776310850238
10
4.9832280451890396
20
15.134776310850238
42
0.41421356237309509
10
3.9832280451890401
20
16.134776310850238
10
-3.983228045189021
20
16.134776310850238
42
0.41421356237309509
0
LWPOLYLINE
5
243
100
AcDbEntity
8
0
100
AcDbPolyline
90
6
70
1
43
0.0
10
-8.5009246952941915
20
41.700841327545177
10
-8.5009246952941915
20
28.311256442347627
42
0.72137978385731372
10
-6.6999458870925022
20
27.712563742532605
10
-1.6958507354493555
20
34.407441050923708
42
0.33242966322207712
10
-1.6958580142460744
20
35.604836188584656
10
-6.6999531658892177
20
42.299543765391107
42
0.72137516275257652
0
CIRCLE
5
244
100
AcDbEntity
8
0
100
AcDbCircle
10
0
20
0
30
0
40
8
210
0
220
0
230
1
0
LWPOLYLINE
5
245
100
AcDbEntity
8
0
100
AcDbPolyline
90
8
70
1
43
0.0
10
0.80108526514485412
20
37.748041032399662
10
6.9183857759692691
20
45.93225319013208
42
0.49736197982930169
10
6.0331739545373475
20
48.99679564405367
10
1.0751147918611521
20
50.900046389833193
42
0.18534115817718344
10
-1.075115793770749
20
50.900048999865078
10
-6.0331342524388383
20
48.996827689237122
42
0.49736652817975846
10
-6.9183360491323098
20
45.932264019232463
10
-0.80086507246180838
20
37.748031294368751
42
0.50101731836531194
0
LWPOLYLINE
5
246
100
AcDbEntity
8
0
100
AcDbPolyline
90
8
70
1
43
0.0
10
-4.9832280451890192
20
-11.134776310850238
10
-4.9832280451890201
20
-15.134776310850238
42
0.41421356237309509
10
-3.9832280451890201
20
-16.134776310850238
10
3.9832280451890401
20
-16.134776310850238
42
0.41421356237309509
10
4.9832280451890405
20
-15.134776310850238
10
4.9832280451890423
20
-11.134776310850238
42
0.41421356237309509
10
3.9832280451890423
20
-10.134776310850238
10
-3.9832280451890192
20
-10.134776310850238
42
0.41421356237309509
0
LWPOLYLINE
5
247
100
AcDbEntity
8
0
100
AcDbPolyline
90
6
70
1
43
0.0
10
1.6961115420232287
20
34.407461670185569
10
6.6999531658892142
20
27.713093274445669
42
0.72137516275257574
10
8.5009246952941844
20
28.311795712291598
10
8.5009246952941844
20
41.700702226756754
42
0.72137978385731361
10
6.6999458870924968
20
42.299394926571772
10
1.6961042632265098
20
35.60485680784651
42
0.33242966322207712
0
LWPOLYLINE
5
248
100
AcDbEntity
8
0
100
AcDbPolyline
90
12
70
1
43
0.0
10
9.5000001713633431
20
-30.384776310850235
10
9.5000001713633448
20
-21.603455358203817
42
0.35137216360058376
10
7.934916334674269
20
-19.651316036615604
10
3.2392115396419605
20
-18.605162265257395
42
0.36871532454258149
10
2.091983163221423
20
-19.213091736758805
42
-0.67958700580658271
10
-2.0919831632214203
20
-19.213091736758813
42
0.36871532454258105
10
-3.2392115396419587
20
-18.605162265257402
10
-7.9349163346742699
20
-19.651316036615608
42
0.35137216360058393
10
-9.5000001713633484
20
-21.603455358203828
10
-9.5000001713633502
20
-30.384776310850235
42
0.41421356237309509
10
-7.5000001713633502
20
-32.384776310850242
10
7.5000001713633431
20
-32.384776310850242
42
0.41421356237309509
0
LWPOLYLINE
5
249
100
AcDbEntity
8
0
100
AcDbPolyline
90
14
70
1
43
0.0
10
-7.6547877699144067
20
22.30151131402927
10
-7.5801831230568606
20
21.091265178864134
42
0.25541360022378617
10
-6.5585125224995231
20
19.467817357476303
10
-3.7161116504258525
20
17.881771140330841
42
0.53518375848799571
10
-2.2353518465089759
20
18.641100563134156
42
-0.89188453747434193
10
2.2353518465089759
20
18.641100563134152
42
0.53518375848799682
10
3.7161116504258542
20
17.881771140330834
10
6.5585010533617076
20
19.467810957751745
42
0.25541629354772821
10
7.5801728983344248
20
21.091278967867613
10
7.6548023147938862
20
22.302126328521076
42
0.17769468669320168
10
7.2605333399164564
20
23.622565819511632
10
0.80111860023896697
20
32.26426656440146
42
0.50101731836531405
10
-0.80083173736770097
20
32.264256826370556
10
-7.2605345970457904
20
23.62195151768605
42
0.17769415950745479
0
ENDSEC
0
SECTION
2
OBJECTS
0
DICTIONARY
5
C
100
AcDbDictionary
3
ACAD_GROUP
350
D
3
ACAD_MLINESTYLE
350
17
0
DICTIONARY
5
D
100
AcDbDictionary
0
DICTIONARY
5
1A
330
C
100
AcDbDictionary
0
DICTIONARY
5
17
100
AcDbDictionary
0
ENDSEC
0
EOF
