0
SECTION
2
HEADER
9
$INSUNITS
70
4
9
$ACADVER
1
AC1014
9
$HANDSEED
5
FFFF
0
ENDSEC
0
SECTION
2
TABLES
0
TABLE
2
VPORT
5
8
100
AcDbSymbolTable
0
ENDTAB
0
TABLE
2
LTYPE
5
5
100
AcDbSymbolTable
0
LTYPE
5
14
100
AcDbSymbolTableRecord
100
AcDbLinetypeTableRecord
2
BYBLOCK
70
0
0
LTYPE
5
15
100
AcDbSymbolTableRecord
100
AcDbLinetypeTableRecord
2
BYLAYER
70
0
0
ENDTAB
0
TABLE
2
LAYER
5
2
100
AcDbSymbolTable
70
2
0
LAYER
5
50
100
AcDbSymbolTableRecord
100
AcDbLayerTableRecord
2
0
70
0
6
CONTINUOUS
0
ENDTAB
0
TABLE
2
STYLE
5
3
100
AcDbSymbolTable
70
1
0
STYLE
5
11
100
AcDbSymbolTableRecord
100
AcDbTextStyleTableRecord
2
STANDARD
70
0
0
ENDTAB
0
TABLE
2
VIEW
5
6
100
AcDbSymbolTable
70
0
0
ENDTAB
0
TABLE
2
UCS
5
7
100
AcDbSymbolTable
70
0
0
ENDTAB
0
TABLE
2
APPID
5
9
100
AcDbSymbolTable
70
2
0
APPID
5
12
100
AcDbSymbolTableRecord
100
AcDbRegAppTableRecord
2
ACAD
70
0
0
ENDTAB
0
TABLE
2
DIMSTYLE
5
A
100
AcDbSymbolTable
70
1
0
ENDTAB
0
TABLE
2
BLOCK_RECORD
5
1
100
AcDbSymbolTable
70
1
0
BLOCK_RECORD
5
1F
100
AcDbSymbolTableRecord
100
AcDbBlockTableRecord
2
*MODEL_SPACE
0
BLOCK_RECORD
5
1B
100
AcDbSymbolTableRecord
100
AcDbBlockTableRecord
2
*PAPER_SPACE
0
ENDTAB
0
ENDSEC
0
SECTION
2
BLOCKS
0
BLOCK
5
20
100
AcDbEntity
100
AcDbBlockBegin
2
*MODEL_SPACE
0
ENDBLK
5
21
100
AcDbEntity
100
AcDbBlockEnd
0
BLOCK
5
1C
100
AcDbEntity
100
AcDbBlockBegin
2
*PAPER_SPACE
0
ENDBLK
5
1D
100
AcDbEntity
100
AcDbBlockEnd
0
ENDSEC
0
SECTION
2
ENTITIES
0
ARC
5
100
100
AcDbEntity
8
0
100
AcDbCircle
10
-3.5388358909926865e-15
20
42.822232061452752
30
0
40
5.0000000000001155
210
0
220
-0
230
1
100
AcDbArc
50
78.158626559635962
51
101.84137344036401
0
LINE
5
101
100
AcDbEntity
8
0
100
AcDbLine
10
-1.0260142065266193
20
47.715829393478217
30
0
11
-10.013007103263295
21
45.83157497686291
31
0
0
ARC
5
102
100
AcDbEntity
8
0
100
AcDbCircle
10
-9.4999999999999982
20
43.384776310850235
30
0
40
2.5000000000000027
210
0
220
0
230
1
100
AcDbArc
50
101.84137344036404
51
203.49324233081117
0
SPLINE
5
103
100
AcDbEntity
8
0
100
AcDbSpline
70
4
71
5
72
16
73
10
74
0
42
0.000000001
43
0.0000000001
44
0.0000000001
40
1.5696890947596067e-07
40
1.5696890947596067e-07
40
1.5696890947596067e-07
40
1.5696890947596067e-07
40
1.5696890947596067e-07
40
1.5696890947596067e-07
40
0.10000000000000001
40
0.20000000000000001
40
0.30000000000000004
40
0.40000000000000002
40
0.44943720006801063
40
0.44943720006801063
40
0.44943720006801063
40
0.44943720006801063
40
0.44943720006801063
40
0.44943720006801063
41
1
41
1
41
1
41
1
41
1
41
1
41
1
41
1
41
1
41
1
10
-11.792767744731984
20
42.388174048839851
30
0
10
-11.265989437741153
20
41.176275997001703
30
0
10
-10.290394914954364
20
38.751707693172385
30
0
10
-9.0608822066780057
20
35.112552402948097
30
0
10
-7.8839850517658485
20
30.285639610362296
30
0
10
-7.2349116779504037
20
25.055404015681656
30
0
10
-7.1740267690232917
20
21.256336750973922
30
0
10
-7.3505371367657499
20
18.739181168521451
30
0
10
-7.5333864119754619
20
17.311467339514589
30
0
10
-7.6022375529264856
20
16.848273108643735
30
0
0
SPLINE
5
104
100
AcDbEntity
8
0
100
AcDbSpline
70
0
71
3
72
12
73
8
74
0
42
0.000000001
43
0.0000000001
44
0.0000000001
40
0
40
0
40
0
40
0
40
0.19532223669346374
40
0.19532223669346374
40
0.37320658221255582
40
0.37320658221255582
40
0.5510909277316477
40
0.5510909277316477
40
0.5510909277316477
40
0.5510909277316477
10
-10.955462078426656
20
12.843781373706232
30
0
10
-10.338291257782755
20
13.051140219404896
30
0
10
-9.7675227201083317
20
13.377063786629485
30
0
10
-8.8269898388622252
20
14.191304837092481
30
0
10
-8.4512862865498839
20
14.656071023879054
30
0
10
-7.8802371532235993
20
15.69542243158206
30
0
10
-7.6894179458348546
20
16.261769319709622
30
0
10
-7.602237552926483
20
16.848273108643735
30
0
0
ARC
5
105
100
AcDbEntity
8
0
100
AcDbCircle
10
-10.000000149011621
20
10
30
0
40
3.0000000000000004
210
0
220
0
230
1
100
AcDbArc
50
108.57146843695898
51
189.7772858620896
0
SPLINE
5
106
100
AcDbEntity
8
0
100
AcDbSpline
70
0
71
3
72
14
73
10
74
0
42
0.000000001
43
0.0000000001
44
0.0000000001
40
0
40
0
40
0
40
0
40
0.19532223669346377
40
0.19532223669346377
40
0.39064447338692759
40
0.39064447338692759
40
0.49232806498435983
40
0.49232806498435983
40
0.59401165658179222
40
0.59401165658179222
40
0.59401165658179222
40
0.59401165658179222
10
-15.243902155984589
20
4.3951655413627142
30
0
10
-14.690973058246005
20
4.7389197058723864
30
0
10
-14.210473096336163
20
5.1873867413120509
30
0
10
-13.448423248258115
20
6.243260824723146
30
0
10
-13.174158973986787
20
6.8405731409613288
30
0
10
-12.942928152605557
20
7.8032105463953316
30
0
10
-12.897480142369567
20
8.139978577611803
30
0
10
-12.875420910962571
20
8.8175101785844454
30
0
10
-12.898866747334237
20
9.15652127167826
30
0
10
-12.956426043924871
20
9.4905434975520713
30
0
0
SPLINE
5
107
100
AcDbEntity
8
0
100
AcDbSpline
70
4
71
5
72
13
73
7
74
0
42
0.000000001
43
0.0000000001
44
0.0000000001
40
0.85632244298151994
40
0.85632244298151994
40
0.85632244298151994
40
0.85632244298151994
40
0.85632244298151994
40
0.85632244298151994
40
0.89999999999999991
40
0.99732345153251101
40
0.99732345153251101
40
0.99732345153251101
40
0.99732345153251101
40
0.99732345153251101
40
0.99732345153251101
41
1
41
1
41
1
41
1
41
1
41
1
41
1
10
-15.243902155984589
20
4.3951655413627142
30
0
10
-15.483727813561956
20
4.2460667348689638
30
0
10
-16.265596282966644
20
3.7773907795317445
30
0
10
-17.070519225903247
20
3.3466452906291861
30
0
10
-17.893635794277863
20
2.9451656318930786
30
0
10
-18.732324128619183
20
2.5679468765840312
30
0
10
-19.318587562797209
20
2.3190507855019451
30
0
0
SPLINE
5
108
100
AcDbEntity
8
0
100
AcDbSpline
70
4
71
5
72
12
73
6
74
0
42
0.000000001
43
0.0000000001
44
0.0000000001
40
0.99732345153251223
40
0.99732345153251223
40
0.99732345153251223
40
0.99732345153251223
40
0.99732345153251223
40
0.99732345153251223
40
1
40
1
40
1
40
1
40
1
40
1
41
1
41
1
41
1
41
1
41
1
41
1
10
-19.318587562797248
20
2.31905078550193
30
0
10
-19.334710732203845
20
2.312205750305794
30
0
10
-19.350839478572858
20
2.305369392168922
30
0
10
-19.366973800966999
20
2.2985417093042599
30
0
10
-19.383113698916404
20
2.2917227008170937
30
0
10
-19.399259172423495
20
2.2849123667165205
30
0
0
ARC
5
109
100
AcDbEntity
8
0
100
AcDbCircle
10
-18.384776310850228
20
4.8572257327350599e-15
30
0
40
2.4999999999999907
210
0
220
0
230
1
100
AcDbArc
50
113.9408392159846
51
240.68203451235968
0
SPLINE
5
110
100
AcDbEntity
8
0
100
AcDbSpline
70
4
71
5
72
15
73
9
74
0
42
0.000000001
43
0.0000000001
44
0.0000000001
40
0.68081780035692085
40
0.68081780035692085
40
0.68081780035692085
40
0.68081780035692085
40
0.68081780035692085
40
0.68081780035692085
40
0.69999999999999996
40
0.79999999999999993
40
0.89999999999999991
40
1
40
1
40
1
40
1
40
1
40
1
41
1
41
1
41
1
41
1
41
1
41
1
41
1
41
1
41
1
10
-14.30983703160026
20
-6.1259639725603634
30
0
10
-14.380318643623653
20
-6.0495421256239412
30
0
10
-14.815196655497866
20
-5.5838069415285201
30
0
10
-15.580840008847927
20
-4.8293865328279244
30
0
10
-16.616074003904192
20
-3.9723775856997556
30
0
10
-17.602330216941258
20
-3.3331378429494896
30
0
10
-18.575090240828708
20
-2.7652046978941183
30
0
10
-19.258497286157457
20
-2.3765837403237287
30
0
10
-19.608915988435864
20
-2.1797894507874114
30
0
0
SPLINE
5
111
100
AcDbEntity
8
0
100
AcDbSpline
70
0
71
3
72
12
73
8
74
0
42
0.000000001
43
0.0000000001
44
0.0000000001
40
0
40
0
40
0
40
0
40
0.19532223669346388
40
0.19532223669346388
40
0.29944899983787521
40
0.29944899983787521
40
0.40357576298228642
40
0.40357576298228642
40
0.40357576298228642
40
0.40357576298228642
10
-12.994499216493027
20
-9.8184114863075305
30
0
10
-12.955089990095765
20
-9.1685311699272596
30
0
10
-13.042993614360999
20
-8.5171665653374511
30
0
10
-13.365356987114696
20
-7.5724910152997023
30
0
10
-13.511352268960177
20
-7.2565640667849793
30
0
10
-13.866417545311919
20
-6.6600640000124862
30
0
10
-14.074524448325842
20
-6.3811088494292454
30
0
10
-14.30983703159329
20
-6.1259639725679182
30
0
0
ARC
5
112
100
AcDbEntity
8
0
100
AcDbCircle
10
-10.000000000000007
20
-10.000000149011615
30
0
40
2.9999999999999956
210
0
220
0
230
1
100
AcDbArc
50
176.5297907616349
51
251.11719461174852
0
SPLINE
5
113
100
AcDbEntity
8
0
100
AcDbSpline
70
0
71
3
72
10
73
6
74
0
42
0.000000001
43
0.0000000001
44
0.0000000001
40
0
40
0
40
0
40
0
40
0.18858356778546645
40
0.18858356778546645
40
0.37716713557093284
40
0.37716713557093284
40
0.37716713557093284
40
0.37716713557093284
10
-8.1752967993041796
20
-15.220284930863277
30
0
10
-8.4706407201200289
20
-14.665375136411798
30
0
10
-8.8679997618037056
20
-14.171107037506466
30
0
10
-9.8250026557853207
20
-13.355780656800519
30
0
10
-10.376118855252134
20
-13.041987578023257
30
0
10
-10.970900442852775
20
-12.838547723048075
30
0
0
SPLINE
5
114
100
AcDbEntity
8
0
100
AcDbSpline
70
4
71
5
72
15
73
9
74
0
42
0.000000001
43
0.0000000001
44
0.0000000001
40
0
40
0
40
0
40
0
40
0
40
0
40
0.10000000000000001
40
0.20000000000000001
40
0.30000000000000004
40
0.39672043038879889
40
0.39672043038879889
40
0.39672043038879889
40
0.39672043038879889
40
0.39672043038879889
40
0.39672043038879889
41
1
41
1
41
1
41
1
41
1
41
1
41
1
41
1
41
1
10
-2.4999791458766185
20
-35.058841691278332
30
0
10
-2.4957510588037719
20
-34.023698946237964
30
0
10
-2.5786236157575413
20
-31.946827927918754
30
0
10
-2.976894125273069
20
-28.811780414269947
30
0
10
-4.0078238824393839
20
-24.658663933105686
30
0
10
-5.53420222388689
20
-20.641967205432646
30
0
10
-6.834082384853172
20
-17.818219694951068
30
0
10
-7.7302388667287412
20
-16.056486350558053
30
0
10
-8.1752967993041885
20
-15.220284930863258
30
0
0
ARC
5
115
100
AcDbEntity
8
0
100
AcDbCircle
10
0
20
-35.069052968476299
30
0
40
2.5
210
0
220
0
230
1
100
AcDbArc
50
-180.23402588547279
51
0.23402588547281694
0
SPLINE
5
116
100
AcDbEntity
8
0
100
AcDbSpline
70
4
71
5
72
15
73
9
74
0
42
0.000000001
43
0.0000000001
44
0.0000000001
40
0
40
0
40
0
40
0
40
0
40
0
40
0.10000000000000001
40
0.20000000000000001
40
0.30000000000000004
40
0.39672043340402863
40
0.39672043340402863
40
0.39672043340402863
40
0.39672043340402863
40
0.39672043340402863
40
0.39672043340402863
41
1
41
1
41
1
41
1
41
1
41
1
41
1
41
1
41
1
10
2.4999791458766185
20
-35.058841691278332
30
0
10
2.4957510588037719
20
-34.023698946237964
30
0
10
2.5786236157565123
20
-31.946827927919458
30
0
10
2.976894125267409
20
-28.811780414273834
30
0
10
4.0078238902581456
20
-24.658663901551225
30
0
10
5.5342022470598993
20
-20.641967144394002
30
0
10
6.8340824244448779
20
-17.818219608889617
30
0
10
7.7302389216336884
20
-16.056486242569658
30
0
10
8.1752968686378829
20
-15.220284800545329
30
0
0
SPLINE
5
117
100
AcDbEntity
8
0
100
AcDbSpline
70
0
71
3
72
10
73
6
74
0
42
0.000000001
43
0.0000000001
44
0.0000000001
40
0
40
0
40
0
40
0
40
0.18858357002780018
40
0.18858357002780018
40
0.37716714005560037
40
0.37716714005560037
40
0.37716714005560037
40
0.37716714005560037
10
10.97090055989657
20
-12.838547584970776
30
0
10
10.376118962932592
20
-13.041987435666492
30
0
10
9.8250027539613392
20
-13.355780513258678
30
0
10
8.867999843042945
20
-14.171106897135816
30
0
10
8.4706407942810973
20
-14.665375000195993
30
0
10
8.1752968686378704
20
-15.220284800545347
30
0
0
ARC
5
118
100
AcDbEntity
8
0
100
AcDbCircle
10
10.00000014901161
20
-9.9999999999999982
30
0
40
3.0000000000000044
210
0
220
0
230
1
100
AcDbArc
50
-71.117195257015354
51
3.470209322899533
0
SPLINE
5
119
100
AcDbEntity
8
0
100
AcDbSpline
70
0
71
3
72
12
73
8
74
0
42
0.000000001
43
0.0000000001
44
0.0000000001
40
0
40
0
40
0
40
0
40
0.19532223669346385
40
0.19532223669346385
40
0.29944900355912057
40
0.29944900355912057
40
0.40357577042477738
40
0.40357577042477738
40
0.40357577042477738
40
0.40357577042477738
10
14.309837225210291
20
-6.1259637626352701
30
0
10
13.868435040370979
20
-6.6045675904123078
30
0
10
13.524734871132972
20
-7.1648113667607527
30
0
10
13.177253667490136
20
-8.1005393597212745
30
0
10
13.090633139244986
20
-8.4376170242285031
30
0
10
12.988613048448489
20
-9.1242578441969773
30
0
10
12.973490208784638
20
-9.4719585309141845
30
0
10
12.994499365236722
20
-9.8184113328778118
30
0
0
SPLINE
5
120
100
AcDbEntity
8
0
100
AcDbSpline
70
4
71
5
72
15
73
9
74
0
42
0.000000001
43
0.0000000001
44
0.0000000001
40
0.68081781089556803
40
0.68081781089556803
40
0.68081781089556803
40
0.68081781089556803
40
0.68081781089556803
40
0.68081781089556803
40
0.69999999999999996
40
0.79999999999999993
40
0.89999999999999991
40
1
40
1
40
1
40
1
40
1
40
1
41
1
41
1
41
1
41
1
41
1
41
1
41
1
41
1
41
1
10
14.309837225217258
20
-6.1259637626277161
30
0
10
14.380318797445582
20
-6.0495419608904486
30
0
10
14.815196765951438
20
-5.5838068326994055
30
0
10
15.580840077236505
20
-4.829386476219713
30
0
10
16.616074036511669
20
-3.9723775645684531
30
0
10
17.602330216989998
20
-3.3331378429214373
30
0
10
18.575090240862039
20
-2.7652046978746823
30
0
10
19.258497286170073
20
-2.3765837403159216
30
0
10
19.608915988435509
20
-2.1797894507868887
30
0
0
ARC
5
121
100
AcDbEntity
8
0
100
AcDbCircle
10
18.384776310850231
20
-3.7470027081099033e-15
30
0
40
2.5000000000000777
210
-0
220
0
230
1
100
AcDbArc
50
-60.682034512360843
51
66.059160784015532
0
SPLINE
5
122
100
AcDbEntity
8
0
100
AcDbSpline
70
4
71
5
72
12
73
6
74
0
42
0.000000001
43
0.0000000001
44
0.0000000001
40
0.99732345153250956
40
0.99732345153250956
40
0.99732345153250956
40
0.99732345153250956
40
0.99732345153250956
40
0.99732345153250956
40
1
40
1
40
1
40
1
40
1
40
1
41
1
41
1
41
1
41
1
41
1
41
1
10
19.318587562797173
20
2.3190507855019704
30
0
10
19.334710732203789
20
2.3122057503058278
30
0
10
19.350839478572816
20
2.3053693921689491
30
0
10
19.366973800966974
20
2.2985417093042804
30
0
10
19.383113698916393
20
2.2917227008171071
30
0
10
19.399259172423498
20
2.2849123667165272
30
0
0
SPLINE
5
123
100
AcDbEntity
8
0
100
AcDbSpline
70
4
71
5
72
13
73
7
74
0
42
0.000000001
43
0.0000000001
44
0.0000000001
40
0.8563224355202711
40
0.8563224355202711
40
0.8563224355202711
40
0.8563224355202711
40
0.8563224355202711
40
0.8563224355202711
40
0.89999999999999991
40
0.99732345153250845
40
0.99732345153250845
40
0.99732345153250845
40
0.99732345153250845
40
0.99732345153250845
40
0.99732345153250845
41
1
41
1
41
1
41
1
41
1
41
1
41
1
10
15.243901951142753
20
4.395165668712294
30
0
10
15.483727648067747
20
4.2460668340713594
30
0
10
16.26559615518611
20
3.7773908479121316
30
0
10
17.070519138790722
20
3.346645333118841
30
0
10
17.893635749897573
20
2.9451656518541238
30
0
10
18.73232412861913
20
2.5679468765840658
30
0
10
19.318587562797134
20
2.3190507855019851
30
0
0
SPLINE
5
124
100
AcDbEntity
8
0
100
AcDbSpline
70
0
71
3
72
14
73
10
74
0
42
0.000000001
43
0.0000000001
44
0.0000000001
40
0
40
0
40
0
40
0
40
0.19532223669346391
40
0.19532223669346391
40
0.39064447338692798
40
0.39064447338692798
40
0.49232806382554894
40
0.49232806382554894
40
0.59401165426417002
40
0.59401165426417002
40
0.59401165426417002
40
0.59401165426417002
10
12.956425891622969
20
9.4905436274699309
30
0
10
12.845861239083421
20
8.8489261632807459
30
0
10
12.861675803091563
20
8.1918471765244867
30
0
10
13.144283055429414
20
6.9207361696092544
30
0
10
13.408373864393919
20
6.3188566634854171
30
0
10
13.974054781782435
20
5.5063644732758537
30
0
10
14.195506639771704
20
5.2486101320295075
30
0
10
14.687140251761923
20
4.781885308290394
30
0
10
14.95605036557582
20
4.5741220378915219
30
0
10
15.243901951142757
20
4.3951656687122904
30
0
0
ARC
5
125
100
AcDbEntity
8
0
100
AcDbCircle
10
10.000000000000009
20
10.000000149011615
30
0
40
2.9999999999999947
210
0
220
0
230
1
100
AcDbArc
50
-9.7772862321282883
51
71.428530554163785
0
SPLINE
5
126
100
AcDbEntity
8
0
100
AcDbSpline
70
0
71
3
72
12
73
8
74
0
42
0.000000001
43
0.0000000001
44
0.0000000001
40
0
40
0
40
0
40
0
40
0.19532223669346394
40
0.19532223669346394
40
0.37320657890397818
40
0.37320657890397818
40
0.55109092111449232
40
0.55109092111449232
40
0.55109092111449232
40
0.55109092111449232
10
7.6022375341543498
20
16.848273234931959
30
0
10
7.6979641635895639
20
16.204274845834036
30
0
10
7.9185628000579253
20
15.585130971714538
30
0
10
8.5549361811954583
20
14.516197165857431
30
0
10
8.9464825576495297
20
14.064697233197322
30
0
10
9.8693673883532487
20
13.319961039428785
30
0
10
10.393390672756199
20
13.032627867814465
30
0
10
10.955461979488998
20
12.843781505893848
30
0
0
SPLINE
5
127
100
AcDbEntity
8
0
100
AcDbSpline
70
4
71
5
72
16
73
10
74
0
42
0.000000001
43
0.0000000001
44
0.0000000001
40
2.2950407281344479e-07
40
2.2950407281344479e-07
40
2.2950407281344479e-07
40
2.2950407281344479e-07
40
2.2950407281344479e-07
40
2.2950407281344479e-07
40
0.10000000000000001
40
0.20000000000000001
40
0.30000000000000004
40
0.40000000000000002
40
0.44943719737223459
40
0.44943719737223459
40
0.44943719737223459
40
0.44943719737223459
40
0.44943719737223459
40
0.44943719737223459
41
1
41
1
41
1
41
1
41
1
41
1
41
1
41
1
41
1
41
1
10
11.792765834231664
20
42.388169653571794
30
0
10
11.265988022442006
20
41.176272479669784
30
0
10
10.2903940231249
20
38.75170505350377
30
0
10
9.0608817798456958
20
35.11255065234289
30
0
10
7.8839849470110845
20
30.285638766248532
30
0
10
7.2349116818435064
20
25.05540404705318
30
0
10
7.1740267699625697
20
21.256336809590593
30
0
10
7.3505371310427527
20
18.73918125013336
30
0
10
7.5333863987812899
20
17.311467442535637
30
0
10
7.6022375341543498
20
16.848273234931959
30
0
0
ARC
5
128
100
AcDbEntity
8
0
100
AcDbCircle
10
9.4999999999999929
20
43.384776310850235
30
0
40
2.4999999999903535
210
0
220
0
230
1
100
AcDbArc
50
-23.493352167624785
51
78.15862655963592
0
LINE
5
129
100
AcDbEntity
8
0
100
AcDbLine
10
10.013007103263295
20
45.831574976862925
30
0
11
1.0260142065266145
21
47.715829393478217
31
0
0
CIRCLE
5
130
100
AcDbEntity
8
0
100
AcDbCircle
10
-9.4999999999999982
20
43.384776310850235
30
0
40
0.99999999999999978
210
0
220
-0
230
1
0
CIRCLE
5
131
100
AcDbEntity
8
0
100
AcDbCircle
10
0
20
-35.069052968476299
30
0
40
1
210
0
220
-0
230
1
0
CIRCLE
5
132
100
AcDbEntity
8
0
100
AcDbCircle
10
10.00000014901161
20
-9.9999999999999982
30
0
40
0.99999999999999867
210
0
220
-0
230
1
0
CIRCLE
5
133
100
AcDbEntity
8
0
100
AcDbCircle
10
-10.000000000000007
20
-10.000000149011615
30
0
40
0.99999999999999978
210
0
220
-0
230
1
0
CIRCLE
5
134
100
AcDbEntity
8
0
100
AcDbCircle
10
-18.384776310850228
20
4.8572257327350599e-15
30
0
40
1.0000000000000009
210
0
220
-0
230
1
0
LWPOLYLINE
5
135
100
AcDbEntity
8
0
100
AcDbPolyline
90
6
70
1
43
0.0
10
11.707106930198162
20
-4.1776693806520555
42
-0.66817863791929888
10
10.000000149011612
20
-3.4705625994655076
10
10.000000149011612
20
3.4705625994655098
42
-0.66817863791929977
10
11.707106930198163
20
4.1776693806520564
10
15.177669529663669
20
0.70710678118654835
42
-0.41421356237309509
10
15.177669529663669
20
-0.70710678118654835
0
LWPOLYLINE
5
136
100
AcDbEntity
8
0
100
AcDbPolyline
90
8
70
1
43
0.0
10
-4.12842886848909
20
9.8847763108502349
10
4.12842886848909
20
9.8847763108502349
42
0.41421356237309509
10
5.12842886848909
20
10.884776310850235
10
5.1284288684890909
20
14.884776310850235
42
0.41421356237309509
10
4.12842886848909
20
15.884776310850235
10
-4.12842886848909
20
15.884776310850235
42
0.41421356237309509
10
-5.12842886848909
20
14.884776310850235
10
-5.1284288684890909
20
10.884776310850235
42
0.41421356237309509
0
CIRCLE
5
137
100
AcDbEntity
8
0
100
AcDbCircle
10
2.2514857462122822e-15
20
18.384776310850235
30
0
40
1.0000000000000007
210
0
220
-0
230
1
0
LWPOLYLINE
5
138
100
AcDbEntity
8
0
100
AcDbPolyline
90
6
70
1
43
0.0
10
-11.707106930198162
20
4.1776693806520555
42
-0.66817863791929888
10
-10.000000149011612
20
3.4705625994655076
10
-10.000000149011612
20
-3.4705625994655098
42
-0.66817863791929977
10
-11.707106930198163
20
-4.1776693806520564
10
-15.177669529663669
20
-0.70710678118654835
42
-0.41421356237309509
10
-15.177669529663669
20
0.70710678118654835
0
LWPOLYLINE
5
139
100
AcDbEntity
8
0
100
AcDbPolyline
90
10
70
1
43
0.0
10
-1.234435607628847
20
23.930947910692218
42
-0.37824245188812772
10
-3.2189913610561822
20
25.682878441513797
10
-4.769418839880184
20
38.08629827210585
42
-0.39297872767245368
10
-3.1770953567292186
20
40.295529092666101
10
-0.98058067569091978
20
40.734832028873775
42
-0.099019513592784894
10
0.98058067569092389
20
40.734832028873775
10
3.1770953567292204
20
40.295529092666115
42
-0.39297872767245351
10
4.7694188398801876
20
38.08629827210585
10
3.2189913610561827
20
25.682878441513797
42
-0.37824245188812777
10
1.2344356076288456
20
23.930947910692211
0
CIRCLE
5
140
100
AcDbEntity
8
0
100
AcDbCircle
10
18.384776310850231
20
-3.7470027081099033e-15
30
0
40
1.0000000000000009
210
0
220
-0
230
1
0
CIRCLE
5
141
100
AcDbEntity
8
0
100
AcDbCircle
10
9.4999999999999929
20
43.384776310850235
30
0
40
0.99999999999999978
210
0
220
-0
230
1
0
CIRCLE
5
142
100
AcDbEntity
8
0
100
AcDbCircle
10
8.0000000000000036
20
7.9999999999999982
30
0
40
0.99999999999999978
210
0
220
-0
230
1
0
LWPOLYLINE
5
143
100
AcDbEntity
8
0
100
AcDbPolyline
90
4
70
1
43
0.0
10
1
20
-26.069052834365849
42
-0.99999999999999989
10
-1
20
-26.069052834365849
10
-1
20
-18.384776310850231
42
-0.99999999999999989
10
1
20
-18.384776310850231
0
CIRCLE
5
144
100
AcDbEntity
8
0
100
AcDbCircle
10
7.9999999999999991
20
-8.0000000000000018
30
0
40
0.99999999999999978
210
0
220
-0
230
1
0
CIRCLE
5
145
100
AcDbEntity
8
0
100
AcDbCircle
10
-8
20
8
30
0
40
0.99999999999999978
210
0
220
-0
230
1
0
CIRCLE
5
146
100
AcDbEntity
8
0
100
AcDbCircle
10
-10.000000149011621
20
10
30
0
40
0.99999999999999978
210
0
220
-0
230
1
0
LWPOLYLINE
5
147
100
AcDbEntity
8
0
100
AcDbPolyline
90
8
70
1
43
0.0
10
-5.1284288684890917
20
-10.884776310850233
10
-5.1284288684890935
20
-16.069052700255394
42
0.41421356237309509
10
-4.1284288684890935
20
-17.069052700255398
10
4.1284288684890864
20
-17.069052700255398
42
0.41421356237309515
10
5.1284288684890864
20
-16.069052700255394
10
5.1284288684890882
20
-10.884776310850233
42
0.4142135623730952
10
4.1284288684890891
20
-9.8847763108502349
10
-4.1284288684890926
20
-9.8847763108502331
42
0.41421356237309509
0
CIRCLE
5
148
100
AcDbEntity
8
0
100
AcDbCircle
10
0
20
0
30
0
40
8
210
0
220
-0
230
1
0
CIRCLE
5
149
100
AcDbEntity
8
0
100
AcDbCircle
10
10.000000000000009
20
10.000000149011615
30
0
40
0.99999999999999867
210
0
220
-0
230
1
0
CIRCLE
5
150
100
AcDbEntity
8
0
100
AcDbCircle
10
-8.0000000000000036
20
-7.9999999999999982
30
0
40
0.99999999999999978
210
0
220
-0
230
1
0
ENDSEC
0
SECTION
2
OBJECTS
0
DICTIONARY
5
C
100
AcDbDictionary
3
ACAD_GROUP
350
D
3
ACAD_MLINESTYLE
350
17
0
DICTIONARY
5
D
100
AcDbDictionary
0
DICTIONARY
5
1A
330
C
100
AcDbDictionary
0
DICTIONARY
5
17
100
AcDbDictionary
0
ENDSEC
0
EOF
