0
SECTION
2
HEADER
9
$INSUNITS
70
4
9
$ACADVER
1
AC1014
9
$HANDSEED
5
FFFF
0
ENDSEC
0
SECTION
2
TABLES
0
TABLE
2
VPORT
5
8
100
AcDbSymbolTable
0
ENDTAB
0
TABLE
2
LTYPE
5
5
100
AcDbSymbolTable
0
LTYPE
5
14
100
AcDbSymbolTableRecord
100
AcDbLinetypeTableRecord
2
BYBLOCK
70
0
0
LTYPE
5
15
100
AcDbSymbolTableRecord
100
AcDbLinetypeTableRecord
2
BYLAYER
70
0
0
ENDTAB
0
TABLE
2
LAYER
5
2
100
AcDbSymbolTable
70
2
0
LAYER
5
50
100
AcDbSymbolTableRecord
100
AcDbLayerTableRecord
2
0
70
0
6
CONTINUOUS
0
ENDTAB
0
TABLE
2
STYLE
5
3
100
AcDbSymbolTable
70
1
0
STYLE
5
11
100
AcDbSymbolTableRecord
100
AcDbTextStyleTableRecord
2
STANDARD
70
0
0
ENDTAB
0
TABLE
2
VIEW
5
6
100
AcDbSymbolTable
70
0
0
ENDTAB
0
TABLE
2
UCS
5
7
100
AcDbSymbolTable
70
0
0
ENDTAB
0
TABLE
2
APPID
5
9
100
AcDbSymbolTable
70
2
0
APPID
5
12
100
AcDbSymbolTableRecord
100
AcDbRegAppTableRecord
2
ACAD
70
0
0
ENDTAB
0
TABLE
2
DIMSTYLE
5
A
100
AcDbSymbolTable
70
1
0
ENDTAB
0
TABLE
2
BLOCK_RECORD
5
1
100
AcDbSymbolTable
70
1
0
BLOCK_RECORD
5
1F
100
AcDbSymbolTableRecord
100
AcDbBlockTableRecord
2
*MODEL_SPACE
0
BLOCK_RECORD
5
1B
100
AcDbSymbolTableRecord
100
AcDbBlockTableRecord
2
*PAPER_SPACE
0
ENDTAB
0
ENDSEC
0
SECTION
2
BLOCKS
0
BLOCK
5
20
100
AcDbEntity
100
AcDbBlockBegin
2
*MODEL_SPACE
0
ENDBLK
5
21
100
AcDbEntity
100
AcDbBlockEnd
0
BLOCK
5
1C
100
AcDbEntity
100
AcDbBlockBegin
2
*PAPER_SPACE
0
ENDBLK
5
1D
100
AcDbEntity
100
AcDbBlockEnd
0
ENDSEC
0
SECTION
2
ENTITIES
0
ARC
5
100
100
AcDbEntity
8
0
100
AcDbCircle
10
-5.134781488891349e-15
20
42.757081863832028
30
0
40
10.000000000000036
210
0
220
-0
230
1
100
AcDbArc
50
77.496877154310681
51
102.50312284568929
0
LINE
5
101
100
AcDbEntity
8
0
100
AcDbLine
10
-2.1649282559491216
20
52.519923952414317
30
0
11
-11.541232227900055
21
50.440711237401302
31
0
0
ARC
5
102
100
AcDbEntity
8
0
100
AcDbCircle
10
-11.000000163912773
20
48.000000715255737
30
0
40
2.4999999999999991
210
0
220
0
230
1
100
AcDbArc
50
102.5031228456894
51
203.56396464748809
0
SPLINE
5
103
100
AcDbEntity
8
0
100
AcDbSpline
70
4
71
5
72
21
73
15
74
0
42
0.000000001
43
0.0000000001
44
0.0000000001
40
-1
40
-1
40
-1
40
-1
40
-1
40
-1
40
-0.89999999999999991
40
-0.79999999999999993
40
-0.69999999999999996
40
-0.59999999999999998
40
-0.5
40
-0.40000000000000002
40
-0.30000000000000004
40
-0.20000000000000001
40
-0.10000000000000001
40
0
40
0
40
0
40
0
40
0
40
0
41
1
41
1
41
1
41
1
41
1
41
1
41
1
41
1
41
1
41
1
41
1
41
1
41
1
41
1
41
1
10
-13.291536019027328
20
47.000569164460785
30
0
10
-12.896579746169925
20
46.094997932758837
30
0
10
-12.166649284611173
20
44.285306681723284
30
0
10
-11.251687654362982
20
41.575120680755276
30
0
10
-10.377873828112005
20
37.966021281466496
30
0
10
-9.7991550738845827
20
33.441012543321335
30
0
10
-9.6733622216726953
20
28.881072999635361
30
0
10
-9.9669774167641556
20
24.274488386217513
30
0
10
-10.695696161124539
20
19.631470353161699
30
0
10
-11.937621781869963
20
14.993354378668535
30
0
10
-13.810173137802686
20
10.416654525531206
30
0
10
-15.91917352001637
20
6.8521421974725705
30
0
10
-17.896954064119942
20
4.2552150860337026
30
0
10
-19.39915179916467
20
2.5609274304163261
30
0
10
-20.196172441522151
20
1.7230333884713309
30
0
0
ARC
5
104
100
AcDbEntity
8
0
100
AcDbCircle
10
-18.384776310850231
20
6.3337261387900968e-15
30
0
40
2.500000000000036
210
0
220
0
230
1
100
AcDbArc
50
136.43212865382762
51
226.90023151975569
0
SPLINE
5
105
100
AcDbEntity
8
0
100
AcDbSpline
70
4
71
5
72
21
73
15
74
0
42
0.000000001
43
0.0000000001
44
0.0000000001
40
0
40
0
40
0
40
0
40
0
40
0
40
0.10000000000000001
40
0.20000000000000001
40
0.30000000000000004
40
0.40000000000000002
40
0.5
40
0.59999999999999998
40
0.69999999999999996
40
0.79999999999999993
40
0.89999999999999991
40
1
40
1
40
1
40
1
40
1
40
1
41
1
41
1
41
1
41
1
41
1
41
1
41
1
41
1
41
1
41
1
41
1
41
1
41
1
41
1
41
1
10
-20.092960087665457
20
-1.8254063067401809
30
0
10
-19.463423525660282
20
-2.4145117633142927
30
0
10
-18.248144978698658
20
-3.6284497913508362
30
0
10
-16.556592225583767
20
-5.5565294550513942
30
0
10
-14.543423543421186
20
-8.3320286222313324
30
0
10
-12.326883546536173
20
-12.095067542579102
30
0
10
-10.298605206940737
20
-16.100628994247664
30
0
10
-8.3754711165252527
20
-20.308877109135445
30
0
10
-6.5476583718486205
20
-24.706164146361864
30
0
10
-4.8965227826737481
20
-29.310939891606939
30
0
10
-3.5509867279584868
20
-34.161758842143222
30
0
10
-2.8358671124030757
20
-38.278023108839477
30
0
10
-2.5587507305718842
20
-41.517639002181561
30
0
10
-2.497167593262001
20
-43.748111119057178
30
0
10
-2.497167593262001
20
-44.881030039041519
30
0
0
ARC
5
106
100
AcDbEntity
8
0
100
AcDbCircle
10
0
20
-45.000000670552254
30
0
40
2.4999999999999991
210
0
220
0
230
1
100
AcDbArc
50
-182.72763620981129
51
2.7276362098115436
0
SPLINE
5
107
100
AcDbEntity
8
0
100
AcDbSpline
70
4
71
5
72
21
73
15
74
0
42
0.000000001
43
0.0000000001
44
0.0000000001
40
-1
40
-1
40
-1
40
-1
40
-1
40
-1
40
-0.89999999999999991
40
-0.79999999999999993
40
-0.69999999999999996
40
-0.59999999999999998
40
-0.5
40
-0.40000000000000002
40
-0.30000000000000004
40
-0.20000000000000001
40
-0.10000000000000001
40
0
40
0
40
0
40
0
40
0
40
0
41
1
41
1
41
1
41
1
41
1
41
1
41
1
41
1
41
1
41
1
41
1
41
1
41
1
41
1
41
1
10
2.497167593262001
20
-44.881030039041519
30
0
10
2.497167593262001
20
-43.748111119057178
30
0
10
2.5587507305718842
20
-41.517639002181561
30
0
10
2.8358671124030757
20
-38.278023108839477
30
0
10
3.5509867279584868
20
-34.161758842143222
30
0
10
4.8965227826737481
20
-29.310939891606939
30
0
10
6.5476583718486205
20
-24.706164146361864
30
0
10
8.3754711165252527
20
-20.308877109135445
30
0
10
10.298605206940737
20
-16.100628994247664
30
0
10
12.326883546536173
20
-12.095067542579102
30
0
10
14.543423543421186
20
-8.3320286222313324
30
0
10
16.556592225583767
20
-5.5565294550513942
30
0
10
18.248144978698658
20
-3.6284497913508362
30
0
10
19.463423525660282
20
-2.4145117633142927
30
0
10
20.092960087665457
20
-1.8254063067401809
30
0
0
ARC
5
108
100
AcDbEntity
8
0
100
AcDbCircle
10
18.384776310850231
20
-6.3337261387900968e-15
30
0
40
2.5000000000000027
210
-0
220
0
230
1
100
AcDbArc
50
-46.9002319216901
51
43.567871346172765
0
SPLINE
5
109
100
AcDbEntity
8
0
100
AcDbSpline
70
4
71
5
72
21
73
15
74
0
42
0.000000001
43
0.0000000001
44
0.0000000001
40
0
40
0
40
0
40
0
40
0
40
0
40
0.10000000000000001
40
0.20000000000000001
40
0.30000000000000004
40
0.40000000000000002
40
0.5
40
0.59999999999999998
40
0.69999999999999996
40
0.79999999999999993
40
0.89999999999999991
40
1
40
1
40
1
40
1
40
1
40
1
41
1
41
1
41
1
41
1
41
1
41
1
41
1
41
1
41
1
41
1
41
1
41
1
41
1
41
1
41
1
10
20.196172441522151
20
1.7230333884713309
30
0
10
19.39915179916467
20
2.5609274304163261
30
0
10
17.896954064119942
20
4.2552150860337026
30
0
10
15.91917352001637
20
6.8521421974725705
30
0
10
13.810173137802686
20
10.416654525531206
30
0
10
11.937621781869963
20
14.993354378668535
30
0
10
10.695696161124539
20
19.631470353161699
30
0
10
9.9669774167641556
20
24.274488386217513
30
0
10
9.6733622216726953
20
28.881072999635361
30
0
10
9.7991550738845827
20
33.441012543321335
30
0
10
10.377873828112005
20
37.966021281466496
30
0
10
11.251687654362982
20
41.575120680755276
30
0
10
12.166649284611173
20
44.285306681723284
30
0
10
12.896579746169925
20
46.094997932758837
30
0
10
13.291536019027328
20
47.000569164460785
30
0
0
ARC
5
110
100
AcDbEntity
8
0
100
AcDbCircle
10
11.000000163912773
20
48.000000715255737
30
0
40
2.5000000000000004
210
-0
220
0
230
1
100
AcDbArc
50
-23.56396464748812
51
77.496877154310596
0
LINE
5
111
100
AcDbEntity
8
0
100
AcDbLine
10
11.541232227900055
20
50.440711237401302
30
0
11
2.1649282559491123
21
52.519923952414317
31
0
0
LWPOLYLINE
5
112
100
AcDbEntity
8
0
100
AcDbPolyline
90
20
70
1
43
0.0
10
5.7027430947912716
20
5.6105900932798924
42
-0.19679631625434049
10
5.12842886848909
20
7.0132376165998656
10
5.12842886848909
20
14.884776310850235
42
0.41421356237309392
10
4.1284288684890891
20
15.884776310850237
10
-4.12842886848909
20
15.884776310850235
42
0.41421356237309548
10
-5.1284288684890909
20
14.884776310850231
10
-5.1284288684890935
20
7.0132376165998611
42
-0.1967963162543406
10
-5.7027430947912734
20
5.6105900932798907
42
0.40945014107522765
10
-5.7027430947912725
20
-5.610590093279888
42
-0.19679631625434049
10
-5.1284288684890917
20
-7.0132376165998611
10
-5.1284288684890935
20
-18.000000283122059
42
0.4142135623730967
10
-4.1284288684890953
20
-19.000000283122063
10
-1.0000000000000009
20
-19.000000283122066
10
-1
20
-31.000000461935997
42
0.99999999999999989
10
1.0000000000000009
20
-31.000000461935997
10
1.0000000000000009
20
-19.000000283122066
10
4.1284288684890864
20
-19.000000283122066
42
0.41421356237309492
10
5.1284288684890882
20
-18.000000283122066
10
5.12842886848909
20
-7.0132376165998656
42
-0.19679631625434049
10
5.7027430947912716
20
-5.6105900932798924
42
0.40945014107522798
0
CIRCLE
5
113
100
AcDbEntity
8
0
100
AcDbCircle
10
-10.000000000000002
20
-10.00000014901161
30
0
40
0.99999999999999978
210
0
220
0
230
1
0
CIRCLE
5
114
100
AcDbEntity
8
0
100
AcDbCircle
10
-10.000000149011612
20
9.9999999999999982
30
0
40
0.99999999999999978
210
0
220
0
230
1
0
CIRCLE
5
115
100
AcDbEntity
8
0
100
AcDbCircle
10
-18.384776310850231
20
6.3337261387900968e-15
30
0
40
1.0000000000000009
210
0
220
0
230
1
0
LWPOLYLINE
5
116
100
AcDbEntity
8
0
100
AcDbPolyline
90
6
70
1
43
0.0
10
-11.707106930198162
20
4.1776693806520555
42
-0.6681786379192991
10
-10.000000149011612
20
3.4705625994655076
10
-10.000000149011614
20
-3.4705625994655094
42
-0.66817863791930132
10
-11.707106930198162
20
-4.1776693806520555
10
-15.177669529663669
20
-0.70710678118654824
42
-0.41421356237309565
10
-15.177669529663669
20
0.70710678118654668
0
CIRCLE
5
117
100
AcDbEntity
8
0
100
AcDbCircle
10
7.9999999999999991
20
-8.0000000000000018
30
0
40
0.99999999999999978
210
0
220
0
230
1
0
CIRCLE
5
118
100
AcDbEntity
8
0
100
AcDbCircle
10
10.000000000000002
20
10.00000014901161
30
0
40
0.99999999999999867
210
0
220
0
230
1
0
CIRCLE
5
119
100
AcDbEntity
8
0
100
AcDbCircle
10
8.0000000000000036
20
7.9999999999999982
30
0
40
0.99999999999999978
210
0
220
0
230
1
0
CIRCLE
5
120
100
AcDbEntity
8
0
100
AcDbCircle
10
-8
20
8
30
0
40
0.99999999999999978
210
0
220
0
230
1
0
CIRCLE
5
121
100
AcDbEntity
8
0
100
AcDbCircle
10
18.384776310850231
20
-6.3337261387900968e-15
30
0
40
1.0000000000000009
210
0
220
0
230
1
0
CIRCLE
5
122
100
AcDbEntity
8
0
100
AcDbCircle
10
0
20
-45.000000670552254
30
0
40
1
210
0
220
0
230
1
0
CIRCLE
5
123
100
AcDbEntity
8
0
100
AcDbCircle
10
-11.000000163912773
20
48.000000715255737
30
0
40
1.0000000149011612
210
0
220
0
230
1
0
CIRCLE
5
124
100
AcDbEntity
8
0
100
AcDbCircle
10
10.00000014901161
20
-10
30
0
40
0.99999999999999867
210
0
220
0
230
1
0
CIRCLE
5
125
100
AcDbEntity
8
0
100
AcDbCircle
10
11.000000163912773
20
48.000000715255737
30
0
40
1.0000000149011612
210
0
220
0
230
1
0
CIRCLE
5
126
100
AcDbEntity
8
0
100
AcDbCircle
10
2.2514857462122822e-15
20
18.384776310850231
30
0
40
1.0000000000000007
210
0
220
0
230
1
0
LWPOLYLINE
5
127
100
AcDbEntity
8
0
100
AcDbPolyline
90
8
70
1
43
0.0
10
-1.2215008954536377
20
27.000000402331352
10
1.2215008954536368
20
27.000000402331352
42
0.38031461196423583
10
3.2078021040993909
20
28.766317907196566
10
4.7372138986075925
20
41.766318160516285
42
0.44894503228791593
10
2.7509126899618401
20
44.000000655651093
10
-2.7509126899618415
20
44.000000655651093
42
0.44894503228791605
10
-4.7372138986075942
20
41.766318160516292
10
-3.2078021040993914
20
28.766317907196562
42
0.38031461196423516
0
LWPOLYLINE
5
128
100
AcDbEntity
8
0
100
AcDbPolyline
90
6
70
1
43
0.0
10
11.707106930198162
20
-4.1776693806520555
42
-0.6681786379192991
10
10.000000149011612
20
-3.4705625994655076
10
10.000000149011614
20
3.4705625994655094
42
-0.66817863791930132
10
11.707106930198162
20
4.1776693806520555
10
15.177669529663667
20
0.70710678118654935
42
-0.41421356237309603
10
15.177669529663669
20
-0.70710678118654668
0
CIRCLE
5
129
100
AcDbEntity
8
0
100
AcDbCircle
10
-8.0000000000000036
20
-7.9999999999999982
30
0
40
0.99999999999999978
210
0
220
0
230
1
0
ENDSEC
0
SECTION
2
OBJECTS
0
DICTIONARY
5
C
100
AcDbDictionary
3
ACAD_GROUP
350
D
3
ACAD_MLINESTYLE
350
17
0
DICTIONARY
5
D
100
AcDbDictionary
0
DICTIONARY
5
1A
330
C
100
AcDbDictionary
0
DICTIONARY
5
17
100
AcDbDictionary
0
ENDSEC
0
EOF
