0
SECTION
2
HEADER
9
$INSUNITS
70
4
9
$ACADVER
1
AC1014
9
$HANDSEED
5
FFFF
0
ENDSEC
0
SECTION
2
TABLES
0
TABLE
2
VPORT
5
8
100
AcDbSymbolTable
0
ENDTAB
0
TABLE
2
LTYPE
5
5
100
AcDbSymbolTable
0
LTYPE
5
14
100
AcDbSymbolTableRecord
100
AcDbLinetypeTableRecord
2
BYBLOCK
70
0
0
LTYPE
5
15
100
AcDbSymbolTableRecord
100
AcDbLinetypeTableRecord
2
BYLAYER
70
0
0
ENDTAB
0
TABLE
2
LAYER
5
2
100
AcDbSymbolTable
70
2
0
LAYER
5
50
100
AcDbSymbolTableRecord
100
AcDbLayerTableRecord
2
0
70
0
6
CONTINUOUS
0
ENDTAB
0
TABLE
2
STYLE
5
3
100
AcDbSymbolTable
70
1
0
STYLE
5
11
100
AcDbSymbolTableRecord
100
AcDbTextStyleTableRecord
2
STANDARD
70
0
0
ENDTAB
0
TABLE
2
VIEW
5
6
100
AcDbSymbolTable
70
0
0
ENDTAB
0
TABLE
2
UCS
5
7
100
AcDbSymbolTable
70
0
0
ENDTAB
0
TABLE
2
APPID
5
9
100
AcDbSymbolTable
70
2
0
APPID
5
12
100
AcDbSymbolTableRecord
100
AcDbRegAppTableRecord
2
ACAD
70
0
0
ENDTAB
0
TABLE
2
DIMSTYLE
5
A
100
AcDbSymbolTable
70
1
0
ENDTAB
0
TABLE
2
BLOCK_RECORD
5
1
100
AcDbSymbolTable
70
1
0
BLOCK_RECORD
5
1F
100
AcDbSymbolTableRecord
100
AcDbBlockTableRecord
2
*MODEL_SPACE
0
BLOCK_RECORD
5
1B
100
AcDbSymbolTableRecord
100
AcDbBlockTableRecord
2
*PAPER_SPACE
0
ENDTAB
0
ENDSEC
0
SECTION
2
BLOCKS
0
BLOCK
5
20
100
AcDbEntity
100
AcDbBlockBegin
2
*MODEL_SPACE
0
ENDBLK
5
21
100
AcDbEntity
100
AcDbBlockEnd
0
BLOCK
5
1C
100
AcDbEntity
100
AcDbBlockBegin
2
*PAPER_SPACE
0
ENDBLK
5
1D
100
AcDbEntity
100
AcDbBlockEnd
0
ENDSEC
0
SECTION
2
ENTITIES
0
CIRCLE
5
100
100
AcDbEntity
8
0
100
AcDbCircle
10
0
20
-18
30
0
40
3.0000000447034836
210
0
220
0
230
1
0
CIRCLE
5
101
100
AcDbEntity
8
0
100
AcDbCircle
10
0
20
-9
30
0
40
3.0000000447034836
210
0
220
0
230
1
0
CIRCLE
5
102
100
AcDbEntity
8
0
100
AcDbCircle
10
0
20
9
30
0
40
3.0000000447034836
210
0
220
0
230
1
0
CIRCLE
5
103
100
AcDbEntity
8
0
100
AcDbCircle
10
0
20
0
30
0
40
3.0000000447034836
210
0
220
0
230
1
0
CIRCLE
5
104
100
AcDbEntity
8
0
100
AcDbCircle
10
13.000000193715096
20
48.000000715255737
30
0
40
1.0000000149011612
210
0
220
0
230
1
0
CIRCLE
5
105
100
AcDbEntity
8
0
100
AcDbCircle
10
0
20
-45.000000670552254
30
0
40
1
210
0
220
0
230
1
0
CIRCLE
5
106
100
AcDbEntity
8
0
100
AcDbCircle
10
-13.000000193715096
20
48.000000715255737
30
0
40
1.0000000149011612
210
0
220
0
230
1
0
ARC
5
107
100
AcDbEntity
8
0
100
AcDbCircle
10
13.000000197261382
20
48.000000715255752
30
0
40
2.4999999999999996
210
-0
220
0
230
1
100
AcDbArc
50
-6.7667761774123694
51
196.24023821849269
0
SPLINE
5
108
100
AcDbEntity
8
0
100
AcDbSpline
70
4
71
5
72
26
73
20
74
0
42
0.000000001
43
0.0000000001
44
0.0000000001
40
0
40
0
40
0
40
0
40
0
40
0
40
0.066666666666666666
40
0.13333333333333333
40
0.20000000000000001
40
0.26666666666666666
40
0.33333333333333331
40
0.39999999999999997
40
0.46666666666666662
40
0.53333333333333333
40
0.59999999999999998
40
0.66666666666666663
40
0.73333333333333328
40
0.79999999999999993
40
0.86666666666666659
40
0.93333333333333324
40
1
40
1
40
1
40
1
40
1
40
1
41
1
41
1
41
1
41
1
41
1
41
1
41
1
41
1
41
1
41
1
41
1
41
1
41
1
41
1
41
1
41
1
41
1
41
1
41
1
41
1
10
10.59975640628995
20
47.300837112108752
30
0
10
10.652073097842941
20
47.121230662932739
30
0
10
10.739795102574387
20
46.701818259088867
30
0
10
10.820644075139121
20
45.892103984972266
30
0
10
10.836802905521923
20
44.466961903939804
30
0
10
10.755964746326674
20
42.205709387354403
30
0
10
10.63215789611016
20
39.598706125997516
30
0
10
10.508853710514607
20
36.801164036176239
30
0
10
10.395119137917996
20
33.973994293823885
30
0
10
10.241527321246323
20
31.268540725295082
30
0
10
9.9616779646843998
20
28.818390262228867
30
0
10
9.4563803553898058
20
26.731822438258934
30
0
10
8.6383027451334726
20
25.08134848008778
30
0
10
7.4535614687589735
20
23.895183092950308
30
0
10
5.9155434907838309
20
23.138107652599587
30
0
10
4.1005880621490212
20
22.721319915347372
30
0
10
2.5041328953900317
20
22.577629614325406
30
0
10
1.2640542533857169
20
22.537012975006526
30
0
10
0.42363369418094632
20
22.534466365609376
30
0
10
1.773141633520936e-09
20
22.539324301431787
30
0
0
SPLINE
5
109
100
AcDbEntity
8
0
100
AcDbSpline
70
4
71
5
72
26
73
20
74
0
42
0.000000001
43
0.0000000001
44
0.0000000001
40
-1
40
-1
40
-1
40
-1
40
-1
40
-1
40
-0.93333333333333324
40
-0.86666666666666659
40
-0.79999999999999993
40
-0.73333333333333328
40
-0.66666666666666663
40
-0.59999999999999998
40
-0.53333333333333333
40
-0.46666666666666662
40
-0.39999999999999997
40
-0.33333333333333331
40
-0.26666666666666666
40
-0.20000000000000001
40
-0.13333333333333333
40
-0.066666666666666666
40
0
40
0
40
0
40
0
40
0
40
0
41
1
41
1
41
1
41
1
41
1
41
1
41
1
41
1
41
1
41
1
41
1
41
1
41
1
41
1
41
1
41
1
41
1
41
1
41
1
41
1
10
1.773141633520936e-09
20
22.539324301431787
30
0
10
-0.42363369063466305
20
22.534466365609376
30
0
10
-1.2640542498394336
20
22.537012975006526
30
0
10
-2.5041328918437484
20
22.577629614325406
30
0
10
-4.1005880586027379
20
22.721319915347372
30
0
10
-5.9155434872375476
20
23.138107652599587
30
0
10
-7.4535614652126903
20
23.895183092950308
30
0
10
-8.6383027415871894
20
25.08134848008778
30
0
10
-9.4563803518435225
20
26.731822438258934
30
0
10
-9.9616779611381165
20
28.818390262228867
30
0
10
-10.24152731770004
20
31.268540725295082
30
0
10
-10.395119134371713
20
33.973994293823885
30
0
10
-10.508853706968324
20
36.801164036176239
30
0
10
-10.632157892563876
20
39.598706125997516
30
0
10
-10.755964742780391
20
42.205709387354403
30
0
10
-10.83680290197564
20
44.466961903939804
30
0
10
-10.820644071592838
20
45.892103984972266
30
0
10
-10.739795099028104
20
46.701818259088867
30
0
10
-10.652073094296657
20
47.121230662932739
30
0
10
-10.599756402743667
20
47.300837112108752
30
0
0
ARC
5
110
100
AcDbEntity
8
0
100
AcDbCircle
10
-13.000000193715096
20
48.000000715255737
30
0
40
2.5000000000124745
210
-0
220
0
230
1
100
AcDbArc
50
-16.240238218492841
51
186.76677617738167
0
SPLINE
5
111
100
AcDbEntity
8
0
100
AcDbSpline
70
4
71
5
72
17
73
11
74
0
42
0.000000001
43
0.0000000001
44
0.0000000001
40
0.0032065780427653328
40
0.0032065780427653328
40
0.0032065780427653328
40
0.0032065780427653328
40
0.0032065780427653328
40
0.0032065780427653328
40
0.066666666666666666
40
0.13333333333333333
40
0.20000000000000001
40
0.26666666666666666
40
0.33333333333333331
40
0.38348340772077566
40
0.38348340772077566
40
0.38348340772077566
40
0.38348340772077566
40
0.38348340772077566
40
0.38348340772077566
41
1
41
1
41
1
41
1
41
1
41
1
41
1
41
1
41
1
41
1
41
1
10
-15.482585192444741
20
47.705430309270717
30
0
10
-15.413574058614257
20
46.538061679611232
30
0
10
-15.270428088899006
20
44.11544750175775
30
0
10
-15.048580220597284
20
40.3621340051088
30
0
10
-14.727670677954885
20
35.158198806403725
30
0
10
-14.215239932675885
20
28.35430041879901
30
0
10
-13.534116179228889
20
21.581336760779756
30
0
10
-12.804785172482973
20
16.090398180667815
30
0
10
-12.154952351663212
20
12.012309456682832
30
0
10
-11.697278526655159
20
9.4047462113707478
30
0
10
-11.493127067588397
20
8.2840608610566768
30
0
0
SPLINE
5
112
100
AcDbEntity
8
0
100
AcDbSpline
70
4
71
5
72
12
73
6
74
0
42
0.000000001
43
0.0000000001
44
0.0000000001
40
0.38348340772077566
40
0.38348340772077566
40
0.38348340772077566
40
0.38348340772077566
40
0.38348340772077566
40
0.38348340772077566
40
0.39912594128678675
40
0.39912594128678675
40
0.39912594128678675
40
0.39912594128678675
40
0.39912594128678675
40
0.39912594128678675
41
1
41
1
41
1
41
1
41
1
41
1
10
-11.493127067588397
20
8.2840608610566768
30
0
10
-11.429449274683632
20
7.9345028908373072
30
0
10
-11.365025306469615
20
7.5848238913851294
30
0
10
-11.299868232630496
20
7.2350487692742984
30
0
10
-11.233993243339636
20
6.8852032531022376
30
0
10
-11.167417742676101
20
6.5353139058755527
30
0
0
SPLINE
5
113
100
AcDbEntity
8
0
100
AcDbSpline
70
4
71
5
72
21
73
15
74
0
42
0.000000001
43
0.0000000001
44
0.0000000001
40
0.028733838906895206
40
0.028733838906895206
40
0.028733838906895206
40
0.028733838906895206
40
0.028733838906895206
40
0.028733838906895206
40
0.10000000000000001
40
0.20000000000000001
40
0.30000000000000004
40
0.40000000000000002
40
0.5
40
0.59999999999999998
40
0.69999999999999996
40
0.79999999999999993
40
0.89999999999999991
40
0.99681112290559548
40
0.99681112290559548
40
0.99681112290559548
40
0.99681112290559548
40
0.99681112290559548
40
0.99681112290559548
41
1
41
1
41
1
41
1
41
1
41
1
41
1
41
1
41
1
41
1
41
1
41
1
41
1
41
1
41
1
10
-11.167417742676076
20
6.5353139058755403
30
0
10
-11.029677930057316
20
5.6692667375686447
30
0
10
-10.769103967100328
20
3.5924280822267991
30
0
10
-10.617478355299426
20
0.32287149997813602
30
0
10
-10.896839262287092
20
-4.0746675823455778
30
0
10
-11.690732760205195
20
-9.3456257736554349
30
0
10
-12.409450249164195
20
-14.313344602439722
30
0
10
-12.420589995913547
20
-18.419560797843776
30
0
10
-11.342795780608252
20
-21.549147549543779
30
0
10
-9.1677701288820774
20
-23.809240310656325
30
0
10
-6.5024371599411026
20
-25.6554332132214
30
0
10
-4.6496318790593074
20
-27.298114805400068
30
0
10
-3.7624570222340776
20
-28.859447673621169
30
0
10
-3.4434895915120274
20
-30.074996779819294
30
0
10
-3.3521275817375642
20
-30.716793438977788
30
0
0
SPLINE
5
114
100
AcDbEntity
8
0
100
AcDbSpline
70
4
71
5
72
12
73
6
74
0
42
0.000000001
43
0.0000000001
44
0.0000000001
40
0.9968111229055997
40
0.9968111229055997
40
0.9968111229055997
40
0.9968111229055997
40
0.9968111229055997
40
0.9968111229055997
40
1
40
1
40
1
40
1
40
1
40
1
41
1
41
1
41
1
41
1
41
1
41
1
10
-3.3521275817375447
20
-30.716793438977934
30
0
10
-3.349118193853962
20
-30.737933682001959
30
0
10
-3.3461799135355226
20
-30.759121523149176
30
0
10
-3.3433127541978775
20
-30.780356971538328
30
0
10
-3.3405167226883608
20
-30.801640031824107
30
0
10
-3.3377918191839058
20
-30.822970704130846
30
0
0
SPLINE
5
115
100
AcDbEntity
8
0
100
AcDbSpline
70
4
71
5
72
15
73
9
74
0
42
0.000000001
43
0.0000000001
44
0.0000000001
40
0.76711198424753957
40
0.76711198424753957
40
0.76711198424753957
40
0.76711198424753957
40
0.76711198424753957
40
0.76711198424753957
40
0.79999999999999993
40
0.86666666666666659
40
0.93333333333333324
40
0.99730370504587751
40
0.99730370504587751
40
0.99730370504587751
40
0.99730370504587751
40
0.99730370504587751
40
0.99730370504587751
41
1
41
1
41
1
41
1
41
1
41
1
41
1
41
1
41
1
10
-3.3377918191839049
20
-30.822970704130846
30
0
10
-3.2666109420813054
20
-31.352332757004802
30
0
10
-3.0657215960553175
20
-32.928419303332475
30
0
10
-2.8027835312014093
20
-35.425071303258463
30
0
10
-2.591880724739497
20
-38.561267208877396
30
0
10
-2.5226372544572921
20
-41.249820350778464
30
0
10
-2.5040338005163938
20
-43.231468238814827
30
0
10
-2.4996811412164925
20
-44.40362190673423
30
0
10
-2.4993741389568087
20
-44.94406397852142
30
0
0
ARC
5
116
100
AcDbEntity
8
0
100
AcDbCircle
10
0
20
-45.000000670552254
30
0
40
2.5000000000002878
210
0
220
0
230
1
100
AcDbArc
50
-181.2820815384201
51
1.2820779954458745
0
SPLINE
5
117
100
AcDbEntity
8
0
100
AcDbSpline
70
4
71
5
72
15
73
9
74
0
42
0.000000001
43
0.0000000001
44
0.0000000001
40
-0.99730370870422747
40
-0.99730370870422747
40
-0.99730370870422747
40
-0.99730370870422747
40
-0.99730370870422747
40
-0.99730370870422747
40
-0.93333333333333324
40
-0.86666666666666659
40
-0.79999999999999993
40
-0.76711198426184157
40
-0.76711198426184157
40
-0.76711198426184157
40
-0.76711198426184157
40
-0.76711198426184157
40
-0.76711198426184157
41
1
41
1
41
1
41
1
41
1
41
1
41
1
41
1
41
1
10
2.4993741424153089
20
-44.944064133055967
30
0
10
2.4996811442752089
20
-44.403622038033852
30
0
10
2.5040338030278568
20
-43.231468349044313
30
0
10
2.5226372558026555
20
-41.249820436234771
30
0
10
2.59188072492968
20
-38.561267258886801
30
0
10
2.8027835347214856
20
-35.42507130364816
30
0
10
3.0657215995337301
20
-32.928419303976924
30
0
10
3.2666109455121513
20
-31.352332757910485
30
0
10
3.3377918225754168
20
-30.822970705281865
30
0
0
LINE
5
118
100
AcDbEntity
8
0
100
AcDbLine
10
3.3377918225754168
20
-30.822970705281865
30
0
11
3.3521275174901524
21
-30.716793939046131
31
0
0
SPLINE
5
119
100
AcDbEntity
8
0
100
AcDbSpline
70
4
71
5
72
21
73
15
74
0
42
0.000000001
43
0.0000000001
44
0.0000000001
40
-0.99681113794450105
40
-0.99681113794450105
40
-0.99681113794450105
40
-0.99681113794450105
40
-0.99681113794450105
40
-0.99681113794450105
40
-0.89999999999999991
40
-0.79999999999999993
40
-0.69999999999999996
40
-0.59999999999999998
40
-0.5
40
-0.40000000000000002
40
-0.30000000000000004
40
-0.20000000000000001
40
-0.10000000000000001
40
-0.028733827481711889
40
-0.028733827481711889
40
-0.028733827481711889
40
-0.028733827481711889
40
-0.028733827481711889
40
-0.028733827481711889
41
1
41
1
41
1
41
1
41
1
41
1
41
1
41
1
41
1
41
1
41
1
41
1
41
1
41
1
41
1
10
3.3521275174905103
20
-30.716793939046024
30
0
10
3.4434895010359403
20
-30.074997152972657
30
0
10
3.762456894967507
20
-28.859447912720128
30
0
10
4.6496317469411821
20
-27.298114932099313
30
0
10
6.5024370883537514
20
-25.655433272164242
30
0
10
9.1677701388446327
20
-23.809240314966353
30
0
10
11.342795791633355
20
-21.549147554876427
30
0
10
12.420590008409967
20
-18.419560803683254
30
0
10
12.409450263591104
20
-14.313344608274077
30
0
10
11.690732776967611
20
-9.3456257791519199
30
0
10
10.896839262280746
20
-4.0746674596818053
30
0
10
10.617478359413502
20
0.32287176564229753
30
0
10
10.769104009103899
20
3.5924284902851995
30
0
10
11.029678023410449
20
5.6692672865676688
30
0
10
11.167417877314936
20
6.5353145948361204
30
0
0
SPLINE
5
120
100
AcDbEntity
8
0
100
AcDbSpline
70
4
71
5
72
12
73
6
74
0
42
0.000000001
43
0.0000000001
44
0.0000000001
40
-0.39912593512650257
40
-0.39912593512650257
40
-0.39912593512650257
40
-0.39912593512650257
40
-0.39912593512650257
40
-0.39912593512650257
40
-0.38348340772776546
40
-0.38348340772776546
40
-0.38348340772776546
40
-0.38348340772776546
40
-0.38348340772776546
40
-0.38348340772776546
41
1
41
1
41
1
41
1
41
1
41
1
10
11.167417877314955
20
6.5353145948361355
30
0
10
11.233993350626738
20
6.8852038040453092
30
0
10
11.299868313097651
20
7.2350491822030421
30
0
10
11.365025360670966
20
7.5848241663347977
30
0
10
11.429449303192117
20
7.9345030278739079
30
0
10
11.493127070992411
20
8.284060860275682
30
0
0
SPLINE
5
121
100
AcDbEntity
8
0
100
AcDbSpline
70
4
71
5
72
17
73
11
74
0
42
0.000000001
43
0.0000000001
44
0.0000000001
40
-0.38348340772776546
40
-0.38348340772776546
40
-0.38348340772776546
40
-0.38348340772776546
40
-0.38348340772776546
40
-0.38348340772776546
40
-0.33333333333333331
40
-0.26666666666666666
40
-0.20000000000000001
40
-0.13333333333333333
40
-0.066666666666666666
40
-0.0032065780427796343
40
-0.0032065780427796343
40
-0.0032065780427796343
40
-0.0032065780427796343
40
-0.0032065780427796343
40
-0.0032065780427796343
41
1
41
1
41
1
41
1
41
1
41
1
41
1
41
1
41
1
41
1
41
1
10
11.493127070992411
20
8.284060860275682
30
0
10
11.697278530091902
20
9.4047462107466462
30
0
10
12.154952355135229
20
12.012309456216766
30
0
10
12.804785175988494
20
16.090398180360953
30
0
10
13.534116182760146
20
21.581336760630325
30
0
10
14.215239936222169
20
28.35430041879901
30
0
10
14.727670681501143
20
35.158198806403426
30
0
10
15.048580224143535
20
40.362134005108238
30
0
10
15.270428092445238
20
44.115447501756933
30
0
10
15.41357406216048
20
46.538061679610159
30
0
10
15.48258519599095
20
47.705430309269403
30
0
0
ENDSEC
0
SECTION
2
OBJECTS
0
DICTIONARY
5
C
100
AcDbDictionary
3
ACAD_GROUP
350
D
3
ACAD_MLINESTYLE
350
17
0
DICTIONARY
5
D
100
AcDbDictionary
0
DICTIONARY
5
1A
330
C
100
AcDbDictionary
0
DICTIONARY
5
17
100
AcDbDictionary
0
ENDSEC
0
EOF
