0
SECTION
2
HEADER
9
$INSUNITS
70
4
9
$ACADVER
1
AC1014
9
$HANDSEED
5
FFFF
0
ENDSEC
0
SECTION
2
TABLES
0
TABLE
2
VPORT
5
8
100
AcDbSymbolTable
0
ENDTAB
0
TABLE
2
LTYPE
5
5
100
AcDbSymbolTable
0
LTYPE
5
14
100
AcDbSymbolTableRecord
100
AcDbLinetypeTableRecord
2
BYBLOCK
70
0
0
LTYPE
5
15
100
AcDbSymbolTableRecord
100
AcDbLinetypeTableRecord
2
BYLAYER
70
0
0
ENDTAB
0
TABLE
2
LAYER
5
2
100
AcDbSymbolTable
70
2
0
LAYER
5
50
100
AcDbSymbolTableRecord
100
AcDbLayerTableRecord
2
0
70
0
6
CONTINUOUS
0
ENDTAB
0
TABLE
2
STYLE
5
3
100
AcDbSymbolTable
70
1
0
STYLE
5
11
100
AcDbSymbolTableRecord
100
AcDbTextStyleTableRecord
2
STANDARD
70
0
0
ENDTAB
0
TABLE
2
VIEW
5
6
100
AcDbSymbolTable
70
0
0
ENDTAB
0
TABLE
2
UCS
5
7
100
AcDbSymbolTable
70
0
0
ENDTAB
0
TABLE
2
APPID
5
9
100
AcDbSymbolTable
70
2
0
APPID
5
12
100
AcDbSymbolTableRecord
100
AcDbRegAppTableRecord
2
ACAD
70
0
0
ENDTAB
0
TABLE
2
DIMSTYLE
5
A
100
AcDbSymbolTable
70
1
0
ENDTAB
0
TABLE
2
BLOCK_RECORD
5
1
100
AcDbSymbolTable
70
1
0
BLOCK_RECORD
5
1F
100
AcDbSymbolTableRecord
100
AcDbBlockTableRecord
2
*MODEL_SPACE
0
BLOCK_RECORD
5
1B
100
AcDbSymbolTableRecord
100
AcDbBlockTableRecord
2
*PAPER_SPACE
0
ENDTAB
0
ENDSEC
0
SECTION
2
BLOCKS
0
BLOCK
5
20
100
AcDbEntity
100
AcDbBlockBegin
2
*MODEL_SPACE
0
ENDBLK
5
21
100
AcDbEntity
100
AcDbBlockEnd
0
BLOCK
5
1C
100
AcDbEntity
100
AcDbBlockBegin
2
*PAPER_SPACE
0
ENDBLK
5
1D
100
AcDbEntity
100
AcDbBlockEnd
0
ENDSEC
0
SECTION
2
ENTITIES
0
CIRCLE
5
100
100
AcDbEntity
8
0
100
AcDbCircle
10
0
20
-18
30
0
40
3.0000000447034836
210
0
220
0
230
1
0
CIRCLE
5
101
100
AcDbEntity
8
0
100
AcDbCircle
10
0
20
-9
30
0
40
3.0000000447034836
210
0
220
0
230
1
0
CIRCLE
5
102
100
AcDbEntity
8
0
100
AcDbCircle
10
0
20
9
30
0
40
3.0000000447034836
210
0
220
0
230
1
0
CIRCLE
5
103
100
AcDbEntity
8
0
100
AcDbCircle
10
0
20
0
30
0
40
3.0000000447034836
210
0
220
0
230
1
0
CIRCLE
5
104
100
AcDbEntity
8
0
100
AcDbCircle
10
11.000000163912773
20
48.000000715255737
30
0
40
1.0000000149011612
210
0
220
0
230
1
0
CIRCLE
5
105
100
AcDbEntity
8
0
100
AcDbCircle
10
0
20
-45.000000670552254
30
0
40
1
210
0
220
0
230
1
0
CIRCLE
5
106
100
AcDbEntity
8
0
100
AcDbCircle
10
-11.000000163912773
20
48.000000715255737
30
0
40
1.0000000149011612
210
0
220
0
230
1
0
SPLINE
5
107
100
AcDbEntity
8
0
100
AcDbSpline
70
4
71
5
72
26
73
20
74
0
42
0.000000001
43
0.0000000001
44
0.0000000001
40
0
40
0
40
0
40
0
40
0
40
0
40
0.066666666666666666
40
0.13333333333333333
40
0.20000000000000001
40
0.26666666666666666
40
0.33333333333333331
40
0.39999999999999997
40
0.46666666666666662
40
0.53333333333333333
40
0.59999999999999998
40
0.66666666666666663
40
0.73333333333333328
40
0.79999999999999993
40
0.86666666666666659
40
0.93333333333333324
40
1
40
1
40
1
40
1
40
1
40
1
41
1
41
1
41
1
41
1
41
1
41
1
41
1
41
1
41
1
41
1
41
1
41
1
41
1
41
1
41
1
41
1
41
1
41
1
41
1
41
1
10
8.6296592883300374
20
47.205340955645539
30
0
10
8.6989791939668919
20
46.998570946423953
30
0
10
8.8474707294935744
20
46.607164359064043
30
0
10
9.0997856726855257
20
46.086538705881821
30
0
10
9.4660585711905068
20
45.409203184018494
30
0
10
9.8428983278998778
20
44.072586350026285
30
0
10
10.031682203657565
20
41.82423654094562
30
0
10
10.0446357603685
20
38.71692044686997
30
0
10
9.968645926767234
20
35.136181855058474
30
0
10
9.9027656323984559
20
31.596297319100653
30
0
10
9.9076418749141411
20
28.577114315222801
30
0
10
9.9394204725376909
20
26.318384229166149
30
0
10
9.8109912445048408
20
24.68754559601059
30
0
10
9.0676296952282005
20
22.821034335735476
30
0
10
7.608616133322851
20
20.654784994182723
30
0
10
5.5038614086524458
20
18.494492802203503
30
0
10
3.4427000560347256
20
17.186644433900891
30
0
10
1.7629414847656646
20
16.660088426739986
30
0
10
0.59557279375970318
20
16.543093801817538
30
0
10
2.7160510225607573e-08
20
16.543093802097538
30
0
0
SPLINE
5
108
100
AcDbEntity
8
0
100
AcDbSpline
70
4
71
5
72
26
73
20
74
0
42
0.000000001
43
0.0000000001
44
0.0000000001
40
-1
40
-1
40
-1
40
-1
40
-1
40
-1
40
-0.93333333333333324
40
-0.86666666666666659
40
-0.79999999999999993
40
-0.73333333333333328
40
-0.66666666666666663
40
-0.59999999999999998
40
-0.53333333333333333
40
-0.46666666666666662
40
-0.39999999999999997
40
-0.33333333333333331
40
-0.26666666666666666
40
-0.20000000000000001
40
-0.13333333333333333
40
-0.066666666666666666
40
0
40
0
40
0
40
0
40
0
40
0
41
1
41
1
41
1
41
1
41
1
41
1
41
1
41
1
41
1
41
1
41
1
41
1
41
1
41
1
41
1
41
1
41
1
41
1
41
1
41
1
10
1.773141633520936e-09
20
16.543093802097538
30
0
10
-0.59557276482605126
20
16.543093802097538
30
0
10
-1.7629414557770093
20
16.660088427568809
30
0
10
-3.4427000267985171
20
17.186644435519433
30
0
10
-5.5038613788013704
20
18.494492804791069
30
0
10
-7.6086161024561427
20
20.654784997759812
30
0
10
-9.0676296633430589
20
22.821034339998498
30
0
10
-9.8109912117421842
20
24.687545600623096
30
0
10
-9.9394204390083178
20
26.318384233839033
30
0
10
-9.9076418403228566
20
28.577114319880749
30
0
10
-9.902765596387745
20
31.596297323756303
30
0
10
-9.9686458890922935
20
35.136181859745101
30
0
10
-10.044635721010128
20
38.716920451592323
30
0
10
-10.031682162838329
20
41.824236545661876
30
0
10
-9.8428982860236083
20
44.072586354653794
30
0
10
-9.4660585286858439
20
45.409203188468837
30
0
10
-9.0997856298624242
20
46.086538710159964
30
0
10
-8.8474706864257087
20
46.607164363223561
30
0
10
-8.6989791507150098
20
46.998570950513653
30
0
10
-8.6296592449809459
20
47.20534095970266
30
0
0
ARC
5
109
100
AcDbEntity
8
0
100
AcDbCircle
10
-11.000000163912773
20
48.000000715255737
30
0
40
2.5
210
-0
220
0
230
1
100
AcDbArc
50
-18.533791520931061
51
175.13767653243556
0
LINE
5
110
100
AcDbEntity
8
0
100
AcDbLine
10
-13.491003243922925
20
48.211905032684477
30
0
11
-13.880873191761314
21
43.628858809745822
31
0
0
SPLINE
5
111
100
AcDbEntity
8
0
100
AcDbSpline
70
4
71
5
72
14
73
8
74
0
42
0.000000001
43
0.0000000001
44
0.0000000001
40
0
40
0
40
0
40
0
40
0
40
0
40
0.20000000000000001
40
0.40000000000000002
40
0.41760136211582499
40
0.41760136211582499
40
0.41760136211582499
40
0.41760136211582499
40
0.41760136211582499
40
0.41760136211582499
41
1
41
1
41
1
41
1
41
1
41
1
41
1
41
1
10
-13.880873191761312
20
43.628858809745822
30
0
10
-14.18007086423761
20
40.111694251776491
30
0
10
-14.435385342731013
20
33.06988287768197
30
0
10
-13.986305156754192
20
25.702598943490838
30
0
10
-12.929941232387435
20
18.321299557239684
30
0
10
-11.516285338198347
20
10.929341712821991
30
0
10
-10.719295894643617
20
7.0751084738190357
30
0
10
-10.654453369346426
20
6.7633308816981961
30
0
0
SPLINE
5
112
100
AcDbEntity
8
0
100
AcDbSpline
70
4
71
5
72
12
73
6
74
0
42
0.000000001
43
0.0000000001
44
0.0000000001
40
0.41760136211582499
40
0.41760136211582499
40
0.41760136211582499
40
0.41760136211582499
40
0.41760136211582499
40
0.41760136211582499
40
0.42204321568473285
40
0.42204321568473285
40
0.42204321568473285
40
0.42204321568473285
40
0.42204321568473285
40
0.42204321568473285
41
1
41
1
41
1
41
1
41
1
41
1
10
-10.654453369346426
20
6.7633308816981961
30
0
10
-10.63808980608848
20
6.6846511521889473
30
0
10
-10.621702325458919
20
6.6059704060105648
30
0
10
-10.605291239773058
20
6.5272886466993167
30
0
10
-10.588856861510989
20
6.4486058777814472
30
0
10
-10.572399503303416
20
6.3699221027730344
30
0
0
SPLINE
5
113
100
AcDbEntity
8
0
100
AcDbSpline
70
4
71
5
72
21
73
15
74
0
42
0.000000001
43
0.0000000001
44
0.0000000001
40
0.0069205525735823786
40
0.0069205525735823786
40
0.0069205525735823786
40
0.0069205525735823786
40
0.0069205525735823786
40
0.0069205525735823786
40
0.10000000000000001
40
0.20000000000000001
40
0.30000000000000004
40
0.40000000000000002
40
0.5
40
0.59999999999999998
40
0.69999999999999996
40
0.79999999999999993
40
0.89999999999999991
40
1
40
1
40
1
40
1
40
1
40
1
41
1
41
1
41
1
41
1
41
1
41
1
41
1
41
1
41
1
41
1
41
1
41
1
41
1
41
1
41
1
10
-10.572399503303338
20
6.3699221027730504
30
0
10
-10.357132348241372
20
5.3126225864943848
30
0
10
-9.9866257597686516
20
3.1326442475593486
30
0
10
-9.6616537734068135
20
-0.13393231387157958
30
0
10
-9.6461403135524133
20
-4.4031341396839814
30
0
10
-9.996142565414333
20
-9.4309631091219348
30
0
10
-10.298069490249164
20
-14.013592776568267
30
0
10
-10.141377468067514
20
-17.923775211243171
30
0
10
-9.2597359319824477
20
-21.08718216216214
30
0
10
-7.6432697221070667
20
-23.581562674566989
30
0
10
-5.6922657069662508
20
-25.732932184636461
30
0
10
-4.3313889548109854
20
-27.521017657349773
30
0
10
-3.6656930918295432
20
-29.069992886920968
30
0
10
-3.4149191328977557
20
-30.219214478620785
30
0
10
-3.3377918191839058
20
-30.822970704130846
30
0
0
SPLINE
5
114
100
AcDbEntity
8
0
100
AcDbSpline
70
4
71
5
72
12
73
6
74
0
42
0.000000001
43
0.0000000001
44
0.0000000001
40
0.8412310311211606
40
0.8412310311211606
40
0.8412310311211606
40
0.8412310311211606
40
0.8412310311211606
40
0.8412310311211606
40
1
40
1
40
1
40
1
40
1
40
1
41
1
41
1
41
1
41
1
41
1
41
1
10
-3.3377918191839351
20
-30.822970704130853
30
0
10
-3.0121160597955821
20
-33.643860971966433
30
0
10
-2.7584814690087542
20
-36.465229173845437
30
0
10
-2.5855667877925184
20
-39.287037042650198
30
0
10
-2.499072944685353
20
-42.109268664261663
30
0
10
-2.4990729453488694
20
-44.931924141371297
30
0
0
ARC
5
115
100
AcDbEntity
8
0
100
AcDbCircle
10
0
20
-45.000000670552254
30
0
40
2.4999999999999996
210
0
220
0
230
1
100
AcDbArc
50
-181.56039200297738
51
1.5603919760405531
0
SPLINE
5
116
100
AcDbEntity
8
0
100
AcDbSpline
70
4
71
5
72
12
73
6
74
0
42
0.000000001
43
0.0000000001
44
0.0000000001
40
-1
40
-1
40
-1
40
-1
40
-1
40
-1
40
-0.84123103112116182
40
-0.84123103112116182
40
-0.84123103112116182
40
-0.84123103112116182
40
-0.84123103112116182
40
-0.84123103112116182
41
1
41
1
41
1
41
1
41
1
41
1
10
2.4990729453808749
20
-44.931924142546208
30
0
10
2.4990729460443917
20
-42.109268665436588
30
0
10
2.585566790478389
20
-39.287037043865809
30
0
10
2.7584814730212566
20
-36.465229175142326
30
0
10
3.0121160651345069
20
-33.643860973382552
30
0
10
3.3377918258490564
20
-30.822970705700065
30
0
0
SPLINE
5
117
100
AcDbEntity
8
0
100
AcDbSpline
70
4
71
5
72
21
73
15
74
0
42
0.000000001
43
0.0000000001
44
0.0000000001
40
-1
40
-1
40
-1
40
-1
40
-1
40
-1
40
-0.89999999999999991
40
-0.79999999999999993
40
-0.69999999999999996
40
-0.59999999999999998
40
-0.5
40
-0.40000000000000002
40
-0.30000000000000004
40
-0.20000000000000001
40
-0.10000000000000001
40
-0.0069205525732296703
40
-0.0069205525732296703
40
-0.0069205525732296703
40
-0.0069205525732296703
40
-0.0069205525732296703
40
-0.0069205525732296703
41
1
41
1
41
1
41
1
41
1
41
1
41
1
41
1
41
1
41
1
41
1
41
1
41
1
41
1
41
1
10
3.3377918258490444
20
-30.822970705700058
30
0
10
3.4149191398467424
20
-30.21921448022626
30
0
10
3.6656930993188279
20
-29.069992888644364
30
0
10
4.3313889630285338
20
-27.521017659386196
30
0
10
5.6922657160244983
20
-25.732932187312731
30
0
10
7.6432697321767673
20
-23.581562678160452
30
0
10
9.2597359432247508
20
-21.087182166515461
30
0
10
10.14137748079686
20
-17.92377521601091
30
0
10
10.298069504816628
20
-14.013592781409665
30
0
10
9.9961425821361534
20
-9.4309631138214449
30
0
10
9.6461403326378452
20
-4.4031341442154046
30
0
10
9.6616537944998147
20
-0.13393231840625494
30
0
10
9.9866257823986935
20
3.1326442428760517
30
0
10
10.357132371897865
20
5.3126225816410475
30
0
10
10.572399527458288
20
6.3699220978226121
30
0
0
SPLINE
5
118
100
AcDbEntity
8
0
100
AcDbSpline
70
4
71
5
72
12
73
6
74
0
42
0.000000001
43
0.0000000001
44
0.0000000001
40
-0.42204321568451286
40
-0.42204321568451286
40
-0.42204321568451286
40
-0.42204321568451286
40
-0.42204321568451286
40
-0.42204321568451286
40
-0.41760136211583093
40
-0.41760136211583093
40
-0.41760136211583093
40
-0.41760136211583093
40
-0.41760136211583093
40
-0.41760136211583093
41
1
41
1
41
1
41
1
41
1
41
1
10
10.572399527458334
20
6.3699220978226014
30
0
10
10.588856885702063
20
6.4486058728192752
30
0
10
10.605291264000282
20
6.5272886417254146
30
0
10
10.621702349722298
20
6.6059704010249458
30
0
10
10.638089830388013
20
6.6846511471916212
30
0
10
10.654453393682118
20
6.7633308766891744
30
0
0
SPLINE
5
119
100
AcDbEntity
8
0
100
AcDbSpline
70
4
71
5
72
14
73
8
74
0
42
0.000000001
43
0.0000000001
44
0.0000000001
40
-0.41760136211583093
40
-0.41760136211583093
40
-0.41760136211583093
40
-0.41760136211583093
40
-0.41760136211583093
40
-0.41760136211583093
40
-0.40000000000000002
40
-0.20000000000000001
40
0
40
0
40
0
40
0
40
0
40
0
41
1
41
1
41
1
41
1
41
1
41
1
41
1
41
1
10
10.654453393682118
20
6.7633308766891744
30
0
10
10.719295919125909
20
7.0751084687796331
30
0
10
11.516285364492681
20
10.929341707407982
30
0
10
12.929941262157037
20
18.321299551161101
30
0
10
13.986305189994049
20
25.702598936915567
30
0
10
14.435385379434519
20
33.069882870895441
30
0
10
14.180070904251732
20
40.111694245109923
30
0
10
13.880873233428979
20
43.628858803219913
30
0
0
LINE
5
120
100
AcDbEntity
8
0
100
AcDbLine
10
13.880873233428977
20
43.628858803219927
30
0
11
13.49100328774524
21
48.211905026341874
31
0
0
ARC
5
121
100
AcDbEntity
8
0
100
AcDbCircle
10
11.000000163912773
20
48.000000715255737
30
0
40
2.4999999999999996
210
0
220
-0
230
1
100
AcDbArc
50
4.8623232375966818
51
198.53379192488501
0
ENDSEC
0
SECTION
2
OBJECTS
0
DICTIONARY
5
C
100
AcDbDictionary
3
ACAD_GROUP
350
D
3
ACAD_MLINESTYLE
350
17
0
DICTIONARY
5
D
100
AcDbDictionary
0
DICTIONARY
5
1A
330
C
100
AcDbDictionary
0
DICTIONARY
5
17
100
AcDbDictionary
0
ENDSEC
0
EOF
