0
SECTION
2
HEADER
9
$INSUNITS
70
4
9
$ACADVER
1
AC1014
9
$HANDSEED
5
FFFF
0
ENDSEC
0
SECTION
2
TABLES
0
TABLE
2
VPORT
5
8
100
AcDbSymbolTable
0
ENDTAB
0
TABLE
2
LTYPE
5
5
100
AcDbSymbolTable
0
LTYPE
5
14
100
AcDbSymbolTableRecord
100
AcDbLinetypeTableRecord
2
BYBLOCK
70
0
0
LTYPE
5
15
100
AcDbSymbolTableRecord
100
AcDbLinetypeTableRecord
2
BYLAYER
70
0
0
ENDTAB
0
TABLE
2
LAYER
5
2
100
AcDbSymbolTable
70
2
0
LAYER
5
50
100
AcDbSymbolTableRecord
100
AcDbLayerTableRecord
2
0
70
0
6
CONTINUOUS
0
ENDTAB
0
TABLE
2
STYLE
5
3
100
AcDbSymbolTable
70
1
0
STYLE
5
11
100
AcDbSymbolTableRecord
100
AcDbTextStyleTableRecord
2
STANDARD
70
0
0
ENDTAB
0
TABLE
2
VIEW
5
6
100
AcDbSymbolTable
70
0
0
ENDTAB
0
TABLE
2
UCS
5
7
100
AcDbSymbolTable
70
0
0
ENDTAB
0
TABLE
2
APPID
5
9
100
AcDbSymbolTable
70
2
0
APPID
5
12
100
AcDbSymbolTableRecord
100
AcDbRegAppTableRecord
2
ACAD
70
0
0
ENDTAB
0
TABLE
2
DIMSTYLE
5
A
100
AcDbSymbolTable
70
1
0
ENDTAB
0
TABLE
2
BLOCK_RECORD
5
1
100
AcDbSymbolTable
70
1
0
BLOCK_RECORD
5
1F
100
AcDbSymbolTableRecord
100
AcDbBlockTableRecord
2
*MODEL_SPACE
0
BLOCK_RECORD
5
1B
100
AcDbSymbolTableRecord
100
AcDbBlockTableRecord
2
*PAPER_SPACE
0
ENDTAB
0
ENDSEC
0
SECTION
2
BLOCKS
0
BLOCK
5
20
100
AcDbEntity
100
AcDbBlockBegin
2
*MODEL_SPACE
0
ENDBLK
5
21
100
AcDbEntity
100
AcDbBlockEnd
0
BLOCK
5
1C
100
AcDbEntity
100
AcDbBlockBegin
2
*PAPER_SPACE
0
ENDBLK
5
1D
100
AcDbEntity
100
AcDbBlockEnd
0
ENDSEC
0
SECTION
2
ENTITIES
0
LINE
5
100
100
AcDbEntity
8
0
100
AcDbLine
10
-41.085163381506511
20
-44.620698266532884
30
0
11
-18.323156235577546
21
-21.858690442243226
31
0
0
ARC
5
101
100
AcDbEntity
8
0
100
AcDbCircle
10
-15.494729068684505
20
-24.68711752484257
30
0
40
4.0000000000000018
210
0
220
0
230
1
100
AcDbArc
50
0
51
135.00000085377363
0
LINE
5
102
100
AcDbEntity
8
0
100
AcDbLine
10
-11.494729068684503
20
-24.68711752484257
30
0
11
-11.494729068684503
21
-28.713749194210418
31
0
0
ARC
5
103
100
AcDbEntity
8
0
100
AcDbCircle
10
-16.494729068684503
20
-28.713749194210418
30
0
40
4.9999999999999991
210
-0
220
0
230
1
100
AcDbArc
50
-35.723792838871702
51
0
0
ARC
5
104
100
AcDbEntity
8
0
100
AcDbCircle
10
-10
20
-33.384776310850242
30
0
40
3.0000000000000009
210
0
220
0
230
1
100
AcDbArc
50
144.27620716112821
51
300.27264131890962
0
ARC
5
105
100
AcDbEntity
8
0
100
AcDbCircle
10
-4.4547317467952796
20
-42.884776310850235
30
0
40
7.9999999999999982
210
0
220
-0
230
1
100
AcDbArc
50
90
51
120.27264131890959
0
LINE
5
106
100
AcDbEntity
8
0
100
AcDbLine
10
-4.4547317467952787
20
-34.884776310850242
30
0
11
4.4547317467952974
21
-34.884776310850242
31
0
0
ARC
5
107
100
AcDbEntity
8
0
100
AcDbCircle
10
4.4547317467952965
20
-42.884776310850235
30
0
40
8.0000000000000036
210
0
220
-0
230
1
100
AcDbArc
50
59.727358681090507
51
90
0
ARC
5
108
100
AcDbEntity
8
0
100
AcDbCircle
10
10
20
-33.384776310850235
30
0
40
2.999999999999996
210
0
220
0
230
1
100
AcDbArc
50
-120.27264131890952
51
35.723792838871638
0
ARC
5
109
100
AcDbEntity
8
0
100
AcDbCircle
10
16.494729068684507
20
-28.713749194210418
30
0
40
5
210
0
220
0
230
1
100
AcDbArc
50
180
51
215.72379283887173
0
LINE
5
110
100
AcDbEntity
8
0
100
AcDbLine
10
11.494729068684508
20
-28.713749194210418
30
0
11
11.494729068684507
21
-24.687117224109638
31
0
0
ARC
5
111
100
AcDbEntity
8
0
100
AcDbCircle
10
15.494729068684507
20
-24.687117224109635
30
0
40
3.9999999999999987
210
0
220
-0
230
1
100
AcDbArc
50
45
51
180
0
LINE
5
112
100
AcDbEntity
8
0
100
AcDbLine
10
18.323156193430698
20
-21.858690099363443
30
0
11
41.085163878336182
21
-44.620697784268948
31
0
0
ARC
5
113
100
AcDbEntity
8
0
100
AcDbCircle
10
37.549629972403444
20
-48.156231690201679
30
0
40
4.9999999999999964
210
-0
220
0
230
1
100
AcDbArc
50
-21.188773578352077
51
44.99999999999995
0
ARC
5
114
100
AcDbEntity
8
0
100
AcDbCircle
10
44.076392447651365
20
-50.686324888429432
30
0
40
2.0000000000016258
210
0
220
0
230
1
100
AcDbArc
50
158.81122642165403
51
170.74939860293802
0
ARC
5
115
100
AcDbEntity
8
0
100
AcDbCircle
10
51.972348729929607
20
-51.972348104492909
30
0
40
9.9999988327455096
210
0
220
0
230
1
100
AcDbArc
50
170.74939860294262
51
180
0
ARC
5
116
100
AcDbEntity
8
0
100
AcDbCircle
10
44.472349897184102
20
-51.972348104492909
30
0
40
2.5000000000000089
210
0
220
0
230
1
100
AcDbArc
50
180
51
263.60278903790146
0
ARC
5
117
100
AcDbEntity
8
0
100
AcDbCircle
10
43.525275158055763
20
-60.41942152896987
30
0
40
6.0000000000000036
210
0
220
-0
230
1
100
AcDbArc
50
6.3972020449304523
51
83.602789037901317
0
ARC
5
118
100
AcDbEntity
8
0
100
AcDbCircle
10
51.972348729929607
20
-59.472348104492909
30
0
40
2.4999999999999991
210
0
220
0
230
1
100
AcDbArc
50
186.3972020449302
51
353.60279705608207
0
ARC
5
119
100
AcDbEntity
8
0
100
AcDbCircle
10
60.419422286943593
20
-60.419421661506895
30
0
40
6.0000000000000044
210
0
220
0
230
1
100
AcDbArc
50
96.397202943917605
51
173.6027970560823
0
ARC
5
120
100
AcDbEntity
8
0
100
AcDbCircle
10
59.472348729929607
20
-51.972348104492909
30
0
40
2.4999999999999987
210
-0
220
0
230
1
100
AcDbArc
50
-83.602797056082011
51
83.602797955069448
0
ARC
5
121
100
AcDbEntity
8
0
100
AcDbCircle
10
60.419422154406568
20
-43.525274532619065
30
0
40
6.0000000000000018
210
0
220
0
230
1
100
AcDbArc
50
186.39721096209848
51
263.60279795506966
0
ARC
5
122
100
AcDbEntity
8
0
100
AcDbCircle
10
51.972348729929607
20
-44.472349271747404
30
0
40
2.4999999999999991
210
0
220
-0
230
1
100
AcDbArc
50
6.3972109620989981
51
90
0
ARC
5
123
100
AcDbEntity
8
0
100
AcDbCircle
10
51.972348729929607
20
-51.972348104492909
30
0
40
9.9999988327455025
210
0
220
-0
230
1
100
AcDbArc
50
90
51
99.250601397057338
0
ARC
5
124
100
AcDbEntity
8
0
100
AcDbCircle
10
50.686325513865427
20
-44.076391822212003
30
0
40
1.9999999999988858
210
0
220
0
230
1
100
AcDbArc
50
99.250601397053785
51
111.1887752976973
0
ARC
5
125
100
AcDbEntity
8
0
100
AcDbCircle
10
48.156232119782096
20
-37.549629422890284
30
0
40
4.9999999999999813
210
0
220
0
230
1
100
AcDbArc
50
225.00000085377346
51
291.18877529769435
0
LINE
5
126
100
AcDbEntity
8
0
100
AcDbLine
10
44.620698266532919
20
-41.085163381506561
30
0
11
12.959195215435336
21
-9.4236612739952754
31
0
0
ARC
5
127
100
AcDbEntity
8
0
100
AcDbCircle
10
16.494729068684514
20
-5.888127315378977
30
0
40
5
210
0
220
0
230
1
100
AcDbArc
50
180
51
225.0000008537736
0
LINE
5
128
100
AcDbEntity
8
0
100
AcDbLine
10
11.494729068684515
20
-5.8881273153789762
30
0
11
11.494729068684514
21
-3.3079025243485001
31
0
0
SPLINE
5
129
100
AcDbEntity
8
0
100
AcDbSpline
70
0
71
3
72
14
73
10
74
0
42
0.000000001
43
0.0000000001
44
0.0000000001
40
0
40
0
40
0
40
0
40
0.078128894677385152
40
0.078128894677385152
40
0.15625778935477064
40
0.15625778935477064
40
0.22036071195506107
40
0.22036071195506107
40
0.28446363455535151
40
0.28446363455535151
40
0.28446363455535151
40
0.28446363455535151
10
13.191323947250886
20
-1.3310501443545253
30
0
10
12.933908461602073
20
-1.3705579889829702
30
0
10
12.686670768878107
20
-1.4599670854997879
30
0
10
12.240383506006587
20
-1.7285226424235731
30
0
10
12.045600685337433
20
-1.9051015653322616
30
0
10
11.762592558809482
20
-2.285473691236366
30
0
10
11.663336062213121
20
-2.4762431809459406
30
0
10
11.528972274400338
20
-2.881923847245178
30
0
10
11.494729068684514
20
-3.0942261156808648
30
0
10
11.494729068684514
20
-3.3079025243485001
30
0
0
SPLINE
5
130
100
AcDbEntity
8
0
100
AcDbSpline
70
4
71
5
72
12
73
6
74
0
42
0.000000001
43
0.0000000001
44
0.0000000001
40
-0.1588890877792131
40
-0.1588890877792131
40
-0.1588890877792131
40
-0.1588890877792131
40
-0.1588890877792131
40
-0.1588890877792131
40
-0.10191087093485658
40
-0.10191087093485658
40
-0.10191087093485658
40
-0.10191087093485658
40
-0.10191087093485658
40
-0.10191087093485658
41
1
41
1
41
1
41
1
41
1
41
1
10
13.191323947250888
20
-1.3310501443545242
30
0
10
13.534825179301397
20
-1.2783299543810056
30
0
10
13.883667569513516
20
-1.2309509224912558
30
0
10
14.237783924317892
20
-1.1888458551168997
30
0
10
14.597116506252938
20
-1.1519570147971943
30
0
10
14.961619537073236
20
-1.1202386232873953
30
0
0
SPLINE
5
131
100
AcDbEntity
8
0
100
AcDbSpline
70
0
71
3
72
12
73
8
74
0
42
0.000000001
43
0.0000000001
44
0.0000000001
40
0
40
0
40
0
40
0
40
0.078128894677385527
40
0.078128894677385527
40
0.12862750010914523
40
0.12862750010914523
40
0.17912610554090513
40
0.17912610554090513
40
0.17912610554090513
40
0.17912610554090513
10
16.579345419317729
20
-1.7292828848687989
30
0
10
16.399202805478634
20
-1.5412077915730107
30
0
10
16.184047205324291
20
-1.3901166569368346
30
0
10
15.792120231887692
20
-1.2162576444940341
30
0
10
15.63024797040822
20
-1.1676989888563423
30
0
10
15.298182886051864
20
-1.1122827076710449
30
0
10
15.129314512277212
20
-1.1056461112147917
30
0
10
14.961619537073236
20
-1.1202386232873951
30
0
0
ARC
5
132
100
AcDbEntity
8
0
100
AcDbCircle
10
18.384776310850231
20
5.5511151231257827e-16
30
0
40
2.5000000000000004
210
0
220
0
230
1
100
AcDbArc
50
-136.23412669846286
51
136.23412469718815
0
SPLINE
5
133
100
AcDbEntity
8
0
100
AcDbSpline
70
0
71
3
72
12
73
8
74
0
42
0.000000001
43
0.0000000001
44
0.0000000001
40
0
40
0
40
0
40
0
40
0.078128894677385582
40
0.078128894677385582
40
0.12862749497070131
40
0.12862749497070131
40
0.17912609526401696
40
0.17912609526401696
40
0.17912609526401696
40
0.17912609526401696
10
14.961619678179542
20
1.1202387339803541
30
0
10
15.221068883997166
20
1.0976619397082881
30
0
10
15.482447363951021
20
1.1259771910834084
30
0
10
15.891722602219245
20
1.2537561931439036
30
0
10
16.045428205784326
20
1.3240068418822148
30
0
10
16.331592752381596
20
1.5013427200189193
30
0
10
16.462910321877452
20
1.6077206413990643
30
0
10
16.579345479719564
20
1.7292829479303928
30
0
0
SPLINE
5
134
100
AcDbEntity
8
0
100
AcDbSpline
70
4
71
5
72
12
73
6
74
0
42
0.000000001
43
0.0000000001
44
0.0000000001
40
-0.89808913327039241
40
-0.89808913327039241
40
-0.89808913327039241
40
-0.89808913327039241
40
-0.89808913327039241
40
-0.89808913327039241
40
-0.84111091272562022
40
-0.84111091272562022
40
-0.84111091272562022
40
-0.84111091272562022
40
-0.84111091272562022
40
-0.84111091272562022
41
1
41
1
41
1
41
1
41
1
41
1
10
14.961619678224773
20
1.120238733976417
30
0
10
14.597116622704313
20
1.1519571216660081
30
0
10
14.237784016661482
20
1.1888459589086617
30
0
10
13.883667638348193
20
1.2309510239569661
30
0
10
13.534825225235668
20
1.2783300542829745
30
0
10
13.191323970905202
20
1.3310502434689633
30
0
0
SPLINE
5
135
100
AcDbEntity
8
0
100
AcDbSpline
70
0
71
3
72
14
73
10
74
0
42
0.000000001
43
0.0000000001
44
0.0000000001
40
0
40
0
40
0
40
0
40
0.078128894677385652
40
0.078128894677385652
40
0.15625778935477114
40
0.15625778935477114
40
0.22036071315924693
40
0.22036071315924693
40
0.28446363696372251
40
0.28446363696372251
40
0.28446363696372251
40
0.28446363696372251
10
11.494729068684515
20
3.3079026270933776
30
0
10
11.494729068684515
20
3.0474729781687588
30
0
10
11.545596770213766
20
2.7895331786329853
30
0
10
11.743341195553556
20
2.3076705940686337
30
0
10
11.888327374878809
20
2.0883546779838915
30
0
10
12.221364091388907
20
1.7509186053598778
30
0
10
12.394868190249579
20
1.6238706626031538
30
0
10
12.775470263228815
20
1.4295191784570482
30
0
10
12.980120608038249
20
1.3634654999103586
30
0
10
13.1913239709052
20
1.3310502434689635
30
0
0
LINE
5
136
100
AcDbEntity
8
0
100
AcDbLine
10
11.494729068684515
20
3.3079026270933776
30
0
11
11.494729068684515
21
5.8881273508862986
31
0
0
ARC
5
137
100
AcDbEntity
8
0
100
AcDbCircle
10
16.494729068684514
20
5.8881273508863003
30
0
40
5.0000000000000018
210
0
220
0
230
1
100
AcDbArc
50
134.99999999999997
51
180
0
LINE
5
138
100
AcDbEntity
8
0
100
AcDbLine
10
12.959195162751778
20
9.4236612568190417
30
0
11
44.620697784268934
21
41.085163878336168
31
0
0
ARC
5
139
100
AcDbEntity
8
0
100
AcDbCircle
10
48.156231690201672
20
37.549629972403423
30
0
40
5.0000000000000071
210
0
220
-0
230
1
100
AcDbArc
50
68.811226421648243
51
134.99999999999994
0
ARC
5
140
100
AcDbEntity
8
0
100
AcDbCircle
10
50.686324888429226
20
44.076392447650612
30
0
40
2.0000000000008575
210
0
220
0
230
1
100
AcDbArc
50
248.81122642165093
51
260.74939860293995
0
ARC
5
141
100
AcDbEntity
8
0
100
AcDbCircle
10
51.97234810449288
20
51.972348729929593
30
0
40
9.9999988327455096
210
0
220
0
230
1
100
AcDbArc
50
260.74939860294262
51
270
0
ARC
5
142
100
AcDbEntity
8
0
100
AcDbCircle
10
51.972348104492873
20
44.472349897184088
30
0
40
2.5
210
-0
220
0
230
1
100
AcDbArc
50
270.00000000000017
51
353.60278903790135
0
ARC
5
143
100
AcDbEntity
8
0
100
AcDbCircle
10
60.419421528969835
20
43.525275158055749
30
0
40
6.0000000000000036
210
0
220
0
230
1
100
AcDbArc
50
96.39720204493041
51
173.6027890379014
0
ARC
5
144
100
AcDbEntity
8
0
100
AcDbCircle
10
59.47234810449288
20
51.972348729929585
30
0
40
2.4999999999999982
210
-0
220
0
230
1
100
AcDbArc
50
-83.602797955069775
51
83.602797056082181
0
ARC
5
145
100
AcDbEntity
8
0
100
AcDbCircle
10
60.419421661506867
20
60.419422286943572
30
0
40
5.9999999999999964
210
0
220
0
230
1
100
AcDbArc
50
186.39720294391768
51
263.60279705608235
0
ARC
5
146
100
AcDbEntity
8
0
100
AcDbCircle
10
51.97234810449288
20
59.472348729929585
30
0
40
2.5000000000000062
210
0
220
-0
230
1
100
AcDbArc
50
6.3972029439178
51
173.60279795506949
0
ARC
5
147
100
AcDbEntity
8
0
100
AcDbCircle
10
43.525274532619036
20
60.419422154406561
30
0
40
6.0000000000000036
210
-0
220
0
230
1
100
AcDbArc
50
276.3972109620986
51
353.6027979550696
0
ARC
5
148
100
AcDbEntity
8
0
100
AcDbCircle
10
44.472349271747369
20
51.972348729929593
30
0
40
2.4999999999999973
210
0
220
0
230
1
100
AcDbArc
50
96.397210962098512
51
180
0
ARC
5
149
100
AcDbEntity
8
0
100
AcDbCircle
10
51.97234810449288
20
51.972348729929593
30
0
40
9.9999988327455114
210
0
220
0
230
1
100
AcDbArc
50
180
51
189.25060139705721
0
ARC
5
150
100
AcDbEntity
8
0
100
AcDbCircle
10
44.076391822211967
20
50.686325513865413
30
0
40
1.999999999998874
210
0
220
0
230
1
100
AcDbArc
50
189.25060139705337
51
201.1887752976975
0
ARC
5
151
100
AcDbEntity
8
0
100
AcDbCircle
10
37.549629422890256
20
48.156232119782075
30
0
40
4.999999999999984
210
0
220
0
230
1
100
AcDbArc
50
-44.999999146226457
51
21.18877529769436
0
LINE
5
152
100
AcDbEntity
8
0
100
AcDbLine
10
41.085163381506533
20
44.620698266532905
30
0
11
18.323156235577564
21
21.858690442243244
31
0
0
ARC
5
153
100
AcDbEntity
8
0
100
AcDbCircle
10
15.494729068684522
20
24.687117524842588
30
0
40
4.0000000000000018
210
0
220
0
230
1
100
AcDbArc
50
180
51
315.00000085377366
0
LINE
5
154
100
AcDbEntity
8
0
100
AcDbLine
10
11.494729068684521
20
24.687117524842588
30
0
11
11.494729068684526
21
42.830487885473218
31
0
0
ARC
5
155
100
AcDbEntity
8
0
100
AcDbCircle
10
19.494729068684524
20
42.830487885473218
30
0
40
8
210
0
220
0
230
1
100
AcDbArc
50
149.6729417157064
51
180
0
ARC
5
156
100
AcDbEntity
8
0
100
AcDbCircle
10
10
20
48.384776310850235
30
0
40
3.0000000000000004
210
-0
220
0
230
1
100
AcDbArc
50
-30.327058284293766
51
71.00426760082614
0
LINE
5
157
100
AcDbEntity
8
0
100
AcDbLine
10
10.976493183537499
20
51.221404778327923
30
0
11
2.6039818227666558
21
54.103594098014455
31
0
0
ARC
5
158
100
AcDbEntity
8
0
100
AcDbCircle
10
-1.1102230246251565e-15
20
46.539251518073911
30
0
40
8.0000000000000515
210
0
220
-0
230
1
100
AcDbArc
50
71.00426760082631
51
108.99573239917369
0
LINE
5
159
100
AcDbEntity
8
0
100
AcDbLine
10
-2.6039818227666602
20
54.103594098014469
30
0
11
-10.976493183537499
21
51.221404778327937
31
0
0
ARC
5
160
100
AcDbEntity
8
0
100
AcDbCircle
10
-10
20
48.384776310850235
30
0
40
3.000000000000016
210
0
220
0
230
1
100
AcDbArc
50
108.99573239917376
51
210.32705828429343
0
ARC
5
161
100
AcDbEntity
8
0
100
AcDbCircle
10
-19.494729068684528
20
42.830487885473225
30
0
40
8
210
0
220
-0
230
1
100
AcDbArc
50
0
51
30.327058284293638
0
LINE
5
162
100
AcDbEntity
8
0
100
AcDbLine
10
-11.494729068684528
20
42.830487885473225
30
0
11
-11.494729068684521
21
24.687117224109649
31
0
0
ARC
5
163
100
AcDbEntity
8
0
100
AcDbCircle
10
-15.494729068684522
20
24.687117224109649
30
0
40
4.0000000000000018
210
0
220
0
230
1
100
AcDbArc
50
-134.99999999999994
51
0
0
LINE
5
164
100
AcDbEntity
8
0
100
AcDbLine
10
-18.323156193430712
20
21.858690099363454
30
0
11
-41.085163878336182
21
44.620697784268934
31
0
0
ARC
5
165
100
AcDbEntity
8
0
100
AcDbCircle
10
-37.549629972403437
20
48.156231690201672
30
0
40
5.0000000000000036
210
0
220
0
230
1
100
AcDbArc
50
158.81122642164831
51
224.99999999999991
0
ARC
5
166
100
AcDbEntity
8
0
100
AcDbCircle
10
-44.076392447651365
20
50.686324888429411
30
0
40
2.0000000000016236
210
0
220
0
230
1
100
AcDbArc
50
338.8112264216536
51
350.74939860293819
0
ARC
5
167
100
AcDbEntity
8
0
100
AcDbCircle
10
-51.972348729929607
20
51.972348104492873
30
0
40
9.9999988327455078
210
-0
220
0
230
1
100
AcDbArc
50
-9.2506013970572862
51
0
0
ARC
5
168
100
AcDbEntity
8
0
100
AcDbCircle
10
-44.472349897184102
20
51.972348104492873
30
0
40
2.5000000000000089
210
0
220
-0
230
1
100
AcDbArc
50
0
51
83.602789037901474
0
ARC
5
169
100
AcDbEntity
8
0
100
AcDbCircle
10
-43.525275158055763
20
60.419421528969835
30
0
40
6.0000000000000036
210
0
220
0
230
1
100
AcDbArc
50
186.39720204493034
51
263.60278903790135
0
ARC
5
170
100
AcDbEntity
8
0
100
AcDbCircle
10
-51.972348729929607
20
59.472348104492873
30
0
40
2.4999999999999991
210
0
220
-0
230
1
100
AcDbArc
50
6.3972020449303395
51
173.60279705608212
0
ARC
5
171
100
AcDbEntity
8
0
100
AcDbCircle
10
-60.419422286943593
20
60.41942166150686
30
0
40
6.0000000000000062
210
-0
220
0
230
1
100
AcDbArc
50
276.39720294391782
51
353.6027970560823
0
ARC
5
172
100
AcDbEntity
8
0
100
AcDbCircle
10
-59.472348729929607
20
51.972348104492873
30
0
40
2.4999999999999964
210
0
220
0
230
1
100
AcDbArc
50
96.397202943917677
51
263.60279795506983
0
ARC
5
173
100
AcDbEntity
8
0
100
AcDbCircle
10
-60.419422154406568
20
43.525274532619029
30
0
40
6.0000000000000036
210
0
220
-0
230
1
100
AcDbArc
50
6.397210962098657
51
83.602797955069519
0
ARC
5
174
100
AcDbEntity
8
0
100
AcDbCircle
10
-51.972348729929607
20
44.472349271747369
30
0
40
2.4999999999999973
210
0
220
0
230
1
100
AcDbArc
50
186.39721096209848
51
270
0
ARC
5
175
100
AcDbEntity
8
0
100
AcDbCircle
10
-51.972348729929607
20
51.972348104492873
30
0
40
9.9999988327455025
210
-0
220
0
230
1
100
AcDbArc
50
270
51
279.25060139705732
0
ARC
5
176
100
AcDbEntity
8
0
100
AcDbCircle
10
-50.686325513865441
20
44.076391822212038
30
0
40
1.9999999999989586
210
0
220
0
230
1
100
AcDbArc
50
279.25060139705386
51
291.18877529769736
0
ARC
5
177
100
AcDbEntity
8
0
100
AcDbCircle
10
-48.156232119782089
20
37.549629422890234
30
0
40
4.9999999999999902
210
0
220
-0
230
1
100
AcDbArc
50
45.000000853773528
51
111.18877529769421
0
LINE
5
178
100
AcDbEntity
8
0
100
AcDbLine
10
-44.620698266532912
20
41.085163381506518
30
0
11
-12.959195215435342
21
9.4236612739952754
31
0
0
ARC
5
179
100
AcDbEntity
8
0
100
AcDbCircle
10
-16.494729068684514
20
5.8881273153789788
30
0
40
5
210
-0
220
0
230
1
100
AcDbArc
50
0
51
45.000000853773678
0
LINE
5
180
100
AcDbEntity
8
0
100
AcDbLine
10
-11.494729068684514
20
5.8881273153789762
30
0
11
-11.494729068684515
21
3.3079025243484987
31
0
0
SPLINE
5
181
100
AcDbEntity
8
0
100
AcDbSpline
70
0
71
3
72
14
73
10
74
0
42
0.000000001
43
0.0000000001
44
0.0000000001
40
0
40
0
40
0
40
0
40
0.078128894677385971
40
0.078128894677385971
40
0.15625778935477133
40
0.15625778935477133
40
0.22036071195506163
40
0.22036071195506163
40
0.28446363455535201
40
0.28446363455535201
40
0.28446363455535201
40
0.28446363455535201
10
-13.19132394725089
20
1.3310501443545224
30
0
10
-12.933908461602075
20
1.3705579889829678
30
0
10
-12.686670768878109
20
1.459967085499789
30
0
10
-12.240383506006587
20
1.7285226424235751
30
0
10
-12.045600685337433
20
1.9051015653322625
30
0
10
-11.762592558809482
20
2.2854736912363656
30
0
10
-11.663336062213123
20
2.4762431809459411
30
0
10
-11.52897227440034
20
2.881923847245178
30
0
10
-11.494729068684515
20
3.0942261156808644
30
0
10
-11.494729068684515
20
3.3079025243484987
30
0
0
SPLINE
5
182
100
AcDbEntity
8
0
100
AcDbSpline
70
4
71
5
72
12
73
6
74
0
42
0.000000001
43
0.0000000001
44
0.0000000001
40
-0.1588890877792131
40
-0.1588890877792131
40
-0.1588890877792131
40
-0.1588890877792131
40
-0.1588890877792131
40
-0.1588890877792131
40
-0.10191087093485644
40
-0.10191087093485644
40
-0.10191087093485644
40
-0.10191087093485644
40
-0.10191087093485644
40
-0.10191087093485644
41
1
41
1
41
1
41
1
41
1
41
1
10
-13.191323947250888
20
1.3310501443545224
30
0
10
-13.534825179301397
20
1.2783299543810038
30
0
10
-13.883667569513518
20
1.2309509224912538
30
0
10
-14.237783924317897
20
1.1888458551168977
30
0
10
-14.597116506252942
20
1.1519570147971923
30
0
10
-14.961619537073243
20
1.1202386232873933
30
0
0
SPLINE
5
183
100
AcDbEntity
8
0
100
AcDbSpline
70
0
71
3
72
12
73
8
74
0
42
0.000000001
43
0.0000000001
44
0.0000000001
40
0
40
0
40
0
40
0
40
0.078128894677385513
40
0.078128894677385513
40
0.12862750010914523
40
0.12862750010914523
40
0.17912610554090513
40
0.17912610554090513
40
0.17912610554090513
40
0.17912610554090513
10
-16.579345419317736
20
1.729282884868798
30
0
10
-16.399202805478641
20
1.5412077915730098
30
0
10
-16.184047205324294
20
1.3901166569368339
30
0
10
-15.792120231887699
20
1.216257644494033
30
0
10
-15.630247970408227
20
1.16769898885634
30
0
10
-15.298182886051869
20
1.1122827076710426
30
0
10
-15.129314512277219
20
1.1056461112147895
30
0
10
-14.961619537073243
20
1.1202386232873929
30
0
0
ARC
5
184
100
AcDbEntity
8
0
100
AcDbCircle
10
-18.384776310850238
20
0
30
0
40
2.4999999999999996
210
0
220
-0
230
1
100
AcDbArc
50
43.765873301537106
51
316.23412469718818
0
SPLINE
5
185
100
AcDbEntity
8
0
100
AcDbSpline
70
0
71
3
72
12
73
8
74
0
42
0.000000001
43
0.0000000001
44
0.0000000001
40
0
40
0
40
0
40
0
40
0.078128894677385929
40
0.078128894677385929
40
0.12862749497070142
40
0.12862749497070142
40
0.1791260952640169
40
0.1791260952640169
40
0.1791260952640169
40
0.1791260952640169
10
-14.961619678179547
20
-1.1202387339803512
30
0
10
-15.221068883997175
20
-1.0976619397082856
30
0
10
-15.482447363951028
20
-1.1259771910834093
30
0
10
-15.891722602219254
20
-1.2537561931439047
30
0
10
-16.045428205784333
20
-1.324006841882216
30
0
10
-16.331592752381599
20
-1.50134272001892
30
0
10
-16.462910321877459
20
-1.6077206413990639
30
0
10
-16.579345479719571
20
-1.7292829479303917
30
0
0
SPLINE
5
186
100
AcDbEntity
8
0
100
AcDbSpline
70
4
71
5
72
12
73
6
74
0
42
0.000000001
43
0.0000000001
44
0.0000000001
40
-0.89808913327039275
40
-0.89808913327039275
40
-0.89808913327039275
40
-0.89808913327039275
40
-0.89808913327039275
40
-0.89808913327039275
40
-0.84111091272562011
40
-0.84111091272562011
40
-0.84111091272562011
40
-0.84111091272562011
40
-0.84111091272562011
40
-0.84111091272562011
41
1
41
1
41
1
41
1
41
1
41
1
10
-14.961619678224787
20
-1.1202387339764162
30
0
10
-14.597116622704325
20
-1.1519571216660074
30
0
10
-14.237784016661486
20
-1.1888459589086611
30
0
10
-13.883667638348197
20
-1.2309510239569657
30
0
10
-13.534825225235668
20
-1.2783300542829745
30
0
10
-13.191323970905199
20
-1.3310502434689639
30
0
0
SPLINE
5
187
100
AcDbEntity
8
0
100
AcDbSpline
70
0
71
3
72
14
73
10
74
0
42
0.000000001
43
0.0000000001
44
0.0000000001
40
0
40
0
40
0
40
0
40
0.078128894677385402
40
0.078128894677385402
40
0.15625778935477069
40
0.15625778935477069
40
0.22036071315924671
40
0.22036071315924671
40
0.28446363696372301
40
0.28446363696372301
40
0.28446363696372301
40
0.28446363696372301
10
-11.494729068684514
20
-3.3079026270933767
30
0
10
-11.494729068684514
20
-3.0474729781687584
30
0
10
-11.545596770213763
20
-2.7895331786329844
30
0
10
-11.743341195553549
20
-2.3076705940686351
30
0
10
-11.8883273748788
20
-2.088354677983892
30
0
10
-12.221364091388898
20
-1.7509186053598782
30
0
10
-12.394868190249571
20
-1.6238706626031549
30
0
10
-12.77547026322881
20
-1.4295191784570478
30
0
10
-12.980120608038243
20
-1.3634654999103586
30
0
10
-13.1913239709052
20
-1.3310502434689635
30
0
0
LINE
5
188
100
AcDbEntity
8
0
100
AcDbLine
10
-11.494729068684514
20
-3.3079026270933767
30
0
11
-11.494729068684514
21
-5.8881273508862897
31
0
0
ARC
5
189
100
AcDbEntity
8
0
100
AcDbCircle
10
-16.494729068684514
20
-5.8881273508862941
30
0
40
5.0000000000000009
210
-0
220
0
230
1
100
AcDbArc
50
-45
51
0
0
LINE
5
190
100
AcDbEntity
8
0
100
AcDbLine
10
-12.959195162751776
20
-9.4236612568190345
30
0
11
-44.620697784268913
21
-41.085163878336147
31
0
0
ARC
5
191
100
AcDbEntity
8
0
100
AcDbCircle
10
-48.156231690201651
20
-37.549629972403402
30
0
40
5.0000000000000124
210
0
220
0
230
1
100
AcDbArc
50
248.81122642164834
51
314.99999999999994
0
ARC
5
192
100
AcDbEntity
8
0
100
AcDbCircle
10
-50.686324888429397
20
-44.07639244765133
30
0
40
2.0000000000016156
210
0
220
-0
230
1
100
AcDbArc
50
68.811226421653302
51
80.749398602937987
0
ARC
5
193
100
AcDbEntity
8
0
100
AcDbCircle
10
-51.972348104492866
20
-51.972348729929571
30
0
40
9.9999988327455096
210
0
220
-0
230
1
100
AcDbArc
50
80.749398602942591
51
90.000000000000043
0
ARC
5
194
100
AcDbEntity
8
0
100
AcDbCircle
10
-51.972348104492866
20
-44.472349897184067
30
0
40
2.5000000000000089
210
0
220
0
230
1
100
AcDbArc
50
90.000000000000171
51
173.60278903790152
0
ARC
5
195
100
AcDbEntity
8
0
100
AcDbCircle
10
-60.419421528969828
20
-43.525275158055727
30
0
40
6.0000000000000036
210
-0
220
0
230
1
100
AcDbArc
50
276.39720204493045
51
353.60278903790135
0
ARC
5
196
100
AcDbEntity
8
0
100
AcDbCircle
10
-59.472348104492866
20
-51.972348729929571
30
0
40
2.4999999999999991
210
0
220
0
230
1
100
AcDbArc
50
96.397202044930211
51
263.60279705608235
0
ARC
5
197
100
AcDbEntity
8
0
100
AcDbCircle
10
-60.419421661506846
20
-60.419422286943558
30
0
40
5.9999999999999956
210
0
220
-0
230
1
100
AcDbArc
50
6.3972029439176294
51
83.602797056082309
0
ARC
5
198
100
AcDbEntity
8
0
100
AcDbCircle
10
-51.972348104492866
20
-59.472348729929571
30
0
40
2.5000000000000071
210
0
220
0
230
1
100
AcDbArc
50
186.39720294391796
51
353.60279795506972
0
ARC
5
199
100
AcDbEntity
8
0
100
AcDbCircle
10
-43.525274532619022
20
-60.419422154406533
30
0
40
6.0000000000000036
210
0
220
0
230
1
100
AcDbArc
50
96.397210962098612
51
173.60279795506963
0
ARC
5
200
100
AcDbEntity
8
0
100
AcDbCircle
10
-44.472349271747362
20
-51.972348729929571
30
0
40
2.4999999999999973
210
-0
220
0
230
1
100
AcDbArc
50
-83.602789037901317
51
0
0
ARC
5
201
100
AcDbEntity
8
0
100
AcDbCircle
10
-51.972348104492866
20
-51.972348729929571
30
0
40
9.9999988327455025
210
0
220
0
230
1
100
AcDbArc
50
0
51
9.2506013970572827
0
ARC
5
202
100
AcDbEntity
8
0
100
AcDbCircle
10
-44.076391822211946
20
-50.686325513865384
30
0
40
1.9999999999988669
210
0
220
-0
230
1
100
AcDbArc
50
9.2506013970536021
51
21.188775297697443
0
ARC
5
203
100
AcDbEntity
8
0
100
AcDbCircle
10
-37.549629422890234
20
-48.156232119782061
30
0
40
4.999999999999984
210
0
220
0
230
1
100
AcDbArc
50
135.00000085377349
51
201.18877529769421
0
LWPOLYLINE
5
204
100
AcDbEntity
8
0
100
AcDbPolyline
90
4
70
1
43
0.0
10
-45.9723487299296
20
52.972348104492866
42
-0.99999999999999989
10
-45.9723487299296
20
50.972348104492873
10
-47.472348729929607
20
50.972348104492873
42
-0.99999999999999989
10
-47.472348729929607
20
52.972348104492866
0
LWPOLYLINE
5
205
100
AcDbEntity
8
0
100
AcDbPolyline
90
4
70
1
43
0.0
10
-50.972348729929607
20
56.472348104492873
42
-0.99999999999999989
10
-52.9723487299296
20
56.472348104492873
10
-52.9723487299296
20
57.97234810449288
42
-0.99999999999999989
10
-50.972348729929607
20
57.97234810449288
0
LWPOLYLINE
5
206
100
AcDbEntity
8
0
100
AcDbPolyline
90
4
70
1
43
0.0
10
-50.972348729929607
20
45.972348104492866
42
-0.99999999999999989
10
-52.9723487299296
20
45.972348104492866
10
-52.9723487299296
20
47.472348104492866
42
-0.99999999999999989
10
-50.972348729929607
20
47.472348104492866
0
LWPOLYLINE
5
207
100
AcDbEntity
8
0
100
AcDbPolyline
90
4
70
1
43
0.0
10
-57.972348729929607
20
50.972348104492873
42
-0.99999999999999989
10
-57.972348729929607
20
52.972348104492866
10
-56.472348729929607
20
52.972348104492866
42
-0.99999999999999989
10
-56.472348729929607
20
50.972348104492873
0
CIRCLE
5
208
100
AcDbEntity
8
0
100
AcDbCircle
10
-51.972348729929607
20
51.972348104492873
30
0
40
2.1500000000000008
210
0
220
-0
230
1
0
LWPOLYLINE
5
209
100
AcDbEntity
8
0
100
AcDbPolyline
90
4
70
1
43
0.0
10
-52.972348104492859
20
-45.972348729929564
42
-0.99999999999999989
10
-50.972348104492866
20
-45.972348729929564
10
-50.972348104492866
20
-47.472348729929564
42
-0.99999999999999989
10
-52.972348104492859
20
-47.472348729929564
0
LWPOLYLINE
5
210
100
AcDbEntity
8
0
100
AcDbPolyline
90
4
70
1
43
0.0
10
-56.472348104492866
20
-50.972348729929571
42
-0.99999999999999989
10
-56.472348104492866
20
-52.972348729929564
10
-57.972348104492859
20
-52.972348729929564
42
-0.99999999999999989
10
-57.972348104492859
20
-50.972348729929571
0
LWPOLYLINE
5
211
100
AcDbEntity
8
0
100
AcDbPolyline
90
4
70
1
43
0.0
10
-45.972348104492866
20
-50.972348729929571
42
-0.99999999999999989
10
-45.972348104492866
20
-52.972348729929564
10
-47.472348104492859
20
-52.972348729929564
42
-0.99999999999999989
10
-47.472348104492859
20
-50.972348729929571
0
LWPOLYLINE
5
212
100
AcDbEntity
8
0
100
AcDbPolyline
90
4
70
1
43
0.0
10
-50.972348104492866
20
-57.972348729929578
42
-0.99999999999999989
10
-52.972348104492859
20
-57.972348729929578
10
-52.972348104492859
20
-56.472348729929571
42
-0.99999999999999989
10
-50.972348104492866
20
-56.472348729929571
0
CIRCLE
5
213
100
AcDbEntity
8
0
100
AcDbCircle
10
-51.972348104492866
20
-51.972348729929571
30
0
40
2.1500000000000004
210
-0
220
0
230
1
0
LWPOLYLINE
5
214
100
AcDbEntity
8
0
100
AcDbPolyline
90
4
70
1
43
0.0
10
45.9723487299296
20
-52.972348104492902
42
-0.99999999999999989
10
45.9723487299296
20
-50.972348104492909
10
47.472348729929607
20
-50.972348104492909
42
-0.99999999999999989
10
47.472348729929607
20
-52.972348104492902
0
LWPOLYLINE
5
215
100
AcDbEntity
8
0
100
AcDbPolyline
90
4
70
1
43
0.0
10
50.972348729929607
20
-56.472348104492909
42
-0.99999999999999989
10
52.9723487299296
20
-56.472348104492909
10
52.9723487299296
20
-57.972348104492909
42
-0.99999999999999989
10
50.972348729929607
20
-57.972348104492909
0
LWPOLYLINE
5
216
100
AcDbEntity
8
0
100
AcDbPolyline
90
4
70
1
43
0.0
10
50.972348729929607
20
-45.972348104492902
42
-0.99999999999999989
10
52.9723487299296
20
-45.972348104492902
10
52.9723487299296
20
-47.472348104492909
42
-0.99999999999999989
10
50.972348729929607
20
-47.472348104492909
0
LWPOLYLINE
5
217
100
AcDbEntity
8
0
100
AcDbPolyline
90
4
70
1
43
0.0
10
57.972348729929607
20
-50.972348104492909
42
-0.99999999999999989
10
57.972348729929607
20
-52.972348104492902
10
56.472348729929607
20
-52.972348104492902
42
-0.99999999999999989
10
56.472348729929607
20
-50.972348104492909
0
CIRCLE
5
218
100
AcDbEntity
8
0
100
AcDbCircle
10
51.972348729929607
20
-51.972348104492909
30
0
40
2.1500000000000004
210
-0
220
0
230
1
0
CIRCLE
5
219
100
AcDbEntity
8
0
100
AcDbCircle
10
51.97234810449288
20
51.972348729929593
30
0
40
2.1500000000000004
210
0
220
-0
230
1
0
LWPOLYLINE
5
220
100
AcDbEntity
8
0
100
AcDbPolyline
90
4
70
1
43
0.0
10
50.97234810449288
20
57.972348729929593
42
-0.99999999999999989
10
52.97234810449288
20
57.972348729929593
10
52.97234810449288
20
56.472348729929593
42
-0.99999999999999989
10
50.97234810449288
20
56.472348729929593
0
LWPOLYLINE
5
221
100
AcDbEntity
8
0
100
AcDbPolyline
90
4
70
1
43
0.0
10
45.972348104492873
20
50.9723487299296
42
-0.99999999999999989
10
45.972348104492873
20
52.972348729929593
10
47.47234810449288
20
52.972348729929593
42
-0.99999999999999989
10
47.47234810449288
20
50.9723487299296
0
LWPOLYLINE
5
222
100
AcDbEntity
8
0
100
AcDbPolyline
90
4
70
1
43
0.0
10
56.472348104492873
20
50.972348729929593
42
-0.99999999999999989
10
56.472348104492873
20
52.972348729929585
10
57.97234810449288
20
52.972348729929585
42
-0.99999999999999989
10
57.97234810449288
20
50.972348729929593
0
LWPOLYLINE
5
223
100
AcDbEntity
8
0
100
AcDbPolyline
90
4
70
1
43
0.0
10
52.972348104492866
20
45.972348729929593
42
-0.99999999999999989
10
50.972348104492873
20
45.972348729929593
10
50.972348104492873
20
47.472348729929593
42
-0.99999999999999989
10
52.972348104492866
20
47.472348729929593
0
CIRCLE
5
224
100
AcDbEntity
8
0
100
AcDbCircle
10
10
20
10
30
0
40
1.0000001639127842
210
0
220
0
230
1
0
CIRCLE
5
225
100
AcDbEntity
8
0
100
AcDbCircle
10
8.0000001192092913
20
8.0000001192092878
30
0
40
1.0000001639127842
210
0
220
0
230
1
0
CIRCLE
5
226
100
AcDbEntity
8
0
100
AcDbCircle
10
-8.0000001192092896
20
8.0000001192092896
30
0
40
1.0000001639127842
210
0
220
0
230
1
0
CIRCLE
5
227
100
AcDbEntity
8
0
100
AcDbCircle
10
-10
20
48.384776310850235
30
0
40
0.99999999999999978
210
0
220
0
230
1
0
CIRCLE
5
228
100
AcDbEntity
8
0
100
AcDbCircle
10
8.0000001192092878
20
-8.0000001192092913
30
0
40
1.0000001639127842
210
0
220
-0
230
1
0
CIRCLE
5
229
100
AcDbEntity
8
0
100
AcDbCircle
10
10
20
48.384776310850235
30
0
40
1.0000000000000009
210
0
220
0
230
1
0
CIRCLE
5
230
100
AcDbEntity
8
0
100
AcDbCircle
10
10
20
-10
30
0
40
1.0000001639127842
210
0
220
0
230
1
0
CIRCLE
5
231
100
AcDbEntity
8
0
100
AcDbCircle
10
-10
20
10
30
0
40
1.0000001639127842
210
0
220
0
230
1
0
CIRCLE
5
232
100
AcDbEntity
8
0
100
AcDbCircle
10
-10
20
-33.384776310850242
30
0
40
1.0000000000000009
210
0
220
0
230
1
0
CIRCLE
5
233
100
AcDbEntity
8
0
100
AcDbCircle
10
-8.0000001192092913
20
-8.0000001192092878
30
0
40
1.0000001639127842
210
0
220
-0
230
1
0
CIRCLE
5
234
100
AcDbEntity
8
0
100
AcDbCircle
10
-10
20
-10
30
0
40
1.0000001639127842
210
0
220
0
230
1
0
CIRCLE
5
235
100
AcDbEntity
8
0
100
AcDbCircle
10
10
20
-33.384776310850235
30
0
40
0.99999999999999867
210
0
220
0
230
1
0
CIRCLE
5
236
100
AcDbEntity
8
0
100
AcDbCircle
10
0
20
18.384776310850231
30
0
40
1.0000001639127842
210
0
220
0
230
1
0
CIRCLE
5
237
100
AcDbEntity
8
0
100
AcDbCircle
10
0
20
-18.384776310850238
30
0
40
1.0000001639127842
210
0
220
0
230
1
0
CIRCLE
5
238
100
AcDbEntity
8
0
100
AcDbCircle
10
-18.384776310850238
20
0
30
0
40
1.0000000000000009
210
0
220
0
230
1
0
CIRCLE
5
239
100
AcDbEntity
8
0
100
AcDbCircle
10
18.384776310850231
20
5.5511151231257827e-16
30
0
40
1.0000001639127842
210
0
220
0
230
1
0
LWPOLYLINE
5
240
100
AcDbEntity
8
0
100
AcDbPolyline
90
8
70
1
43
0.0
10
-4.983228045189021
20
15.134776310850238
10
-4.983228045189021
20
11.134776310850238
42
0.41421356237309492
10
-3.9832280451890218
20
10.134776310850238
10
3.9832280451890427
20
10.134776310850238
42
0.41421356237309509
10
4.9832280451890423
20
11.134776310850238
10
4.9832280451890396
20
15.134776310850238
42
0.41421356237309509
10
3.9832280451890401
20
16.134776310850238
10
-3.983228045189021
20
16.134776310850238
42
0.41421356237309509
0
LWPOLYLINE
5
241
100
AcDbEntity
8
0
100
AcDbPolyline
90
8
70
1
43
0.0
10
0.80108518015708619
20
37.748041146100206
10
6.912190149359601
20
45.923964414480864
42
0.49736197982930264
10
6.0269783279276821
20
48.988506868402474
10
1.0751147918611428
20
50.889379298276786
42
0.18534115817718319
10
-1.0751157937707556
20
50.889381908308671
10
-6.0269386258291782
20
48.988538896328564
42
0.49736652817976001
10
-6.9121404225226479
20
45.92397522632389
10
-0.80086515744957709
20
37.748031408069295
42
0.50101731836531205
0
LWPOLYLINE
5
242
100
AcDbEntity
8
0
100
AcDbPolyline
90
6
70
1
43
0.0
10
-7.9539343634827784
20
-30.183319238821838
10
-4.4017117345383276
20
-27.867872880210935
42
0.54185422067428457
10
-4.4017117345383312
20
-24.516903746449799
10
-7.9539343634827802
20
-22.201457387838897
42
0.59551379209138788
10
-9.5000001713633484
20
-23.039199671279182
10
-9.5000001713633502
20
-29.34557695538156
42
0.59551379209138955
0
CIRCLE
5
243
100
AcDbEntity
8
0
100
AcDbCircle
10
0
20
0
30
0
40
8
210
0
220
0
230
1
0
LWPOLYLINE
5
244
100
AcDbEntity
8
0
100
AcDbPolyline
90
10
70
1
43
0.0
10
1.0921316157611494
20
-24.286819295174332
10
6.1450726186050524
20
-20.9931592216256
42
0.66403805724816922
10
5.8164648923799422
20
-19.179347277391209
10
3.2392115396419618
20
-18.605162265257395
42
0.36871532454258182
10
2.091983163221423
20
-19.213091736758805
42
-0.67958700580658271
10
-2.0919831632214203
20
-19.213091736758813
42
0.36871532454258105
10
-3.2392115396419587
20
-18.605162265257402
10
-5.8164648923799236
20
-19.179347277391201
42
0.66403805724816956
10
-6.1450726186050328
20
-20.9931592216256
10
-1.0921316157611307
20
-24.286819295174332
42
0.29713949164750447
0
LWPOLYLINE
5
245
100
AcDbEntity
8
0
100
AcDbPolyline
90
6
70
1
43
0.0
10
-8.4947290686845278
20
41.692552534636604
10
-8.4947290686845278
20
28.319545672806751
42
0.72137978385731405
10
-6.6937502604828367
20
27.720852972991729
10
-1.6958508204371276
20
34.407441164624245
42
0.33242966322207845
10
-1.6958580992338479
20
35.604836302285193
10
-6.6937575392795523
20
42.291254972482534
42
0.72137516275257674
0
LWPOLYLINE
5
246
100
AcDbEntity
8
0
100
AcDbPolyline
90
8
70
1
43
0.0
10
-4.9832280451890192
20
-11.134776310850238
10
-4.9832280451890201
20
-15.134776310850238
42
0.41421356237309509
10
-3.9832280451890201
20
-16.134776310850238
10
3.9832280451890401
20
-16.134776310850238
42
0.41421356237309509
10
4.9832280451890405
20
-15.134776310850238
10
4.9832280451890423
20
-11.134776310850238
42
0.41421356237309509
10
3.9832280451890423
20
-10.134776310850238
10
-3.9832280451890192
20
-10.134776310850238
42
0.41421356237309509
0
LWPOLYLINE
5
247
100
AcDbEntity
8
0
100
AcDbPolyline
90
14
70
1
43
0.0
10
-7.654787814073285
20
22.301511482353973
10
-7.58018315804292
20
21.091265198386196
42
0.2554136002237859
10
-6.5585125574855851
20
19.467817376998362
10
-4.8012492616762517
20
18.487272785195714
42
0.43155950029049001
10
-2.0259048033326059
20
19.363658187193789
42
-0.62743230657504701
10
2.0259048033326055
20
19.363658187193789
42
0.43155950029048984
10
4.8012492616762525
20
18.487272785195714
10
6.5585010883477679
20
19.4678109772738
42
0.25541629354772866
10
7.5801729333204833
20
21.091278987389678
10
7.6548023460032919
20
22.302126286767727
42
0.17769468669320146
10
7.2605333711258595
20
23.622565777758279
10
0.80111851525118816
20
32.264266678102011
42
0.50101731836531394
10
-0.8008318223554789
20
32.264256940071107
10
-7.260534641204667
20
23.621951686010753
42
0.17769415950745426
0
LWPOLYLINE
5
248
100
AcDbEntity
8
0
100
AcDbPolyline
90
6
70
1
43
0.0
10
9.5000001713633431
20
-29.345576955381546
10
9.5000001713633448
20
-23.039199671279199
42
0.59551379209138855
10
7.9539343634827775
20
-22.201457387838918
10
4.4017117345383481
20
-24.516903746449806
42
0.54185422067428435
10
4.401711734538349
20
-27.867872880210939
10
7.9539343634827766
20
-30.183319238821831
42
0.59551379209138788
0
LWPOLYLINE
5
249
100
AcDbEntity
8
0
100
AcDbPolyline
90
6
70
1
43
0.0
10
4.8493621069478632
20
-30.54703402740995
10
1.0921316157611562
20
-28.097957331486406
42
0.29713949164750419
10
-1.0921316157611216
20
-28.097957331486406
10
-4.8493621069478339
20
-30.54703402740995
42
0.74607279619066114
10
-4.3032962990672647
20
-32.384776310850242
10
4.3032962990672923
20
-32.384776310850242
42
0.74607279619066025
0
LWPOLYLINE
5
250
100
AcDbEntity
8
0
100
AcDbPolyline
90
6
70
1
43
0.0
10
1.6961114570354496
20
34.407461783886113
10
6.6937575392795479
20
27.721382067354256
42
0.72137516275257529
10
8.4947290686845172
20
28.320084505200182
10
8.4947290686845172
20
41.692413451105551
42
0.7213797838573146
10
6.6937502604828234
20
42.291106150920569
10
1.6961041782387292
20
35.604856921547061
42
0.33242966322207745
0
ENDSEC
0
SECTION
2
OBJECTS
0
DICTIONARY
5
C
100
AcDbDictionary
3
ACAD_GROUP
350
D
3
ACAD_MLINESTYLE
350
17
0
DICTIONARY
5
D
100
AcDbDictionary
0
DICTIONARY
5
1A
330
C
100
AcDbDictionary
0
DICTIONARY
5
17
100
AcDbDictionary
0
ENDSEC
0
EOF
