0
SECTION
2
HEADER
9
$INSUNITS
70
4
9
$ACADVER
1
AC1014
9
$HANDSEED
5
FFFF
0
ENDSEC
0
SECTION
2
TABLES
0
TABLE
2
VPORT
5
8
100
AcDbSymbolTable
0
ENDTAB
0
TABLE
2
LTYPE
5
5
100
AcDbSymbolTable
0
LTYPE
5
14
100
AcDbSymbolTableRecord
100
AcDbLinetypeTableRecord
2
BYBLOCK
70
0
0
LTYPE
5
15
100
AcDbSymbolTableRecord
100
AcDbLinetypeTableRecord
2
BYLAYER
70
0
0
ENDTAB
0
TABLE
2
LAYER
5
2
100
AcDbSymbolTable
70
2
0
LAYER
5
50
100
AcDbSymbolTableRecord
100
AcDbLayerTableRecord
2
0
70
0
6
CONTINUOUS
0
ENDTAB
0
TABLE
2
STYLE
5
3
100
AcDbSymbolTable
70
1
0
STYLE
5
11
100
AcDbSymbolTableRecord
100
AcDbTextStyleTableRecord
2
STANDARD
70
0
0
ENDTAB
0
TABLE
2
VIEW
5
6
100
AcDbSymbolTable
70
0
0
ENDTAB
0
TABLE
2
UCS
5
7
100
AcDbSymbolTable
70
0
0
ENDTAB
0
TABLE
2
APPID
5
9
100
AcDbSymbolTable
70
2
0
APPID
5
12
100
AcDbSymbolTableRecord
100
AcDbRegAppTableRecord
2
ACAD
70
0
0
ENDTAB
0
TABLE
2
DIMSTYLE
5
A
100
AcDbSymbolTable
70
1
0
ENDTAB
0
TABLE
2
BLOCK_RECORD
5
1
100
AcDbSymbolTable
70
1
0
BLOCK_RECORD
5
1F
100
AcDbSymbolTableRecord
100
AcDbBlockTableRecord
2
*MODEL_SPACE
0
BLOCK_RECORD
5
1B
100
AcDbSymbolTableRecord
100
AcDbBlockTableRecord
2
*PAPER_SPACE
0
ENDTAB
0
ENDSEC
0
SECTION
2
BLOCKS
0
BLOCK
5
20
100
AcDbEntity
100
AcDbBlockBegin
2
*MODEL_SPACE
0
ENDBLK
5
21
100
AcDbEntity
100
AcDbBlockEnd
0
BLOCK
5
1C
100
AcDbEntity
100
AcDbBlockBegin
2
*PAPER_SPACE
0
ENDBLK
5
1D
100
AcDbEntity
100
AcDbBlockEnd
0
ENDSEC
0
SECTION
2
ENTITIES
0
CIRCLE
5
100
100
AcDbEntity
8
0
100
AcDbCircle
10
-41.7193000900063
20
-51.445495444690657
30
0
40
2.1499999999999999
210
-0
220
0
230
1
0
CIRCLE
5
101
100
AcDbEntity
8
0
100
AcDbCircle
10
-37.2193000900063
20
-51.445495444690664
30
0
40
0.99999999999999989
210
-0
220
0
230
1
0
CIRCLE
5
102
100
AcDbEntity
8
0
100
AcDbCircle
10
-46.2193000900063
20
-51.44549544469065
30
0
40
0.99999999999999989
210
0
220
0
230
1
0
CIRCLE
5
103
100
AcDbEntity
8
0
100
AcDbCircle
10
-41.719300090006314
20
-55.945495444690664
30
0
40
0.99999999999999989
210
0
220
0
230
1
0
LINE
5
104
100
AcDbEntity
8
0
100
AcDbLine
10
-31.819805156890112
20
-45.081534410516262
30
0
11
-16.592226014792356
21
-29.853955275409483
31
0
0
SPLINE
5
105
100
AcDbEntity
8
0
100
AcDbSpline
70
4
71
5
72
21
73
15
74
0
42
0.000000001
43
0.0000000001
44
0.0000000001
40
0
40
0
40
0
40
0
40
0
40
0
40
0.10000000000000001
40
0.20000000000000001
40
0.30000000000000004
40
0.40000000000000002
40
0.5
40
0.59999999999999998
40
0.69999999999999996
40
0.79999999999999993
40
0.89999999999999991
40
1
40
1
40
1
40
1
40
1
40
1
41
1
41
1
41
1
41
1
41
1
41
1
41
1
41
1
41
1
41
1
41
1
41
1
41
1
41
1
41
1
10
-16.592226014792356
20
-29.853955275409483
30
0
10
-15.921154308032715
20
-29.182883568649842
30
0
10
-14.580667804863914
20
-27.897012070317636
30
0
10
-12.574908531224438
20
-26.137016029812091
30
0
10
-9.9102535284890081
20
-24.136012147948502
30
0
10
-6.5939673773554794
20
-22.263135555461876
30
0
10
-3.2896168520594644
20
-21.089524726419924
30
0
10
0.0065898083386964693
20
-20.684024923920397
30
0
10
3.3000610287093117
20
-21.083910922573367
30
0
10
6.5984203155744767
20
-22.254312107760335
30
0
10
9.9102510712625396
20
-24.128825804976625
30
0
10
12.577113187633817
20
-26.136763818844059
30
0
10
14.58997844369909
20
-27.905875989037252
30
0
10
15.937934228325179
20
-29.199663488942278
30
0
10
16.613423628961115
20
-29.875152889578214
30
0
0
LINE
5
106
100
AcDbEntity
8
0
100
AcDbLine
10
16.613423628961115
20
-29.875152889578217
30
0
11
31.819805156890112
21
-45.081534410516262
31
0
0
ARC
5
107
100
AcDbEntity
8
0
100
AcDbCircle
10
28.991378032143928
20
-47.909961535262454
30
0
40
3.9999999999999982
210
0
220
0
230
1
100
AcDbArc
50
-10.576331209248259
51
45.000000000000071
0
ARC
5
108
100
AcDbEntity
8
0
100
AcDbCircle
10
37.838479329608148
20
-49.561869109071289
30
0
40
5.0000000000000036
210
0
220
0
230
1
100
AcDbArc
50
169.4236687907518
51
239.93141659360376
0
LINE
5
109
100
AcDbEntity
8
0
100
AcDbLine
10
35.333297932754057
20
-53.889000510918962
30
0
11
36.665874850275216
21
-54.660492428688244
31
0
0
ARC
5
110
100
AcDbEntity
8
0
100
AcDbCircle
10
34.160693453421104
20
-58.987623830535966
30
0
40
5.0000000000000533
210
0
220
-0
230
1
100
AcDbArc
50
29.810713867045614
51
59.931416593603807
0
LINE
5
111
100
AcDbEntity
8
0
100
AcDbLine
10
38.499055993002905
20
-56.501942741748856
30
0
11
41.558734363276514
21
-61.842126599059739
31
0
0
ARC
5
112
100
AcDbEntity
8
0
100
AcDbCircle
10
42.426406871192867
20
-61.344990381302324
30
0
40
1.0000000000000033
210
0
220
0
230
1
100
AcDbArc
50
209.81071386704545
51
336.6161148078935
0
LINE
5
113
100
AcDbEntity
8
0
100
AcDbLine
10
43.344273160984052
20
-61.741880131818718
30
0
11
45.583097762550942
21
-56.564266883152712
31
0
0
ARC
5
114
100
AcDbEntity
8
0
100
AcDbCircle
10
50.172429211506682
20
-58.548715635734574
30
0
40
4.9999999999997886
210
0
220
0
230
1
100
AcDbArc
50
134.99999999999957
51
156.61611480789378
0
LINE
5
115
100
AcDbEntity
8
0
100
AcDbLine
10
46.636895305574122
20
-55.013181729801957
30
0
11
49.23336460074924
21
-52.416712434626824
31
0
0
ARC
5
116
100
AcDbEntity
8
0
100
AcDbCircle
10
47.819151038376134
20
-51.002498872253732
30
0
40
2.0000000000000022
210
-0
220
0
230
1
100
AcDbArc
50
-44.999999999999694
51
65.323136724526321
0
LINE
5
117
100
AcDbEntity
8
0
100
AcDbLine
10
48.654151384812366
20
-49.185145185859312
30
0
11
39.486707073563444
21
-44.973076157614955
31
0
0
ARC
5
118
100
AcDbEntity
8
0
100
AcDbCircle
10
42.826708459308236
20
-37.703661412037462
30
0
40
7.9999999999997895
210
0
220
0
230
1
100
AcDbArc
50
224.99999988616321
51
245.32313672452671
0
LINE
5
119
100
AcDbEntity
8
0
100
AcDbLine
10
37.169854198576814
20
-43.360515650290509
30
0
11
19.633519939532942
21
-25.824181388283499
31
0
0
SPLINE
5
120
100
AcDbEntity
8
0
100
AcDbSpline
70
4
71
5
72
21
73
15
74
0
42
0.000000001
43
0.0000000001
44
0.0000000001
40
0.017090453304099446
40
0.017090453304099446
40
0.017090453304099446
40
0.017090453304099446
40
0.017090453304099446
40
0.017090453304099446
40
0.10000000000000001
40
0.20000000000000001
40
0.30000000000000004
40
0.40000000000000002
40
0.5
40
0.59999999999999998
40
0.69999999999999996
40
0.79999999999999993
40
0.89999999999999991
40
1
40
1
40
1
40
1
40
1
40
1
41
1
41
1
41
1
41
1
41
1
41
1
41
1
41
1
41
1
41
1
41
1
41
1
41
1
41
1
41
1
10
19.633519939532952
20
-25.824181388283503
30
0
10
19.160783518646316
20
-25.345633616158729
30
0
10
18.154248676498966
20
-24.295169272362152
30
0
10
16.721866278960572
20
-22.688442742699777
30
0
10
15.048315304619038
20
-20.552256345420446
30
0
10
13.420805948970846
20
-17.928999706096903
30
0
10
12.311401217042178
20
-15.29968310195288
30
0
10
11.83625382731957
20
-12.770766715371371
30
0
10
12.044430085413049
20
-10.357978025308679
30
0
10
12.940161037735649
20
-8.075552041517696
30
0
10
14.494883940843842
20
-5.9364344044729958
30
0
10
16.239993992014472
20
-4.349907345911241
30
0
10
17.819941821433435
20
-3.2350306484217923
30
0
10
18.992684182932862
20
-2.5258567784810997
30
0
10
19.608915988435509
20
-2.1797894507868882
30
0
0
ARC
5
121
100
AcDbEntity
8
0
100
AcDbCircle
10
18.384776310850231
20
-4.0822403925778142e-15
30
0
40
2.5000000000000746
210
-0
220
0
230
1
100
AcDbArc
50
-60.682034512360886
51
66.059160784015518
0
SPLINE
5
122
100
AcDbEntity
8
0
100
AcDbSpline
70
4
71
5
72
21
73
15
74
0
42
0.000000001
43
0.0000000001
44
0.0000000001
40
-1
40
-1
40
-1
40
-1
40
-1
40
-1
40
-0.89999999999999991
40
-0.79999999999999993
40
-0.69999999999999996
40
-0.59999999999999998
40
-0.5
40
-0.40000000000000002
40
-0.30000000000000004
40
-0.20000000000000001
40
-0.10000000000000001
40
0
40
0
40
0
40
0
40
0
40
0
41
1
41
1
41
1
41
1
41
1
41
1
41
1
41
1
41
1
41
1
41
1
41
1
41
1
41
1
41
1
10
19.399259172423498
20
2.2849123667165268
30
0
10
18.963783928072619
20
2.4782598942174991
30
0
10
18.137229784633252
20
2.8792026398381259
30
0
10
17.030591544489894
20
3.5233629550377774
30
0
10
15.82570577915831
20
4.4688647796888334
30
0
10
14.800892248124606
20
5.7995506141206459
30
0
10
14.298984095365324
20
7.2782528118377767
30
0
10
14.362947758127271
20
8.8920869807613379
30
0
10
15.011661103254102
20
10.601799814022897
30
0
10
16.243987683448889
20
12.345646346118503
30
0
10
18.058479783376068
20
14.05435294070082
30
0
10
19.978502340660327
20
15.339889734356859
30
0
10
21.686189489680551
20
16.235005552623349
30
0
10
22.944650154683121
20
16.798004926256286
30
0
10
23.603882890626107
20
17.071068066244194
30
0
0
LINE
5
123
100
AcDbEntity
8
0
100
AcDbLine
10
23.60388289062611
20
17.071068066244191
30
0
11
46.287885123971925
21
26.467089442464697
31
0
0
ARC
5
124
100
AcDbEntity
8
0
100
AcDbCircle
10
49.34935259757733
20
19.076053188456935
30
0
40
8.0000000000000639
210
0
220
0
230
1
100
AcDbArc
50
92.176863275473721
51
112.50000011383645
0
LINE
5
125
100
AcDbEntity
8
0
100
AcDbLine
10
49.045478264851312
20
27.07027987963297
30
0
11
59.126981462538453
21
27.453495189308104
31
0
0
ARC
5
126
100
AcDbEntity
8
0
100
AcDbCircle
10
59.051012879356961
20
29.452051862102095
30
0
40
1.9999999999999987
210
-0
220
0
230
1
100
AcDbArc
50
-87.823136724526606
51
22.500000000000103
0
LINE
5
127
100
AcDbEntity
8
0
100
AcDbLine
10
60.898771944379533
20
30.217418726832278
30
0
11
59.49357288768141
21
33.609869347346752
31
0
0
ARC
5
128
100
AcDbEntity
8
0
100
AcDbCircle
10
64.112970550237875
20
35.52328650917223
30
0
40
5.0000000000000373
210
0
220
0
230
1
100
AcDbArc
50
180.88388519210704
51
202.50000000000017
0
LINE
5
129
100
AcDbEntity
8
0
100
AcDbLine
10
59.113565496646402
20
35.446156034491658
30
0
11
59.026548079834484
21
41.086408025184483
31
0
0
ARC
5
130
100
AcDbEntity
8
0
100
AcDbCircle
10
58.026667069116193
20
41.070981930248394
30
0
40
1.0000000000000018
210
0
220
-0
230
1
100
AcDbArc
50
0.88388519210498884
51
127.68928613295579
0
LINE
5
131
100
AcDbEntity
8
0
100
AcDbLine
10
57.415287992293933
20
41.862319800202776
30
0
11
52.544913881954294
21
38.099521455255598
31
0
0
ARC
5
132
100
AcDbEntity
8
0
100
AcDbCircle
10
49.488018497843036
20
42.056210805027625
30
0
40
5.000000000000016
210
0
220
0
230
1
100
AcDbArc
50
277.56858340639639
51
307.68928613295458
0
LINE
5
133
100
AcDbEntity
8
0
100
AcDbLine
10
50.146582818470748
20
37.099771252728381
30
0
11
48.620205103742087
21
36.896960769090946
31
0
0
ARC
5
134
100
AcDbEntity
8
0
100
AcDbCircle
10
49.278769424369784
20
31.940521216791712
30
0
40
5.0000000000000009
210
0
220
0
230
1
100
AcDbArc
50
97.568583406396229
51
168.07633120924834
0
ARC
5
135
100
AcDbEntity
8
0
100
AcDbCircle
10
40.472955953293507
20
33.799996710744573
30
0
40
3.9999999999999774
210
0
220
0
230
1
100
AcDbArc
50
292.49999999999983
51
348.07633120924839
0
LINE
5
136
100
AcDbEntity
8
0
100
AcDbLine
10
42.003689682753844
20
30.104478580699443
30
0
11
21.690465728800646
21
21.690465728800646
31
0
0
SPLINE
5
137
100
AcDbEntity
8
0
100
AcDbSpline
70
4
71
5
72
21
73
15
74
0
42
0.000000001
43
0.0000000001
44
0.0000000001
40
0
40
0
40
0
40
0
40
0
40
0
40
0.10000000000000001
40
0.20000000000000001
40
0.30000000000000004
40
0.40000000000000002
40
0.5
40
0.59999999999999998
40
0.69999999999999996
40
0.79999999999999993
40
0.89999999999999991
40
1
40
1
40
1
40
1
40
1
40
1
41
1
41
1
41
1
41
1
41
1
41
1
41
1
41
1
41
1
41
1
41
1
41
1
41
1
41
1
41
1
10
21.690465728800646
20
21.690465728800646
30
0
10
20.816950425903741
20
21.328643843400307
30
0
10
19.073553524160804
20
20.715204561506905
30
0
10
16.46935783847125
20
20.125628816514745
30
0
10
13.01459426662926
20
19.927041977347855
30
0
10
8.7030686901757282
20
20.269166754857025
30
0
10
4.3739059144260137
20
20.750246971846234
30
0
10
0.0091466845051873039
20
20.987847738511075
30
0
10
-4.3930913571479033
20
20.801569389689391
30
0
10
-8.8079283567489277
20
20.358814405513538
30
0
10
-13.195560661028127
20
20.029672171518783
30
0
10
-16.648895362258319
20
20.209693189266847
30
0
10
-19.190494350629702
20
20.765406393803762
30
0
10
-20.861106756189436
20
21.346933994269264
30
0
10
-21.690465728800646
20
21.690465728800646
30
0
0
LINE
5
138
100
AcDbEntity
8
0
100
AcDbLine
10
-21.69046572880065
20
21.690465728800646
30
0
11
-42.003689682753851
21
30.104478580699443
31
0
0
ARC
5
139
100
AcDbEntity
8
0
100
AcDbCircle
10
-40.472955953293486
20
33.799996710744587
30
0
40
3.9999999999999987
210
0
220
0
230
1
100
AcDbArc
50
191.92366879075166
51
247.49999999999986
0
ARC
5
140
100
AcDbEntity
8
0
100
AcDbCircle
10
-49.278769424369784
20
31.940521216791712
30
0
40
5.000000000000008
210
0
220
-0
230
1
100
AcDbArc
50
11.923668790751631
51
82.431416593603842
0
LINE
5
141
100
AcDbEntity
8
0
100
AcDbLine
10
-48.620205103742094
20
36.896960769090946
30
0
11
-50.146582818470733
21
37.099771252728381
31
0
0
ARC
5
142
100
AcDbEntity
8
0
100
AcDbCircle
10
-49.488018497843036
20
42.056210805027604
30
0
40
5.0000000000000009
210
0
220
0
230
1
100
AcDbArc
50
232.31071386704514
51
262.43141659360379
0
LINE
5
143
100
AcDbEntity
8
0
100
AcDbLine
10
-52.544913881954301
20
38.099521455255598
30
0
11
-57.415287992293941
21
41.862319800202776
31
0
0
ARC
5
144
100
AcDbEntity
8
0
100
AcDbCircle
10
-58.026667069116193
20
41.070981930248379
30
0
40
0.99999999999999689
210
0
220
-0
230
1
100
AcDbArc
50
52.310713867045038
51
179.11611480789421
0
LINE
5
145
100
AcDbEntity
8
0
100
AcDbLine
10
-59.02654807983447
20
41.086408025184483
30
0
11
-59.113565496646402
21
35.446156034491658
31
0
0
ARC
5
146
100
AcDbEntity
8
0
100
AcDbCircle
10
-64.112970550237833
20
35.523286509172209
30
0
40
4.9999999999999964
210
-0
220
0
230
1
100
AcDbArc
50
337.49999999999994
51
359.11611480789338
0
LINE
5
147
100
AcDbEntity
8
0
100
AcDbLine
10
-59.49357288768141
20
33.609869347346759
30
0
11
-60.898771944379533
21
30.217418726832275
31
0
0
ARC
5
148
100
AcDbEntity
8
0
100
AcDbCircle
10
-59.051012879356961
20
29.452051862102099
30
0
40
1.9999999999999987
210
0
220
0
230
1
100
AcDbArc
50
157.50000000000009
51
267.82313672452642
0
LINE
5
149
100
AcDbEntity
8
0
100
AcDbLine
10
-59.12698146253846
20
27.453495189308107
30
0
11
-49.045478264851312
21
27.070279879632967
31
0
0
ARC
5
150
100
AcDbEntity
8
0
100
AcDbCircle
10
-49.349352597577308
20
19.076053188456996
30
0
40
8
210
0
220
-0
230
1
100
AcDbArc
50
67.49999988616355
51
87.823136724526435
0
LINE
5
151
100
AcDbEntity
8
0
100
AcDbLine
10
-46.287885123971925
20
26.467089442464701
30
0
11
-23.603882890626107
21
17.071068066244194
31
0
0
SPLINE
5
152
100
AcDbEntity
8
0
100
AcDbSpline
70
4
71
5
72
21
73
15
74
0
42
0.000000001
43
0.0000000001
44
0.0000000001
40
0
40
0
40
0
40
0
40
0
40
0
40
0.10000000000000001
40
0.20000000000000001
40
0.30000000000000004
40
0.40000000000000002
40
0.5
40
0.59999999999999998
40
0.69999999999999996
40
0.79999999999999993
40
0.89999999999999991
40
1
40
1
40
1
40
1
40
1
40
1
41
1
41
1
41
1
41
1
41
1
41
1
41
1
41
1
41
1
41
1
41
1
41
1
41
1
41
1
41
1
10
-23.603882890626107
20
17.071068066244194
30
0
10
-22.944650154683121
20
16.798004926256286
30
0
10
-21.686189489680558
20
16.235005552623353
30
0
10
-19.978502340660349
20
15.339889734356859
30
0
10
-18.058479783376139
20
14.054352940700811
30
0
10
-16.243987683448982
20
12.345646346118485
30
0
10
-15.011661103254175
20
10.601799814022879
30
0
10
-14.362947758127317
20
8.8920869807613343
30
0
10
-14.298984095365297
20
7.2782528118377812
30
0
10
-14.800892248124528
20
5.7995506141206477
30
0
10
-15.825705779158239
20
4.4688647796888246
30
0
10
-17.030591544489866
20
3.5233629550377725
30
0
10
-18.137229784633249
20
2.879202639838125
30
0
10
-18.963783928072619
20
2.4782598942174991
30
0
10
-19.399259172423498
20
2.2849123667165268
30
0
0
ARC
5
153
100
AcDbEntity
8
0
100
AcDbCircle
10
-18.384776310850217
20
3.3771881233386758e-15
30
0
40
2.500000000000004
210
0
220
0
230
1
100
AcDbArc
50
113.94083921598482
51
240.68203451236062
0
SPLINE
5
154
100
AcDbEntity
8
0
100
AcDbSpline
70
4
71
5
72
21
73
15
74
0
42
0.000000001
43
0.0000000001
44
0.0000000001
40
-1
40
-1
40
-1
40
-1
40
-1
40
-1
40
-0.89999999999999991
40
-0.79999999999999993
40
-0.69999999999999996
40
-0.59999999999999998
40
-0.5
40
-0.40000000000000002
40
-0.30000000000000004
40
-0.20000000000000001
40
-0.10000000000000001
40
-0.017090453302897445
40
-0.017090453302897445
40
-0.017090453302897445
40
-0.017090453302897445
40
-0.017090453302897445
40
-0.017090453302897445
41
1
41
1
41
1
41
1
41
1
41
1
41
1
41
1
41
1
41
1
41
1
41
1
41
1
41
1
41
1
10
-19.608915988435509
20
-2.1797894507868856
30
0
10
-18.992684182932862
20
-2.5258567784810975
30
0
10
-17.819941821433435
20
-3.2350306484217919
30
0
10
-16.239993992014472
20
-4.3499073459112401
30
0
10
-14.494883940843842
20
-5.9364344044729913
30
0
10
-12.940161037735649
20
-8.07555204151768
30
0
10
-12.044430085413049
20
-10.357978025308665
30
0
10
-11.83625382731957
20
-12.770766715371378
30
0
10
-12.311401217042178
20
-15.299683101952905
30
0
10
-13.420805948970846
20
-17.928999706096931
30
0
10
-15.04831530462309
20
-20.552256345427008
30
0
10
-16.721866278971081
20
-22.6884427427132
30
0
10
-18.154248676517227
20
-24.295169272382637
30
0
10
-19.160783518672773
20
-25.345633616186333
30
0
10
-19.633519939567215
20
-25.824181388318177
30
0
0
LINE
5
155
100
AcDbEntity
8
0
100
AcDbLine
10
-19.633519939567215
20
-25.824181388318177
30
0
11
-37.169854198576814
21
-43.360515650290509
31
0
0
ARC
5
156
100
AcDbEntity
8
0
100
AcDbCircle
10
-42.826708459308342
20
-37.703661412037278
30
0
40
8.0000000000000053
210
-0
220
0
230
1
100
AcDbArc
50
294.67686327547347
51
315.00000011383639
0
LINE
5
157
100
AcDbEntity
8
0
100
AcDbLine
10
-39.486707073563444
20
-44.973076157614962
30
0
11
-48.654151384812366
21
-49.185145185859312
31
0
0
ARC
5
158
100
AcDbEntity
8
0
100
AcDbCircle
10
-47.819151038376127
20
-51.002498872253732
30
0
40
2.0000000000000013
210
0
220
0
230
1
100
AcDbArc
50
114.67686327547388
51
224.99999999999943
0
LINE
5
159
100
AcDbEntity
8
0
100
AcDbLine
10
-49.23336460074924
20
-52.416712434626817
30
0
11
-46.636895305574122
21
-55.01318172980195
31
0
0
ARC
5
160
100
AcDbEntity
8
0
100
AcDbCircle
10
-50.172429211506866
20
-58.548715635734681
30
0
40
5.0000000000000009
210
0
220
-0
230
1
100
AcDbArc
50
23.383885192106508
51
44.999999999999886
0
LINE
5
161
100
AcDbEntity
8
0
100
AcDbLine
10
-45.583097762550942
20
-56.564266883152712
30
0
11
-43.344273160984052
21
-61.741880131818718
31
0
0
ARC
5
162
100
AcDbEntity
8
0
100
AcDbCircle
10
-42.426406871192867
20
-61.344990381302324
30
0
40
1.0000000000000004
210
0
220
0
230
1
100
AcDbArc
50
203.38388519210648
51
330.18928613295435
0
LINE
5
163
100
AcDbEntity
8
0
100
AcDbLine
10
-41.558734363276521
20
-61.842126599059739
30
0
11
-38.499055993002905
21
-56.501942741748856
31
0
0
ARC
5
164
100
AcDbEntity
8
0
100
AcDbCircle
10
-34.160693453421139
20
-58.987623830535924
30
0
40
4.9999999999999991
210
0
220
0
230
1
100
AcDbArc
50
120.0685834063961
51
150.18928613295463
0
LINE
5
165
100
AcDbEntity
8
0
100
AcDbLine
10
-36.665874850275216
20
-54.660492428688244
30
0
11
-35.333297932754064
21
-53.889000510918962
31
0
0
ARC
5
166
100
AcDbEntity
8
0
100
AcDbCircle
10
-37.838479329608134
20
-49.561869109071296
30
0
40
4.999999999999984
210
0
220
0
230
1
100
AcDbArc
50
-59.931416593603906
51
10.576331209248417
0
ARC
5
167
100
AcDbEntity
8
0
100
AcDbCircle
10
-28.991378032143928
20
-47.909961535262454
30
0
40
3.9999999999999987
210
0
220
0
230
1
100
AcDbArc
50
134.99999999999994
51
190.57633120924811
0
CIRCLE
5
168
100
AcDbEntity
8
0
100
AcDbCircle
10
41.7193000900063
20
-51.445495444690657
30
0
40
2.1499999999999999
210
0
220
-0
230
1
0
CIRCLE
5
169
100
AcDbEntity
8
0
100
AcDbCircle
10
37.2193000900063
20
-51.445495444690664
30
0
40
0.99999999999999989
210
-0
220
0
230
1
0
CIRCLE
5
170
100
AcDbEntity
8
0
100
AcDbCircle
10
46.2193000900063
20
-51.44549544469065
30
0
40
0.99999999999999989
210
0
220
-0
230
1
0
CIRCLE
5
171
100
AcDbEntity
8
0
100
AcDbCircle
10
41.719300090006314
20
-55.945495444690664
30
0
40
0.99999999999999989
210
-0
220
0
230
1
0
CIRCLE
5
172
100
AcDbEntity
8
0
100
AcDbCircle
10
55.307088331297521
20
36.353097122487625
30
0
40
1.0000000000000004
210
-0
220
0
230
1
0
CIRCLE
5
173
100
AcDbEntity
8
0
100
AcDbCircle
10
57.742470781955419
20
30.473563780543927
30
0
40
1.0000000000000002
210
-0
220
0
230
1
0
CIRCLE
5
174
100
AcDbEntity
8
0
100
AcDbCircle
10
49.427554989353837
20
33.917714671829735
30
0
40
1.0000000000000002
210
0
220
0
230
1
0
CIRCLE
5
175
100
AcDbEntity
8
0
100
AcDbCircle
10
53.585012885654628
20
32.195639226186834
30
0
40
2.1500000000000004
210
0
220
0
230
1
0
CIRCLE
5
176
100
AcDbEntity
8
0
100
AcDbCircle
10
8.0000000000000036
20
7.9999999999999982
30
0
40
0.99999999999999978
210
0
220
0
230
1
0
CIRCLE
5
177
100
AcDbEntity
8
0
100
AcDbCircle
10
10.000000000000002
20
10.00000014901161
30
0
40
0.99999999999999867
210
0
220
0
230
1
0
CIRCLE
5
178
100
AcDbEntity
8
0
100
AcDbCircle
10
0
20
0
30
0
40
8
210
0
220
0
230
1
0
CIRCLE
5
179
100
AcDbEntity
8
0
100
AcDbCircle
10
0
20
-18.384776310850231
30
0
40
1.0000000000000007
210
0
220
0
230
1
0
CIRCLE
5
180
100
AcDbEntity
8
0
100
AcDbCircle
10
-18.384776310850217
20
3.3771881233386758e-15
30
0
40
1.0000000000000007
210
0
220
0
230
1
0
CIRCLE
5
181
100
AcDbEntity
8
0
100
AcDbCircle
10
18.384776310850231
20
-4.0822403925778142e-15
30
0
40
1.0000000000000007
210
0
220
-0
230
1
0
CIRCLE
5
182
100
AcDbEntity
8
0
100
AcDbCircle
10
2.2514857462122822e-15
20
18.384776310850231
30
0
40
1.0000000000000007
210
0
220
-0
230
1
0
CIRCLE
5
183
100
AcDbEntity
8
0
100
AcDbCircle
10
-10.000000149011612
20
9.9999999999999982
30
0
40
0.99999999999999978
210
0
220
0
230
1
0
CIRCLE
5
184
100
AcDbEntity
8
0
100
AcDbCircle
10
10.00000014901161
20
-10
30
0
40
0.99999999999999867
210
0
220
0
230
1
0
LWPOLYLINE
5
185
100
AcDbEntity
8
0
100
AcDbPolyline
90
6
70
1
43
0.0
10
15.177669529663669
20
0.70710678118654835
10
11.707106930198162
20
4.1776693806520555
42
0.66817863791929955
10
10.000000149011612
20
3.4705625994655098
10
10.000000149011612
20
-3.4705625994655076
42
0.6681786379192991
10
11.707106930198162
20
-4.1776693806520555
10
15.177669529663669
20
-0.70710678118654668
42
0.4142135623730947
0
CIRCLE
5
186
100
AcDbEntity
8
0
100
AcDbCircle
10
7.9999999999999991
20
-8.0000000000000018
30
0
40
0.99999999999999978
210
0
220
0
230
1
0
CIRCLE
5
187
100
AcDbEntity
8
0
100
AcDbCircle
10
-8
20
8
30
0
40
0.99999999999999978
210
0
220
0
230
1
0
LWPOLYLINE
5
188
100
AcDbEntity
8
0
100
AcDbPolyline
90
8
70
1
43
0.0
10
-4.12842886848909
20
9.8847763108502313
10
4.12842886848909
20
9.8847763108502349
42
0.41421356237309509
10
5.12842886848909
20
10.884776310850235
10
5.12842886848909
20
14.884776310850235
42
0.41421356237309509
10
4.12842886848909
20
15.884776310850235
10
-4.12842886848909
20
15.884776310850235
42
0.41421356237309509
10
-5.12842886848909
20
14.884776310850235
10
-5.12842886848909
20
10.884776310850233
42
0.41421356237309509
0
CIRCLE
5
189
100
AcDbEntity
8
0
100
AcDbCircle
10
-10.000000000000002
20
-10.00000014901161
30
0
40
0.99999999999999978
210
0
220
0
230
1
0
LWPOLYLINE
5
190
100
AcDbEntity
8
0
100
AcDbPolyline
90
8
70
1
43
0.0
10
4.1284288684890891
20
-9.8847763108502349
10
-4.1284288684890926
20
-9.8847763108502313
42
0.41421356237309509
10
-5.1284288684890917
20
-10.884776310850233
10
-5.1284288684890944
20
-14.884776310850235
42
0.41421356237309509
10
-4.1284288684890935
20
-15.884776310850235
10
4.1284288684890882
20
-15.884776310850235
42
0.41421356237309509
10
5.1284288684890882
20
-14.884776310850235
10
5.12842886848909
20
-10.884776310850233
42
0.4142135623730952
0
CIRCLE
5
191
100
AcDbEntity
8
0
100
AcDbCircle
10
-8.0000000000000036
20
-7.9999999999999982
30
0
40
0.99999999999999978
210
0
220
0
230
1
0
LWPOLYLINE
5
192
100
AcDbEntity
8
0
100
AcDbPolyline
90
6
70
1
43
0.0
10
-15.177669529663669
20
-0.70710678118654835
10
-11.707106930198162
20
-4.1776693806520555
42
0.66817863791929955
10
-10.000000149011612
20
-3.4705625994655098
10
-10.000000149011612
20
3.4705625994655076
42
0.6681786379192991
10
-11.707106930198162
20
4.1776693806520555
10
-15.177669529663669
20
0.70710678118654668
42
0.4142135623730947
0
CIRCLE
5
193
100
AcDbEntity
8
0
100
AcDbCircle
10
-53.585012885654628
20
32.195639226186834
30
0
40
2.1500000000000004
210
-0
220
0
230
1
0
CIRCLE
5
194
100
AcDbEntity
8
0
100
AcDbCircle
10
-49.427554989353837
20
33.917714671829735
30
0
40
1.0000000000000002
210
0
220
-0
230
1
0
CIRCLE
5
195
100
AcDbEntity
8
0
100
AcDbCircle
10
-57.742470781955419
20
30.473563780543927
30
0
40
1.0000000000000002
210
-0
220
0
230
1
0
CIRCLE
5
196
100
AcDbEntity
8
0
100
AcDbCircle
10
-55.307088331297521
20
36.353097122487625
30
0
40
1.0000000000000004
210
0
220
-0
230
1
0
CIRCLE
5
197
100
AcDbEntity
8
0
100
AcDbCircle
10
-41.7193000900063
20
-51.445495444690657
30
0
40
2.1499999999999999
210
-0
220
0
230
1
0
CIRCLE
5
198
100
AcDbEntity
8
0
100
AcDbCircle
10
-37.2193000900063
20
-51.445495444690664
30
0
40
0.99999999999999989
210
-0
220
0
230
1
0
CIRCLE
5
199
100
AcDbEntity
8
0
100
AcDbCircle
10
-46.2193000900063
20
-51.44549544469065
30
0
40
0.99999999999999989
210
0
220
0
230
1
0
CIRCLE
5
200
100
AcDbEntity
8
0
100
AcDbCircle
10
-41.719300090006314
20
-55.945495444690664
30
0
40
0.99999999999999989
210
0
220
0
230
1
0
LINE
5
201
100
AcDbEntity
8
0
100
AcDbLine
10
-31.819805156890112
20
-45.081534410516262
30
0
11
-16.592226014792356
21
-29.853955275409483
31
0
0
SPLINE
5
202
100
AcDbEntity
8
0
100
AcDbSpline
70
4
71
5
72
21
73
15
74
0
42
0.000000001
43
0.0000000001
44
0.0000000001
40
0
40
0
40
0
40
0
40
0
40
0
40
0.10000000000000001
40
0.20000000000000001
40
0.30000000000000004
40
0.40000000000000002
40
0.5
40
0.59999999999999998
40
0.69999999999999996
40
0.79999999999999993
40
0.89999999999999991
40
1
40
1
40
1
40
1
40
1
40
1
41
1
41
1
41
1
41
1
41
1
41
1
41
1
41
1
41
1
41
1
41
1
41
1
41
1
41
1
41
1
10
-16.592226014792356
20
-29.853955275409483
30
0
10
-15.921154308032715
20
-29.182883568649842
30
0
10
-14.580667804863914
20
-27.897012070317636
30
0
10
-12.574908531224438
20
-26.137016029812091
30
0
10
-9.9102535284890081
20
-24.136012147948502
30
0
10
-6.5939673773554794
20
-22.263135555461876
30
0
10
-3.2896168520594644
20
-21.089524726419924
30
0
10
0.0065898083386964693
20
-20.684024923920397
30
0
10
3.3000610287093117
20
-21.083910922573367
30
0
10
6.5984203155744767
20
-22.254312107760335
30
0
10
9.9102510712625396
20
-24.128825804976625
30
0
10
12.577113187633817
20
-26.136763818844059
30
0
10
14.58997844369909
20
-27.905875989037252
30
0
10
15.937934228325179
20
-29.199663488942278
30
0
10
16.613423628961115
20
-29.875152889578214
30
0
0
LINE
5
203
100
AcDbEntity
8
0
100
AcDbLine
10
16.613423628961115
20
-29.875152889578217
30
0
11
31.819805156890112
21
-45.081534410516262
31
0
0
ARC
5
204
100
AcDbEntity
8
0
100
AcDbCircle
10
28.991378032143928
20
-47.909961535262454
30
0
40
3.9999999999999982
210
0
220
0
230
1
100
AcDbArc
50
-10.576331209248259
51
45.000000000000071
0
ARC
5
205
100
AcDbEntity
8
0
100
AcDbCircle
10
37.838479329608148
20
-49.561869109071289
30
0
40
5.0000000000000036
210
0
220
0
230
1
100
AcDbArc
50
169.4236687907518
51
239.93141659360376
0
LINE
5
206
100
AcDbEntity
8
0
100
AcDbLine
10
35.333297932754057
20
-53.889000510918962
30
0
11
36.665874850275216
21
-54.660492428688244
31
0
0
ARC
5
207
100
AcDbEntity
8
0
100
AcDbCircle
10
34.160693453421104
20
-58.987623830535966
30
0
40
5.0000000000000533
210
0
220
-0
230
1
100
AcDbArc
50
29.810713867045614
51
59.931416593603807
0
LINE
5
208
100
AcDbEntity
8
0
100
AcDbLine
10
38.499055993002905
20
-56.501942741748856
30
0
11
41.558734363276514
21
-61.842126599059739
31
0
0
ARC
5
209
100
AcDbEntity
8
0
100
AcDbCircle
10
42.426406871192867
20
-61.344990381302324
30
0
40
1.0000000000000033
210
0
220
0
230
1
100
AcDbArc
50
209.81071386704545
51
336.6161148078935
0
LINE
5
210
100
AcDbEntity
8
0
100
AcDbLine
10
43.344273160984052
20
-61.741880131818718
30
0
11
45.583097762550942
21
-56.564266883152712
31
0
0
ARC
5
211
100
AcDbEntity
8
0
100
AcDbCircle
10
50.172429211506682
20
-58.548715635734574
30
0
40
4.9999999999997886
210
0
220
0
230
1
100
AcDbArc
50
134.99999999999957
51
156.61611480789378
0
LINE
5
212
100
AcDbEntity
8
0
100
AcDbLine
10
46.636895305574122
20
-55.013181729801957
30
0
11
49.23336460074924
21
-52.416712434626824
31
0
0
ARC
5
213
100
AcDbEntity
8
0
100
AcDbCircle
10
47.819151038376134
20
-51.002498872253732
30
0
40
2.0000000000000022
210
-0
220
0
230
1
100
AcDbArc
50
-44.999999999999694
51
65.323136724526321
0
LINE
5
214
100
AcDbEntity
8
0
100
AcDbLine
10
48.654151384812366
20
-49.185145185859312
30
0
11
39.486707073563444
21
-44.973076157614955
31
0
0
ARC
5
215
100
AcDbEntity
8
0
100
AcDbCircle
10
42.826708459308236
20
-37.703661412037462
30
0
40
7.9999999999997895
210
0
220
0
230
1
100
AcDbArc
50
224.99999988616321
51
245.32313672452671
0
LINE
5
216
100
AcDbEntity
8
0
100
AcDbLine
10
37.169854198576814
20
-43.360515650290509
30
0
11
19.633519939532942
21
-25.824181388283499
31
0
0
SPLINE
5
217
100
AcDbEntity
8
0
100
AcDbSpline
70
4
71
5
72
21
73
15
74
0
42
0.000000001
43
0.0000000001
44
0.0000000001
40
0.017090453304099446
40
0.017090453304099446
40
0.017090453304099446
40
0.017090453304099446
40
0.017090453304099446
40
0.017090453304099446
40
0.10000000000000001
40
0.20000000000000001
40
0.30000000000000004
40
0.40000000000000002
40
0.5
40
0.59999999999999998
40
0.69999999999999996
40
0.79999999999999993
40
0.89999999999999991
40
1
40
1
40
1
40
1
40
1
40
1
41
1
41
1
41
1
41
1
41
1
41
1
41
1
41
1
41
1
41
1
41
1
41
1
41
1
41
1
41
1
10
19.633519939532952
20
-25.824181388283503
30
0
10
19.160783518646316
20
-25.345633616158729
30
0
10
18.154248676498966
20
-24.295169272362152
30
0
10
16.721866278960572
20
-22.688442742699777
30
0
10
15.048315304619038
20
-20.552256345420446
30
0
10
13.420805948970846
20
-17.928999706096903
30
0
10
12.311401217042178
20
-15.29968310195288
30
0
10
11.83625382731957
20
-12.770766715371371
30
0
10
12.044430085413049
20
-10.357978025308679
30
0
10
12.940161037735649
20
-8.075552041517696
30
0
10
14.494883940843842
20
-5.9364344044729958
30
0
10
16.239993992014472
20
-4.349907345911241
30
0
10
17.819941821433435
20
-3.2350306484217923
30
0
10
18.992684182932862
20
-2.5258567784810997
30
0
10
19.608915988435509
20
-2.1797894507868882
30
0
0
ARC
5
218
100
AcDbEntity
8
0
100
AcDbCircle
10
18.384776310850231
20
-4.0822403925778142e-15
30
0
40
2.5000000000000746
210
-0
220
0
230
1
100
AcDbArc
50
-60.682034512360886
51
66.059160784015518
0
SPLINE
5
219
100
AcDbEntity
8
0
100
AcDbSpline
70
4
71
5
72
21
73
15
74
0
42
0.000000001
43
0.0000000001
44
0.0000000001
40
-1
40
-1
40
-1
40
-1
40
-1
40
-1
40
-0.89999999999999991
40
-0.79999999999999993
40
-0.69999999999999996
40
-0.59999999999999998
40
-0.5
40
-0.40000000000000002
40
-0.30000000000000004
40
-0.20000000000000001
40
-0.10000000000000001
40
0
40
0
40
0
40
0
40
0
40
0
41
1
41
1
41
1
41
1
41
1
41
1
41
1
41
1
41
1
41
1
41
1
41
1
41
1
41
1
41
1
10
19.399259172423498
20
2.2849123667165268
30
0
10
18.963783928072619
20
2.4782598942174991
30
0
10
18.137229784633252
20
2.8792026398381259
30
0
10
17.030591544489894
20
3.5233629550377774
30
0
10
15.82570577915831
20
4.4688647796888334
30
0
10
14.800892248124606
20
5.7995506141206459
30
0
10
14.298984095365324
20
7.2782528118377767
30
0
10
14.362947758127271
20
8.8920869807613379
30
0
10
15.011661103254102
20
10.601799814022897
30
0
10
16.243987683448889
20
12.345646346118503
30
0
10
18.058479783376068
20
14.05435294070082
30
0
10
19.978502340660327
20
15.339889734356859
30
0
10
21.686189489680551
20
16.235005552623349
30
0
10
22.944650154683121
20
16.798004926256286
30
0
10
23.603882890626107
20
17.071068066244194
30
0
0
LINE
5
220
100
AcDbEntity
8
0
100
AcDbLine
10
23.60388289062611
20
17.071068066244191
30
0
11
46.287885123971925
21
26.467089442464697
31
0
0
ARC
5
221
100
AcDbEntity
8
0
100
AcDbCircle
10
49.34935259757733
20
19.076053188456935
30
0
40
8.0000000000000639
210
0
220
0
230
1
100
AcDbArc
50
92.176863275473721
51
112.50000011383645
0
LINE
5
222
100
AcDbEntity
8
0
100
AcDbLine
10
49.045478264851312
20
27.07027987963297
30
0
11
59.126981462538453
21
27.453495189308104
31
0
0
ARC
5
223
100
AcDbEntity
8
0
100
AcDbCircle
10
59.051012879356961
20
29.452051862102095
30
0
40
1.9999999999999987
210
-0
220
0
230
1
100
AcDbArc
50
-87.823136724526606
51
22.500000000000103
0
LINE
5
224
100
AcDbEntity
8
0
100
AcDbLine
10
60.898771944379533
20
30.217418726832278
30
0
11
59.49357288768141
21
33.609869347346752
31
0
0
ARC
5
225
100
AcDbEntity
8
0
100
AcDbCircle
10
64.112970550237875
20
35.52328650917223
30
0
40
5.0000000000000373
210
0
220
0
230
1
100
AcDbArc
50
180.88388519210704
51
202.50000000000017
0
LINE
5
226
100
AcDbEntity
8
0
100
AcDbLine
10
59.113565496646402
20
35.446156034491658
30
0
11
59.026548079834484
21
41.086408025184483
31
0
0
ARC
5
227
100
AcDbEntity
8
0
100
AcDbCircle
10
58.026667069116193
20
41.070981930248394
30
0
40
1.0000000000000018
210
0
220
-0
230
1
100
AcDbArc
50
0.88388519210498884
51
127.68928613295579
0
LINE
5
228
100
AcDbEntity
8
0
100
AcDbLine
10
57.415287992293933
20
41.862319800202776
30
0
11
52.544913881954294
21
38.099521455255598
31
0
0
ARC
5
229
100
AcDbEntity
8
0
100
AcDbCircle
10
49.488018497843036
20
42.056210805027625
30
0
40
5.000000000000016
210
0
220
0
230
1
100
AcDbArc
50
277.56858340639639
51
307.68928613295458
0
LINE
5
230
100
AcDbEntity
8
0
100
AcDbLine
10
50.146582818470748
20
37.099771252728381
30
0
11
48.620205103742087
21
36.896960769090946
31
0
0
ARC
5
231
100
AcDbEntity
8
0
100
AcDbCircle
10
49.278769424369784
20
31.940521216791712
30
0
40
5.0000000000000009
210
0
220
0
230
1
100
AcDbArc
50
97.568583406396229
51
168.07633120924834
0
ARC
5
232
100
AcDbEntity
8
0
100
AcDbCircle
10
40.472955953293507
20
33.799996710744573
30
0
40
3.9999999999999774
210
0
220
0
230
1
100
AcDbArc
50
292.49999999999983
51
348.07633120924839
0
LINE
5
233
100
AcDbEntity
8
0
100
AcDbLine
10
42.003689682753844
20
30.104478580699443
30
0
11
21.690465728800646
21
21.690465728800646
31
0
0
SPLINE
5
234
100
AcDbEntity
8
0
100
AcDbSpline
70
4
71
5
72
21
73
15
74
0
42
0.000000001
43
0.0000000001
44
0.0000000001
40
0
40
0
40
0
40
0
40
0
40
0
40
0.10000000000000001
40
0.20000000000000001
40
0.30000000000000004
40
0.40000000000000002
40
0.5
40
0.59999999999999998
40
0.69999999999999996
40
0.79999999999999993
40
0.89999999999999991
40
1
40
1
40
1
40
1
40
1
40
1
41
1
41
1
41
1
41
1
41
1
41
1
41
1
41
1
41
1
41
1
41
1
41
1
41
1
41
1
41
1
10
21.690465728800646
20
21.690465728800646
30
0
10
20.816950425903741
20
21.328643843400307
30
0
10
19.073553524160804
20
20.715204561506905
30
0
10
16.46935783847125
20
20.125628816514745
30
0
10
13.01459426662926
20
19.927041977347855
30
0
10
8.7030686901757282
20
20.269166754857025
30
0
10
4.3739059144260137
20
20.750246971846234
30
0
10
0.0091466845051873039
20
20.987847738511075
30
0
10
-4.3930913571479033
20
20.801569389689391
30
0
10
-8.8079283567489277
20
20.358814405513538
30
0
10
-13.195560661028127
20
20.029672171518783
30
0
10
-16.648895362258319
20
20.209693189266847
30
0
10
-19.190494350629702
20
20.765406393803762
30
0
10
-20.861106756189436
20
21.346933994269264
30
0
10
-21.690465728800646
20
21.690465728800646
30
0
0
LINE
5
235
100
AcDbEntity
8
0
100
AcDbLine
10
-21.69046572880065
20
21.690465728800646
30
0
11
-42.003689682753851
21
30.104478580699443
31
0
0
ARC
5
236
100
AcDbEntity
8
0
100
AcDbCircle
10
-40.472955953293486
20
33.799996710744587
30
0
40
3.9999999999999987
210
0
220
0
230
1
100
AcDbArc
50
191.92366879075166
51
247.49999999999986
0
ARC
5
237
100
AcDbEntity
8
0
100
AcDbCircle
10
-49.278769424369784
20
31.940521216791712
30
0
40
5.000000000000008
210
0
220
-0
230
1
100
AcDbArc
50
11.923668790751631
51
82.431416593603842
0
LINE
5
238
100
AcDbEntity
8
0
100
AcDbLine
10
-48.620205103742094
20
36.896960769090946
30
0
11
-50.146582818470733
21
37.099771252728381
31
0
0
ARC
5
239
100
AcDbEntity
8
0
100
AcDbCircle
10
-49.488018497843036
20
42.056210805027604
30
0
40
5.0000000000000009
210
0
220
0
230
1
100
AcDbArc
50
232.31071386704514
51
262.43141659360379
0
LINE
5
240
100
AcDbEntity
8
0
100
AcDbLine
10
-52.544913881954301
20
38.099521455255598
30
0
11
-57.415287992293941
21
41.862319800202776
31
0
0
ARC
5
241
100
AcDbEntity
8
0
100
AcDbCircle
10
-58.026667069116193
20
41.070981930248379
30
0
40
0.99999999999999689
210
0
220
-0
230
1
100
AcDbArc
50
52.310713867045038
51
179.11611480789421
0
LINE
5
242
100
AcDbEntity
8
0
100
AcDbLine
10
-59.02654807983447
20
41.086408025184483
30
0
11
-59.113565496646402
21
35.446156034491658
31
0
0
ARC
5
243
100
AcDbEntity
8
0
100
AcDbCircle
10
-64.112970550237833
20
35.523286509172209
30
0
40
4.9999999999999964
210
-0
220
0
230
1
100
AcDbArc
50
337.49999999999994
51
359.11611480789338
0
LINE
5
244
100
AcDbEntity
8
0
100
AcDbLine
10
-59.49357288768141
20
33.609869347346759
30
0
11
-60.898771944379533
21
30.217418726832275
31
0
0
ARC
5
245
100
AcDbEntity
8
0
100
AcDbCircle
10
-59.051012879356961
20
29.452051862102099
30
0
40
1.9999999999999987
210
0
220
0
230
1
100
AcDbArc
50
157.50000000000009
51
267.82313672452642
0
LINE
5
246
100
AcDbEntity
8
0
100
AcDbLine
10
-59.12698146253846
20
27.453495189308107
30
0
11
-49.045478264851312
21
27.070279879632967
31
0
0
ARC
5
247
100
AcDbEntity
8
0
100
AcDbCircle
10
-49.349352597577308
20
19.076053188456996
30
0
40
8
210
0
220
-0
230
1
100
AcDbArc
50
67.49999988616355
51
87.823136724526435
0
LINE
5
248
100
AcDbEntity
8
0
100
AcDbLine
10
-46.287885123971925
20
26.467089442464701
30
0
11
-23.603882890626107
21
17.071068066244194
31
0
0
SPLINE
5
249
100
AcDbEntity
8
0
100
AcDbSpline
70
4
71
5
72
21
73
15
74
0
42
0.000000001
43
0.0000000001
44
0.0000000001
40
0
40
0
40
0
40
0
40
0
40
0
40
0.10000000000000001
40
0.20000000000000001
40
0.30000000000000004
40
0.40000000000000002
40
0.5
40
0.59999999999999998
40
0.69999999999999996
40
0.79999999999999993
40
0.89999999999999991
40
1
40
1
40
1
40
1
40
1
40
1
41
1
41
1
41
1
41
1
41
1
41
1
41
1
41
1
41
1
41
1
41
1
41
1
41
1
41
1
41
1
10
-23.603882890626107
20
17.071068066244194
30
0
10
-22.944650154683121
20
16.798004926256286
30
0
10
-21.686189489680558
20
16.235005552623353
30
0
10
-19.978502340660349
20
15.339889734356859
30
0
10
-18.058479783376139
20
14.054352940700811
30
0
10
-16.243987683448982
20
12.345646346118485
30
0
10
-15.011661103254175
20
10.601799814022879
30
0
10
-14.362947758127317
20
8.8920869807613343
30
0
10
-14.298984095365297
20
7.2782528118377812
30
0
10
-14.800892248124528
20
5.7995506141206477
30
0
10
-15.825705779158239
20
4.4688647796888246
30
0
10
-17.030591544489866
20
3.5233629550377725
30
0
10
-18.137229784633249
20
2.879202639838125
30
0
10
-18.963783928072619
20
2.4782598942174991
30
0
10
-19.399259172423498
20
2.2849123667165268
30
0
0
ARC
5
250
100
AcDbEntity
8
0
100
AcDbCircle
10
-18.384776310850217
20
3.3771881233386758e-15
30
0
40
2.500000000000004
210
0
220
0
230
1
100
AcDbArc
50
113.94083921598482
51
240.68203451236062
0
SPLINE
5
251
100
AcDbEntity
8
0
100
AcDbSpline
70
4
71
5
72
21
73
15
74
0
42
0.000000001
43
0.0000000001
44
0.0000000001
40
-1
40
-1
40
-1
40
-1
40
-1
40
-1
40
-0.89999999999999991
40
-0.79999999999999993
40
-0.69999999999999996
40
-0.59999999999999998
40
-0.5
40
-0.40000000000000002
40
-0.30000000000000004
40
-0.20000000000000001
40
-0.10000000000000001
40
-0.017090453302897445
40
-0.017090453302897445
40
-0.017090453302897445
40
-0.017090453302897445
40
-0.017090453302897445
40
-0.017090453302897445
41
1
41
1
41
1
41
1
41
1
41
1
41
1
41
1
41
1
41
1
41
1
41
1
41
1
41
1
41
1
10
-19.608915988435509
20
-2.1797894507868856
30
0
10
-18.992684182932862
20
-2.5258567784810975
30
0
10
-17.819941821433435
20
-3.2350306484217919
30
0
10
-16.239993992014472
20
-4.3499073459112401
30
0
10
-14.494883940843842
20
-5.9364344044729913
30
0
10
-12.940161037735649
20
-8.07555204151768
30
0
10
-12.044430085413049
20
-10.357978025308665
30
0
10
-11.83625382731957
20
-12.770766715371378
30
0
10
-12.311401217042178
20
-15.299683101952905
30
0
10
-13.420805948970846
20
-17.928999706096931
30
0
10
-15.04831530462309
20
-20.552256345427008
30
0
10
-16.721866278971081
20
-22.6884427427132
30
0
10
-18.154248676517227
20
-24.295169272382637
30
0
10
-19.160783518672773
20
-25.345633616186333
30
0
10
-19.633519939567215
20
-25.824181388318177
30
0
0
LINE
5
252
100
AcDbEntity
8
0
100
AcDbLine
10
-19.633519939567215
20
-25.824181388318177
30
0
11
-37.169854198576814
21
-43.360515650290509
31
0
0
ARC
5
253
100
AcDbEntity
8
0
100
AcDbCircle
10
-42.826708459308342
20
-37.703661412037278
30
0
40
8.0000000000000053
210
-0
220
0
230
1
100
AcDbArc
50
294.67686327547347
51
315.00000011383639
0
LINE
5
254
100
AcDbEntity
8
0
100
AcDbLine
10
-39.486707073563444
20
-44.973076157614962
30
0
11
-48.654151384812366
21
-49.185145185859312
31
0
0
ARC
5
255
100
AcDbEntity
8
0
100
AcDbCircle
10
-47.819151038376127
20
-51.002498872253732
30
0
40
2.0000000000000013
210
0
220
0
230
1
100
AcDbArc
50
114.67686327547388
51
224.99999999999943
0
LINE
5
256
100
AcDbEntity
8
0
100
AcDbLine
10
-49.23336460074924
20
-52.416712434626817
30
0
11
-46.636895305574122
21
-55.01318172980195
31
0
0
ARC
5
257
100
AcDbEntity
8
0
100
AcDbCircle
10
-50.172429211506866
20
-58.548715635734681
30
0
40
5.0000000000000009
210
0
220
-0
230
1
100
AcDbArc
50
23.383885192106508
51
44.999999999999886
0
LINE
5
258
100
AcDbEntity
8
0
100
AcDbLine
10
-45.583097762550942
20
-56.564266883152712
30
0
11
-43.344273160984052
21
-61.741880131818718
31
0
0
ARC
5
259
100
AcDbEntity
8
0
100
AcDbCircle
10
-42.426406871192867
20
-61.344990381302324
30
0
40
1.0000000000000004
210
0
220
0
230
1
100
AcDbArc
50
203.38388519210648
51
330.18928613295435
0
LINE
5
260
100
AcDbEntity
8
0
100
AcDbLine
10
-41.558734363276521
20
-61.842126599059739
30
0
11
-38.499055993002905
21
-56.501942741748856
31
0
0
ARC
5
261
100
AcDbEntity
8
0
100
AcDbCircle
10
-34.160693453421139
20
-58.987623830535924
30
0
40
4.9999999999999991
210
0
220
0
230
1
100
AcDbArc
50
120.0685834063961
51
150.18928613295463
0
LINE
5
262
100
AcDbEntity
8
0
100
AcDbLine
10
-36.665874850275216
20
-54.660492428688244
30
0
11
-35.333297932754064
21
-53.889000510918962
31
0
0
ARC
5
263
100
AcDbEntity
8
0
100
AcDbCircle
10
-37.838479329608134
20
-49.561869109071296
30
0
40
4.999999999999984
210
0
220
0
230
1
100
AcDbArc
50
-59.931416593603906
51
10.576331209248417
0
ARC
5
264
100
AcDbEntity
8
0
100
AcDbCircle
10
-28.991378032143928
20
-47.909961535262454
30
0
40
3.9999999999999987
210
0
220
0
230
1
100
AcDbArc
50
134.99999999999994
51
190.57633120924811
0
CIRCLE
5
265
100
AcDbEntity
8
0
100
AcDbCircle
10
41.7193000900063
20
-51.445495444690657
30
0
40
2.1499999999999999
210
0
220
-0
230
1
0
CIRCLE
5
266
100
AcDbEntity
8
0
100
AcDbCircle
10
37.2193000900063
20
-51.445495444690664
30
0
40
0.99999999999999989
210
-0
220
0
230
1
0
CIRCLE
5
267
100
AcDbEntity
8
0
100
AcDbCircle
10
46.2193000900063
20
-51.44549544469065
30
0
40
0.99999999999999989
210
0
220
-0
230
1
0
CIRCLE
5
268
100
AcDbEntity
8
0
100
AcDbCircle
10
41.719300090006314
20
-55.945495444690664
30
0
40
0.99999999999999989
210
-0
220
0
230
1
0
CIRCLE
5
269
100
AcDbEntity
8
0
100
AcDbCircle
10
55.307088331297521
20
36.353097122487625
30
0
40
1.0000000000000004
210
-0
220
0
230
1
0
CIRCLE
5
270
100
AcDbEntity
8
0
100
AcDbCircle
10
57.742470781955419
20
30.473563780543927
30
0
40
1.0000000000000002
210
-0
220
0
230
1
0
CIRCLE
5
271
100
AcDbEntity
8
0
100
AcDbCircle
10
49.427554989353837
20
33.917714671829735
30
0
40
1.0000000000000002
210
0
220
0
230
1
0
CIRCLE
5
272
100
AcDbEntity
8
0
100
AcDbCircle
10
53.585012885654628
20
32.195639226186834
30
0
40
2.1500000000000004
210
0
220
0
230
1
0
CIRCLE
5
273
100
AcDbEntity
8
0
100
AcDbCircle
10
8.0000000000000036
20
7.9999999999999982
30
0
40
0.99999999999999978
210
0
220
0
230
1
0
CIRCLE
5
274
100
AcDbEntity
8
0
100
AcDbCircle
10
10.000000000000002
20
10.00000014901161
30
0
40
0.99999999999999867
210
0
220
0
230
1
0
CIRCLE
5
275
100
AcDbEntity
8
0
100
AcDbCircle
10
0
20
0
30
0
40
8
210
0
220
0
230
1
0
CIRCLE
5
276
100
AcDbEntity
8
0
100
AcDbCircle
10
0
20
-18.384776310850231
30
0
40
1.0000000000000007
210
0
220
0
230
1
0
CIRCLE
5
277
100
AcDbEntity
8
0
100
AcDbCircle
10
-18.384776310850217
20
3.3771881233386758e-15
30
0
40
1.0000000000000007
210
0
220
0
230
1
0
CIRCLE
5
278
100
AcDbEntity
8
0
100
AcDbCircle
10
18.384776310850231
20
-4.0822403925778142e-15
30
0
40
1.0000000000000007
210
0
220
-0
230
1
0
CIRCLE
5
279
100
AcDbEntity
8
0
100
AcDbCircle
10
2.2514857462122822e-15
20
18.384776310850231
30
0
40
1.0000000000000007
210
0
220
-0
230
1
0
CIRCLE
5
280
100
AcDbEntity
8
0
100
AcDbCircle
10
-10.000000149011612
20
9.9999999999999982
30
0
40
0.99999999999999978
210
0
220
0
230
1
0
CIRCLE
5
281
100
AcDbEntity
8
0
100
AcDbCircle
10
10.00000014901161
20
-10
30
0
40
0.99999999999999867
210
0
220
0
230
1
0
LWPOLYLINE
5
282
100
AcDbEntity
8
0
100
AcDbPolyline
90
6
70
1
43
0.0
10
15.177669529663669
20
0.70710678118654835
10
11.707106930198162
20
4.1776693806520555
42
0.66817863791929955
10
10.000000149011612
20
3.4705625994655098
10
10.000000149011612
20
-3.4705625994655076
42
0.6681786379192991
10
11.707106930198162
20
-4.1776693806520555
10
15.177669529663669
20
-0.70710678118654668
42
0.4142135623730947
0
CIRCLE
5
283
100
AcDbEntity
8
0
100
AcDbCircle
10
7.9999999999999991
20
-8.0000000000000018
30
0
40
0.99999999999999978
210
0
220
0
230
1
0
CIRCLE
5
284
100
AcDbEntity
8
0
100
AcDbCircle
10
-8
20
8
30
0
40
0.99999999999999978
210
0
220
0
230
1
0
LWPOLYLINE
5
285
100
AcDbEntity
8
0
100
AcDbPolyline
90
8
70
1
43
0.0
10
-4.12842886848909
20
9.8847763108502313
10
4.12842886848909
20
9.8847763108502349
42
0.41421356237309509
10
5.12842886848909
20
10.884776310850235
10
5.12842886848909
20
14.884776310850235
42
0.41421356237309509
10
4.12842886848909
20
15.884776310850235
10
-4.12842886848909
20
15.884776310850235
42
0.41421356237309509
10
-5.12842886848909
20
14.884776310850235
10
-5.12842886848909
20
10.884776310850233
42
0.41421356237309509
0
CIRCLE
5
286
100
AcDbEntity
8
0
100
AcDbCircle
10
-10.000000000000002
20
-10.00000014901161
30
0
40
0.99999999999999978
210
0
220
0
230
1
0
LWPOLYLINE
5
287
100
AcDbEntity
8
0
100
AcDbPolyline
90
8
70
1
43
0.0
10
4.1284288684890891
20
-9.8847763108502349
10
-4.1284288684890926
20
-9.8847763108502313
42
0.41421356237309509
10
-5.1284288684890917
20
-10.884776310850233
10
-5.1284288684890944
20
-14.884776310850235
42
0.41421356237309509
10
-4.1284288684890935
20
-15.884776310850235
10
4.1284288684890882
20
-15.884776310850235
42
0.41421356237309509
10
5.1284288684890882
20
-14.884776310850235
10
5.12842886848909
20
-10.884776310850233
42
0.4142135623730952
0
CIRCLE
5
288
100
AcDbEntity
8
0
100
AcDbCircle
10
-8.0000000000000036
20
-7.9999999999999982
30
0
40
0.99999999999999978
210
0
220
0
230
1
0
LWPOLYLINE
5
289
100
AcDbEntity
8
0
100
AcDbPolyline
90
6
70
1
43
0.0
10
-15.177669529663669
20
-0.70710678118654835
10
-11.707106930198162
20
-4.1776693806520555
42
0.66817863791929955
10
-10.000000149011612
20
-3.4705625994655098
10
-10.000000149011612
20
3.4705625994655076
42
0.6681786379192991
10
-11.707106930198162
20
4.1776693806520555
10
-15.177669529663669
20
0.70710678118654668
42
0.4142135623730947
0
CIRCLE
5
290
100
AcDbEntity
8
0
100
AcDbCircle
10
-53.585012885654628
20
32.195639226186834
30
0
40
2.1500000000000004
210
-0
220
0
230
1
0
CIRCLE
5
291
100
AcDbEntity
8
0
100
AcDbCircle
10
-49.427554989353837
20
33.917714671829735
30
0
40
1.0000000000000002
210
0
220
-0
230
1
0
CIRCLE
5
292
100
AcDbEntity
8
0
100
AcDbCircle
10
-57.742470781955419
20
30.473563780543927
30
0
40
1.0000000000000002
210
-0
220
0
230
1
0
CIRCLE
5
293
100
AcDbEntity
8
0
100
AcDbCircle
10
-55.307088331297521
20
36.353097122487625
30
0
40
1.0000000000000004
210
0
220
-0
230
1
0
ENDSEC
0
SECTION
2
OBJECTS
0
DICTIONARY
5
C
100
AcDbDictionary
3
ACAD_GROUP
350
D
3
ACAD_MLINESTYLE
350
17
0
DICTIONARY
5
D
100
AcDbDictionary
0
DICTIONARY
5
1A
330
C
100
AcDbDictionary
0
DICTIONARY
5
17
100
AcDbDictionary
0
ENDSEC
0
EOF
