0
SECTION
2
HEADER
9
$INSUNITS
70
4
9
$ACADVER
1
AC1014
9
$HANDSEED
5
FFFF
0
ENDSEC
0
SECTION
2
TABLES
0
TABLE
2
VPORT
5
8
100
AcDbSymbolTable
0
ENDTAB
0
TABLE
2
LTYPE
5
5
100
AcDbSymbolTable
0
LTYPE
5
14
100
AcDbSymbolTableRecord
100
AcDbLinetypeTableRecord
2
BYBLOCK
70
0
0
LTYPE
5
15
100
AcDbSymbolTableRecord
100
AcDbLinetypeTableRecord
2
BYLAYER
70
0
0
ENDTAB
0
TABLE
2
LAYER
5
2
100
AcDbSymbolTable
70
2
0
LAYER
5
50
100
AcDbSymbolTableRecord
100
AcDbLayerTableRecord
2
0
70
0
6
CONTINUOUS
0
ENDTAB
0
TABLE
2
STYLE
5
3
100
AcDbSymbolTable
70
1
0
STYLE
5
11
100
AcDbSymbolTableRecord
100
AcDbTextStyleTableRecord
2
STANDARD
70
0
0
ENDTAB
0
TABLE
2
VIEW
5
6
100
AcDbSymbolTable
70
0
0
ENDTAB
0
TABLE
2
UCS
5
7
100
AcDbSymbolTable
70
0
0
ENDTAB
0
TABLE
2
APPID
5
9
100
AcDbSymbolTable
70
2
0
APPID
5
12
100
AcDbSymbolTableRecord
100
AcDbRegAppTableRecord
2
ACAD
70
0
0
ENDTAB
0
TABLE
2
DIMSTYLE
5
A
100
AcDbSymbolTable
70
1
0
ENDTAB
0
TABLE
2
BLOCK_RECORD
5
1
100
AcDbSymbolTable
70
1
0
BLOCK_RECORD
5
1F
100
AcDbSymbolTableRecord
100
AcDbBlockTableRecord
2
*MODEL_SPACE
0
BLOCK_RECORD
5
1B
100
AcDbSymbolTableRecord
100
AcDbBlockTableRecord
2
*PAPER_SPACE
0
ENDTAB
0
ENDSEC
0
SECTION
2
BLOCKS
0
BLOCK
5
20
100
AcDbEntity
100
AcDbBlockBegin
2
*MODEL_SPACE
0
ENDBLK
5
21
100
AcDbEntity
100
AcDbBlockEnd
0
BLOCK
5
1C
100
AcDbEntity
100
AcDbBlockBegin
2
*PAPER_SPACE
0
ENDBLK
5
1D
100
AcDbEntity
100
AcDbBlockEnd
0
ENDSEC
0
SECTION
2
ENTITIES
0
CIRCLE
5
100
100
AcDbEntity
8
0
100
AcDbCircle
10
6.8774586904424106
20
-65.87745869044241
30
0
40
2.1500000000000004
210
-0
220
0
230
1
0
CIRCLE
5
101
100
AcDbEntity
8
0
100
AcDbCircle
10
10.059439205781882
20
-62.695478175102942
30
0
40
1
210
-0
220
0
230
1
0
CIRCLE
5
102
100
AcDbEntity
8
0
100
AcDbCircle
10
3.6954781751029397
20
-69.059439205781857
30
0
40
1
210
0
220
0
230
1
0
CIRCLE
5
103
100
AcDbEntity
8
0
100
AcDbCircle
10
10.059439205781873
20
-69.059439205781871
30
0
40
1
210
0
220
0
230
1
0
CIRCLE
5
104
100
AcDbEntity
8
0
100
AcDbCircle
10
-60.656080802887232
20
-15.124571159942599
30
0
40
2.1499999999999999
210
0
220
-0
230
1
0
CIRCLE
5
105
100
AcDbEntity
8
0
100
AcDbCircle
10
-58.934005357244331
20
-10.967113263641814
30
0
40
1.0000000000000002
210
0
220
-0
230
1
0
CIRCLE
5
106
100
AcDbEntity
8
0
100
AcDbCircle
10
-62.378156248530132
20
-19.282029056243388
30
0
40
1.0000000000000002
210
-0
220
0
230
1
0
CIRCLE
5
107
100
AcDbEntity
8
0
100
AcDbCircle
10
-64.81353869918803
20
-13.402495714299691
30
0
40
1.0000000000000004
210
-0
220
0
230
1
0
CIRCLE
5
108
100
AcDbEntity
8
0
100
AcDbCircle
10
-12.999999999999996
20
12.999999999999998
30
0
40
1.0000000000000007
210
0
220
-0
230
1
0
CIRCLE
5
109
100
AcDbEntity
8
0
100
AcDbCircle
10
14.767766952966365
20
-14.767766952966364
30
0
40
0.99999999999999967
210
-0
220
0
230
1
0
CIRCLE
5
110
100
AcDbEntity
8
0
100
AcDbCircle
10
14.142135729098069
20
1.0536712058417663e-07
30
0
40
0.99999999999999889
210
-0
220
0
230
1
0
CIRCLE
5
111
100
AcDbEntity
8
0
100
AcDbCircle
10
-12.999999999999998
20
-12.999999999999996
30
0
40
1.0000000000000007
210
-0
220
0
230
1
0
CIRCLE
5
112
100
AcDbEntity
8
0
100
AcDbCircle
10
0
20
0
30
0
40
8
210
-0
220
0
230
1
0
CIRCLE
5
113
100
AcDbEntity
8
0
100
AcDbCircle
10
11.313708498984759
20
-1.1102230246251565e-15
30
0
40
0.99999999999999956
210
-0
220
0
230
1
0
CIRCLE
5
114
100
AcDbEntity
8
0
100
AcDbCircle
10
1.0536711947395361e-07
20
-14.14213572909807
30
0
40
0.99999999999999956
210
-0
220
0
230
1
0
CIRCLE
5
115
100
AcDbEntity
8
0
100
AcDbCircle
10
-2.2204460492503131e-15
20
-11.313708498984759
30
0
40
0.99999999999999956
210
-0
220
0
230
1
0
CIRCLE
5
116
100
AcDbEntity
8
0
100
AcDbCircle
10
12.999999999999998
20
12.999999999999996
30
0
40
1.0000000000000007
210
0
220
-0
230
1
0
CIRCLE
5
117
100
AcDbEntity
8
0
100
AcDbCircle
10
-1.0536711947395361e-07
20
14.14213572909807
30
0
40
0.99999999999999889
210
-0
220
0
230
1
0
LWPOLYLINE
5
118
100
AcDbEntity
8
0
100
AcDbPolyline
90
8
70
1
43
0.0
10
4.0703523113594029
20
-11.323045970842379
10
9.1015754318138971
20
-16.354269091296874
42
0.41421356237309526
10
10.515788994186991
20
-16.354269091296878
10
16.354269091296874
20
-10.515788994186996
42
0.41421356237309548
10
16.354269091296874
20
-9.1015754318138988
10
11.323045970842379
20
-4.0703523113594038
42
0.41421356237309515
10
9.9088324084692854
20
-4.0703523113594038
10
4.0703523113594011
20
-9.9088324084692871
42
0.41421356237309492
0
CIRCLE
5
119
100
AcDbEntity
8
0
100
AcDbCircle
10
2.2204460492503131e-15
20
11.313708498984759
30
0
40
0.99999999999999956
210
-0
220
0
230
1
0
LWPOLYLINE
5
120
100
AcDbEntity
8
0
100
AcDbPolyline
90
6
70
1
43
0.0
10
10.232233047033617
20
11.23223304703362
10
5.3241163498046706
20
11.23223304703362
42
0.66817863791929943
10
4.6170095686181227
20
9.5251262658470708
10
9.525126265847069
20
4.6170095686181254
42
0.66817863791929921
10
11.232233047033617
20
5.3241163498046742
10
11.232233047033617
20
10.232233047033619
42
0.41421356237309509
0
CIRCLE
5
121
100
AcDbEntity
8
0
100
AcDbCircle
10
-14.14213572909807
20
-1.0536712391484571e-07
30
0
40
0.99999999999999956
210
-0
220
0
230
1
0
CIRCLE
5
122
100
AcDbEntity
8
0
100
AcDbCircle
10
-11.313708498984759
20
-1.1102230246251565e-15
30
0
40
0.99999999999999956
210
-0
220
0
230
1
0
LWPOLYLINE
5
123
100
AcDbEntity
8
0
100
AcDbPolyline
90
6
70
1
43
0.0
10
-10.232233047033617
20
-11.23223304703362
10
-5.3241163498046706
20
-11.23223304703362
42
0.66817863791929943
10
-4.6170095686181227
20
-9.5251262658470708
10
-9.525126265847069
20
-4.6170095686181254
42
0.66817863791929921
10
-11.232233047033617
20
-5.3241163498046742
10
-11.232233047033617
20
-10.232233047033619
42
0.41421356237309509
0
LWPOLYLINE
5
124
100
AcDbEntity
8
0
100
AcDbPolyline
90
8
70
1
43
0.0
10
-9.9088324084692854
20
4.070352311359402
10
-4.0703523113594038
20
9.9088324084692854
42
0.41421356237309476
10
-4.0703523113594056
20
11.323045970842379
10
-6.8987794361055945
20
14.151473095588571
42
0.41421356237309476
10
-8.3129929984786894
20
14.151473095588571
10
-14.151473095588571
20
8.3129929984786894
42
0.41421356237309526
10
-14.151473095588569
20
6.8987794361055936
10
-11.323045970842383
20
4.0703523113594029
42
0.41421356237309565
0
CIRCLE
5
125
100
AcDbEntity
8
0
100
AcDbCircle
10
13.402495714299683
20
64.81353869918803
30
0
40
1.0000000000000002
210
-0
220
0
230
1
0
CIRCLE
5
126
100
AcDbEntity
8
0
100
AcDbCircle
10
19.282029056243385
20
62.378156248530132
30
0
40
1.0000000000000002
210
-0
220
0
230
1
0
CIRCLE
5
127
100
AcDbEntity
8
0
100
AcDbCircle
10
10.967113263641806
20
58.934005357244331
30
0
40
1.0000000000000002
210
0
220
0
230
1
0
CIRCLE
5
128
100
AcDbEntity
8
0
100
AcDbCircle
10
15.12457115994259
20
60.656080802887232
30
0
40
2.1500000000000004
210
0
220
0
230
1
0
LINE
5
129
100
AcDbEntity
8
0
100
AcDbLine
10
9.377458685499068
20
-54.37745869044241
30
0
11
9.3774586904424329
21
-32.842409750521469
31
0
0
SPLINE
5
130
100
AcDbEntity
8
0
100
AcDbSpline
70
4
71
5
72
14
73
8
74
0
42
0.000000001
43
0.0000000001
44
0.0000000001
40
0
40
0
40
0
40
0
40
0
40
0
40
0.10000000000000001
40
0.20000000000000001
40
0.24217621774218898
40
0.24217621774218898
40
0.24217621774218898
40
0.24217621774218898
40
0.24217621774218898
40
0.24217621774218898
41
1
41
1
41
1
41
1
41
1
41
1
41
1
41
1
10
9.3774586904424329
20
-32.842409750521469
30
0
10
9.3774586904424311
20
-31.893371041497126
30
0
10
9.4160773307169254
20
-30.036255488812213
30
0
10
9.5563626262432759
20
-27.886706549419436
30
0
10
9.8127561816456605
20
-25.859963970739855
30
0
10
10.194280454379001
20
-23.964508351381696
30
0
10
10.463689488393202
20
-22.899118689506793
30
0
10
10.547668374588554
20
-22.587301329763989
30
0
0
SPLINE
5
131
100
AcDbEntity
8
0
100
AcDbSpline
70
0
71
3
72
12
73
8
74
0
42
0.000000001
43
0.0000000001
44
0.0000000001
40
0
40
0
40
0
40
0
40
0.31251557870954144
40
0.31251557870954144
40
0.54414117871628087
40
0.54414117871628087
40
0.77576677872302047
40
0.77576677872302047
40
0.77576677872302047
40
0.77576677872302047
10
15.602716650617998
20
-17.126339191078117
30
0
10
14.620714828180281
20
-17.473974133730604
30
0
10
13.716002312949097
20
-18.01009228925124
30
0
10
12.363988316040226
20
-19.219200574399927
30
0
10
11.866001881056281
20
-19.814498762607609
30
0
10
11.056109618392719
20
-21.129237356705399
30
0
10
10.748452630727478
20
-21.841780408213246
30
0
10
10.547668374588559
20
-22.587301329763996
30
0
0
ARC
5
132
100
AcDbEntity
8
0
100
AcDbCircle
10
14.767766952966365
20
-14.767766952966364
30
0
40
2.502000000000006
210
-0
220
0
230
1
100
AcDbArc
50
289.49428958707091
51
340.55461298413502
0
SPLINE
5
133
100
AcDbEntity
8
0
100
AcDbSpline
70
0
71
3
72
12
73
8
74
0
42
0.000000001
43
0.0000000001
44
0.0000000001
40
0
40
0
40
0
40
0
40
0.312515578709541
40
0.312515578709541
40
0.54518801867387623
40
0.54518801867387623
40
0.77786045863821252
40
0.77786045863821252
40
0.77786045863821252
40
0.77786045863821252
10
22.60381029847003
20
-10.535588481981467
30
0
10
21.597460597315489
20
-10.80473140239766
30
0
10
20.653301745012836
20
-11.26786364432574
30
0
10
19.207405867927321
20
-12.36874529020975
30
0
10
18.661923335797322
20
-12.925821276980308
30
0
10
17.748425570430168
20
-14.17945077308822
30
0
10
17.385246184344354
20
-14.869367856089992
30
0
10
17.127050970555715
20
-15.600703279672963
30
0
0
SPLINE
5
134
100
AcDbEntity
8
0
100
AcDbSpline
70
4
71
5
72
14
73
8
74
0
42
0.000000001
43
0.0000000001
44
0.0000000001
40
0.75835728946604442
40
0.75835728946604442
40
0.75835728946604442
40
0.75835728946604442
40
0.75835728946604442
40
0.75835728946604442
40
0.79999999999999993
40
0.89999999999999991
40
1
40
1
40
1
40
1
40
1
40
1
41
1
41
1
41
1
41
1
41
1
41
1
41
1
41
1
10
22.60381029847003
20
-10.535588481981453
30
0
10
22.911876941609449
20
-10.453197682916041
30
0
10
23.973968550312126
20
-10.186434193582226
30
0
10
25.867563655280502
20
-9.8083171658038104
30
0
10
27.895053873622619
20
-9.5545928088598018
30
0
10
30.049106841704273
20
-9.4157614518939159
30
0
10
31.917101432350247
20
-9.3774586904424062
30
0
10
32.872387703968862
20
-9.377458690442408
30
0
0
LINE
5
135
100
AcDbEntity
8
0
100
AcDbLine
10
32.872387703968862
20
-9.377458690442408
30
0
11
54.37745869044241
21
-9.3774586854990574
31
0
0
ARC
5
136
100
AcDbEntity
8
0
100
AcDbCircle
10
54.377458690442431
20
-13.377458685499015
30
0
40
3.9999999999999543
210
0
220
-0
230
1
100
AcDbArc
50
34.423668790751506
51
90.000000000000313
0
ARC
5
137
100
AcDbEntity
8
0
100
AcDbCircle
10
61.801379059057311
20
-8.2896884115514489
30
0
40
5.0000000000000107
210
0
220
0
230
1
100
AcDbArc
50
214.42366879075166
51
284.9314165936039
0
LINE
5
138
100
AcDbEntity
8
0
100
AcDbLine
10
63.089692262571148
20
-13.120863122701099
30
0
11
64.577493604088289
21
-12.724116114554494
31
0
0
ARC
5
139
100
AcDbEntity
8
0
100
AcDbCircle
10
65.865806807602127
20
-17.555290825704205
30
0
40
5.0000000000000542
210
0
220
-0
230
1
100
AcDbArc
50
74.810713867045536
51
104.9314165936037
0
LINE
5
140
100
AcDbEntity
8
0
100
AcDbLine
10
67.175850424837591
20
-12.729963300971699
30
0
11
73.115449966995314
21
-14.342524195388888
31
0
0
ARC
5
141
100
AcDbEntity
8
0
100
AcDbCircle
10
73.377458690442424
20
-13.377458690442388
30
0
40
1.0000000000000129
210
0
220
0
230
1
100
AcDbArc
50
-105.18928613295543
51
21.616114807893446
0
LINE
5
142
100
AcDbEntity
8
0
100
AcDbLine
10
74.30713160214988
20
-13.009072646682087
30
0
11
72.229094221312067
21
-7.7648591505338205
31
0
0
ARC
5
143
100
AcDbEntity
8
0
100
AcDbCircle
10
76.87745877984969
20
-5.9229289317322404
30
0
40
5.0000000000003286
210
0
220
0
230
1
100
AcDbArc
50
180
51
201.61611480789281
0
LINE
5
144
100
AcDbEntity
8
0
100
AcDbLine
10
71.877458779849363
20
-5.9229289317323097
30
0
11
71.877458779849363
21
-2.2509668402103422
31
0
0
ARC
5
145
100
AcDbEntity
8
0
100
AcDbCircle
10
69.877458779849363
20
-2.2509668402103467
30
0
40
2.0000000000000018
210
0
220
-0
230
1
100
AcDbArc
50
0
51
110.32313672452666
0
LINE
5
146
100
AcDbEntity
8
0
100
AcDbLine
10
69.182830071643664
20
-0.37546931748831192
30
0
11
59.722085460312101
21
-3.8794487834250457
31
0
0
ARC
5
147
100
AcDbEntity
8
0
100
AcDbCircle
10
56.943570627489322
20
3.6225413074631208
30
0
40
8.0000000000000284
210
0
220
0
230
1
100
AcDbArc
50
269.99999988616372
51
290.32313672452648
0
LINE
5
148
100
AcDbEntity
8
0
100
AcDbLine
10
56.94357061159478
20
-4.3774586925369077
30
0
11
32.143448866051727
21
-4.3774586904416468
31
0
0
SPLINE
5
149
100
AcDbEntity
8
0
100
AcDbSpline
70
4
71
5
72
21
73
15
74
0
42
0.000000001
43
0.0000000001
44
0.0000000001
40
0.017090453304099446
40
0.017090453304099446
40
0.017090453304099446
40
0.017090453304099446
40
0.017090453304099446
40
0.017090453304099446
40
0.10000000000000001
40
0.20000000000000001
40
0.30000000000000004
40
0.40000000000000002
40
0.5
40
0.59999999999999998
40
0.69999999999999996
40
0.79999999999999993
40
0.89999999999999991
40
1
40
1
40
1
40
1
40
1
40
1
41
1
41
1
41
1
41
1
41
1
41
1
41
1
41
1
41
1
41
1
41
1
41
1
41
1
41
1
41
1
10
32.143448866051742
20
-4.3774586904416504
30
0
10
31.470789362337793
20
-4.3733494445733054
30
0
10
30.016271289061642
20
-4.3422865960629888
30
0
10
27.867296757873401
20
-4.2190066779780375
30
0
10
25.173405627860479
20
-3.8918740332016171
30
0
10
22.167660167578781
20
-3.1877743765666908
30
0
10
19.523984957874951
20
-2.1130343849172739
30
0
10
17.399791090533441
20
-0.66080040024765196
30
0
10
15.840894689999846
20
1.192501687845825
30
0
10
14.860353229810862
20
3.4397980090468003
30
0
10
14.447123750554647
20
6.0517377036106907
30
0
10
14.559258860009239
20
8.4075608963552089
30
0
10
14.888113811130701
20
10.313089593439976
30
0
10
15.2159062350563
20
11.643805322316318
30
0
10
15.406941369350369
20
12.324253564929755
30
0
0
ARC
5
150
100
AcDbEntity
8
0
100
AcDbCircle
10
12.999999999999998
20
12.999999999999996
30
0
40
2.5000000000000751
210
-0
220
0
230
1
100
AcDbArc
50
-15.682034512360842
51
111.0591607840156
0
SPLINE
5
151
100
AcDbEntity
8
0
100
AcDbSpline
70
4
71
5
72
21
73
15
74
0
42
0.000000001
43
0.0000000001
44
0.0000000001
40
-1
40
-1
40
-1
40
-1
40
-1
40
-1
40
-0.89999999999999991
40
-0.79999999999999993
40
-0.69999999999999996
40
-0.59999999999999998
40
-0.5
40
-0.40000000000000002
40
-0.30000000000000004
40
-0.20000000000000001
40
-0.10000000000000001
40
0
40
0
40
0
40
0
40
0
40
0
41
1
41
1
41
1
41
1
41
1
41
1
41
1
41
1
41
1
41
1
41
1
41
1
41
1
41
1
41
1
10
12.101670681893728
20
15.333024739738249
30
0
10
11.657025835752764
20
15.161814589240464
30
0
10
10.789054461613048
20
14.860861883692547
30
0
10
9.5510529306383969
20
14.533840606815769
30
0
10
8.0304992835822748
20
14.350428463429676
30
0
10
6.3649097091809983
20
14.566712843339628
30
0
10
4.9644066994708602
20
15.257410536351959
30
0
10
3.8684827546029563
20
16.443792760596871
30
0
10
3.1182428217074354
20
18.11145190426317
30
0
10
2.7565435950061468
20
20.215924093948779
30
0
10
2.831345243186747
20
22.70720178230404
30
0
10
3.2799944292145833
20
24.97387453684987
30
0
10
3.8545691273883276
20
26.814334165110772
30
0
10
4.3463345225685472
20
28.102300910090253
30
0
10
4.6193976625564552
20
28.761533646033239
30
0
0
LINE
5
152
100
AcDbEntity
8
0
100
AcDbLine
10
4.6193976625564552
20
28.761533646033239
30
0
11
14.015419034906795
21
51.445535880982128
31
0
0
ARC
5
153
100
AcDbEntity
8
0
100
AcDbCircle
10
21.406455301079884
20
48.384068436745977
30
0
40
8.0000000000002363
210
0
220
0
230
1
100
AcDbArc
50
137.17686327547406
51
157.50000011383639
0
LINE
5
154
100
AcDbEntity
8
0
100
AcDbLine
10
15.538811796107552
20
53.821968739120024
30
0
11
22.396536927620208
21
61.221642158884251
31
0
0
ARC
5
155
100
AcDbEntity
8
0
100
AcDbCircle
10
20.929626051377181
20
62.581117234477745
30
0
40
2.0000000000000022
210
-0
220
0
230
1
100
AcDbArc
50
-42.823136724526655
51
67.499999999999986
0
LINE
5
156
100
AcDbEntity
8
0
100
AcDbLine
10
21.69499291610736
20
64.428876299500317
30
0
11
18.302542295592875
21
65.834075356198426
31
0
0
ARC
5
157
100
AcDbEntity
8
0
100
AcDbCircle
10
20.21595945741824
20
70.453473018754764
30
0
40
4.9999999999998783
210
0
220
0
230
1
100
AcDbArc
50
225.88388519210662
51
247.50000000000048
0
LINE
5
158
100
AcDbEntity
8
0
100
AcDbLine
10
16.735385723808275
20
66.863820321779301
30
0
11
12.685594688079407
21
70.790550146490091
31
0
0
ARC
5
159
100
AcDbEntity
8
0
100
AcDbCircle
10
11.989479941357398
20
70.072619607094978
30
0
40
1.000000000000006
210
0
220
-0
230
1
100
AcDbArc
50
45.883885192106824
51
172.68928613295421
0
LINE
5
160
100
AcDbEntity
8
0
100
AcDbLine
10
10.997609276206335
20
70.199869690052878
30
0
11
10.214434941819439
21
64.095294903766629
31
0
0
ARC
5
161
100
AcDbEntity
8
0
100
AcDbCircle
10
5.2550816160641016
20
64.731545318556101
30
0
40
5.00000000000004
210
0
220
0
230
1
100
AcDbArc
50
322.56858340639633
51
352.68928613295452
0
LINE
5
162
100
AcDbEntity
8
0
100
AcDbLine
10
9.2254889309994965
20
61.692488597547438
30
0
11
8.2895855665385945
21
60.469767896535046
31
0
0
ARC
5
163
100
AcDbEntity
8
0
100
AcDbCircle
10
12.259992881473956
20
57.43071117552639
30
0
40
5.0000000000000071
210
0
220
0
230
1
100
AcDbArc
50
142.56858340639616
51
213.07633120924828
0
ARC
5
164
100
AcDbEntity
8
0
100
AcDbCircle
10
4.7184947309877554
20
52.518908487488773
30
0
40
4.0000000000000107
210
-0
220
0
230
1
100
AcDbArc
50
-22.500000000000025
51
33.076331209248217
0
LINE
5
165
100
AcDbEntity
8
0
100
AcDbLine
10
8.4140128610329139
20
50.988174758028407
30
0
11
-2.2204460492503131e-15
21
30.674950807858686
31
0
0
SPLINE
5
166
100
AcDbEntity
8
0
100
AcDbSpline
70
4
71
5
72
21
73
15
74
0
42
0.000000001
43
0.0000000001
44
0.0000000001
40
0
40
0
40
0
40
0
40
0
40
0
40
0.10000000000000001
40
0.20000000000000001
40
0.30000000000000004
40
0.40000000000000002
40
0.5
40
0.59999999999999998
40
0.69999999999999996
40
0.79999999999999993
40
0.89999999999999991
40
1
40
1
40
1
40
1
40
1
40
1
41
1
41
1
41
1
41
1
41
1
41
1
41
1
41
1
41
1
41
1
41
1
41
1
41
1
41
1
41
1
10
-2.2204460492503131e-15
20
30.674950807858686
30
0
10
-0.36182188540034188
20
29.801435504961784
30
0
10
-1.1608225808493611
20
28.13490065736671
30
0
10
-2.5853740024301275
20
25.876563221171807
30
0
10
-4.8878386508465468
20
23.293254371496769
30
0
10
-8.1784663734047491
20
20.486464149315911
30
0
10
-11.579821812725514
20
17.765458877450673
30
0
10
-14.834181775772937
20
14.847117141050916
30
0
10
-17.815315463783179
20
11.602546085760583
30
0
10
-20.624001592319445
20
8.1677098537945412
30
0
10
-23.493787442395842
20
4.8324465924529783
30
0
10
-26.062957909748292
20
2.5178642899120529
30
0
10
-28.253088364805524
20
1.1136309855007376
30
0
10
-29.845591835247482
20
0.34353173453137709
30
0
10
-30.674950807858686
20
-2.2204460492503131e-15
30
0
0
LINE
5
167
100
AcDbEntity
8
0
100
AcDbLine
10
-30.674950807858686
20
-1.9340533571739974e-15
30
0
11
-50.988174758028421
21
-8.4140128610329334
31
0
0
ARC
5
168
100
AcDbEntity
8
0
100
AcDbCircle
10
-52.518908487488773
20
-4.7184947309877767
30
0
40
4.0000000000000018
210
0
220
0
230
1
100
AcDbArc
50
236.92366879075169
51
292.49999999999983
0
ARC
5
169
100
AcDbEntity
8
0
100
AcDbCircle
10
-57.43071117552639
20
-12.259992881473956
30
0
40
5.0000000000000036
210
0
220
-0
230
1
100
AcDbArc
50
56.923668790751641
51
127.43141659360376
0
LINE
5
170
100
AcDbEntity
8
0
100
AcDbLine
10
-60.469767896535025
20
-8.2895855665386069
30
0
11
-61.692488597547438
21
-9.2254889309995036
31
0
0
ARC
5
171
100
AcDbEntity
8
0
100
AcDbCircle
10
-64.731545318556087
20
-5.2550816160641478
30
0
40
5.0000000000000018
210
-0
220
0
230
1
100
AcDbArc
50
277.31071386704531
51
307.43141659360384
0
LINE
5
172
100
AcDbEntity
8
0
100
AcDbLine
10
-64.095294903766629
20
-10.214434941819459
30
0
11
-70.199869690052864
21
-10.997609276206344
31
0
0
ARC
5
173
100
AcDbEntity
8
0
100
AcDbCircle
10
-70.072619607094978
20
-11.989479941357413
30
0
40
1.0000000000000064
210
0
220
0
230
1
100
AcDbArc
50
97.310713867044953
51
224.11611480789333
0
LINE
5
174
100
AcDbEntity
8
0
100
AcDbLine
10
-70.790550146490091
20
-12.685594688079425
30
0
11
-66.863820321779301
21
-16.735385723808282
31
0
0
ARC
5
175
100
AcDbEntity
8
0
100
AcDbCircle
10
-70.453473018754863
20
-20.215959457418329
30
0
40
4.9999999999999964
210
0
220
-0
230
1
100
AcDbArc
50
22.499999999999986
51
44.116114807893233
0
LINE
5
176
100
AcDbEntity
8
0
100
AcDbLine
10
-65.834075356198426
20
-18.302542295592879
30
0
11
-64.428876299500303
21
-21.69499291610737
31
0
0
ARC
5
177
100
AcDbEntity
8
0
100
AcDbCircle
10
-62.581117234477745
20
-20.929626051377209
30
0
40
1.9999999999999853
210
0
220
0
230
1
100
AcDbArc
50
202.49999999999969
51
312.82313672452682
0
LINE
5
178
100
AcDbEntity
8
0
100
AcDbLine
10
-61.221642158884251
20
-22.396536927620229
30
0
11
-53.82196873912001
21
-15.538811796107563
31
0
0
ARC
5
179
100
AcDbEntity
8
0
100
AcDbCircle
10
-48.384068436746084
20
-21.406455301079681
30
0
40
8.0000000000000018
210
0
220
0
230
1
100
AcDbArc
50
112.49999988616348
51
132.82313672452639
0
LINE
5
180
100
AcDbEntity
8
0
100
AcDbLine
10
-51.445535880982128
20
-14.015419034906797
30
0
11
-28.761533646033239
21
-4.619397662556457
31
0
0
SPLINE
5
181
100
AcDbEntity
8
0
100
AcDbSpline
70
4
71
5
72
21
73
15
74
0
42
0.000000001
43
0.0000000001
44
0.0000000001
40
0
40
0
40
0
40
0
40
0
40
0
40
0.10000000000000001
40
0.20000000000000001
40
0.30000000000000004
40
0.40000000000000002
40
0.5
40
0.59999999999999998
40
0.69999999999999996
40
0.79999999999999993
40
0.89999999999999991
40
1
40
1
40
1
40
1
40
1
40
1
41
1
41
1
41
1
41
1
41
1
41
1
41
1
41
1
41
1
41
1
41
1
41
1
41
1
41
1
41
1
10
-28.761533646033239
20
-4.619397662556457
30
0
10
-28.10230091009025
20
-4.3463345225685535
30
0
10
-26.814334165110779
20
-3.854569127388332
30
0
10
-24.973874536849891
20
-3.2799944292146033
30
0
10
-22.707201782304082
20
-2.8313452431868056
30
0
10
-20.215924093948836
20
-2.7565435950062298
30
0
10
-18.111451904263212
20
-3.1182428217075033
30
0
10
-16.443792760596899
20
-3.8684827546029954
30
0
10
-15.257410536351944
20
-4.9644066994708425
30
0
10
-14.566712843339573
20
-6.3649097091809441
30
0
10
-14.350428463429619
20
-8.030499283582234
30
0
10
-14.533840606815744
20
-9.5510529306383809
30
0
10
-14.860861883692543
20
-10.78905446161305
30
0
10
-15.161814589240461
20
-11.657025835752766
30
0
10
-15.333024739738248
20
-12.101670681893729
30
0
0
ARC
5
182
100
AcDbEntity
8
0
100
AcDbCircle
10
-12.999999999999998
20
-12.999999999999996
30
0
40
2.4999999999999991
210
0
220
0
230
1
100
AcDbArc
50
158.94083921598454
51
285.68203451236093
0
SPLINE
5
183
100
AcDbEntity
8
0
100
AcDbSpline
70
4
71
5
72
21
73
15
74
0
42
0.000000001
43
0.0000000001
44
0.0000000001
40
-1
40
-1
40
-1
40
-1
40
-1
40
-1
40
-0.89999999999999991
40
-0.79999999999999993
40
-0.69999999999999996
40
-0.59999999999999998
40
-0.5
40
-0.40000000000000002
40
-0.30000000000000004
40
-0.20000000000000001
40
-0.10000000000000001
40
-0.017090453302897445
40
-0.017090453302897445
40
-0.017090453302897445
40
-0.017090453302897445
40
-0.017090453302897445
40
-0.017090453302897445
41
1
41
1
41
1
41
1
41
1
41
1
41
1
41
1
41
1
41
1
41
1
41
1
41
1
41
1
41
1
10
-12.324253564929755
20
-15.406941369350369
30
0
10
-11.643805322316316
20
-15.215906235056302
30
0
10
-10.313089593439974
20
-14.888113811130701
30
0
10
-8.4075608963552071
20
-14.559258860009239
30
0
10
-6.0517377036106907
20
-14.447123750554645
30
0
10
-3.4397980090468092
20
-14.860353229810849
30
0
10
-1.1925016878458317
20
-15.840894689999839
30
0
10
0.66080040024766085
20
-17.399791090533448
30
0
10
2.1130343849172961
20
-19.523984957874969
30
0
10
3.1877743765667144
20
-22.167660167578802
30
0
10
3.8918740332033956
20
-25.173405627867975
30
0
10
4.2190066779801052
20
-27.86729675789033
30
0
10
4.3422865960645645
20
-30.01627128908904
30
0
10
4.3733494445741243
20
-31.470789362376031
30
0
10
4.3774586904419479
20
-32.143448866100485
30
0
0
LINE
5
184
100
AcDbEntity
8
0
100
AcDbLine
10
4.3774586904419479
20
-32.143448866100485
30
0
11
4.377458692536913
21
-56.943570611594758
31
0
0
ARC
5
185
100
AcDbEntity
8
0
100
AcDbCircle
10
-3.6225413074630852
20
-56.943570627489336
30
0
40
7.9999999999999982
210
-0
220
0
230
1
100
AcDbArc
50
-20.323136724526478
51
0
0
LINE
5
186
100
AcDbEntity
8
0
100
AcDbLine
10
3.8794487834250519
20
-59.722085460312108
30
0
11
0.37546931748832169
21
-69.182830071643679
31
0
0
ARC
5
187
100
AcDbEntity
8
0
100
AcDbCircle
10
2.2509668402103635
20
-69.877458779849349
30
0
40
1.9999999999999996
210
0
220
0
230
1
100
AcDbArc
50
159.6768632754742
51
269.99999999999983
0
LINE
5
188
100
AcDbEntity
8
0
100
AcDbLine
10
2.2509668402103564
20
-71.877458779849349
30
0
11
5.922928931732323
21
-71.877458779849363
31
0
0
ARC
5
189
100
AcDbEntity
8
0
100
AcDbCircle
10
5.9229289317323097
20
-76.877458779849363
30
0
40
5.0000000000000036
210
0
220
-0
230
1
100
AcDbArc
50
68.383885192106618
51
89.999999999999844
0
LINE
5
190
100
AcDbEntity
8
0
100
AcDbLine
10
7.7648591505338267
20
-72.229094221312039
30
0
11
13.009072646682093
21
-74.30713160214988
31
0
0
ARC
5
191
100
AcDbEntity
8
0
100
AcDbCircle
10
13.37745869044241
20
-73.37745869044241
30
0
40
1.0000000000000109
210
0
220
0
230
1
100
AcDbArc
50
-111.61611480789399
51
15.189286132954827
0
LINE
5
192
100
AcDbEntity
8
0
100
AcDbLine
10
14.342524195388897
20
-73.115449966995314
30
0
11
12.729963300971704
21
-67.175850424837591
31
0
0
ARC
5
193
100
AcDbEntity
8
0
100
AcDbCircle
10
17.555290825704155
20
-65.865806807602127
30
0
40
4.9999999999999991
210
0
220
0
230
1
100
AcDbArc
50
165.06858340639616
51
195.18928613295461
0
LINE
5
194
100
AcDbEntity
8
0
100
AcDbLine
10
12.724116114554505
20
-64.577493604088289
30
0
11
13.12086312270111
21
-63.089692262571134
31
0
0
ARC
5
195
100
AcDbEntity
8
0
100
AcDbCircle
10
8.2896884115514791
20
-61.801379059057304
30
0
40
4.9999999999999796
210
0
220
0
230
1
100
AcDbArc
50
-14.931416593603856
51
55.576331209248281
0
ARC
5
196
100
AcDbEntity
8
0
100
AcDbCircle
10
13.377458685499066
20
-54.377458690442417
30
0
40
3.9999999999999991
210
0
220
0
230
1
100
AcDbArc
50
180
51
235.57633120924831
0
CIRCLE
5
197
100
AcDbEntity
8
0
100
AcDbCircle
10
65.87745869044241
20
-6.8774586904424018
30
0
40
2.1499999999999999
210
-0
220
0
230
1
0
CIRCLE
5
198
100
AcDbEntity
8
0
100
AcDbCircle
10
62.695478175102942
20
-10.059439205781873
30
0
40
1
210
-0
220
0
230
1
0
CIRCLE
5
199
100
AcDbEntity
8
0
100
AcDbCircle
10
69.059439205781857
20
-3.6954781751029309
30
0
40
1
210
0
220
-0
230
1
0
CIRCLE
5
200
100
AcDbEntity
8
0
100
AcDbCircle
10
69.059439205781871
20
-10.05943920578186
30
0
40
1
210
0
220
-0
230
1
0
ENDSEC
0
SECTION
2
OBJECTS
0
DICTIONARY
5
C
100
AcDbDictionary
3
ACAD_GROUP
350
D
3
ACAD_MLINESTYLE
350
17
0
DICTIONARY
5
D
100
AcDbDictionary
0
DICTIONARY
5
1A
330
C
100
AcDbDictionary
0
DICTIONARY
5
17
100
AcDbDictionary
0
ENDSEC
0
EOF
