0
SECTION
2
HEADER
9
$INSUNITS
70
4
9
$ACADVER
1
AC1014
9
$HANDSEED
5
FFFF
0
ENDSEC
0
SECTION
2
TABLES
0
TABLE
2
VPORT
5
8
100
AcDbSymbolTable
0
ENDTAB
0
TABLE
2
LTYPE
5
5
100
AcDbSymbolTable
0
LTYPE
5
14
100
AcDbSymbolTableRecord
100
AcDbLinetypeTableRecord
2
BYBLOCK
70
0
0
LTYPE
5
15
100
AcDbSymbolTableRecord
100
AcDbLinetypeTableRecord
2
BYLAYER
70
0
0
ENDTAB
0
TABLE
2
LAYER
5
2
100
AcDbSymbolTable
70
2
0
LAYER
5
50
100
AcDbSymbolTableRecord
100
AcDbLayerTableRecord
2
0
70
0
6
CONTINUOUS
0
ENDTAB
0
TABLE
2
STYLE
5
3
100
AcDbSymbolTable
70
1
0
STYLE
5
11
100
AcDbSymbolTableRecord
100
AcDbTextStyleTableRecord
2
STANDARD
70
0
0
ENDTAB
0
TABLE
2
VIEW
5
6
100
AcDbSymbolTable
70
0
0
ENDTAB
0
TABLE
2
UCS
5
7
100
AcDbSymbolTable
70
0
0
ENDTAB
0
TABLE
2
APPID
5
9
100
AcDbSymbolTable
70
2
0
APPID
5
12
100
AcDbSymbolTableRecord
100
AcDbRegAppTableRecord
2
ACAD
70
0
0
ENDTAB
0
TABLE
2
DIMSTYLE
5
A
100
AcDbSymbolTable
70
1
0
ENDTAB
0
TABLE
2
BLOCK_RECORD
5
1
100
AcDbSymbolTable
70
1
0
BLOCK_RECORD
5
1F
100
AcDbSymbolTableRecord
100
AcDbBlockTableRecord
2
*MODEL_SPACE
0
BLOCK_RECORD
5
1B
100
AcDbSymbolTableRecord
100
AcDbBlockTableRecord
2
*PAPER_SPACE
0
ENDTAB
0
ENDSEC
0
SECTION
2
BLOCKS
0
BLOCK
5
20
100
AcDbEntity
100
AcDbBlockBegin
2
*MODEL_SPACE
0
ENDBLK
5
21
100
AcDbEntity
100
AcDbBlockEnd
0
BLOCK
5
1C
100
AcDbEntity
100
AcDbBlockBegin
2
*PAPER_SPACE
0
ENDBLK
5
1D
100
AcDbEntity
100
AcDbBlockEnd
0
ENDSEC
0
SECTION
2
ENTITIES
0
SPLINE
5
100
100
AcDbEntity
8
0
100
AcDbSpline
70
0
71
3
72
10
73
6
74
0
42
0.000000001
43
0.0000000001
44
0.0000000001
40
0
40
0
40
0
40
0
40
0.16029831770179959
40
0.16029831770179959
40
0.32059663540359923
40
0.32059663540359923
40
0.32059663540359923
40
0.32059663540359923
10
-10.584862607246361
20
-13.232312612464437
30
0
10
-10.987675675879515
20
-12.88124602311013
30
0
10
-11.331621565879077
20
-12.467868022326032
30
0
10
-11.875560032005977
20
-11.548000956518363
30
0
10
-12.072052778847283
20
-11.047430534680828
30
0
10
-12.185579729443511
20
-10.525302437456743
30
0
0
SPLINE
5
101
100
AcDbEntity
8
0
100
AcDbSpline
70
0
71
3
72
10
73
6
74
0
42
0.000000001
43
0.0000000001
44
0.0000000001
40
0
40
0
40
0
40
0
40
0.15724594999314248
40
0.15724594999314248
40
0.20828384832417796
40
0.20828384832417796
40
0.20828384832417796
40
0.20828384832417796
10
-9.3423288416198496
20
-14.880263060983633
30
0
10
-9.5647159371536947
20
-14.405625808081217
30
0
10
-9.8603609854890699
20
-13.968896577987255
30
0
10
-10.334631243015309
20
-13.461854430636908
30
0
10
-10.456954062119824
20
-13.34378967262839
30
0
10
-10.584862607246359
20
-13.232312612464437
30
0
0
SPLINE
5
102
100
AcDbEntity
8
0
100
AcDbSpline
70
4
71
5
72
16
73
10
74
0
42
0.000000001
43
0.0000000001
44
0.0000000001
40
0
40
0
40
0
40
0
40
0
40
0
40
0.10000000000000001
40
0.20000000000000001
40
0.30000000000000004
40
0.40000000000000002
40
0.45994361746363943
40
0.45994361746363943
40
0.45994361746363943
40
0.45994361746363943
40
0.45994361746363943
40
0.45994361746363943
41
1
41
1
41
1
41
1
41
1
41
1
41
1
41
1
41
1
41
1
10
-2.4999791458766185
20
-35.058841691278332
30
0
10
-2.4981618506171506
20
-34.613920783956267
30
0
10
-2.5816973894082
20
-33.578491148073788
30
0
10
-2.9684866814441486
20
-31.588634923764708
30
0
10
-3.9686962672362336
20
-28.149760659944345
30
0
10
-5.6676694175022551
20
-23.441835571944281
30
0
10
-7.2143788126547754
20
-19.627552378227769
30
0
10
-8.3682871574038753
20
-16.989040580276281
30
0
10
-9.0773938471411526
20
-15.445709620170096
30
0
10
-9.342328841619846
20
-14.880263060983637
30
0
0
ARC
5
103
100
AcDbEntity
8
0
100
AcDbCircle
10
0
20
-35.069052968476299
30
0
40
2.5
210
0
220
0
230
1
100
AcDbArc
50
-180.23402588547279
51
0.23402588547281694
0
SPLINE
5
104
100
AcDbEntity
8
0
100
AcDbSpline
70
4
71
5
72
16
73
10
74
0
42
0.000000001
43
0.0000000001
44
0.0000000001
40
0
40
0
40
0
40
0
40
0
40
0
40
0.10000000000000001
40
0.20000000000000001
40
0.30000000000000004
40
0.40000000000000002
40
0.46427806646809022
40
0.46427806646809022
40
0.46427806646809022
40
0.46427806646809022
40
0.46427806646809022
40
0.46427806646809022
41
1
41
1
41
1
41
1
41
1
41
1
41
1
41
1
41
1
41
1
10
2.4999791458766185
20
-35.058841691278332
30
0
10
2.4981618506171506
20
-34.613920783956267
30
0
10
2.5963117079042335
20
-33.553982034840864
30
0
10
3.0488801719343845
20
-31.4538100831709
30
0
10
4.2031039200142946
20
-27.756644572720319
30
0
10
6.0995199239840829
20
-22.700080040246004
30
0
10
7.7334196749599391
20
-18.727731695349092
30
0
10
8.8922259207950614
20
-16.07532818194375
30
0
10
9.5853845236684272
20
-14.555739489734876
30
0
10
9.8517364010918396
20
-13.982767367203198
30
0
0
SPLINE
5
105
100
AcDbEntity
8
0
100
AcDbSpline
70
0
71
3
72
10
73
6
74
0
42
0.000000001
43
0.0000000001
44
0.0000000001
40
0
40
0
40
0
40
0
40
0.091830324003172384
40
0.091830324003172384
40
0.18366064800634518
40
0.18366064800634518
40
0.18366064800634518
40
0.18366064800634518
10
10.910175313645427
20
-12.496007858046127
30
0
10
10.690121802359929
20
-12.708785496332117
30
0
10
10.490071892579746
20
-12.941321904920324
30
0
10
10.135021622116842
20
-13.440051080103391
30
0
10
9.9807701740835544
20
-13.705191870065615
30
0
10
9.8517364010918502
20
-13.982767367203181
30
0
0
SPLINE
5
106
100
AcDbEntity
8
0
100
AcDbSpline
70
0
71
3
72
11
73
7
74
0
42
0.000000001
43
0.0000000001
44
0.0000000001
40
-1
40
-1
40
-1
40
-1
40
-0.75
40
-0.5
40
-0.25
40
-0.21874273642487313
40
-0.21874273642487313
40
-0.21874273642487313
40
-0.21874273642487313
10
12.270038845359233
20
-10.173630125520397
30
0
10
12.196094320281958
20
-10.454710479752995
30
0
10
11.999065605101816
20
-11.003938565190015
30
0
10
11.565063824941426
20
-11.764011424316053
30
0
10
11.168890785255684
20
-12.240898791608977
30
0
10
10.936298934983506
20
-12.470747990937792
30
0
10
10.910175313645427
20
-12.496007858046125
30
0
0
SPLINE
5
107
100
AcDbEntity
8
0
100
AcDbSpline
70
4
71
5
72
12
73
6
74
0
42
0.000000001
43
0.0000000001
44
0.0000000001
40
0.60926874124038766
40
0.60926874124038766
40
0.60926874124038766
40
0.60926874124038766
40
0.60926874124038766
40
0.60926874124038766
40
0.66866454972939737
40
0.66866454972939737
40
0.66866454972939737
40
0.66866454972939737
40
0.66866454972939737
40
0.66866454972939737
41
1
41
1
41
1
41
1
41
1
41
1
10
12.270038845359261
20
-10.173630125520305
30
0
10
12.342989292156734
20
-9.8963284942523977
30
0
10
12.427949012339463
20
-9.6213447046449811
30
0
10
12.524865338931681
20
-9.3487258162441389
30
0
10
12.633654383454424
20
-9.0785176468983266
30
0
10
12.754218918640783
20
-8.8107653852070822
30
0
0
SPLINE
5
108
100
AcDbEntity
8
0
100
AcDbSpline
70
4
71
5
72
15
73
9
74
0
42
0.000000001
43
0.0000000001
44
0.0000000001
40
0.66866454972940415
40
0.66866454972940415
40
0.66866454972940415
40
0.66866454972940415
40
0.66866454972940415
40
0.66866454972940415
40
0.69999999999999996
40
0.79999999999999993
40
0.89999999999999991
40
0.909138606675993
40
0.909138606675993
40
0.909138606675993
40
0.909138606675993
40
0.909138606675993
40
0.909138606675993
41
1
41
1
41
1
41
1
41
1
41
1
41
1
41
1
41
1
10
12.754218918640852
20
-8.8107653852069312
30
0
10
12.817825157748262
20
-8.6695073083408154
30
0
10
13.098153110291246
20
-8.0803209968648595
30
0
10
13.692896067342977
20
-7.0638789056223157
30
0
10
14.492374683856921
20
-6.0479503057686879
30
0
10
15.473046406214428
20
-5.077115459606615
30
0
10
16.45929064689431
20
-4.2685333606810296
30
0
10
17.009946672381332
20
-3.8564818810374959
30
0
10
17.056307404600126
20
-3.8220487320923633
30
0
0
SPLINE
5
109
100
AcDbEntity
8
0
100
AcDbSpline
70
4
71
5
72
13
73
7
74
0
42
0.000000001
43
0.0000000001
44
0.0000000001
40
0.87001900616003502
40
0.87001900616003502
40
0.87001900616003502
40
0.87001900616003502
40
0.87001900616003502
40
0.87001900616003502
40
0.89999999999999991
40
1
40
1
40
1
40
1
40
1
40
1
41
1
41
1
41
1
41
1
41
1
41
1
41
1
10
17.056307404600034
20
-3.8220487320922421
30
0
10
17.169216477957097
20
-3.7386707992283643
30
0
10
17.66151655558566
20
-3.3814004495502017
30
0
10
18.165607938100827
20
-3.0416559857241521
30
0
10
18.679960823187702
20
-2.71698780904851
30
0
10
19.202277431893048
20
-2.4081521900415916
30
0
10
19.608915988435509
20
-2.1797894507868887
30
0
0
ARC
5
110
100
AcDbEntity
8
0
100
AcDbCircle
10
18.384776310850231
20
-4.8572257327350599e-15
30
0
40
2.5000000000000759
210
-0
220
0
230
1
100
AcDbArc
50
-60.682034512360786
51
66.059160784015589
0
SPLINE
5
111
100
AcDbEntity
8
0
100
AcDbSpline
70
4
71
5
72
12
73
6
74
0
42
0.000000001
43
0.0000000001
44
0.0000000001
40
0.99732345136573519
40
0.99732345136573519
40
0.99732345136573519
40
0.99732345136573519
40
0.99732345136573519
40
0.99732345136573519
40
1
40
1
40
1
40
1
40
1
40
1
41
1
41
1
41
1
41
1
41
1
41
1
10
19.318587561771778
20
2.3190507859148686
30
0
10
19.33471073140781
20
2.3122057506298037
30
0
10
19.350839477994089
20
2.3053693924071732
30
0
10
19.366973800593328
20
2.2985417094599243
30
0
10
19.383113698735659
20
2.2917227008933434
30
0
10
19.399259172423498
20
2.2849123667165272
30
0
0
SPLINE
5
112
100
AcDbEntity
8
0
100
AcDbSpline
70
4
71
5
72
13
73
7
74
0
42
0.000000001
43
0.0000000001
44
0.0000000001
40
0.85632244703065064
40
0.85632244703065064
40
0.85632244703065064
40
0.85632244703065064
40
0.85632244703065064
40
0.85632244703065064
40
0.89999999999999991
40
0.99732345136573408
40
0.99732345136573408
40
0.99732345136573408
40
0.99732345136573408
40
0.99732345136573408
40
0.99732345136573408
41
1
41
1
41
1
41
1
41
1
41
1
41
1
10
15.243902183196298
20
4.395165416642568
30
0
10
15.483727835889782
20
4.2460666289859192
30
0
10
16.265596336259822
20
3.7773907006973668
30
0
10
17.070519300346717
20
3.3466452324039642
30
0
10
17.893635863703565
20
2.9451655945156316
30
0
10
18.732324156786095
20
2.5679468642952292
30
0
10
19.318587561771743
20
2.3190507859148828
30
0
0
SPLINE
5
113
100
AcDbEntity
8
0
100
AcDbSpline
70
0
71
3
72
14
73
10
74
0
42
0.000000001
43
0.0000000001
44
0.0000000001
40
0
40
0
40
0
40
0
40
0.19532223669346363
40
0.19532223669346363
40
0.39064447338692726
40
0.39064447338692726
40
0.49232808160897934
40
0.49232808160897934
40
0.59401168983103159
40
0.59401168983103159
40
0.59401168983103159
40
0.59401168983103159
10
12.956425885330773
20
9.4905435909557099
30
0
10
12.845861224866738
20
8.8489261281320868
30
0
10
12.86167578075943
20
8.1918471411805065
30
0
10
13.144283017398042
20
6.9207361307748521
30
0
10
13.408373818928856
20
6.3188566213892834
30
0
10
13.974054760152978
20
5.5063643755445737
30
0
10
14.195506658459895
20
5.2486099901803982
30
0
10
14.687140367224711
20
4.7818850961846975
30
0
10
14.956050536800166
20
4.5741218002513211
30
0
10
15.243902183196301
20
4.3951654166425707
30
0
0
ARC
5
114
100
AcDbEntity
8
0
100
AcDbCircle
10
10
20
10.00000014901161
30
0
40
3.0000000000000022
210
0
220
0
230
1
100
AcDbArc
50
-9.7772869397767703
51
71.42851458279506
0
SPLINE
5
115
100
AcDbEntity
8
0
100
AcDbSpline
70
0
71
3
72
12
73
8
74
0
42
0.000000001
43
0.0000000001
44
0.0000000001
40
0
40
0
40
0
40
0
40
0.19532223669346382
40
0.19532223669346382
40
0.37320660721337218
40
0.37320660721337218
40
0.55109097773328064
40
0.55109097773328064
40
0.55109097773328064
40
0.55109097773328064
10
7.6022393605321312
20
16.848274458997391
30
0
10
7.6979657380928055
20
16.204276032459827
30
0
10
7.9185641324074805
20
15.585132072061933
30
0
10
8.5549371437454766
20
14.516197936229155
30
0
10
8.9464834195824636
20
14.064697788451973
30
0
10
9.8693681477227635
20
13.319961167059006
30
0
10
10.393391428659362
20
13.032627788209499
30
0
10
10.955462772201457
20
12.843781239555874
30
0
0
SPLINE
5
116
100
AcDbEntity
8
0
100
AcDbSpline
70
4
71
5
72
16
73
10
74
0
42
0.000000001
43
0.0000000001
44
0.0000000001
40
0
40
0
40
0
40
0
40
0
40
0
40
0.10000000000000001
40
0.20000000000000001
40
0.30000000000000004
40
0.40000000000000002
40
0.449437130352346
40
0.449437130352346
40
0.449437130352346
40
0.449437130352346
40
0.449437130352346
40
0.449437130352346
41
1
41
1
41
1
41
1
41
1
41
1
41
1
41
1
41
1
41
1
10
11.792769522400469
20
42.388178138488882
30
0
10
11.265991325474953
20
41.176278203047467
30
0
10
10.290397748321563
20
38.751708078157705
30
0
10
9.0608862966257071
20
35.112551118306683
30
0
10
7.8839898751952635
20
30.285636951392398
30
0
10
7.2349162098971256
20
25.05540124396282
30
0
10
7.1740304023124537
20
21.256335440050304
30
0
10
7.350539872734978
20
18.739180972167084
30
0
10
7.5333885105376099
20
17.311467992400893
30
0
10
7.602239360532133
20
16.848274458997391
30
0
0
ARC
5
117
100
AcDbEntity
8
0
100
AcDbCircle
10
9.4999999999999893
20
43.384776310850235
30
0
40
2.5000000000000062
210
0
220
0
230
1
100
AcDbArc
50
-23.493231644126634
51
78.158626559635778
0
LINE
5
118
100
AcDbEntity
8
0
100
AcDbLine
10
10.013007103263295
20
45.83157497686291
30
0
11
1.0260142065266142
21
47.715829393478217
31
0
0
ARC
5
119
100
AcDbEntity
8
0
100
AcDbCircle
10
-3.5388358909926865e-15
20
42.822232061452752
30
0
40
5.0000000000001155
210
0
220
-0
230
1
100
AcDbArc
50
78.158626559635962
51
101.84137344036401
0
LINE
5
120
100
AcDbEntity
8
0
100
AcDbLine
10
-1.0260142065266193
20
47.715829393478217
30
0
11
-10.013007103263295
21
45.83157497686291
31
0
0
ARC
5
121
100
AcDbEntity
8
0
100
AcDbCircle
10
-9.4999999999999929
20
43.384776310850235
30
0
40
2.500000000000004
210
0
220
0
230
1
100
AcDbArc
50
101.84137344036414
51
203.49320049633343
0
SPLINE
5
122
100
AcDbEntity
8
0
100
AcDbSpline
70
4
71
5
72
16
73
10
74
0
42
0.000000001
43
0.0000000001
44
0.0000000001
40
0
40
0
40
0
40
0
40
0
40
0
40
0.10000000000000001
40
0.20000000000000001
40
0.30000000000000004
40
0.40000000000000002
40
0.44943713304812233
40
0.44943713304812233
40
0.44943713304812233
40
0.44943713304812233
40
0.44943713304812233
40
0.44943713304812233
41
1
41
1
41
1
41
1
41
1
41
1
41
1
41
1
41
1
41
1
10
-11.792769522400469
20
42.388178138488882
30
0
10
-11.265991325474953
20
41.176278203047467
30
0
10
-10.290397748321563
20
38.751708078157719
30
0
10
-9.0608862966257142
20
35.112551118306726
30
0
10
-7.8839898751952875
20
30.285636951392554
30
0
10
-7.2349162060039527
20
25.055401212591448
30
0
10
-7.1740304013730842
20
21.256335381433757
30
0
10
-7.3505398784578713
20
18.739180890555268
30
0
10
-7.5333885237316682
20
17.311467889379916
30
0
10
-7.6022393793041427
20
16.848274332709224
30
0
0
SPLINE
5
123
100
AcDbEntity
8
0
100
AcDbSpline
70
0
71
3
72
12
73
8
74
0
42
0.000000001
43
0.0000000001
44
0.0000000001
40
0
40
0
40
0
40
0
40
0.19532223669346327
40
0.19532223669346327
40
0.37320661052195242
40
0.37320661052195242
40
0.55109098435044157
40
0.55109098435044157
40
0.55109098435044157
40
0.55109098435044157
10
-10.955462871139073
20
12.843781107368287
30
0
10
-10.338292108297086
20
13.05114012510513
30
0
10
-9.7675236614748435
20
13.377063851433119
30
0
10
-8.8269909358572409
20
14.191305225836269
30
0
10
-8.4512874654286314
20
14.656071603026344
30
0
10
-7.8802385893346019
20
15.695423367399332
30
0
10
-7.6894195566990149
20
16.261770416338855
30
0
10
-7.6022393793041543
20
16.84827433270922
30
0
0
ARC
5
124
100
AcDbEntity
8
0
100
AcDbCircle
10
-10.000000149011614
20
9.9999999999999982
30
0
40
3.0000000000000027
210
0
220
0
230
1
100
AcDbArc
50
108.57148440832678
51
189.77728656973753
0
SPLINE
5
125
100
AcDbEntity
8
0
100
AcDbSpline
70
0
71
3
72
14
73
10
74
0
42
0.000000001
43
0.0000000001
44
0.0000000001
40
0
40
0
40
0
40
0
40
0.19532223669346374
40
0.19532223669346374
40
0.39064447338692743
40
0.39064447338692743
40
0.49232808276777984
40
0.49232808276777984
40
0.59401169214863248
40
0.59401169214863248
40
0.59401169214863248
40
0.59401169214863248
10
-15.243902388038002
20
4.3951652892931676
30
0
10
-14.690973270155395
20
4.738919421401147
30
0
10
-14.210473281965346
20
5.187386428683471
30
0
10
-13.448423372012988
20
6.2432604674383789
30
0
10
-13.174159062739111
20
6.8405727676046517
30
0
10
-12.942928171102146
20
7.8032102171270559
30
0
10
-12.897480139115686
20
8.1399783056870092
30
0
10
-12.875420888183076
20
8.8175100246428855
30
0
10
-12.898866726850065
20
9.1565211774579058
30
0
10
-12.956426037632669
20
9.4905434610378876
30
0
0
SPLINE
5
126
100
AcDbEntity
8
0
100
AcDbSpline
70
4
71
5
72
13
73
7
74
0
42
0.000000001
43
0.0000000001
44
0.0000000001
40
0.85632245449189126
40
0.85632245449189126
40
0.85632245449189126
40
0.85632245449189126
40
0.85632245449189126
40
0.85632245449189126
40
0.89999999999999991
40
0.99732345136567591
40
0.99732345136567591
40
0.99732345136567591
40
0.99732345136567591
40
0.99732345136567591
40
0.99732345136567591
41
1
41
1
41
1
41
1
41
1
41
1
41
1
10
-15.243902388038004
20
4.3951652892931667
30
0
10
-15.483728001383891
20
4.2460665297836666
30
0
10
-16.265596464039945
20
3.777390632317279
30
0
10
-17.070519387458489
20
3.346645189914736
30
0
10
-17.893635908082757
20
2.9451655745551268
30
0
10
-18.732324156784706
20
2.5679468642958443
30
0
10
-19.318587561769984
20
2.31905078591562
30
0
0
SPLINE
5
127
100
AcDbEntity
8
0
100
AcDbSpline
70
4
71
5
72
12
73
6
74
0
42
0.000000001
43
0.0000000001
44
0.0000000001
40
0.99732345136567713
40
0.99732345136567713
40
0.99732345136567713
40
0.99732345136567713
40
0.99732345136567713
40
0.99732345136567713
40
1
40
1
40
1
40
1
40
1
40
1
41
1
41
1
41
1
41
1
41
1
41
1
10
-19.318587561770023
20
2.3190507859156044
30
0
10
-19.334710731406403
20
2.3122057506303904
30
0
10
-19.350839477993034
20
2.3053693924076106
30
0
10
-19.366973800592625
20
2.2985417094602134
30
0
10
-19.383113698735304
20
2.2917227008934842
30
0
10
-19.399259172423495
20
2.2849123667165205
30
0
0
ARC
5
128
100
AcDbEntity
8
0
100
AcDbCircle
10
-18.384776310850217
20
4.8572257327350599e-15
30
0
40
2.4999999999999951
210
0
220
0
230
1
100
AcDbArc
50
113.94083921598482
51
240.68203451236062
0
SPLINE
5
129
100
AcDbEntity
8
0
100
AcDbSpline
70
4
71
5
72
15
73
9
74
0
42
0.000000001
43
0.0000000001
44
0.0000000001
40
-1
40
-1
40
-1
40
-1
40
-1
40
-1
40
-0.89999999999999991
40
-0.79999999999999993
40
-0.69999999999999996
40
-0.66866453899821676
40
-0.66866453899821676
40
-0.66866453899821676
40
-0.66866453899821676
40
-0.66866453899821676
40
-0.66866453899821676
41
1
41
1
41
1
41
1
41
1
41
1
41
1
41
1
41
1
10
-19.608915988435509
20
-2.1797894507868856
30
0
10
-18.992684182932862
20
-2.525856778481097
30
0
10
-17.819941821433435
20
-3.2350306484217919
30
0
10
-16.239993992014472
20
-4.3499073459112401
30
0
10
-14.794451883755805
20
-5.664089031762142
30
0
10
-13.692895995989293
20
-7.0638789962942106
30
0
10
-13.09815302752445
20
-8.0803211383169771
30
0
10
-12.81782506612786
20
-8.6695075009062901
30
0
10
-12.754218809727396
20
-8.8107656270842316
30
0
0
SPLINE
5
130
100
AcDbEntity
8
0
100
AcDbSpline
70
4
71
5
72
13
73
7
74
0
42
0.000000001
43
0.0000000001
44
0.0000000001
40
-0.66866453899820988
40
-0.66866453899820988
40
-0.66866453899820988
40
-0.66866453899820988
40
-0.66866453899820988
40
-0.66866453899820988
40
-0.59999999999999998
40
-0.59426667600467931
40
-0.59426667600467931
40
-0.59426667600467931
40
-0.59426667600467931
40
-0.59426667600467931
40
-0.59426667600467931
41
1
41
1
41
1
41
1
41
1
41
1
41
1
10
-12.754218809727327
20
-8.8107656270843897
30
0
10
-12.61484015903854
20
-9.1203006970553488
30
0
10
-12.480875139514092
20
-9.4592374606632532
30
0
10
-12.365561635036235
20
-9.8019454600692697
30
0
10
-12.269060415299158
20
-10.148334459562385
30
0
10
-12.191448525565519
20
-10.498310931597663
30
0
10
-12.185579729443511
20
-10.525302437456743
30
0
0
LWPOLYLINE
5
131
100
AcDbEntity
8
0
100
AcDbPolyline
90
20
70
1
43
0.0
10
5.1284288684890917
20
-7.4113861139407096
42
-0.18695576126752794
10
5.9115846316284317
20
-5.3900989919568794
42
0.38745399138084663
10
5.9115846316284308
20
5.3900989919568811
42
-0.1869557612675268
10
5.1284288684890917
20
7.4113861139407069
10
5.1284288684890882
20
14.884776310850235
42
0.41421356237309409
10
4.12842886848909
20
15.884776310850235
10
-4.12842886848909
20
15.884776310850237
42
0.41421356237309276
10
-5.12842886848909
20
14.884776310850238
10
-5.12842886848909
20
7.4113861139407113
42
-0.18695576126752805
10
-5.9115846316284317
20
5.3900989919568794
42
0.38745399138084652
10
-5.9115846316284326
20
-5.3900989919568811
42
-0.18695576126752658
10
-5.1284288684890917
20
-7.4113861139407122
10
-5.1284288684890953
20
-18.000000283122063
42
0.4142135623730947
10
-4.1284288684890953
20
-19.000000283122063
10
-0.99999999999999978
20
-19.000000283122063
10
-1
20
-26.069052834365849
42
0.99999999999999989
10
1
20
-26.069052834365849
10
0.99999999999999978
20
-19.000000283122063
10
4.1284288684890864
20
-19.000000283122066
42
0.41421356237309492
10
5.1284288684890864
20
-18.000000283122066
0
CIRCLE
5
132
100
AcDbEntity
8
0
100
AcDbCircle
10
-8.0000000000000036
20
-7.9999999999999982
30
0
40
0.99999999999999978
210
0
220
-0
230
1
0
CIRCLE
5
133
100
AcDbEntity
8
0
100
AcDbCircle
10
9.4999999999999893
20
43.384776310850235
30
0
40
0.99999999999999978
210
0
220
-0
230
1
0
CIRCLE
5
134
100
AcDbEntity
8
0
100
AcDbCircle
10
-8
20
8
30
0
40
0.99999999999999978
210
0
220
-0
230
1
0
CIRCLE
5
135
100
AcDbEntity
8
0
100
AcDbCircle
10
18.384776310850231
20
-4.8572257327350599e-15
30
0
40
1.0000000000000009
210
0
220
-0
230
1
0
CIRCLE
5
136
100
AcDbEntity
8
0
100
AcDbCircle
10
10
20
10.00000014901161
30
0
40
0.99999999999999867
210
0
220
-0
230
1
0
LWPOLYLINE
5
137
100
AcDbEntity
8
0
100
AcDbPolyline
90
10
70
1
43
0.0
10
-1.234435607628847
20
23.930947910692218
42
-0.37824245188812772
10
-3.2189913610561822
20
25.682878441513797
10
-4.769418839880184
20
38.08629827210585
42
-0.39297872767245368
10
-3.1770953567292186
20
40.295529092666101
10
-0.98058067569091978
20
40.734832028873775
42
-0.099019513592784894
10
0.98058067569092389
20
40.734832028873775
10
3.1770953567292204
20
40.295529092666115
42
-0.39297872767245351
10
4.7694188398801876
20
38.08629827210585
10
3.2189913610561827
20
25.682878441513797
42
-0.37824245188812777
10
1.2344356076288456
20
23.930947910692211
0
CIRCLE
5
138
100
AcDbEntity
8
0
100
AcDbCircle
10
-18.384776310850217
20
4.8572257327350599e-15
30
0
40
1.0000000000000009
210
0
220
-0
230
1
0
CIRCLE
5
139
100
AcDbEntity
8
0
100
AcDbCircle
10
10.00000014901161
20
-10
30
0
40
0.99999999999999867
210
0
220
-0
230
1
0
CIRCLE
5
140
100
AcDbEntity
8
0
100
AcDbCircle
10
2.2514857462122822e-15
20
18.384776310850235
30
0
40
1.0000000000000007
210
0
220
-0
230
1
0
CIRCLE
5
141
100
AcDbEntity
8
0
100
AcDbCircle
10
7.9999999999999991
20
-8.0000000000000018
30
0
40
0.99999999999999978
210
0
220
-0
230
1
0
CIRCLE
5
142
100
AcDbEntity
8
0
100
AcDbCircle
10
8.0000000000000036
20
7.9999999999999982
30
0
40
0.99999999999999978
210
0
220
-0
230
1
0
LWPOLYLINE
5
143
100
AcDbEntity
8
0
100
AcDbPolyline
90
6
70
1
43
0.0
10
10.000000149011612
20
3.4705625994655098
42
-0.66817863791929999
10
11.707106930198158
20
4.1776693806520546
10
15.177669529663669
20
0.70710678118654846
42
-0.41421356237309598
10
15.177669529663669
20
-0.70710678118654835
10
11.707106930198162
20
-4.1776693806520555
42
-0.66817863791929888
10
10.000000149011612
20
-3.4705625994655076
0
CIRCLE
5
144
100
AcDbEntity
8
0
100
AcDbCircle
10
-10.000000149011614
20
9.9999999999999982
30
0
40
0.99999999999999978
210
0
220
-0
230
1
0
CIRCLE
5
145
100
AcDbEntity
8
0
100
AcDbCircle
10
-10.000000000000002
20
-10.00000014901161
30
0
40
0.99999999999999978
210
0
220
-0
230
1
0
CIRCLE
5
146
100
AcDbEntity
8
0
100
AcDbCircle
10
-9.4999999999999929
20
43.384776310850235
30
0
40
0.99999999999999978
210
0
220
-0
230
1
0
CIRCLE
5
147
100
AcDbEntity
8
0
100
AcDbCircle
10
0
20
-35.069052968476299
30
0
40
1
210
0
220
-0
230
1
0
LWPOLYLINE
5
148
100
AcDbEntity
8
0
100
AcDbPolyline
90
6
70
1
43
0.0
10
-10.000000149011612
20
-3.4705625994655098
42
-0.66817863791929999
10
-11.707106930198158
20
-4.1776693806520546
10
-15.177669529663669
20
-0.70710678118654846
42
-0.41421356237309598
10
-15.177669529663669
20
0.70710678118654835
10
-11.707106930198162
20
4.1776693806520555
42
-0.66817863791929955
10
-10.000000149011608
20
3.4705625994655076
0
ENDSEC
0
SECTION
2
OBJECTS
0
DICTIONARY
5
C
100
AcDbDictionary
3
ACAD_GROUP
350
D
3
ACAD_MLINESTYLE
350
17
0
DICTIONARY
5
D
100
AcDbDictionary
0
DICTIONARY
5
1A
330
C
100
AcDbDictionary
0
DICTIONARY
5
17
100
AcDbDictionary
0
ENDSEC
0
EOF
