0
SECTION
2
HEADER
9
$INSUNITS
70
4
9
$ACADVER
1
AC1014
9
$HANDSEED
5
FFFF
0
ENDSEC
0
SECTION
2
TABLES
0
TABLE
2
VPORT
5
8
100
AcDbSymbolTable
0
ENDTAB
0
TABLE
2
LTYPE
5
5
100
AcDbSymbolTable
0
LTYPE
5
14
100
AcDbSymbolTableRecord
100
AcDbLinetypeTableRecord
2
BYBLOCK
70
0
0
LTYPE
5
15
100
AcDbSymbolTableRecord
100
AcDbLinetypeTableRecord
2
BYLAYER
70
0
0
ENDTAB
0
TABLE
2
LAYER
5
2
100
AcDbSymbolTable
70
2
0
LAYER
5
50
100
AcDbSymbolTableRecord
100
AcDbLayerTableRecord
2
0
70
0
6
CONTINUOUS
0
ENDTAB
0
TABLE
2
STYLE
5
3
100
AcDbSymbolTable
70
1
0
STYLE
5
11
100
AcDbSymbolTableRecord
100
AcDbTextStyleTableRecord
2
STANDARD
70
0
0
ENDTAB
0
TABLE
2
VIEW
5
6
100
AcDbSymbolTable
70
0
0
ENDTAB
0
TABLE
2
UCS
5
7
100
AcDbSymbolTable
70
0
0
ENDTAB
0
TABLE
2
APPID
5
9
100
AcDbSymbolTable
70
2
0
APPID
5
12
100
AcDbSymbolTableRecord
100
AcDbRegAppTableRecord
2
ACAD
70
0
0
ENDTAB
0
TABLE
2
DIMSTYLE
5
A
100
AcDbSymbolTable
70
1
0
ENDTAB
0
TABLE
2
BLOCK_RECORD
5
1
100
AcDbSymbolTable
70
1
0
BLOCK_RECORD
5
1F
100
AcDbSymbolTableRecord
100
AcDbBlockTableRecord
2
*MODEL_SPACE
0
BLOCK_RECORD
5
1B
100
AcDbSymbolTableRecord
100
AcDbBlockTableRecord
2
*PAPER_SPACE
0
ENDTAB
0
ENDSEC
0
SECTION
2
BLOCKS
0
BLOCK
5
20
100
AcDbEntity
100
AcDbBlockBegin
2
*MODEL_SPACE
0
ENDBLK
5
21
100
AcDbEntity
100
AcDbBlockEnd
0
BLOCK
5
1C
100
AcDbEntity
100
AcDbBlockBegin
2
*PAPER_SPACE
0
ENDBLK
5
1D
100
AcDbEntity
100
AcDbBlockEnd
0
ENDSEC
0
SECTION
2
ENTITIES
0
LINE
5
100
100
AcDbEntity
8
0
100
AcDbLine
10
-56.943801266823925
20
-22.211086242872405
30
0
11
-22.1348332770431
21
-4.1476539341073071
31
0
0
ARC
5
101
100
AcDbEntity
8
0
100
AcDbCircle
10
-18.44999107114819
20
-11.248494582766844
30
0
40
8
210
0
220
-0
230
1
100
AcDbArc
50
45.000006190780603
51
117.42617173821799
0
LINE
5
102
100
AcDbEntity
8
0
100
AcDbLine
10
-12.793137432876144
20
-5.5916397220541949
30
0
11
-12.057747953034298
21
-6.3270290429791203
31
0
0
SPLINE
5
103
100
AcDbEntity
8
0
100
AcDbSpline
70
0
71
3
72
12
73
8
74
0
42
0.000000001
43
0.0000000001
44
0.0000000001
40
0.20197283097813692
40
0.20197283097813692
40
0.20197283097813692
40
0.20197283097813692
40
0.23438668403215646
40
0.23438668403215646
40
0.34462623840222079
40
0.34462623840222079
40
0.45486579277228528
40
0.45486579277228528
40
0.45486579277228528
40
0.45486579277228528
10
-11.183654632893376
20
-8.6141758997281883
30
0
10
-11.17770483976523
20
-8.5067014400674026
30
0
10
-11.177532270599553
20
-8.3987831256662719
30
0
10
-11.202490868237282
20
-7.9239272316654592
30
0
10
-11.289037491700572
20
-7.5636157964421944
30
0
10
-11.588011716320185
20
-6.8922462628102918
30
0
10
-11.797910803458842
20
-6.58686613640403
30
0
10
-12.057747953034298
20
-6.3270290429791203
30
0
0
SPLINE
5
104
100
AcDbEntity
8
0
100
AcDbSpline
70
0
71
3
72
14
73
10
74
0
42
0.000000001
43
0.0000000001
44
0.0000000001
40
0
40
0
40
0
40
0
40
0.078128894677385485
40
0.078128894677385485
40
0.15625778935477114
40
0.15625778935477114
40
0.22608455622582613
40
0.22608455622582613
40
0.29591132309688123
40
0.29591132309688123
40
0.29591132309688123
40
0.29591132309688123
10
-13.100331469390481
20
-10.502013758937686
30
0
10
-12.840111633633594
20
-10.491562007043434
30
0
10
-12.58442110089466
20
-10.4303834592419
30
0
10
-12.110882748215399
20
-10.213459885839164
30
0
10
-11.897562213025026
20
-10.059788767832176
30
0
10
-11.560733021511995
20
-9.6995415317219127
30
0
10
-11.432661173042884
20
-9.5030728511349469
30
0
10
-11.249857150842901
20
-9.0749561544435693
30
0
10
-11.196520314307477
20
-8.84657593925348
30
0
10
-11.183654632893374
20
-8.6141758997281865
30
0
0
ARC
5
105
100
AcDbEntity
8
0
100
AcDbCircle
10
-12.99999965293441
20
-12.999999652934411
30
0
40
2.4999999999999991
210
0
220
0
230
1
100
AcDbArc
50
92.300053560264757
51
357.20110576174619
0
SPLINE
5
106
100
AcDbEntity
8
0
100
AcDbSpline
70
0
71
3
72
14
73
10
74
0
42
0.000000001
43
0.0000000001
44
0.0000000001
40
0
40
0
40
0
40
0
40
0.078128894677385388
40
0.078128894677385388
40
0.15625778935477094
40
0.15625778935477094
40
0.22962787861213552
40
0.22962787861213552
40
0.30299796786950017
40
0.30299796786950017
40
0.30299796786950017
40
0.30299796786950017
10
-8.5282528876121475
20
-11.219867810503217
30
0
10
-8.7886654867061953
20
-11.222847789040308
30
0
10
-9.04600634334391
20
-11.276663648676582
30
0
10
-9.5255746813766802
20
-11.479908863411117
30
0
10
-9.743217228075201
20
-11.627395083479319
30
0
10
-10.09855645748379
20
-11.986220404912707
30
0
10
-10.237319585396335
20
-12.190098107642463
30
0
10
-10.434391727523973
20
-12.637774967321466
30
0
10
-10.491039627553755
20
-12.877800671696338
30
0
10
-10.5029819531442
20
-13.122075887044106
30
0
0
SPLINE
5
107
100
AcDbEntity
8
0
100
AcDbSpline
70
0
71
3
72
10
73
6
74
0
42
0.000000001
43
0.0000000001
44
0.0000000001
40
0
40
0
40
0
40
0
40
0.25
40
0.5
40
0.57071324945564739
40
0.57071324945564739
40
0.57071324945564739
40
0.57071324945564739
10
-6.0682769121247881
20
-12.454386681454571
30
0
10
-6.3139545849317074
20
-12.116805083775146
30
0
10
-6.948169702836827
20
-11.545917853241694
30
0
10
-7.8742385771413606
20
-11.243710720595105
30
0
10
-8.4101652313651076
20
-11.218516498460957
30
0
10
-8.5282528876121457
20
-11.219867810503217
30
0
0
ARC
5
108
100
AcDbEntity
8
0
100
AcDbCircle
10
-12.536672469557288
20
-17.161812614232218
30
0
40
8.0000000000000036
210
0
220
-0
230
1
100
AcDbArc
50
9.0008223397670815
51
36.045550613073289
0
LINE
5
109
100
AcDbEntity
8
0
100
AcDbLine
10
-4.6351837074609819
20
-15.910223487375552
30
0
11
4.8770823667330543
21
-75.962729437214747
31
0
0
ARC
5
110
100
AcDbEntity
8
0
100
AcDbCircle
10
-3.024406395363255
20
-77.214318564071391
30
0
40
8.0000000000000107
210
-0
220
0
230
1
100
AcDbArc
50
-48.141778299139432
51
9.0008223397669198
0
ARC
5
111
100
AcDbEntity
8
0
100
AcDbCircle
10
3.9821349208866952
20
-85.034700829899748
30
0
40
2.4999999999999902
210
0
220
0
230
1
100
AcDbArc
50
131.85822170086055
51
227.60279795506969
0
ARC
5
112
100
AcDbEntity
8
0
100
AcDbCircle
10
-1.7491288450129971
20
-91.311851110535457
30
0
40
6
210
-0
220
0
230
1
100
AcDbArc
50
-29.602789037901374
51
47.602797955069335
0
ARC
5
113
100
AcDbEntity
8
0
100
AcDbCircle
10
5.6413736726002295
20
-95.510716735576651
30
0
40
2.5000000000000027
210
0
220
0
230
1
100
AcDbArc
50
150.3972109620986
51
233.99999999999989
0
ARC
5
114
100
AcDbEntity
8
0
100
AcDbCircle
10
10.049762378698798
20
-89.443090222093275
30
0
40
9.9999988327454865
210
0
220
0
230
1
100
AcDbArc
50
233.99999999999997
51
243.25060139705732
0
ARC
5
115
100
AcDbEntity
8
0
100
AcDbCircle
10
6.4490503601850104
20
-96.586958521807361
30
0
40
1.9999999999999982
210
0
220
0
230
1
100
AcDbArc
50
243.25060139705758
51
314.74939258484915
0
ARC
5
116
100
AcDbEntity
8
0
100
AcDbCircle
10
12.081107923874681
20
-102.26850123477593
30
0
40
5.9999999999999982
210
0
220
-0
230
1
100
AcDbArc
50
63.250607415150732
51
134.7493925848492
0
ARC
5
117
100
AcDbEntity
8
0
100
AcDbCircle
10
15.68181971739673
20
-95.124631514519891
30
0
40
1.9999999999999953
210
0
220
0
230
1
100
AcDbArc
50
243.25060741515034
51
314.7493986029429
0
ARC
5
118
100
AcDbEntity
8
0
100
AcDbCircle
10
10.049762378698798
20
-89.443090222093275
30
0
40
9.9999988327454954
210
-0
220
0
230
1
100
AcDbArc
50
314.74939860294268
51
323.99999999999994
0
ARC
5
119
100
AcDbEntity
8
0
100
AcDbCircle
10
16.117388892182177
20
-93.851478928191838
30
0
40
2.5000000000000111
210
-0
220
0
230
1
100
AcDbArc
50
-36.000000000000206
51
47.6027890379018
0
ARC
5
120
100
AcDbEntity
8
0
100
AcDbCircle
10
21.848653635019456
20
-87.57432953953537
30
0
40
6.0000000000000036
210
0
220
0
230
1
100
AcDbArc
50
150.39720204493042
51
227.6027890379012
0
ARC
5
121
100
AcDbEntity
8
0
100
AcDbCircle
10
14.458151770892345
20
-83.375462764281153
30
0
40
2.4999999999999964
210
-0
220
0
230
1
100
AcDbArc
50
-29.602797955069818
51
63.662642709219632
0
ARC
5
122
100
AcDbEntity
8
0
100
AcDbCircle
10
19.116535704050293
20
-73.965390547167459
30
0
40
7.9999999999999698
210
0
220
0
230
1
100
AcDbArc
50
186.68166801997756
51
243.66264270921957
0
LINE
5
123
100
AcDbEntity
8
0
100
AcDbLine
10
11.170872280830507
20
-74.8962142495444
30
0
11
6.8123754067065683
21
-37.691371802462101
31
0
0
ARC
5
124
100
AcDbEntity
8
0
100
AcDbCircle
10
11.778415046218946
20
-37.109606988476493
30
0
40
5
210
0
220
-0
230
1
100
AcDbArc
50
53.513039197783804
51
186.68166801997771
0
ARC
5
125
100
AcDbEntity
8
0
100
AcDbCircle
10
16.535533702783603
20
-30.67766932651455
30
0
40
3.0000000000000031
210
0
220
0
230
1
100
AcDbArc
50
233.51303919778371
51
345.27263835045727
0
ARC
5
126
100
AcDbEntity
8
0
100
AcDbCircle
10
27.174144764514978
20
-33.474087513625854
30
0
40
8.0000000000000036
210
0
220
0
230
1
100
AcDbArc
50
135.00000000000003
51
165.27263835045724
0
LINE
5
127
100
AcDbEntity
8
0
100
AcDbLine
10
21.517290515022594
20
-27.817233264133474
30
0
11
27.817233264133478
21
-21.517290515022587
31
0
0
ARC
5
128
100
AcDbEntity
8
0
100
AcDbCircle
10
33.474087513625861
20
-27.174144764514971
30
0
40
8
210
0
220
0
230
1
100
AcDbArc
50
104.72736164954277
51
135
0
ARC
5
129
100
AcDbEntity
8
0
100
AcDbCircle
10
30.677669326514554
20
-16.535533702783599
30
0
40
2.9999999999999987
210
-0
220
0
230
1
100
AcDbArc
50
-75.272638350457171
51
41.755346757230221
0
ARC
5
130
100
AcDbEntity
8
0
100
AcDbCircle
10
36.645631188299447
20
-11.207923430224142
30
0
40
4.9999999999999991
210
0
220
0
230
1
100
AcDbArc
50
109.49038268706911
51
221.75534675723017
0
LINE
5
131
100
AcDbEntity
8
0
100
AcDbLine
10
34.977388045307016
20
-6.494435887453001
30
0
11
74.896214249546702
21
-11.170872280834203
31
0
0
ARC
5
132
100
AcDbEntity
8
0
100
AcDbCircle
10
73.96539054716925
20
-19.116535704053973
30
0
40
8.0000000000000089
210
0
220
-0
230
1
100
AcDbArc
50
26.337357290802782
51
83.318331980018783
0
ARC
5
133
100
AcDbEntity
8
0
100
AcDbCircle
10
83.375462764281167
20
-14.458151770892346
30
0
40
2.4999999999999964
210
0
220
0
230
1
100
AcDbArc
50
206.33735729080254
51
299.60279795506983
0
ARC
5
134
100
AcDbEntity
8
0
100
AcDbCircle
10
87.57432953953537
20
-21.848653635019417
30
0
40
5.9999999999999867
210
0
220
-0
230
1
100
AcDbArc
50
42.397210962098512
51
119.60279795506966
0
ARC
5
135
100
AcDbEntity
8
0
100
AcDbCircle
10
93.851478928191824
20
-16.117388892182131
30
0
40
2.5000000000000071
210
0
220
0
230
1
100
AcDbArc
50
222.39721096209919
51
305.99999999999966
0
ARC
5
136
100
AcDbEntity
8
0
100
AcDbCircle
10
89.44309022209265
20
-10.049762378698126
30
0
40
9.9999988327463925
210
0
220
0
230
1
100
AcDbArc
50
306.00000000000063
51
315.25060139705732
0
ARC
5
137
100
AcDbEntity
8
0
100
AcDbCircle
10
95.124631514519876
20
-15.681819717396701
30
0
40
1.9999999999999987
210
-0
220
0
230
1
100
AcDbArc
50
-44.749398602942563
51
26.749392584849339
0
ARC
5
138
100
AcDbEntity
8
0
100
AcDbCircle
10
102.26850123477591
20
-12.081107923874653
30
0
40
5.9999999999999893
210
0
220
0
230
1
100
AcDbArc
50
135.25060741515085
51
206.74939258484937
0
ARC
5
139
100
AcDbEntity
8
0
100
AcDbCircle
10
96.586958521807361
20
-6.449050360184998
30
0
40
2.0000000000000022
210
-0
220
0
230
1
100
AcDbArc
50
-44.749392584849204
51
26.749398602942499
0
ARC
5
140
100
AcDbEntity
8
0
100
AcDbCircle
10
89.44309022209265
20
-10.049762378698126
30
0
40
9.9999988327457778
210
0
220
-0
230
1
100
AcDbArc
50
26.749398602937681
51
35.999999999994834
0
ARC
5
141
100
AcDbEntity
8
0
100
AcDbCircle
10
95.510716735576651
20
-5.6413736726002117
30
0
40
2.5000000000000053
210
0
220
-0
230
1
100
AcDbArc
50
35.999999999999865
51
119.60278903790162
0
ARC
5
142
100
AcDbEntity
8
0
100
AcDbCircle
10
91.311851110535457
20
1.7491288450130005
30
0
40
5.9999999999999911
210
0
220
0
230
1
100
AcDbArc
50
222.39720204493028
51
299.6027890379014
0
ARC
5
143
100
AcDbEntity
8
0
100
AcDbCircle
10
85.034700829899748
20
-3.9821349208866721
30
0
40
2.4999999999999796
210
0
220
-0
230
1
100
AcDbArc
50
42.397202044930822
51
138.14177829913979
0
ARC
5
144
100
AcDbEntity
8
0
100
AcDbCircle
10
77.214318564071377
20
3.0244063953632834
30
0
40
8.0000000000000178
210
0
220
0
230
1
100
AcDbArc
50
260.99917766023293
51
318.14177829913939
0
LINE
5
145
100
AcDbEntity
8
0
100
AcDbLine
10
75.962729437214719
20
-4.8770823667330392
30
0
11
15.91022348737555
21
4.6351837074609881
31
0
0
ARC
5
146
100
AcDbEntity
8
0
100
AcDbCircle
10
17.161812614232218
20
12.536672469557292
30
0
40
8.0000000000000036
210
0
220
0
230
1
100
AcDbArc
50
233.95416353681367
51
260.99917766023287
0
SPLINE
5
147
100
AcDbEntity
8
0
100
AcDbSpline
70
0
71
3
72
10
73
6
74
0
42
0.000000001
43
0.0000000001
44
0.0000000001
40
0.42930096074669177
40
0.42930096074669177
40
0.42930096074669177
40
0.42930096074669177
40
0.5
40
0.75
40
1
40
1
40
1
40
1
10
11.219847127070935
20
8.528222610831083
30
0
10
11.218497850627571
20
8.4101582037306724
30
0
10
11.243692871140523
20
7.8742536456465171
30
0
10
11.545886816620738
20
6.9482017666907012
30
0
10
12.116772707910437
20
6.3139807230665657
30
0
10
12.454354410521873
20
6.0683003976739647
30
0
0
SPLINE
5
148
100
AcDbEntity
8
0
100
AcDbSpline
70
0
71
3
72
14
73
10
74
0
42
0.000000001
43
0.0000000001
44
0.0000000001
40
0
40
0
40
0
40
0
40
0.078128894677385527
40
0.078128894677385527
40
0.15625778935477114
40
0.15625778935477114
40
0.22962986223587223
40
0.22962986223587223
40
0.30300193511697338
40
0.30300193511697338
40
0.30300193511697338
40
0.30300193511697338
10
13.122064908042606
20
10.502982104189657
30
0
10
12.861945871282479
20
10.490266414905014
30
0
10
12.606797371161782
20
10.426865262473978
30
0
10
12.135164532180436
20
10.205829352833948
30
0
10
11.923189260320207
20
10.050307819394988
30
0
10
11.581511890195992
20
9.6784411333335623
30
0
10
11.450466982635096
20
9.4695107646933501
30
0
10
11.270272573600977
20
9.014763679170537
30
0
10
11.222642006793702
20
8.7727802172492826
30
0
10
11.219847127070935
20
8.528222610831083
30
0
0
ARC
5
149
100
AcDbEntity
8
0
100
AcDbCircle
10
13.000000376055265
20
13.000000376055267
30
0
40
2.5000000000000004
210
-0
220
0
230
1
100
AcDbArc
50
-87.201374274919118
51
177.69971373413048
0
SPLINE
5
150
100
AcDbEntity
8
0
100
AcDbSpline
70
0
71
3
72
14
73
10
74
0
42
0.000000001
43
0.0000000001
44
0.0000000001
40
0
40
0
40
0
40
0
40
0.078128894677385388
40
0.078128894677385388
40
0.15625778935477103
40
0.15625778935477103
40
0.22608215316844099
40
0.22608215316844099
40
0.29590651698211096
40
0.29590651698211096
40
0.29590651698211096
40
0.29590651698211096
10
8.6142168741001797
20
11.183675806039638
30
0
10
8.8742480788873515
20
11.198076312139499
30
0
10
9.128980504567858
20
11.263129018081287
30
0
10
9.5991715488995801
20
11.487215586144266
30
0
10
9.8101348848930652
20
11.644107058538163
30
0
10
10.141451582644219
20
12.00941969206572
30
0
10
10.266523229667271
20
12.207802103602191
30
0
10
10.442806744150538
20
12.638627385988135
30
0
10
10.49267313802998
20
12.867782008148687
30
0
10
10.502014889574705
20
13.100342338027737
30
0
0
SPLINE
5
151
100
AcDbEntity
8
0
100
AcDbSpline
70
0
71
3
72
12
73
8
74
0
42
0.000000001
43
0.0000000001
44
0.0000000001
40
0
40
0
40
0
40
0
40
0.11719334201607823
40
0.11719334201607823
40
0.23438668403215651
40
0.23438668403215651
40
0.25297552592361255
40
0.25297552592361255
40
0.25297552592361255
40
0.25297552592361255
10
6.3270109699756532
20
12.057765614829098
30
0
10
6.6032383261405965
20
11.781538258664153
30
0
10
6.9307781432671227
20
11.561905131621748
30
0
10
7.6516102311348186
20
11.260552316052856
30
0
10
8.0380109542321332
20
11.181713724693187
30
0
10
8.4906084909074071
20
11.178743972941312
30
0
10
8.552494199960039
20
11.180257609572863
30
0
10
8.6142168741001868
20
11.183675806039638
30
0
0
LINE
5
152
100
AcDbEntity
8
0
100
AcDbLine
10
6.3270109699756532
20
12.057765614829098
30
0
11
5.5916401384956371
21
12.793136446309113
31
0
0
ARC
5
153
100
AcDbEntity
8
0
100
AcDbCircle
10
11.248494387988018
20
18.449990695801493
30
0
40
7.9999999999999982
210
0
220
0
230
1
100
AcDbArc
50
152.5738282617821
51
225
0
LINE
5
154
100
AcDbEntity
8
0
100
AcDbLine
10
4.147653739328482
20
22.134832901696395
30
0
11
22.211086242872398
21
56.943801266823932
31
0
0
ARC
5
155
100
AcDbEntity
8
0
100
AcDbCircle
10
29.311926891531932
20
53.25895906092903
30
0
40
8.0000000000000071
210
0
220
0
230
1
100
AcDbArc
50
96.422404860236512
51
152.5738282617821
0
ARC
5
156
100
AcDbEntity
8
0
100
AcDbCircle
10
28.137422876201825
20
63.693063733490689
30
0
40
2.4999999999999738
210
0
220
0
230
1
100
AcDbArc
50
-83.577595139764085
51
8.1027979550702334
0
ARC
5
157
100
AcDbEntity
8
0
100
AcDbCircle
10
36.552565470772137
20
64.891135147492463
30
0
40
6.0000000000000089
210
0
220
0
230
1
100
AcDbArc
50
110.89721096209882
51
188.10279795506955
0
ARC
5
158
100
AcDbEntity
8
0
100
AcDbCircle
10
33.520679018554603
20
72.832020774477627
30
0
40
2.4999999999999876
210
0
220
0
230
1
100
AcDbArc
50
-69.10278903790136
51
14.500000000000032
0
ARC
5
159
100
AcDbEntity
8
0
100
AcDbCircle
10
26.259572845793532
20
70.954171036326557
30
0
40
9.9999988327454492
210
0
220
-0
230
1
100
AcDbArc
50
14.49999999999978
51
23.750601397057174
0
ARC
5
160
100
AcDbEntity
8
0
100
AcDbCircle
10
33.582029790959204
20
74.176220944401138
30
0
40
1.9999999999999973
210
0
220
-0
230
1
100
AcDbArc
50
23.750601397057
51
95.249392584849076
0
ARC
5
161
100
AcDbEntity
8
0
100
AcDbCircle
10
32.850101297058643
20
82.142668124908639
30
0
40
5.9999999999999867
210
0
220
0
230
1
100
AcDbArc
50
203.75060741515068
51
275.24939258484932
0
ARC
5
162
100
AcDbEntity
8
0
100
AcDbCircle
10
25.527643621926288
20
78.920616977596595
30
0
40
1.9999999999999871
210
0
220
-0
230
1
100
AcDbArc
50
23.750607415150483
51
95.249398602942648
0
ARC
5
163
100
AcDbEntity
8
0
100
AcDbCircle
10
26.259572845793532
20
70.954171036326557
30
0
40
9.9999988327454652
210
0
220
0
230
1
100
AcDbArc
50
95.249398602942904
51
104.50000000000037
0
ARC
5
164
100
AcDbEntity
8
0
100
AcDbCircle
10
24.381723107642369
20
78.215277209087631
30
0
40
2.5000000000000084
210
0
220
0
230
1
100
AcDbArc
50
104.50000000000037
51
188.10278903790152
0
ARC
5
165
100
AcDbEntity
8
0
100
AcDbCircle
10
15.966580326611549
20
77.017207104767735
30
0
40
5.9999999999999973
210
0
220
0
230
1
100
AcDbArc
50
-69.102797955069491
51
8.1027890379013012
0
ARC
5
166
100
AcDbEntity
8
0
100
AcDbCircle
10
18.998465542957671
20
69.076321005918189
30
0
40
2.5000000000000089
210
0
220
0
230
1
100
AcDbArc
50
110.89720204493004
51
206.97728476510198
0
ARC
5
167
100
AcDbEntity
8
0
100
AcDbCircle
10
9.6410079097845482
20
64.313130201072113
30
0
40
8.0000000000000089
210
0
220
0
230
1
100
AcDbArc
50
-30.291097586914713
51
26.977284765101651
0
LINE
5
168
100
AcDbEntity
8
0
100
AcDbLine
10
16.548799364827076
20
60.277982469744103
30
0
11
-2.5168762680125401
21
27.63934815193748
31
0
0
ARC
5
169
100
AcDbEntity
8
0
100
AcDbCircle
10
-6.834245927414111
20
30.161315484017486
30
0
40
5.0000000000000018
210
0
220
0
230
1
100
AcDbArc
50
224.99999999999997
51
329.70890241308524
0
LINE
5
170
100
AcDbEntity
8
0
100
AcDbLine
10
-10.36977983334685
20
26.625781578084748
30
0
11
-22.157727552977427
21
38.413729297715335
31
0
0
ARC
5
171
100
AcDbEntity
8
0
100
AcDbCircle
10
-16.500873303485051
20
44.070583547207718
30
0
40
8
210
0
220
0
230
1
100
AcDbArc
50
194.67294171570634
51
225.00000000000003
0
ARC
5
172
100
AcDbEntity
8
0
100
AcDbCircle
10
-27.142135623730951
20
41.284271247461895
30
0
40
3.0000000000000022
210
0
220
-0
230
1
100
AcDbArc
50
14.672941715706417
51
116.00426760082607
0
LINE
5
173
100
AcDbEntity
8
0
100
AcDbLine
10
-28.457449896929422
20
43.980555424383986
30
0
11
-36.41572506830569
21
40.098311478235296
31
0
0
ARC
5
174
100
AcDbEntity
8
0
100
AcDbCircle
10
-32.908220339776456
20
32.908220339776435
30
0
40
7.9999999999999707
210
0
220
0
230
1
100
AcDbArc
50
116.00426760082611
51
153.99573239917379
0
LINE
5
175
100
AcDbEntity
8
0
100
AcDbLine
10
-40.098311478235317
20
36.41572506830569
30
0
11
-43.980555424383994
21
28.457449896929429
31
0
0
ARC
5
176
100
AcDbEntity
8
0
100
AcDbCircle
10
-41.284271247461902
20
27.142135623730947
30
0
40
3.000000000000012
210
0
220
0
230
1
100
AcDbArc
50
153.99573239917376
51
255.32705828429332
0
ARC
5
177
100
AcDbEntity
8
0
100
AcDbCircle
10
-44.070583547207733
20
16.500873303485051
30
0
40
8.0000000000000036
210
0
220
-0
230
1
100
AcDbArc
50
45
51
75.327058284293699
0
LINE
5
178
100
AcDbEntity
8
0
100
AcDbLine
10
-38.413729297715349
20
22.157727552977434
30
0
11
-26.625781578084755
21
10.369779833346847
31
0
0
ARC
5
179
100
AcDbEntity
8
0
100
AcDbCircle
10
-30.161315484017489
20
6.8342459274141065
30
0
40
5.0000000000000009
210
-0
220
0
230
1
100
AcDbArc
50
-59.708902413085283
51
45.00000000000005
0
LINE
5
180
100
AcDbEntity
8
0
100
AcDbLine
10
-27.639348151937483
20
2.5168762680125316
30
0
11
-60.277982469744103
21
-16.548799364827083
31
0
0
ARC
5
181
100
AcDbEntity
8
0
100
AcDbCircle
10
-64.313130201072113
20
-9.6410079097845625
30
0
40
8.0000000000000053
210
0
220
0
230
1
100
AcDbArc
50
243.0227152348983
51
300.2910975869147
0
ARC
5
182
100
AcDbEntity
8
0
100
AcDbCircle
10
-69.076321005918203
20
-18.998465542957682
30
0
40
2.5000000000000009
210
0
220
-0
230
1
100
AcDbArc
50
63.02271523489776
51
159.10279795506958
0
ARC
5
183
100
AcDbEntity
8
0
100
AcDbCircle
10
-77.017207104767721
20
-15.966580326611561
30
0
40
6.0000000000000053
210
0
220
0
230
1
100
AcDbArc
50
261.89721096209837
51
339.10279795506955
0
ARC
5
184
100
AcDbEntity
8
0
100
AcDbCircle
10
-78.215277209087631
20
-24.381723107642376
30
0
40
2.5000000000000036
210
0
220
-0
230
1
100
AcDbArc
50
81.897210962098796
51
165.49999999999991
0
ARC
5
185
100
AcDbEntity
8
0
100
AcDbCircle
10
-70.9541710363265
20
-26.259572845793496
30
0
40
9.9999988327454901
210
0
220
0
230
1
100
AcDbArc
50
165.50000000000003
51
174.75060139705735
0
ARC
5
186
100
AcDbEntity
8
0
100
AcDbCircle
10
-78.920616977596538
20
-25.527643621926259
30
0
40
2.0000000000000409
210
0
220
0
230
1
100
AcDbArc
50
174.7506013970584
51
246.24939258484824
0
ARC
5
187
100
AcDbEntity
8
0
100
AcDbCircle
10
-82.142668124908653
20
-32.850101297058664
30
0
40
6.0000000000000009
210
-0
220
0
230
1
100
AcDbArc
50
-5.2493925848491649
51
66.249392584849318
0
ARC
5
188
100
AcDbEntity
8
0
100
AcDbCircle
10
-74.176220944401109
20
-33.582029790959211
30
0
40
2.0000000000000173
210
0
220
0
230
1
100
AcDbArc
50
174.75060741515125
51
246.24939860294231
0
ARC
5
189
100
AcDbEntity
8
0
100
AcDbCircle
10
-70.9541710363265
20
-26.259572845793496
30
0
40
9.999998832745506
210
0
220
0
230
1
100
AcDbArc
50
246.24939860294265
51
255.50000000000003
0
ARC
5
190
100
AcDbEntity
8
0
100
AcDbCircle
10
-72.832020774477627
20
-33.520679018554617
30
0
40
2.5000000000000049
210
0
220
0
230
1
100
AcDbArc
50
255.5000000000002
51
339.10278903790163
0
ARC
5
191
100
AcDbEntity
8
0
100
AcDbCircle
10
-64.891135147492449
20
-36.552565470772137
30
0
40
6
210
0
220
-0
230
1
100
AcDbArc
50
81.897202044930438
51
159.10278903790126
0
ARC
5
192
100
AcDbEntity
8
0
100
AcDbCircle
10
-63.693063733490696
20
-28.137422876201803
30
0
40
2.500000000000004
210
0
220
0
230
1
100
AcDbArc
50
261.89720204493034
51
353.5775951397635
0
ARC
5
193
100
AcDbEntity
8
0
100
AcDbCircle
10
-53.258959060929016
20
-29.311926891531943
30
0
40
8.0000000000000036
210
0
220
0
230
1
100
AcDbArc
50
117.42617173821797
51
173.5775951397635
0
ARC
5
194
100
AcDbEntity
8
0
100
AcDbCircle
10
-72.456451060653166
20
-32.068458688062144
30
0
40
0.99999999999999301
210
0
220
0
230
1
100
AcDbArc
50
165.5
51
345.49999999999994
0
LINE
5
195
100
AcDbEntity
8
0
100
AcDbLine
10
-73.424598701031258
20
-31.818078684007705
30
0
11
-73.049028694949598
21
-30.365857223440536
31
0
0
ARC
5
196
100
AcDbEntity
8
0
100
AcDbCircle
10
-72.080881054571492
20
-30.616237227494981
30
0
40
1.0000000000000018
210
0
220
0
230
1
100
AcDbArc
50
-14.499999999999607
51
165.49999914622634
0
LINE
5
197
100
AcDbEntity
8
0
100
AcDbLine
10
-71.112733414193372
20
-30.866617231549419
30
0
11
-71.488303420275059
21
-32.318838692116586
31
0
0
LWPOLYLINE
5
198
100
AcDbEntity
8
0
100
AcDbPolyline
90
4
70
1
43
0.0
10
-66.847886658679457
20
-28.354430504416598
42
-0.99999999999999989
10
-66.347126650570573
20
-26.418135223660371
10
-64.894905190003414
20
-26.793705229742038
42
-0.99999999999999989
10
-65.395665198112297
20
-28.73000051049825
0
LWPOLYLINE
5
199
100
AcDbEntity
8
0
100
AcDbPolyline
90
4
70
1
43
0.0
10
-77.013436882649586
20
-25.725440461844968
42
-0.99999999999999989
10
-76.512676874540702
20
-23.789145181088742
10
-75.060455413973543
20
-24.16471518717039
42
-0.99999999999999989
10
-75.561215422082427
20
-26.101010467926621
0
ARC
5
200
100
AcDbEntity
8
0
100
AcDbCircle
10
-69.451891011999848
20
-20.450687003524845
30
0
40
1.0000000000000018
210
0
220
0
230
1
100
AcDbArc
50
-14.500000000000064
51
165.49999914622671
0
LINE
5
201
100
AcDbEntity
8
0
100
AcDbLine
10
-68.483743371621742
20
-20.701067007579287
30
0
11
-68.859313377703415
21
-22.153288468146449
31
0
0
ARC
5
202
100
AcDbEntity
8
0
100
AcDbCircle
10
-69.827461018081522
20
-21.902908464092011
30
0
40
1.0000000000000018
210
0
220
0
230
1
100
AcDbArc
50
165.49999999999997
51
345.49999914622674
0
LINE
5
203
100
AcDbEntity
8
0
100
AcDbLine
10
-70.795608658459628
20
-21.652528460037569
30
0
11
-70.420038652377968
21
-20.20030699947041
31
0
0
CIRCLE
5
204
100
AcDbEntity
8
0
100
AcDbCircle
10
-70.9541710363265
20
-26.259572845793496
30
0
40
2.1499999999999999
210
0
220
-0
230
1
0
ARC
5
205
100
AcDbEntity
8
0
100
AcDbCircle
10
32.06845868806213
20
72.456451060653166
30
0
40
1.0000000000000018
210
-0
220
0
230
1
100
AcDbArc
50
-75.499999999999929
51
104.49999999999986
0
LINE
5
206
100
AcDbEntity
8
0
100
AcDbLine
10
32.318838692116572
20
71.488303420275059
30
0
11
30.866617231549412
21
71.112733414193386
31
0
0
ARC
5
207
100
AcDbEntity
8
0
100
AcDbCircle
10
30.616237227494967
20
72.080881054571492
30
0
40
1.0000000000000018
210
0
220
0
230
1
100
AcDbArc
50
104.49999999999986
51
284.50000000000028
0
LINE
5
208
100
AcDbEntity
8
0
100
AcDbLine
10
30.365857223440528
20
73.049028694949598
30
0
11
31.818078684007691
21
73.424598701031272
31
0
0
ARC
5
209
100
AcDbEntity
8
0
100
AcDbCircle
10
27.386282864038467
20
66.597506654625022
30
0
40
1.0000000000000018
210
0
220
-0
230
1
100
AcDbArc
50
14.4999999999996
51
194.50000000000037
0
LINE
5
210
100
AcDbEntity
8
0
100
AcDbLine
10
28.354430504416577
20
66.847886658679457
30
0
11
28.730000510498243
21
65.395665198112297
31
0
0
ARC
5
211
100
AcDbEntity
8
0
100
AcDbCircle
10
27.76185287012013
20
65.145285194057863
30
0
40
1.0000000000000018
210
0
220
0
230
1
100
AcDbArc
50
-165.50000000000037
51
14.499999999999551
0
LINE
5
212
100
AcDbEntity
8
0
100
AcDbLine
10
26.793705229742024
20
64.894905190003428
30
0
11
26.418135223660357
21
66.347126650570573
31
0
0
ARC
5
213
100
AcDbEntity
8
0
100
AcDbCircle
10
24.757292821466837
20
76.763056878595151
30
0
40
1.0000000000000018
210
0
220
-0
230
1
100
AcDbArc
50
14.4999999999996
51
194.49999999999957
0
LINE
5
214
100
AcDbEntity
8
0
100
AcDbLine
10
25.725440461844947
20
77.013436882649586
30
0
11
26.10101046792661
21
75.561215422082441
31
0
0
ARC
5
215
100
AcDbEntity
8
0
100
AcDbCircle
10
25.132862827548497
20
75.310835418027992
30
0
40
1.0000000000000018
210
0
220
0
230
1
100
AcDbArc
50
-165.49999999999963
51
14.500000000000338
0
LINE
5
216
100
AcDbEntity
8
0
100
AcDbLine
10
24.164715187170387
20
75.060455413973543
30
0
11
23.789145181088728
21
76.512676874540716
31
0
0
ARC
5
217
100
AcDbEntity
8
0
100
AcDbCircle
10
20.450687003524834
20
69.451891011999862
30
0
40
1.0000000000000018
210
0
220
0
230
1
100
AcDbArc
50
104.50000000000004
51
284.49999999999983
0
LINE
5
218
100
AcDbEntity
8
0
100
AcDbLine
10
20.200306999470392
20
70.420038652377968
30
0
11
21.652528460037551
21
70.795608658459628
31
0
0
ARC
5
219
100
AcDbEntity
8
0
100
AcDbCircle
10
21.902908464091997
20
69.827461018081522
30
0
40
1.0000000000000018
210
-0
220
0
230
1
100
AcDbArc
50
-75.500000000000142
51
104.50000000000026
0
LINE
5
220
100
AcDbEntity
8
0
100
AcDbLine
10
22.153288468146435
20
68.859313377703415
30
0
11
20.701067007579272
21
68.483743371621756
31
0
0
CIRCLE
5
221
100
AcDbEntity
8
0
100
AcDbCircle
10
26.259572845793532
20
70.954171036326557
30
0
40
2.1499999999999999
210
0
220
0
230
1
0
ARC
5
222
100
AcDbEntity
8
0
100
AcDbCircle
10
92.969801735848122
20
-14.903864344948467
30
0
40
1.0000000000000044
210
0
220
0
230
1
100
AcDbArc
50
-144.00000000000031
51
36.000000000000078
0
LINE
5
223
100
AcDbEntity
8
0
100
AcDbLine
10
92.160784741473165
20
-15.49164959724094
30
0
11
91.279106863034457
21
-14.278124105678515
31
0
0
ARC
5
224
100
AcDbEntity
8
0
100
AcDbCircle
10
92.088123857409414
20
-13.690338853386045
30
0
40
1.0000000000000044
210
0
220
-0
230
1
100
AcDbArc
50
35.999999999999609
51
215.99999999999949
0
LINE
5
225
100
AcDbEntity
8
0
100
AcDbLine
10
92.897140851784371
20
-13.102553601093573
30
0
11
93.778818730223065
21
-14.316079092655995
31
0
0
LWPOLYLINE
5
226
100
AcDbEntity
8
0
100
AcDbPolyline
90
4
70
1
43
0.0
10
85.214728495113548
20
-11.885779019639964
42
-0.99999999999999989
10
86.390298999698487
20
-13.503813008389862
10
85.176773508136066
20
-14.38549088682857
42
-0.99999999999999989
10
84.001203003551126
20
-12.767456898078674
0
LWPOLYLINE
5
227
100
AcDbEntity
8
0
100
AcDbPolyline
90
4
70
1
43
0.0
10
93.709406936050499
20
-5.7140338705689997
42
-0.99999999999999989
10
94.884977440635438
20
-7.3320678593188982
10
93.671451949073017
20
-8.213745737757602
42
-0.99999999999999989
10
92.495881444488077
20
-6.5957117490077044
0
LWPOLYLINE
5
228
100
AcDbEntity
8
0
100
AcDbPolyline
90
4
70
1
43
0.0
10
85.107361713963471
20
-5.7834456647415688
42
-0.99999999999999989
10
86.725395702713385
20
-4.6078751601566283
10
87.607073581152108
20
-5.8214006517190509
42
-0.99999999999999989
10
85.989039592402193
20
-6.9969711563039905
0
CIRCLE
5
229
100
AcDbEntity
8
0
100
AcDbCircle
10
89.44309022209265
20
-10.049762378698126
30
0
40
2.1499999999999999
210
0
220
0
230
1
0
CIRCLE
5
230
100
AcDbEntity
8
0
100
AcDbCircle
10
10.049762378698798
20
-89.443090222093275
30
0
40
2.1499999999999999
210
0
220
-0
230
1
0
ARC
5
231
100
AcDbEntity
8
0
100
AcDbCircle
10
5.1956604124491159
20
-85.916378708338428
30
0
40
1.0000000000000038
210
0
220
-0
230
1
100
AcDbArc
50
54.000000000000441
51
234.0000000000004
0
LINE
5
232
100
AcDbEntity
8
0
100
AcDbLine
10
5.7834456647415866
20
-85.107361713963471
30
0
11
6.9969711563040127
21
-85.989039592402193
31
0
0
ARC
5
233
100
AcDbEntity
8
0
100
AcDbCircle
10
6.4091859040115393
20
-86.79805658677715
30
0
40
1.0000000000000038
210
0
220
0
230
1
100
AcDbArc
50
-125.99999999999959
51
54.000000000000313
0
LINE
5
234
100
AcDbEntity
8
0
100
AcDbLine
10
5.8214006517190686
20
-87.607073581152108
30
0
11
4.6078751601566452
21
-86.725395702713385
31
0
0
LWPOLYLINE
5
235
100
AcDbEntity
8
0
100
AcDbPolyline
90
4
70
1
43
0.0
10
7.3320678593189026
20
-94.884977440635438
42
-0.99999999999999989
10
5.7140338705690086
20
-93.709406936050499
10
6.5957117490077266
20
-92.495881444488077
42
-0.99999999999999989
10
8.2137457377576197
20
-93.671451949073017
0
LWPOLYLINE
5
236
100
AcDbEntity
8
0
100
AcDbPolyline
90
4
70
1
43
0.0
10
13.503813008389871
20
-86.390298999698487
42
-0.99999999999999989
10
11.885779019639976
20
-85.214728495113548
10
12.767456898078692
20
-84.001203003551126
42
-0.99999999999999989
10
14.385490886828585
20
-85.176773508136066
0
LWPOLYLINE
5
237
100
AcDbEntity
8
0
100
AcDbPolyline
90
4
70
1
43
0.0
10
15.49164959724094
20
-92.160784741473122
42
-0.99999999999999989
10
14.316079092656013
20
-93.778818730223065
10
13.102553601093597
20
-92.897140851784371
42
-0.99999999999999989
10
14.278124105678536
20
-91.279106863034457
0
CIRCLE
5
238
100
AcDbEntity
8
0
100
AcDbCircle
10
-14.142135623730949
20
-1.1102230246251565e-15
30
0
40
1.0000001639127842
210
-0
220
0
230
1
0
CIRCLE
5
239
100
AcDbEntity
8
0
100
AcDbCircle
10
14.142135623730949
20
1.1102230246251565e-15
30
0
40
1.0000001639127842
210
-0
220
0
230
1
0
CIRCLE
5
240
100
AcDbEntity
8
0
100
AcDbCircle
10
13.000000376055265
20
13.000000376055267
30
0
40
1.0000001639127842
210
-0
220
0
230
1
0
CIRCLE
5
241
100
AcDbEntity
8
0
100
AcDbCircle
10
-3.3306690738754696e-15
20
-11.313708667572154
30
0
40
1.0000001639127842
210
0
220
-0
230
1
0
CIRCLE
5
242
100
AcDbEntity
8
0
100
AcDbCircle
10
-1.1102230246251565e-15
20
14.142135623730949
30
0
40
1.0000001639127842
210
-0
220
0
230
1
0
CIRCLE
5
243
100
AcDbEntity
8
0
100
AcDbCircle
10
3.3306690738754696e-15
20
11.313708667572154
30
0
40
1.0000001639127842
210
-0
220
0
230
1
0
CIRCLE
5
244
100
AcDbEntity
8
0
100
AcDbCircle
10
11.313708667572154
20
-1.1102230246251565e-15
30
0
40
1.0000001639127842
210
0
220
-0
230
1
0
CIRCLE
5
245
100
AcDbEntity
8
0
100
AcDbCircle
10
16.535533702783603
20
-30.67766932651455
30
0
40
1.0000000000000009
210
-0
220
0
230
1
0
CIRCLE
5
246
100
AcDbEntity
8
0
100
AcDbCircle
10
-11.313708667572154
20
-1.1102230246251565e-15
30
0
40
1.0000001639127842
210
-0
220
0
230
1
0
CIRCLE
5
247
100
AcDbEntity
8
0
100
AcDbCircle
10
-13.000000014494834
20
13.000000014494832
30
0
40
1.0000001639127842
210
-0
220
0
230
1
0
CIRCLE
5
248
100
AcDbEntity
8
0
100
AcDbCircle
10
1.1102230246251565e-15
20
-14.142135623730949
30
0
40
1.0000001639127842
210
-0
220
0
230
1
0
CIRCLE
5
249
100
AcDbEntity
8
0
100
AcDbCircle
10
-12.99999965293441
20
-12.999999652934411
30
0
40
1.0000000000000009
210
-0
220
0
230
1
0
CIRCLE
5
250
100
AcDbEntity
8
0
100
AcDbCircle
10
-41.284271247461902
20
27.142135623730947
30
0
40
0.99999999999999956
210
-0
220
0
230
1
0
CIRCLE
5
251
100
AcDbEntity
8
0
100
AcDbCircle
10
30.677669326514554
20
-16.535533702783599
30
0
40
0.99999999999999889
210
-0
220
0
230
1
0
CIRCLE
5
252
100
AcDbEntity
8
0
100
AcDbCircle
10
-27.142135623730951
20
41.284271247461895
30
0
40
1.0000000000000009
210
-0
220
0
230
1
0
CIRCLE
5
253
100
AcDbEntity
8
0
100
AcDbCircle
10
12.999999623944722
20
-12.999999623944721
30
0
40
1.0000001639127842
210
-0
220
0
230
1
0
LWPOLYLINE
5
254
100
AcDbEntity
8
0
100
AcDbPolyline
90
10
70
1
43
0.0
10
17.94562828852299
20
-16.401120945617127
10
19.18962776363977
20
-10.499182724640956
42
0.66403805724816922
10
17.674708286510409
20
-9.4489847506397293
10
15.446304848218118
20
-10.865367957461023
42
0.36871532454258044
10
15.064962935463326
20
-12.10645197377942
42
-0.67958700580658249
10
12.106451973779428
20
-15.064962935463328
42
0.36871532454258077
10
10.865367957461029
20
-15.446304848218119
10
9.4489847506397435
20
-17.674708286510391
42
0.66403805724816956
10
10.499182724640972
20
-19.189627763639759
10
16.401120945617144
20
-17.945628288522972
42
0.29713949164750425
0
LWPOLYLINE
5
255
100
AcDbEntity
8
0
100
AcDbPolyline
90
6
70
1
43
0.0
10
-23.130417637884896
20
25.529081463720814
10
-14.868775896046206
20
24.335178591332493
42
0.72137516275257652
10
-14.018643268593816
20
26.03200432621243
10
-23.47430774650066
20
35.487668804119266
42
0.72137978385731494
10
-25.171131742439421
20
34.637524143952668
10
-23.977109006371272
20
26.375762538434149
42
0.33242966322207818
0
CIRCLE
5
256
100
AcDbEntity
8
0
100
AcDbCircle
10
0
20
0
30
0
40
8
210
-0
220
0
230
1
0
LWPOLYLINE
5
257
100
AcDbEntity
8
0
100
AcDbPolyline
90
14
70
1
43
0.0
10
-21.182302371757519
20
10.356797628006781
10
-20.273775559270916
20
9.5537777318945007
42
0.2554136002237854
10
-18.40339438607203
20
9.1282569782816623
10
-16.467471863155584
20
9.6774800409592174
42
0.43155950029049028
10
-15.124705037218025
20
12.259642988268251
42
-0.62743230657504745
10
-12.259642988268254
20
15.124705037218021
42
0.43155950029048989
10
-9.6774800409592192
20
16.467471863155581
10
-9.1282605628981557
20
18.403381750878271
42
0.25541629354772888
10
-9.5537947121629454
20
20.273778079598216
10
-10.357222084750596
20
21.182747379753835
42
0.17769468669320163
10
-11.569704068723832
20
21.837648832232468
10
-22.247805423428883
20
23.380758092765312
42
0.50101731836531205
10
-23.38054848444694
20
22.248001260091868
10
-21.837215501874859
20
11.569268942203546
42
0.17769415950745424
0
LWPOLYLINE
5
258
100
AcDbEntity
8
0
100
AcDbPolyline
90
8
70
1
43
0.0
10
4.349801493445395
20
-11.397150179349671
10
7.178228618191584
20
-14.225577304095861
42
0.41421356237309592
10
8.5924421805646816
20
-14.225577304095861
10
14.225577304095879
20
-8.592442180564662
42
0.41421356237309509
10
14.225577304095875
20
-7.178228618191568
10
11.397150179349689
20
-4.3498014934453764
42
0.41421356237309515
10
9.9829366169765912
20
-4.3498014934453755
10
4.3498014934453941
20
-9.9829366169765752
42
0.41421356237309526
0
LWPOLYLINE
5
259
100
AcDbEntity
8
0
100
AcDbPolyline
90
6
70
1
43
0.0
10
15.718548786957932
20
-26.967110638020682
10
16.59308167452139
20
-22.818042107162285
42
0.54185422067428413
10
14.223588676492076
20
-20.448549109132976
10
10.074520145633683
20
-21.323081996696438
42
0.59551379209138833
10
9.5736597782280004
20
-23.008688863116774
10
14.032941920537588
20
-27.467971005426364
42
0.59551379209139066
0
LWPOLYLINE
5
260
100
AcDbEntity
8
0
100
AcDbPolyline
90
8
70
1
43
0.0
10
-26.125443107719146
20
27.258348634113393
10
-27.585490128986084
20
37.36080318391214
42
0.49736197982930302
10
-30.378388161109125
20
38.901822652593161
10
-35.224004232306847
20
36.744446152064796
42
0.18534115817718325
10
-36.744448706093145
20
35.224005369421015
10
-38.901817226133815
20
30.378438881895921
42
0.49736652817975913
10
-37.36077566685605
20
27.58553293629722
10
-27.258186168737211
20
26.125591801439949
42
0.50101731836531327
0
LWPOLYLINE
5
261
100
AcDbEntity
8
0
100
AcDbPolyline
90
6
70
1
43
0.0
10
27.467971005426357
20
-14.032941920537585
10
23.008688863116781
20
-9.5736597782280128
42
0.59551379209138855
10
21.323081996696448
20
-10.074520145633691
10
20.448549109132998
20
-14.22358867649206
42
0.54185422067428424
10
22.818042107162306
20
-16.593081674521365
10
26.967110638020678
20
-15.718548786957919
42
0.59551379209138799
0
LWPOLYLINE
5
262
100
AcDbEntity
8
0
100
AcDbPolyline
90
6
70
1
43
0.0
10
25.02903173616971
20
-18.170998075665878
10
20.640509838037243
20
-19.096002495131373
42
0.29713949164750375
10
19.096002495131398
20
-20.640509838037215
10
18.170998075665896
20
-25.029031736169681
42
0.74607279619066091
10
19.856604942086236
20
-25.942384931137102
10
25.942384931137124
20
-19.856604942086207
42
0.74607279619066269
0
LWPOLYLINE
5
263
100
AcDbEntity
8
0
100
AcDbPolyline
90
6
70
1
43
0.0
10
-35.487767151027242
20
23.474406093408607
10
-26.031623314173117
20
14.018262256554483
42
0.72137978385731494
10
-24.334799318234353
20
14.868406916721085
10
-25.528882585794825
20
23.130587355771102
42
0.3324296632220784
10
-26.375573954281208
20
23.977268430484436
10
-34.637634523574846
20
25.171231828288544
42
0.72137516275257529
0
LWPOLYLINE
5
264
100
AcDbEntity
8
0
100
AcDbPolyline
90
8
70
1
43
0.0
10
-14.225577304095863
20
7.1782286181915813
10
-11.397150179349673
20
4.3498014934453924
42
0.41421356237309526
10
-9.982936616976577
20
4.3498014934453906
10
-4.3498014934453781
20
9.982936616976593
42
0.4142135623730947
10
-4.349801493445379
20
11.397150179349687
10
-7.1782286181915698
20
14.225577304095875
42
0.41421356237309476
10
-8.5924421805646656
20
14.225577304095875
10
-14.225577304095864
20
8.5924421805646762
42
0.41421356237309509
0
ENDSEC
0
SECTION
2
OBJECTS
0
DICTIONARY
5
C
100
AcDbDictionary
3
ACAD_GROUP
350
D
3
ACAD_MLINESTYLE
350
17
0
DICTIONARY
5
D
100
AcDbDictionary
0
DICTIONARY
5
1A
330
C
100
AcDbDictionary
0
DICTIONARY
5
17
100
AcDbDictionary
0
ENDSEC
0
EOF
