0
SECTION
2
HEADER
9
$INSUNITS
70
4
9
$ACADVER
1
AC1014
9
$HANDSEED
5
FFFF
0
ENDSEC
0
SECTION
2
TABLES
0
TABLE
2
VPORT
5
8
100
AcDbSymbolTable
0
ENDTAB
0
TABLE
2
LTYPE
5
5
100
AcDbSymbolTable
0
LTYPE
5
14
100
AcDbSymbolTableRecord
100
AcDbLinetypeTableRecord
2
BYBLOCK
70
0
0
LTYPE
5
15
100
AcDbSymbolTableRecord
100
AcDbLinetypeTableRecord
2
BYLAYER
70
0
0
ENDTAB
0
TABLE
2
LAYER
5
2
100
AcDbSymbolTable
70
2
0
LAYER
5
50
100
AcDbSymbolTableRecord
100
AcDbLayerTableRecord
2
0
70
0
6
CONTINUOUS
0
ENDTAB
0
TABLE
2
STYLE
5
3
100
AcDbSymbolTable
70
1
0
STYLE
5
11
100
AcDbSymbolTableRecord
100
AcDbTextStyleTableRecord
2
STANDARD
70
0
0
ENDTAB
0
TABLE
2
VIEW
5
6
100
AcDbSymbolTable
70
0
0
ENDTAB
0
TABLE
2
UCS
5
7
100
AcDbSymbolTable
70
0
0
ENDTAB
0
TABLE
2
APPID
5
9
100
AcDbSymbolTable
70
2
0
APPID
5
12
100
AcDbSymbolTableRecord
100
AcDbRegAppTableRecord
2
ACAD
70
0
0
ENDTAB
0
TABLE
2
DIMSTYLE
5
A
100
AcDbSymbolTable
70
1
0
ENDTAB
0
TABLE
2
BLOCK_RECORD
5
1
100
AcDbSymbolTable
70
1
0
BLOCK_RECORD
5
1F
100
AcDbSymbolTableRecord
100
AcDbBlockTableRecord
2
*MODEL_SPACE
0
BLOCK_RECORD
5
1B
100
AcDbSymbolTableRecord
100
AcDbBlockTableRecord
2
*PAPER_SPACE
0
ENDTAB
0
ENDSEC
0
SECTION
2
BLOCKS
0
BLOCK
5
20
100
AcDbEntity
100
AcDbBlockBegin
2
*MODEL_SPACE
0
ENDBLK
5
21
100
AcDbEntity
100
AcDbBlockEnd
0
BLOCK
5
1C
100
AcDbEntity
100
AcDbBlockBegin
2
*PAPER_SPACE
0
ENDBLK
5
1D
100
AcDbEntity
100
AcDbBlockEnd
0
ENDSEC
0
SECTION
2
ENTITIES
0
CIRCLE
5
100
100
AcDbEntity
8
0
100
AcDbCircle
10
0
20
-10.999999701976776
30
0
40
2
210
0
220
0
230
1
0
CIRCLE
5
101
100
AcDbEntity
8
0
100
AcDbCircle
10
0
20
-4.7999997019767759
30
0
40
2
210
0
220
0
230
1
0
CIRCLE
5
102
100
AcDbEntity
8
0
100
AcDbCircle
10
0
20
1.4000002980232251
30
0
40
2
210
0
220
0
230
1
0
CIRCLE
5
103
100
AcDbEntity
8
0
100
AcDbCircle
10
0
20
7.6000002980232235
30
0
40
2
210
0
220
0
230
1
0
CIRCLE
5
104
100
AcDbEntity
8
0
100
AcDbCircle
10
0
20
13.800000298023223
30
0
40
2
210
0
220
0
230
1
0
CIRCLE
5
105
100
AcDbEntity
8
0
100
AcDbCircle
10
0
20
20.000000298023224
30
0
40
2
210
0
220
0
230
1
0
CIRCLE
5
106
100
AcDbEntity
8
0
100
AcDbCircle
10
-9.5
20
43.384776310850235
30
0
40
0.99999999999999978
210
0
220
0
230
1
0
CIRCLE
5
107
100
AcDbEntity
8
0
100
AcDbCircle
10
9.5
20
43.384776310850235
30
0
40
0.99999999999999978
210
0
220
0
230
1
0
CIRCLE
5
108
100
AcDbEntity
8
0
100
AcDbCircle
10
0
20
-35.069052968476299
30
0
40
1
210
0
220
0
230
1
0
ARC
5
109
100
AcDbEntity
8
0
100
AcDbCircle
10
-9.5
20
43.384776310850235
30
0
40
2.5000000000000004
210
0
220
-0
230
1
100
AcDbArc
50
8.3771633143441679
51
190.37030163804368
0
SPLINE
5
110
100
AcDbEntity
8
0
100
AcDbSpline
70
4
71
5
72
21
73
15
74
0
42
0.000000001
43
0.0000000001
44
0.0000000001
40
2.019420300110051e-07
40
2.019420300110051e-07
40
2.019420300110051e-07
40
2.019420300110051e-07
40
2.019420300110051e-07
40
2.019420300110051e-07
40
0.10000000000000001
40
0.20000000000000001
40
0.30000000000000004
40
0.40000000000000002
40
0.5
40
0.59999999999999998
40
0.69999999999999996
40
0.79999999999999993
40
0.89999999999999991
40
0.99513585725812681
40
0.99513585725812681
40
0.99513585725812681
40
0.99513585725812681
40
0.99513585725812681
40
0.99513585725812681
41
1
41
1
41
1
41
1
41
1
41
1
41
1
41
1
41
1
41
1
41
1
41
1
41
1
41
1
41
1
10
-11.959162269802832
20
42.934753055120026
30
0
10
-11.674827013838211
20
41.380974376306568
30
0
10
-11.102611643190484
20
38.241122523117411
30
0
10
-10.234080228142229
20
33.434208769895747
30
0
10
-9.1243722125063105
20
26.842703355571022
30
0
10
-8.1481041696861798
20
18.378540866636289
30
0
10
-7.7906487200068755
20
9.8794086046927507
30
0
10
-8.0369967685235171
20
1.5907544495638659
30
0
10
-8.1075502894475058
20
-5.961752159135032
30
0
10
-6.86752308347873
20
-12.391365112256153
30
0
10
-4.856312433887072
20
-18.500724806338781
30
0
10
-3.3258893424945852
20
-24.06765630345744
30
0
10
-2.6647676039757662
20
-29.099391695047245
30
0
10
-2.5017541497546563
20
-32.877159598878812
30
0
10
-2.4882523593136909
20
-34.826978194069923
30
0
0
ARC
5
111
100
AcDbEntity
8
0
100
AcDbCircle
10
0
20
-35.069052968476299
30
0
40
2.5000000000068088
210
0
220
0
230
1
100
AcDbArc
50
-185.55665156247147
51
5.5566515609797893
0
SPLINE
5
112
100
AcDbEntity
8
0
100
AcDbSpline
70
4
71
5
72
21
73
15
74
0
42
0.000000001
43
0.0000000001
44
0.0000000001
40
-0.99513585725812648
40
-0.99513585725812648
40
-0.99513585725812648
40
-0.99513585725812648
40
-0.99513585725812648
40
-0.99513585725812648
40
-0.89999999999999991
40
-0.79999999999999993
40
-0.69999999999999996
40
-0.59999999999999998
40
-0.5
40
-0.40000000000000002
40
-0.30000000000000004
40
-0.20000000000000001
40
-0.10000000000000001
40
-2.0193841822516153e-07
40
-2.0193841822516153e-07
40
-2.0193841822516153e-07
40
-2.0193841822516153e-07
40
-2.0193841822516153e-07
40
-2.0193841822516153e-07
41
1
41
1
41
1
41
1
41
1
41
1
41
1
41
1
41
1
41
1
41
1
41
1
41
1
41
1
41
1
10
2.4882523593136914
20
-34.826978194069895
30
0
10
2.5017541497546576
20
-32.877159598878777
30
0
10
2.6647676039757684
20
-29.099391695047228
30
0
10
3.3258893424945879
20
-24.067656303457426
30
0
10
4.8563124338870738
20
-18.500724806338773
30
0
10
6.86752308347873
20
-12.391365112256153
30
0
10
8.1075502894475058
20
-5.961752159135032
30
0
10
8.0369967685235171
20
1.5907544495638659
30
0
10
7.7906487200068755
20
9.8794086046927507
30
0
10
8.1481041696861798
20
18.378540866636289
30
0
10
9.1243722125133626
20
26.842703355632164
30
0
10
10.234080228162272
20
33.434208770014784
30
0
10
11.102611643221854
20
38.241122523291025
30
0
10
11.674827013879543
20
41.380974376533366
30
0
10
11.959162269854179
20
42.93475305540062
30
0
0
ARC
5
113
100
AcDbEntity
8
0
100
AcDbCircle
10
9.5
20
43.384776310850235
30
0
40
2.4999999999839679
210
-0
220
0
230
1
100
AcDbArc
50
-10.370301631506216
51
171.62283668565584
0
LINE
5
114
100
AcDbEntity
8
0
100
AcDbLine
10
7.026673801306595
20
43.748998104345404
30
0
11
5.3279218729338798
21
32.213258825249106
31
0
0
ARC
5
115
100
AcDbEntity
8
0
100
AcDbCircle
10
-2.5867219628850102
20
33.378768564433663
30
0
40
7.9999999999999982
210
-0
220
0
230
1
100
AcDbArc
50
320.19442890773485
51
351.62283668565573
0
LINE
5
116
100
AcDbEntity
8
0
100
AcDbLine
10
3.5590482738939966
20
28.257293367117828
30
0
11
1.5364425591947546
21
25.83016650947874
31
0
0
ARC
5
117
100
AcDbEntity
8
0
100
AcDbCircle
10
2.7755575615628914e-16
20
27.110535308807702
30
0
40
2.0000000000000009
210
0
220
0
230
1
100
AcDbArc
50
219.80557109226527
51
320.19442890773485
0
LINE
5
118
100
AcDbEntity
8
0
100
AcDbLine
10
-1.5364425591947506
20
25.83016650947874
30
0
11
-3.5590482738939979
21
28.257293367117832
31
0
0
ARC
5
119
100
AcDbEntity
8
0
100
AcDbCircle
10
2.5867219628850089
20
33.37876856443367
30
0
40
8
210
0
220
0
230
1
100
AcDbArc
50
188.3771633143443
51
219.80557109226518
0
LINE
5
120
100
AcDbEntity
8
0
100
AcDbLine
10
-5.3279218729338806
20
32.213258825249113
30
0
11
-7.026673801306595
21
43.748998104345404
31
0
0
ENDSEC
0
SECTION
2
OBJECTS
0
DICTIONARY
5
C
100
AcDbDictionary
3
ACAD_GROUP
350
D
3
ACAD_MLINESTYLE
350
17
0
DICTIONARY
5
D
100
AcDbDictionary
0
DICTIONARY
5
1A
330
C
100
AcDbDictionary
0
DICTIONARY
5
17
100
AcDbDictionary
0
ENDSEC
0
EOF
